<?xml version="1.0" encoding="UTF-8" standalone="no"?>
<!DOCTYPE svg PUBLIC "-//W3C//DTD SVG 1.1//EN"
 "http://www.w3.org/Graphics/SVG/1.1/DTD/svg11.dtd">
<!-- Generated by graphviz version 2.40.1 (20161225.0304)
 -->
<!-- Title: G Pages: 1 -->
<svg width="1406pt" height="1130pt"
 viewBox="0.00 0.00 1405.78 1129.98" xmlns="http://www.w3.org/2000/svg" xmlns:xlink="http://www.w3.org/1999/xlink">
<g id="graph0" class="graph" transform="scale(1 1) rotate(0) translate(7.992 1121.992)">
<title>G</title>
<polygon fill="#eeeeff" stroke="transparent" points="-7.992,7.992 -7.992,-1121.992 1397.792,-1121.992 1397.792,7.992 -7.992,7.992"/>
<!-- ../package.json -->
<g id="node1" class="node">
<title>../package.json</title>
<polygon fill="none" stroke="#0c821d" stroke-width="4" points="198.8,-956 74.8,-956 74.8,-920 198.8,-920 198.8,-956"/>
<text text-anchor="middle" x="136.8" y="-935.6" font-family="Fira Code" font-size="12.00" fill="#0c821d">../package.json</text>
</g>
<!-- combinators/constant.js -->
<g id="node2" class="node">
<title>combinators/constant.js</title>
<polygon fill="none" stroke="#0c821d" stroke-width="4" points="181.4004,-841 .1996,-841 .1996,-805 181.4004,-805 181.4004,-841"/>
<text text-anchor="middle" x="90.8" y="-820.6" font-family="Fira Code" font-size="12.00" fill="#0c821d">combinators/constant.js</text>
</g>
<!-- combinators/identity.js -->
<g id="node3" class="node">
<title>combinators/identity.js</title>
<polygon fill="none" stroke="#0c821d" stroke-width="4" points="381.4004,-841 200.1996,-841 200.1996,-805 381.4004,-805 381.4004,-841"/>
<text text-anchor="middle" x="290.8" y="-820.6" font-family="Fira Code" font-size="12.00" fill="#0c821d">combinators/identity.js</text>
</g>
<!-- combinators/index.js -->
<g id="node4" class="node">
<title>combinators/index.js</title>
<polygon fill="none" stroke="#242424" stroke-width="4" points="376.8,-956 216.8,-956 216.8,-920 376.8,-920 376.8,-956"/>
<text text-anchor="middle" x="296.8" y="-935.6" font-family="Fira Code" font-size="12.00" fill="#242424">combinators/index.js</text>
</g>
<!-- combinators/index.js&#45;&gt;combinators/constant.js -->
<g id="edge1" class="edge">
<title>combinators/index.js&#45;&gt;combinators/constant.js</title>
<path fill="none" stroke="#242424" d="M264.1587,-919.7779C228.4485,-899.8426 171.1249,-867.8416 132.2595,-846.1448"/>
<polygon fill="#242424" stroke="#242424" points="133.7262,-842.9553 123.2886,-841.1368 130.3141,-849.0674 133.7262,-842.9553"/>
</g>
<!-- combinators/index.js&#45;&gt;combinators/identity.js -->
<g id="edge2" class="edge">
<title>combinators/index.js&#45;&gt;combinators/identity.js</title>
<path fill="none" stroke="#242424" d="M295.8493,-919.7779C294.8882,-901.3567 293.3895,-872.6329 292.2743,-851.2569"/>
<polygon fill="#242424" stroke="#242424" points="295.7626,-850.9409 291.7463,-841.1368 288.7721,-851.3056 295.7626,-850.9409"/>
</g>
<!-- curry/ify.js -->
<g id="node5" class="node">
<title>curry/ify.js</title>
<polygon fill="none" stroke="#242424" stroke-width="4" points="547.2008,-151 444.3992,-151 444.3992,-115 547.2008,-115 547.2008,-151"/>
<text text-anchor="middle" x="495.8" y="-130.6" font-family="Fira Code" font-size="12.00" fill="#242424">curry/ify.js</text>
</g>
<!-- Ⓜ fast.js/array/some.js -->
<g id="node6" class="node">
<title>Ⓜ fast.js/array/some.js</title>
<polygon fill="none" stroke="#0c821d" stroke-width="4" points="727.2004,-36 540.3996,-36 540.3996,0 727.2004,0 727.2004,-36"/>
<text text-anchor="middle" x="633.8" y="-16.8" font-family="Fira Code" font-size="12.00" fill="#0c821d">Ⓜ fast.js/array/some.js</text>
</g>
<!-- curry/ify.js&#45;&gt;Ⓜ fast.js/array/some.js -->
<g id="edge3" class="edge">
<title>curry/ify.js&#45;&gt;Ⓜ fast.js/array/some.js</title>
<path fill="none" stroke="#242424" d="M517.6665,-114.7779C540.9832,-95.3473 578.055,-64.4542 604.0254,-42.8121"/>
<polygon fill="#242424" stroke="#242424" points="606.5942,-45.2275 612.0358,-36.1368 602.1129,-39.8499 606.5942,-45.2275"/>
</g>
<!-- curry/index.js -->
<g id="node7" class="node">
<title>curry/index.js</title>
<polygon fill="none" stroke="#242424" stroke-width="4" points="554.1002,-266 437.4998,-266 437.4998,-230 554.1002,-230 554.1002,-266"/>
<text text-anchor="middle" x="495.8" y="-245.6" font-family="Fira Code" font-size="12.00" fill="#242424">curry/index.js</text>
</g>
<!-- curry/index.js&#45;&gt;curry/ify.js -->
<g id="edge4" class="edge">
<title>curry/index.js&#45;&gt;curry/ify.js</title>
<path fill="none" stroke="#242424" d="M495.8,-229.7779C495.8,-211.3567 495.8,-182.6329 495.8,-161.2569"/>
<polygon fill="#242424" stroke="#242424" points="499.3001,-161.1368 495.8,-151.1368 492.3001,-161.1369 499.3001,-161.1368"/>
</g>
<!-- curry/katsu.js -->
<g id="node8" class="node">
<title>curry/katsu.js</title>
<polygon fill="none" stroke="#242424" stroke-width="4" points="802.1002,-151 685.4998,-151 685.4998,-115 802.1002,-115 802.1002,-151"/>
<text text-anchor="middle" x="743.8" y="-130.6" font-family="Fira Code" font-size="12.00" fill="#242424">curry/katsu.js</text>
</g>
<!-- curry/index.js&#45;&gt;curry/katsu.js -->
<g id="edge5" class="edge">
<title>curry/index.js&#45;&gt;curry/katsu.js</title>
<path fill="none" stroke="#242424" d="M534.8228,-229.9047C578.2119,-209.7848 648.3471,-177.2624 695.2491,-155.5135"/>
<polygon fill="#242424" stroke="#242424" points="696.9959,-158.5615 704.5956,-151.1794 694.0511,-152.2111 696.9959,-158.5615"/>
</g>
<!-- curry/katsu.js&#45;&gt;Ⓜ fast.js/array/some.js -->
<g id="edge6" class="edge">
<title>curry/katsu.js&#45;&gt;Ⓜ fast.js/array/some.js</title>
<path fill="none" stroke="#242424" d="M726.3702,-114.7779C707.9453,-95.5155 678.7453,-64.9882 658.073,-43.3763"/>
<polygon fill="#242424" stroke="#242424" points="660.5898,-40.944 651.1483,-36.1368 655.5313,-45.7826 660.5898,-40.944"/>
</g>
<!-- placeholder/index.js -->
<g id="node9" class="node">
<title>placeholder/index.js</title>
<polygon fill="none" stroke="#0c821d" stroke-width="4" points="932.8,-36 772.8,-36 772.8,0 932.8,0 932.8,-36"/>
<text text-anchor="middle" x="852.8" y="-15.6" font-family="Fira Code" font-size="12.00" fill="#0c821d">placeholder/index.js</text>
</g>
<!-- curry/katsu.js&#45;&gt;placeholder/index.js -->
<g id="edge7" class="edge">
<title>curry/katsu.js&#45;&gt;placeholder/index.js</title>
<path fill="none" stroke="#242424" d="M761.0714,-114.7779C779.249,-95.5997 808.0108,-65.2546 828.4788,-43.66"/>
<polygon fill="#242424" stroke="#242424" points="831.2705,-45.8025 835.6094,-36.1368 826.1899,-40.987 831.2705,-45.8025"/>
</g>
<!-- fp/compose.js -->
<g id="node10" class="node">
<title>fp/compose.js</title>
<polygon fill="none" stroke="#242424" stroke-width="4" points="1323.4007,-496 1214.1993,-496 1214.1993,-460 1323.4007,-460 1323.4007,-496"/>
<text text-anchor="middle" x="1268.8" y="-475.6" font-family="Fira Code" font-size="12.00" fill="#242424">fp/compose.js</text>
</g>
<!-- fp/pipe.js -->
<g id="node11" class="node">
<title>fp/pipe.js</title>
<polygon fill="none" stroke="#0c821d" stroke-width="4" points="1253.8,-381 1165.8,-381 1165.8,-345 1253.8,-345 1253.8,-381"/>
<text text-anchor="middle" x="1209.8" y="-360.6" font-family="Fira Code" font-size="12.00" fill="#0c821d">fp/pipe.js</text>
</g>
<!-- fp/compose.js&#45;&gt;fp/pipe.js -->
<g id="edge8" class="edge">
<title>fp/compose.js&#45;&gt;fp/pipe.js</title>
<path fill="none" stroke="#242424" d="M1259.4513,-459.7779C1249.8278,-441.0202 1234.7238,-411.5802 1223.6999,-390.0931"/>
<polygon fill="#242424" stroke="#242424" points="1226.7839,-388.4365 1219.105,-381.1368 1220.5557,-391.6319 1226.7839,-388.4365"/>
</g>
<!-- fp/filter.js -->
<g id="node12" class="node">
<title>fp/filter.js</title>
<polygon fill="none" stroke="#242424" stroke-width="4" points="1110.2008,-381 1007.3992,-381 1007.3992,-345 1110.2008,-345 1110.2008,-381"/>
<text text-anchor="middle" x="1058.8" y="-360.6" font-family="Fira Code" font-size="12.00" fill="#242424">fp/filter.js</text>
</g>
<!-- utils/delegatee.js -->
<g id="node13" class="node">
<title>utils/delegatee.js</title>
<polygon fill="none" stroke="#242424" stroke-width="4" points="1131.4005,-266 986.1995,-266 986.1995,-230 1131.4005,-230 1131.4005,-266"/>
<text text-anchor="middle" x="1058.8" y="-245.6" font-family="Fira Code" font-size="12.00" fill="#242424">utils/delegatee.js</text>
</g>
<!-- fp/filter.js&#45;&gt;utils/delegatee.js -->
<g id="edge9" class="edge">
<title>fp/filter.js&#45;&gt;utils/delegatee.js</title>
<path fill="none" stroke="#242424" d="M1058.8,-344.7779C1058.8,-326.3567 1058.8,-297.6329 1058.8,-276.2569"/>
<polygon fill="#242424" stroke="#242424" points="1062.3001,-276.1368 1058.8,-266.1368 1055.3001,-276.1369 1062.3001,-276.1368"/>
</g>
<!-- utils/delegatee.js&#45;&gt;curry/katsu.js -->
<g id="edge36" class="edge">
<title>utils/delegatee.js&#45;&gt;curry/katsu.js</title>
<path fill="none" stroke="#242424" d="M1009.2347,-229.9047C953.3512,-209.5028 862.5369,-176.3484 802.9803,-154.6055"/>
<polygon fill="#242424" stroke="#242424" points="803.9297,-151.2262 793.3358,-151.0845 801.5291,-157.8017 803.9297,-151.2262"/>
</g>
<!-- fp/index.js -->
<g id="node14" class="node">
<title>fp/index.js</title>
<polygon fill="none" stroke="#242424" stroke-width="4" points="1233.5002,-611 1138.0998,-611 1138.0998,-575 1233.5002,-575 1233.5002,-611"/>
<text text-anchor="middle" x="1185.8" y="-590.6" font-family="Fira Code" font-size="12.00" fill="#242424">fp/index.js</text>
</g>
<!-- fp/index.js&#45;&gt;fp/compose.js -->
<g id="edge10" class="edge">
<title>fp/index.js&#45;&gt;fp/compose.js</title>
<path fill="none" stroke="#242424" d="M1198.9516,-574.7779C1212.6112,-555.852 1234.1195,-526.0513 1249.6617,-504.5169"/>
<polygon fill="#242424" stroke="#242424" points="1252.6956,-506.2938 1255.7099,-496.1368 1247.0195,-502.1972 1252.6956,-506.2938"/>
</g>
<!-- fp/index.js&#45;&gt;fp/pipe.js -->
<g id="edge12" class="edge">
<title>fp/index.js&#45;&gt;fp/pipe.js</title>
<path fill="none" stroke="#242424" d="M1187.6832,-574.9523C1191.844,-535.0788 1201.8461,-439.2253 1206.8479,-391.2908"/>
<polygon fill="#242424" stroke="#242424" points="1210.3355,-391.5914 1207.8923,-381.2821 1203.3733,-390.8649 1210.3355,-391.5914"/>
</g>
<!-- fp/index.js&#45;&gt;fp/filter.js -->
<g id="edge11" class="edge">
<title>fp/index.js&#45;&gt;fp/filter.js</title>
<path fill="none" stroke="#242424" d="M1175.8345,-574.9523C1153.6324,-534.7437 1099.9979,-437.6103 1073.7598,-390.0926"/>
<polygon fill="#242424" stroke="#242424" points="1076.7927,-388.3444 1068.8949,-381.2821 1070.6648,-391.7281 1076.7927,-388.3444"/>
</g>
<!-- index.js -->
<g id="node15" class="node">
<title>index.js</title>
<polygon fill="none" stroke="#242424" stroke-width="4" points="718.4011,-1071 645.1989,-1071 645.1989,-1035 718.4011,-1035 718.4011,-1071"/>
<text text-anchor="middle" x="681.8" y="-1050.6" font-family="Fira Code" font-size="12.00" fill="#242424">index.js</text>
</g>
<!-- index.js&#45;&gt;../package.json -->
<g id="edge13" class="edge">
<title>index.js&#45;&gt;../package.json</title>
<path fill="none" stroke="#242424" d="M645.1003,-1046.0922C566.8216,-1031.2286 377.5159,-994.5949 208.8943,-956.2056"/>
<polygon fill="#242424" stroke="#242424" points="209.6268,-952.7829 199.0985,-953.9681 208.068,-959.6071 209.6268,-952.7829"/>
</g>
<!-- index.js&#45;&gt;combinators/index.js -->
<g id="edge14" class="edge">
<title>index.js&#45;&gt;combinators/index.js</title>
<path fill="none" stroke="#242424" d="M644.8846,-1041.9733C580.952,-1022.8766 448.6333,-983.3528 366.8132,-958.913"/>
<polygon fill="#242424" stroke="#242424" points="367.6769,-955.5183 357.0934,-956.0097 365.6734,-962.2255 367.6769,-955.5183"/>
</g>
<!-- index.js&#45;&gt;curry/ify.js -->
<g id="edge15" class="edge">
<title>index.js&#45;&gt;curry/ify.js</title>
<path fill="none" stroke="#242424" d="M645.1169,-1041.3942C570.8725,-1015.3561 409.8,-944.828 409.8,-823 409.8,-823 409.8,-823 409.8,-363 409.8,-303.2888 407.0303,-285.6014 428.8,-230 439.135,-203.6036 457.8988,-177.3764 472.9456,-158.862"/>
<polygon fill="#242424" stroke="#242424" points="475.637,-161.0996 479.3421,-151.1737 470.2558,-156.6226 475.637,-161.0996"/>
</g>
<!-- index.js&#45;&gt;curry/katsu.js -->
<g id="edge16" class="edge">
<title>index.js&#45;&gt;curry/katsu.js</title>
<path fill="none" stroke="#242424" d="M667.6845,-1034.7971C640.1195,-997.369 581.8,-908.1235 581.8,-823 581.8,-823 581.8,-823 581.8,-363 581.8,-274.1223 663.6554,-195.3842 710.9955,-157.2787"/>
<polygon fill="#242424" stroke="#242424" points="713.1656,-160.0248 718.8425,-151.0792 708.8261,-154.5321 713.1656,-160.0248"/>
</g>
<!-- index.js&#45;&gt;placeholder/index.js -->
<g id="edge20" class="edge">
<title>index.js&#45;&gt;placeholder/index.js</title>
<path fill="none" stroke="#242424" d="M718.6168,-1048.8951C825.6355,-1036.5813 1134.8688,-998.191 1226.8,-956 1311.7783,-916.9999 1389.8,-916.5004 1389.8,-823 1389.8,-823 1389.8,-823 1389.8,-248 1389.8,-151.9217 1095.6609,-72.0768 942.7662,-37.063"/>
<polygon fill="#242424" stroke="#242424" points="943.4312,-33.625 932.9042,-34.8219 941.8799,-40.4509 943.4312,-33.625"/>
</g>
<!-- index.js&#45;&gt;fp/compose.js -->
<g id="edge17" class="edge">
<title>index.js&#45;&gt;fp/compose.js</title>
<path fill="none" stroke="#242424" d="M718.7749,-1046.7662C847.15,-1024.0919 1265.8,-941.0947 1265.8,-823 1265.8,-823 1265.8,-823 1265.8,-708 1265.8,-635.2921 1267.3175,-549.6665 1268.1939,-506.2749"/>
<polygon fill="#242424" stroke="#242424" points="1271.6949,-506.2566 1268.4016,-496.1867 1264.6964,-506.1125 1271.6949,-506.2566"/>
</g>
<!-- index.js&#45;&gt;fp/pipe.js -->
<g id="edge18" class="edge">
<title>index.js&#45;&gt;fp/pipe.js</title>
<path fill="none" stroke="#242424" d="M718.7765,-1048.538C859.2346,-1030.5781 1351.8,-957.9731 1351.8,-823 1351.8,-823 1351.8,-823 1351.8,-593 1351.8,-533.2888 1362.597,-511.7452 1332.8,-460 1314.4926,-428.2075 1281.3247,-402.9863 1254.0416,-386.2391"/>
<polygon fill="#242424" stroke="#242424" points="1255.7991,-383.2121 1245.4166,-381.1018 1252.217,-389.2262 1255.7991,-383.2121"/>
</g>
<!-- object/index.js -->
<g id="node16" class="node">
<title>object/index.js</title>
<polygon fill="none" stroke="#242424" stroke-width="4" points="824.8,-956 700.8,-956 700.8,-920 824.8,-920 824.8,-956"/>
<text text-anchor="middle" x="762.8" y="-935.6" font-family="Fira Code" font-size="12.00" fill="#242424">object/index.js</text>
</g>
<!-- index.js&#45;&gt;object/index.js -->
<g id="edge19" class="edge">
<title>index.js&#45;&gt;object/index.js</title>
<path fill="none" stroke="#242424" d="M694.6347,-1034.7779C707.9651,-1015.852 728.9552,-986.0513 744.1229,-964.5169"/>
<polygon fill="#242424" stroke="#242424" points="747.1283,-966.3279 750.0254,-956.1368 741.4054,-962.297 747.1283,-966.3279"/>
</g>
<!-- object/by&#45;keys&#45;or&#45;number.js -->
<g id="node19" class="node">
<title>object/by&#45;keys&#45;or&#45;number.js</title>
<polygon fill="none" stroke="#242424" stroke-width="4" points="1026.2004,-841 815.3996,-841 815.3996,-805 1026.2004,-805 1026.2004,-841"/>
<text text-anchor="middle" x="920.8" y="-820.6" font-family="Fira Code" font-size="12.00" fill="#242424">object/by&#45;keys&#45;or&#45;number.js</text>
</g>
<!-- object/index.js&#45;&gt;object/by&#45;keys&#45;or&#45;number.js -->
<g id="edge32" class="edge">
<title>object/index.js&#45;&gt;object/by&#45;keys&#45;or&#45;number.js</title>
<path fill="none" stroke="#242424" d="M787.8356,-919.7779C814.7627,-900.1791 857.7122,-868.9184 887.4797,-847.2521"/>
<polygon fill="#242424" stroke="#242424" points="889.8561,-849.8514 895.8816,-841.1368 885.7367,-844.1918 889.8561,-849.8514"/>
</g>
<!-- object/by&#45;keys.js -->
<g id="node20" class="node">
<title>object/by&#45;keys.js</title>
<polygon fill="none" stroke="#242424" stroke-width="4" points="808.2006,-726 669.3994,-726 669.3994,-690 808.2006,-690 808.2006,-726"/>
<text text-anchor="middle" x="738.8" y="-705.6" font-family="Fira Code" font-size="12.00" fill="#242424">object/by&#45;keys.js</text>
</g>
<!-- object/index.js&#45;&gt;object/by&#45;keys.js -->
<g id="edge33" class="edge">
<title>object/index.js&#45;&gt;object/by&#45;keys.js</title>
<path fill="none" stroke="#242424" d="M760.9168,-919.9523C756.756,-880.0788 746.7539,-784.2253 741.7521,-736.2908"/>
<polygon fill="#242424" stroke="#242424" points="745.2267,-735.8649 740.7077,-726.2821 738.2645,-736.5914 745.2267,-735.8649"/>
</g>
<!-- object/by&#45;number&#45;of&#45;keys.js -->
<g id="node21" class="node">
<title>object/by&#45;number&#45;of&#45;keys.js</title>
<polygon fill="none" stroke="#242424" stroke-width="4" points="1036.2004,-726 825.3996,-726 825.3996,-690 1036.2004,-690 1036.2004,-726"/>
<text text-anchor="middle" x="930.8" y="-705.6" font-family="Fira Code" font-size="12.00" fill="#242424">object/by&#45;number&#45;of&#45;keys.js</text>
</g>
<!-- object/index.js&#45;&gt;object/by&#45;number&#45;of&#45;keys.js -->
<g id="edge34" class="edge">
<title>object/index.js&#45;&gt;object/by&#45;number&#45;of&#45;keys.js</title>
<path fill="none" stroke="#242424" d="M765.3933,-919.7121C769.9602,-892.5796 781.4653,-841.0002 806.8,-805 828.4455,-774.2421 862.6491,-748.5238 889.6559,-731.3143"/>
<polygon fill="#242424" stroke="#242424" points="891.5057,-734.2856 898.1464,-726.0302 887.807,-728.3426 891.5057,-734.2856"/>
</g>
<!-- object/by&#45;condition.js -->
<g id="node17" class="node">
<title>object/by&#45;condition.js</title>
<polygon fill="none" stroke="#242424" stroke-width="4" points="1119.2005,-611 944.3995,-611 944.3995,-575 1119.2005,-575 1119.2005,-611"/>
<text text-anchor="middle" x="1031.8" y="-590.6" font-family="Fira Code" font-size="12.00" fill="#242424">object/by&#45;condition.js</text>
</g>
<!-- object/by&#45;condition.js&#45;&gt;curry/katsu.js -->
<g id="edge21" class="edge">
<title>object/by&#45;condition.js&#45;&gt;curry/katsu.js</title>
<path fill="none" stroke="#242424" d="M1041.4526,-574.6582C1075.4109,-508.9559 1184.9883,-286.2848 1140.8,-230 1100.6777,-178.8942 914.7623,-151.265 812.2009,-139.6788"/>
<polygon fill="#242424" stroke="#242424" points="812.5657,-136.1979 802.2409,-138.5744 811.7942,-143.1552 812.5657,-136.1979"/>
</g>
<!-- object/by&#45;condition.js&#45;&gt;fp/pipe.js -->
<g id="edge22" class="edge">
<title>object/by&#45;condition.js&#45;&gt;fp/pipe.js</title>
<path fill="none" stroke="#242424" d="M1045.7674,-574.9523C1077.0798,-534.4924 1152.9995,-436.3939 1189.5177,-389.2075"/>
<polygon fill="#242424" stroke="#242424" points="1192.2988,-391.3326 1195.6512,-381.2821 1186.7629,-387.0483 1192.2988,-391.3326"/>
</g>
<!-- utils/object.js -->
<g id="node18" class="node">
<title>utils/object.js</title>
<polygon fill="none" stroke="#242424" stroke-width="4" points="989.8,-381 865.8,-381 865.8,-345 989.8,-345 989.8,-381"/>
<text text-anchor="middle" x="927.8" y="-360.6" font-family="Fira Code" font-size="12.00" fill="#242424">utils/object.js</text>
</g>
<!-- object/by&#45;condition.js&#45;&gt;utils/object.js -->
<g id="edge23" class="edge">
<title>object/by&#45;condition.js&#45;&gt;utils/object.js</title>
<path fill="none" stroke="#242424" d="M1024.7568,-574.7425C1014.6872,-548.9363 995.3385,-500.4286 976.8,-460 965.8342,-436.0859 952.2766,-409.4445 942.204,-390.142"/>
<polygon fill="#242424" stroke="#242424" points="945.1717,-388.2648 937.4265,-381.0355 938.973,-391.5169 945.1717,-388.2648"/>
</g>
<!-- utils/object.js&#45;&gt;curry/katsu.js -->
<g id="edge48" class="edge">
<title>utils/object.js&#45;&gt;curry/katsu.js</title>
<path fill="none" stroke="#242424" d="M935.7656,-344.622C946.2409,-317.3747 960.8837,-265.6503 938.8,-230 911.3103,-185.6227 856.7576,-160.8989 812.3267,-147.5373"/>
<polygon fill="#242424" stroke="#242424" points="813.013,-144.093 802.4354,-144.697 811.081,-150.8211 813.013,-144.093"/>
</g>
<!-- object/by&#45;keys&#45;or&#45;number.js&#45;&gt;object/by&#45;condition.js -->
<g id="edge24" class="edge">
<title>object/by&#45;keys&#45;or&#45;number.js&#45;&gt;object/by&#45;condition.js</title>
<path fill="none" stroke="#242424" d="M959.5235,-804.8625C988.9246,-788.7395 1027.198,-762.1171 1044.8,-726 1061.0943,-692.5662 1051.8829,-648.85 1042.7204,-620.8407"/>
<polygon fill="#242424" stroke="#242424" points="1045.9859,-619.5749 1039.3943,-611.2802 1039.3746,-621.875 1045.9859,-619.5749"/>
</g>
<!-- object/by&#45;keys&#45;or&#45;number.js&#45;&gt;object/by&#45;keys.js -->
<g id="edge25" class="edge">
<title>object/by&#45;keys&#45;or&#45;number.js&#45;&gt;object/by&#45;keys.js</title>
<path fill="none" stroke="#242424" d="M891.9616,-804.7779C860.678,-785.0108 810.6201,-753.3808 776.302,-731.6963"/>
<polygon fill="#242424" stroke="#242424" points="777.8269,-728.5197 767.5035,-726.1368 774.0877,-734.4374 777.8269,-728.5197"/>
</g>
<!-- object/by&#45;keys&#45;or&#45;number.js&#45;&gt;object/by&#45;number&#45;of&#45;keys.js -->
<g id="edge26" class="edge">
<title>object/by&#45;keys&#45;or&#45;number.js&#45;&gt;object/by&#45;number&#45;of&#45;keys.js</title>
<path fill="none" stroke="#242424" d="M922.3845,-804.7779C923.9864,-786.3567 926.4841,-757.6329 928.3429,-736.2569"/>
<polygon fill="#242424" stroke="#242424" points="931.8433,-736.4025 929.2229,-726.1368 924.8697,-735.796 931.8433,-736.4025"/>
</g>
<!-- object/by&#45;keys.js&#45;&gt;object/by&#45;condition.js -->
<g id="edge27" class="edge">
<title>object/by&#45;keys.js&#45;&gt;object/by&#45;condition.js</title>
<path fill="none" stroke="#242424" d="M784.9036,-689.9047C836.7007,-669.5748 920.7603,-636.5821 976.1656,-614.836"/>
<polygon fill="#242424" stroke="#242424" points="977.452,-618.0911 985.4819,-611.1794 974.8945,-611.575 977.452,-618.0911"/>
</g>
<!-- utils/length.js -->
<g id="node22" class="node">
<title>utils/length.js</title>
<polygon fill="none" stroke="#242424" stroke-width="4" points="967.8,-496 843.8,-496 843.8,-460 967.8,-460 967.8,-496"/>
<text text-anchor="middle" x="905.8" y="-475.6" font-family="Fira Code" font-size="12.00" fill="#242424">utils/length.js</text>
</g>
<!-- object/by&#45;keys.js&#45;&gt;utils/length.js -->
<g id="edge28" class="edge">
<title>object/by&#45;keys.js&#45;&gt;utils/length.js</title>
<path fill="none" stroke="#242424" d="M767.0654,-689.899C792.4769,-672.3806 829.3144,-643.7238 852.8,-611 876.1629,-578.4472 891.1182,-534.154 898.9906,-505.8141"/>
<polygon fill="#242424" stroke="#242424" points="902.3737,-506.7107 901.5729,-496.1462 895.6108,-504.9043 902.3737,-506.7107"/>
</g>
<!-- utils/matching&#45;key&#45;count.js -->
<g id="node23" class="node">
<title>utils/matching&#45;key&#45;count.js</title>
<polygon fill="none" stroke="#242424" stroke-width="4" points="844.2004,-611 633.3996,-611 633.3996,-575 844.2004,-575 844.2004,-611"/>
<text text-anchor="middle" x="738.8" y="-590.6" font-family="Fira Code" font-size="12.00" fill="#242424">utils/matching&#45;key&#45;count.js</text>
</g>
<!-- object/by&#45;keys.js&#45;&gt;utils/matching&#45;key&#45;count.js -->
<g id="edge29" class="edge">
<title>object/by&#45;keys.js&#45;&gt;utils/matching&#45;key&#45;count.js</title>
<path fill="none" stroke="#242424" d="M738.8,-689.7779C738.8,-671.3567 738.8,-642.6329 738.8,-621.2569"/>
<polygon fill="#242424" stroke="#242424" points="742.3001,-621.1368 738.8,-611.1368 735.3001,-621.1369 742.3001,-621.1368"/>
</g>
<!-- object/by&#45;number&#45;of&#45;keys.js&#45;&gt;object/by&#45;condition.js -->
<g id="edge30" class="edge">
<title>object/by&#45;number&#45;of&#45;keys.js&#45;&gt;object/by&#45;condition.js</title>
<path fill="none" stroke="#242424" d="M946.8038,-689.7779C963.6473,-670.5997 990.2981,-640.2546 1009.2638,-618.66"/>
<polygon fill="#242424" stroke="#242424" points="1011.902,-620.9601 1015.8711,-611.1368 1006.6424,-616.3408 1011.902,-620.9601"/>
</g>
<!-- object/by&#45;number&#45;of&#45;keys.js&#45;&gt;utils/length.js -->
<g id="edge31" class="edge">
<title>object/by&#45;number&#45;of&#45;keys.js&#45;&gt;utils/length.js</title>
<path fill="none" stroke="#242424" d="M928.8383,-689.9523C924.5042,-650.0788 914.0854,-554.2253 908.8751,-506.2908"/>
<polygon fill="#242424" stroke="#242424" points="912.3474,-505.8453 907.7872,-496.2821 905.3884,-506.6018 912.3474,-505.8453"/>
</g>
<!-- utils/length.js&#45;&gt;fp/pipe.js -->
<g id="edge37" class="edge">
<title>utils/length.js&#45;&gt;fp/pipe.js</title>
<path fill="none" stroke="#242424" d="M953.6344,-459.9047C1008.6407,-439.0964 1098.7144,-405.0225 1156.0846,-383.32"/>
<polygon fill="#242424" stroke="#242424" points="1157.5851,-386.4945 1165.6999,-379.6826 1155.1083,-379.9473 1157.5851,-386.4945"/>
</g>
<!-- utils/length.js&#45;&gt;utils/object.js -->
<g id="edge38" class="edge">
<title>utils/length.js&#45;&gt;utils/object.js</title>
<path fill="none" stroke="#242424" d="M909.286,-459.7779C912.8261,-441.2726 918.3552,-412.3704 922.4503,-390.9646"/>
<polygon fill="#242424" stroke="#242424" points="925.889,-391.6164 924.3303,-381.1368 919.0136,-390.3011 925.889,-391.6164"/>
</g>
<!-- utils/prop.js -->
<g id="node27" class="node">
<title>utils/prop.js</title>
<polygon fill="none" stroke="#242424" stroke-width="4" points="929.4007,-266 820.1993,-266 820.1993,-230 929.4007,-230 929.4007,-266"/>
<text text-anchor="middle" x="874.8" y="-245.6" font-family="Fira Code" font-size="12.00" fill="#242424">utils/prop.js</text>
</g>
<!-- utils/length.js&#45;&gt;utils/prop.js -->
<g id="edge39" class="edge">
<title>utils/length.js&#45;&gt;utils/prop.js</title>
<path fill="none" stroke="#242424" d="M893.2475,-459.6971C881.1876,-440.9146 863.796,-410.3653 856.8,-381 848.2767,-345.2243 857.1058,-303.0061 865.1301,-275.889"/>
<polygon fill="#242424" stroke="#242424" points="868.4906,-276.8691 868.1282,-266.2805 861.8084,-274.784 868.4906,-276.8691"/>
</g>
<!-- utils/matching&#45;key&#45;count.js&#45;&gt;curry/katsu.js -->
<g id="edge40" class="edge">
<title>utils/matching&#45;key&#45;count.js&#45;&gt;curry/katsu.js</title>
<path fill="none" stroke="#242424" d="M711.3786,-574.8105C688.1838,-557.6266 656.5858,-529.5272 642.8,-496 619.6706,-439.7489 549.5504,-514.0517 665.8,-230 677.044,-202.5257 698.6815,-176.6057 716.3199,-158.4833"/>
<polygon fill="#242424" stroke="#242424" points="718.9953,-160.7578 723.5925,-151.2122 714.046,-155.8075 718.9953,-160.7578"/>
</g>
<!-- utils/matching&#45;key&#45;count.js&#45;&gt;fp/pipe.js -->
<g id="edge41" class="edge">
<title>utils/matching&#45;key&#45;count.js&#45;&gt;fp/pipe.js</title>
<path fill="none" stroke="#242424" d="M788.3984,-574.9719C837.126,-556.7531 913.2066,-526.9427 976.8,-496 1047.87,-461.4194 1127.0944,-414.247 1172.4377,-386.3688"/>
<polygon fill="#242424" stroke="#242424" points="1174.3696,-389.2895 1181.0422,-381.0599 1170.6939,-383.3322 1174.3696,-389.2895"/>
</g>
<!-- utils/matching&#45;key&#45;count.js&#45;&gt;utils/length.js -->
<g id="edge42" class="edge">
<title>utils/matching&#45;key&#45;count.js&#45;&gt;utils/length.js</title>
<path fill="none" stroke="#242424" d="M765.2616,-574.7779C793.8447,-555.095 839.5085,-523.6498 870.9861,-501.9737"/>
<polygon fill="#242424" stroke="#242424" points="873.2111,-504.6911 879.4622,-496.1368 869.241,-498.9258 873.2111,-504.6911"/>
</g>
<!-- utils/matching&#45;keys.js -->
<g id="node28" class="node">
<title>utils/matching&#45;keys.js</title>
<polygon fill="none" stroke="#242424" stroke-width="4" points="826.2005,-496 651.3995,-496 651.3995,-460 826.2005,-460 826.2005,-496"/>
<text text-anchor="middle" x="738.8" y="-475.6" font-family="Fira Code" font-size="12.00" fill="#242424">utils/matching&#45;keys.js</text>
</g>
<!-- utils/matching&#45;key&#45;count.js&#45;&gt;utils/matching&#45;keys.js -->
<g id="edge43" class="edge">
<title>utils/matching&#45;key&#45;count.js&#45;&gt;utils/matching&#45;keys.js</title>
<path fill="none" stroke="#242424" d="M738.8,-574.7779C738.8,-556.3567 738.8,-527.6329 738.8,-506.2569"/>
<polygon fill="#242424" stroke="#242424" points="742.3001,-506.1368 738.8,-496.1368 735.3001,-506.1369 742.3001,-506.1368"/>
</g>
<!-- performance.fixture.js -->
<g id="node24" class="node">
<title>performance.fixture.js</title>
<polygon fill="none" stroke="#0c821d" stroke-width="4" points="1329.2005,-36 1154.3995,-36 1154.3995,0 1329.2005,0 1329.2005,-36"/>
<text text-anchor="middle" x="1241.8" y="-15.6" font-family="Fira Code" font-size="12.00" fill="#0c821d">performance.fixture.js</text>
</g>
<!-- performance2.fixture.js -->
<g id="node25" class="node">
<title>performance2.fixture.js</title>
<polygon fill="none" stroke="#0c821d" stroke-width="4" points="335.4004,-1114 154.1996,-1114 154.1996,-1078 335.4004,-1078 335.4004,-1114"/>
<text text-anchor="middle" x="244.8" y="-1093.6" font-family="Fira Code" font-size="12.00" fill="#0c821d">performance2.fixture.js</text>
</g>
<!-- utils/array.js -->
<g id="node26" class="node">
<title>utils/array.js</title>
<polygon fill="none" stroke="#242424" stroke-width="4" points="802.1002,-266 685.4998,-266 685.4998,-230 802.1002,-230 802.1002,-266"/>
<text text-anchor="middle" x="743.8" y="-245.6" font-family="Fira Code" font-size="12.00" fill="#242424">utils/array.js</text>
</g>
<!-- utils/array.js&#45;&gt;curry/katsu.js -->
<g id="edge35" class="edge">
<title>utils/array.js&#45;&gt;curry/katsu.js</title>
<path fill="none" stroke="#242424" d="M743.8,-229.7779C743.8,-211.3567 743.8,-182.6329 743.8,-161.2569"/>
<polygon fill="#242424" stroke="#242424" points="747.3001,-161.1368 743.8,-151.1368 740.3001,-161.1369 747.3001,-161.1368"/>
</g>
<!-- utils/prop.js&#45;&gt;curry/katsu.js -->
<g id="edge49" class="edge">
<title>utils/prop.js&#45;&gt;curry/katsu.js</title>
<path fill="none" stroke="#242424" d="M854.0427,-229.7779C831.9087,-210.3473 796.7174,-179.4542 772.0643,-157.8121"/>
<polygon fill="#242424" stroke="#242424" points="774.2844,-155.1038 764.4602,-151.1368 769.6663,-160.3644 774.2844,-155.1038"/>
</g>
<!-- utils/matching&#45;keys.js&#45;&gt;curry/katsu.js -->
<g id="edge44" class="edge">
<title>utils/matching&#45;keys.js&#45;&gt;curry/katsu.js</title>
<path fill="none" stroke="#242424" d="M727.4048,-459.7549C703.0829,-418.4401 650.3797,-314.7381 676.8,-230 685.1471,-203.2281 703.7519,-177.3274 719.243,-159.0343"/>
<polygon fill="#242424" stroke="#242424" points="722.1525,-161.0236 726.0934,-151.189 716.8797,-156.4195 722.1525,-161.0236"/>
</g>
<!-- utils/matching&#45;keys.js&#45;&gt;fp/filter.js -->
<g id="edge45" class="edge">
<title>utils/matching&#45;keys.js&#45;&gt;fp/filter.js</title>
<path fill="none" stroke="#242424" d="M789.152,-459.9047C846.0396,-439.4608 938.559,-406.2116 999.0541,-384.4712"/>
<polygon fill="#242424" stroke="#242424" points="1000.2509,-387.7603 1008.4779,-381.0845 997.8835,-381.1728 1000.2509,-387.7603"/>
</g>
<!-- utils/matching&#45;keys.js&#45;&gt;utils/object.js -->
<g id="edge47" class="edge">
<title>utils/matching&#45;keys.js&#45;&gt;utils/object.js</title>
<path fill="none" stroke="#242424" d="M768.7476,-459.7779C801.3726,-439.9267 853.6604,-408.1114 889.3097,-386.42"/>
<polygon fill="#242424" stroke="#242424" points="891.269,-389.3249 897.9925,-381.1368 887.6303,-383.3449 891.269,-389.3249"/>
</g>
<!-- utils/matching&#45;keys.js&#45;&gt;utils/array.js -->
<g id="edge46" class="edge">
<title>utils/matching&#45;keys.js&#45;&gt;utils/array.js</title>
<path fill="none" stroke="#242424" d="M739.1923,-459.9523C740.0592,-420.0788 742.1429,-324.2253 743.185,-276.2908"/>
<polygon fill="#242424" stroke="#242424" points="746.6843,-276.3559 743.4026,-266.2821 739.686,-276.2037 746.6843,-276.3559"/>
</g>
</g>
</svg>
