<?xml version="1.0" encoding="UTF-8" standalone="no"?>
<!DOCTYPE svg PUBLIC "-//W3C//DTD SVG 1.1//EN"
 "http://www.w3.org/Graphics/SVG/1.1/DTD/svg11.dtd">
<!-- Generated by graphviz version 2.40.1 (20161225.0304)
 -->
<!-- Title: G Pages: 1 -->
<svg width="1671pt" height="1087pt"
 viewBox="0.00 0.00 1670.98 1086.98" xmlns="http://www.w3.org/2000/svg" xmlns:xlink="http://www.w3.org/1999/xlink">
<g id="graph0" class="graph" transform="scale(1 1) rotate(0) translate(7.992 1078.992)">
<title>G</title>
<polygon fill="#eeeeff" stroke="transparent" points="-7.992,7.992 -7.992,-1078.992 1662.992,-1078.992 1662.992,7.992 -7.992,7.992"/>
<!-- ../package.json -->
<g id="node1" class="node">
<title>../package.json</title>
<polygon fill="none" stroke="#0c821d" stroke-width="4" points="370,-956 246,-956 246,-920 370,-920 370,-956"/>
<text text-anchor="middle" x="308" y="-935.6" font-family="Fira Code" font-size="12.00" fill="#0c821d">../package.json</text>
</g>
<!-- combinators/constant.js -->
<g id="node2" class="node">
<title>combinators/constant.js</title>
<polygon fill="none" stroke="#0c821d" stroke-width="4" points="833.6004,-841 652.3996,-841 652.3996,-805 833.6004,-805 833.6004,-841"/>
<text text-anchor="middle" x="743" y="-820.6" font-family="Fira Code" font-size="12.00" fill="#0c821d">combinators/constant.js</text>
</g>
<!-- combinators/identity.js -->
<g id="node3" class="node">
<title>combinators/identity.js</title>
<polygon fill="none" stroke="#0c821d" stroke-width="4" points="1033.6004,-841 852.3996,-841 852.3996,-805 1033.6004,-805 1033.6004,-841"/>
<text text-anchor="middle" x="943" y="-820.6" font-family="Fira Code" font-size="12.00" fill="#0c821d">combinators/identity.js</text>
</g>
<!-- combinators/index.js -->
<g id="node4" class="node">
<title>combinators/index.js</title>
<polygon fill="none" stroke="#242424" stroke-width="4" points="823,-956 663,-956 663,-920 823,-920 823,-956"/>
<text text-anchor="middle" x="743" y="-935.6" font-family="Fira Code" font-size="12.00" fill="#242424">combinators/index.js</text>
</g>
<!-- combinators/index.js&#45;&gt;combinators/constant.js -->
<g id="edge1" class="edge">
<title>combinators/index.js&#45;&gt;combinators/constant.js</title>
<path fill="none" stroke="#242424" d="M743,-919.7779C743,-901.3567 743,-872.6329 743,-851.2569"/>
<polygon fill="#242424" stroke="#242424" points="746.5001,-851.1368 743,-841.1368 739.5001,-851.1369 746.5001,-851.1368"/>
</g>
<!-- combinators/index.js&#45;&gt;combinators/identity.js -->
<g id="edge2" class="edge">
<title>combinators/index.js&#45;&gt;combinators/identity.js</title>
<path fill="none" stroke="#242424" d="M774.6906,-919.7779C809.3607,-899.8426 865.0146,-867.8416 902.7481,-846.1448"/>
<polygon fill="#242424" stroke="#242424" points="904.5333,-849.1558 911.4577,-841.1368 901.0439,-843.0874 904.5333,-849.1558"/>
</g>
<!-- debug/fp.js -->
<g id="node5" class="node">
<title>debug/fp.js</title>
<polygon fill="none" stroke="#242424" stroke-width="4" points="713.7002,-496 618.2998,-496 618.2998,-460 713.7002,-460 713.7002,-496"/>
<text text-anchor="middle" x="666" y="-475.6" font-family="Fira Code" font-size="12.00" fill="#242424">debug/fp.js</text>
</g>
<!-- debug/to&#45;string&#45;composition.js -->
<g id="node6" class="node">
<title>debug/to&#45;string&#45;composition.js</title>
<polygon fill="none" stroke="#0c821d" stroke-width="4" points="918,-381 686,-381 686,-345 918,-345 918,-381"/>
<text text-anchor="middle" x="802" y="-360.6" font-family="Fira Code" font-size="12.00" fill="#0c821d">debug/to&#45;string&#45;composition.js</text>
</g>
<!-- debug/fp.js&#45;&gt;debug/to&#45;string&#45;composition.js -->
<g id="edge3" class="edge">
<title>debug/fp.js&#45;&gt;debug/to&#45;string&#45;composition.js</title>
<path fill="none" stroke="#242424" d="M687.5496,-459.7779C710.5284,-440.3473 747.0629,-409.4542 772.6569,-387.8121"/>
<polygon fill="#242424" stroke="#242424" points="775.1751,-390.2664 780.5512,-381.1368 770.6553,-384.9212 775.1751,-390.2664"/>
</g>
<!-- fp/filter.js -->
<g id="node7" class="node">
<title>fp/filter.js</title>
<polygon fill="none" stroke="#242424" stroke-width="4" points="668.4008,-381 565.5992,-381 565.5992,-345 668.4008,-345 668.4008,-381"/>
<text text-anchor="middle" x="617" y="-360.6" font-family="Fira Code" font-size="12.00" fill="#242424">fp/filter.js</text>
</g>
<!-- debug/fp.js&#45;&gt;fp/filter.js -->
<g id="edge4" class="edge">
<title>debug/fp.js&#45;&gt;fp/filter.js</title>
<path fill="none" stroke="#242424" d="M658.2358,-459.7779C650.2792,-441.1043 637.8118,-411.844 628.6674,-390.3826"/>
<polygon fill="#242424" stroke="#242424" points="631.8677,-388.9646 624.7279,-381.1368 625.4279,-391.7085 631.8677,-388.9646"/>
</g>
<!-- fp/pipe.js -->
<g id="node8" class="node">
<title>fp/pipe.js</title>
<polygon fill="none" stroke="#0c821d" stroke-width="4" points="1062,-381 974,-381 974,-345 1062,-345 1062,-381"/>
<text text-anchor="middle" x="1018" y="-360.6" font-family="Fira Code" font-size="12.00" fill="#0c821d">fp/pipe.js</text>
</g>
<!-- debug/fp.js&#45;&gt;fp/pipe.js -->
<g id="edge5" class="edge">
<title>debug/fp.js&#45;&gt;fp/pipe.js</title>
<path fill="none" stroke="#242424" d="M713.8386,-462.3709C779.1439,-441.0354 895.8665,-402.9016 964.1608,-380.5895"/>
<polygon fill="#242424" stroke="#242424" points="965.4551,-383.8488 973.8737,-377.4163 963.2812,-377.1949 965.4551,-383.8488"/>
</g>
<!-- utils/delegatee.js -->
<g id="node22" class="node">
<title>utils/delegatee.js</title>
<polygon fill="none" stroke="#242424" stroke-width="4" points="814.6005,-266 669.3995,-266 669.3995,-230 814.6005,-230 814.6005,-266"/>
<text text-anchor="middle" x="742" y="-245.6" font-family="Fira Code" font-size="12.00" fill="#242424">utils/delegatee.js</text>
</g>
<!-- fp/filter.js&#45;&gt;utils/delegatee.js -->
<g id="edge25" class="edge">
<title>fp/filter.js&#45;&gt;utils/delegatee.js</title>
<path fill="none" stroke="#242424" d="M636.8066,-344.7779C657.8354,-325.4314 691.2158,-294.7214 714.7242,-273.0937"/>
<polygon fill="#242424" stroke="#242424" points="717.2964,-275.4832 722.286,-266.1368 712.557,-270.3317 717.2964,-275.4832"/>
</g>
<!-- debug/index.js -->
<g id="node9" class="node">
<title>debug/index.js</title>
<polygon fill="none" stroke="#242424" stroke-width="4" points="801.3002,-1071 684.6998,-1071 684.6998,-1035 801.3002,-1035 801.3002,-1071"/>
<text text-anchor="middle" x="743" y="-1050.6" font-family="Fira Code" font-size="12.00" fill="#242424">debug/index.js</text>
</g>
<!-- debug/index.js&#45;&gt;combinators/index.js -->
<g id="edge6" class="edge">
<title>debug/index.js&#45;&gt;combinators/index.js</title>
<path fill="none" stroke="#242424" d="M743,-1034.7779C743,-1016.3567 743,-987.6329 743,-966.2569"/>
<polygon fill="#242424" stroke="#242424" points="746.5001,-966.1368 743,-956.1368 739.5001,-966.1369 746.5001,-966.1368"/>
</g>
<!-- debug/index.js&#45;&gt;debug/fp.js -->
<g id="edge7" class="edge">
<title>debug/index.js&#45;&gt;debug/fp.js</title>
<path fill="none" stroke="#242424" d="M719.0997,-1034.7301C697.9962,-1017.0952 668.4089,-988.3621 654,-956 590.8162,-814.0903 684.2907,-764.1979 710,-611 712.648,-595.2207 713.3811,-590.6387 710,-575 704.6179,-550.1063 692.2911,-523.9216 682.05,-505.0407"/>
<polygon fill="#242424" stroke="#242424" points="685.0111,-503.1643 677.0815,-496.1378 678.8985,-506.5756 685.0111,-503.1643"/>
</g>
<!-- debug/object.js -->
<g id="node10" class="node">
<title>debug/object.js</title>
<polygon fill="none" stroke="#242424" stroke-width="4" points="1438,-956 1314,-956 1314,-920 1438,-920 1438,-956"/>
<text text-anchor="middle" x="1376" y="-935.6" font-family="Fira Code" font-size="12.00" fill="#242424">debug/object.js</text>
</g>
<!-- debug/index.js&#45;&gt;debug/object.js -->
<g id="edge8" class="edge">
<title>debug/index.js&#45;&gt;debug/object.js</title>
<path fill="none" stroke="#242424" d="M801.4165,-1042.3872C917.485,-1021.3005 1176.8369,-974.1829 1303.5403,-951.1641"/>
<polygon fill="#242424" stroke="#242424" points="1304.3236,-954.5792 1313.5369,-949.348 1303.0723,-947.6919 1304.3236,-954.5792"/>
</g>
<!-- debug/params.js -->
<g id="node11" class="node">
<title>debug/params.js</title>
<polygon fill="none" stroke="#242424" stroke-width="4" points="701,-611 577,-611 577,-575 701,-575 701,-611"/>
<text text-anchor="middle" x="639" y="-590.6" font-family="Fira Code" font-size="12.00" fill="#242424">debug/params.js</text>
</g>
<!-- debug/index.js&#45;&gt;debug/params.js -->
<g id="edge9" class="edge">
<title>debug/index.js&#45;&gt;debug/params.js</title>
<path fill="none" stroke="#242424" d="M700.262,-1034.9398C668.9539,-1019.153 628.7796,-992.9399 610,-956 552.4807,-842.8579 603.0117,-683.9278 627.4972,-620.6073"/>
<polygon fill="#242424" stroke="#242424" points="630.7601,-621.8737 631.1828,-611.2873 624.2506,-619.2995 630.7601,-621.8737"/>
</g>
<!-- placeholder/index.js -->
<g id="node12" class="node">
<title>placeholder/index.js</title>
<polygon fill="none" stroke="#0c821d" stroke-width="4" points="1655,-36 1495,-36 1495,0 1655,0 1655,-36"/>
<text text-anchor="middle" x="1575" y="-15.6" font-family="Fira Code" font-size="12.00" fill="#0c821d">placeholder/index.js</text>
</g>
<!-- debug/index.js&#45;&gt;placeholder/index.js -->
<g id="edge10" class="edge">
<title>debug/index.js&#45;&gt;placeholder/index.js</title>
<path fill="none" stroke="#242424" d="M801.4101,-1050.438C986.1488,-1041.7957 1549.0577,-1011.1277 1608,-956 1651.8688,-914.9703 1632,-883.0658 1632,-823 1632,-823 1632,-823 1632,-248 1632,-172.972 1603.0703,-88.1126 1586.4309,-45.5096"/>
<polygon fill="#242424" stroke="#242424" points="1589.6376,-44.1014 1582.6873,-36.1048 1583.1339,-46.6903 1589.6376,-44.1014"/>
</g>
<!-- debug/object.js&#45;&gt;fp/pipe.js -->
<g id="edge12" class="edge">
<title>debug/object.js&#45;&gt;fp/pipe.js</title>
<path fill="none" stroke="#242424" d="M1313.9528,-921.4618C1231.6146,-895.6124 1090.6345,-836.7236 1039,-726 985.6584,-611.6157 1002.8265,-454.487 1012.905,-391.1482"/>
<polygon fill="#242424" stroke="#242424" points="1016.3842,-391.5616 1014.5679,-381.1236 1009.4785,-390.4159 1016.3842,-391.5616"/>
</g>
<!-- debug/to&#45;string.js -->
<g id="node13" class="node">
<title>debug/to&#45;string.js</title>
<polygon fill="none" stroke="#242424" stroke-width="4" points="1413.6005,-496 1268.3995,-496 1268.3995,-460 1413.6005,-460 1413.6005,-496"/>
<text text-anchor="middle" x="1341" y="-475.6" font-family="Fira Code" font-size="12.00" fill="#242424">debug/to&#45;string.js</text>
</g>
<!-- debug/object.js&#45;&gt;debug/to&#45;string.js -->
<g id="edge11" class="edge">
<title>debug/object.js&#45;&gt;debug/to&#45;string.js</title>
<path fill="none" stroke="#242424" d="M1392.3743,-919.9599C1407.8248,-901.6173 1429.9312,-871.6128 1439,-841 1458.0623,-776.6531 1451.1939,-755.994 1439,-690 1425.8362,-618.7569 1383.3083,-543.6893 1358.8184,-504.8409"/>
<polygon fill="#242424" stroke="#242424" points="1361.6382,-502.7539 1353.3007,-496.2166 1355.7418,-506.5264 1361.6382,-502.7539"/>
</g>
<!-- object/by&#45;keys&#45;or&#45;number.js -->
<g id="node14" class="node">
<title>object/by&#45;keys&#45;or&#45;number.js</title>
<polygon fill="none" stroke="#242424" stroke-width="4" points="1414.4004,-841 1203.5996,-841 1203.5996,-805 1414.4004,-805 1414.4004,-841"/>
<text text-anchor="middle" x="1309" y="-820.6" font-family="Fira Code" font-size="12.00" fill="#242424">object/by&#45;keys&#45;or&#45;number.js</text>
</g>
<!-- debug/object.js&#45;&gt;object/by&#45;keys&#45;or&#45;number.js -->
<g id="edge13" class="edge">
<title>debug/object.js&#45;&gt;object/by&#45;keys&#45;or&#45;number.js</title>
<path fill="none" stroke="#242424" d="M1365.3837,-919.7779C1354.4063,-900.9361 1337.1493,-871.3159 1324.6165,-849.8045"/>
<polygon fill="#242424" stroke="#242424" points="1327.625,-848.0154 1319.5667,-841.1368 1321.5766,-851.5393 1327.625,-848.0154"/>
</g>
<!-- object/by&#45;keys.js -->
<g id="node15" class="node">
<title>object/by&#45;keys.js</title>
<polygon fill="none" stroke="#242424" stroke-width="4" points="1186.4006,-726 1047.5994,-726 1047.5994,-690 1186.4006,-690 1186.4006,-726"/>
<text text-anchor="middle" x="1117" y="-705.6" font-family="Fira Code" font-size="12.00" fill="#242424">object/by&#45;keys.js</text>
</g>
<!-- debug/object.js&#45;&gt;object/by&#45;keys.js -->
<g id="edge14" class="edge">
<title>debug/object.js&#45;&gt;object/by&#45;keys.js</title>
<path fill="none" stroke="#242424" d="M1326.0408,-919.9831C1286.8386,-903.9283 1232.7635,-877.3388 1195,-841 1163.5977,-810.7824 1140.59,-765.2084 1128.0001,-736.0312"/>
<polygon fill="#242424" stroke="#242424" points="1131.077,-734.3176 1123.9847,-726.4468 1124.6207,-737.0225 1131.077,-734.3176"/>
</g>
<!-- object/by&#45;number&#45;of&#45;keys.js -->
<g id="node16" class="node">
<title>object/by&#45;number&#45;of&#45;keys.js</title>
<polygon fill="none" stroke="#242424" stroke-width="4" points="1414.4004,-726 1203.5996,-726 1203.5996,-690 1414.4004,-690 1414.4004,-726"/>
<text text-anchor="middle" x="1309" y="-705.6" font-family="Fira Code" font-size="12.00" fill="#242424">object/by&#45;number&#45;of&#45;keys.js</text>
</g>
<!-- debug/object.js&#45;&gt;object/by&#45;number&#45;of&#45;keys.js -->
<g id="edge15" class="edge">
<title>debug/object.js&#45;&gt;object/by&#45;number&#45;of&#45;keys.js</title>
<path fill="none" stroke="#242424" d="M1391.1894,-919.941C1411.0838,-893.9624 1441.3895,-844.7927 1423,-805 1408.3576,-773.3155 1377.698,-748.1766 1351.8595,-731.437"/>
<polygon fill="#242424" stroke="#242424" points="1353.6449,-728.4254 1343.3119,-726.0847 1349.9299,-734.3583 1353.6449,-728.4254"/>
</g>
<!-- params/curry.js -->
<g id="node17" class="node">
<title>params/curry.js</title>
<polygon fill="none" stroke="#242424" stroke-width="4" points="906,-151 782,-151 782,-115 906,-115 906,-151"/>
<text text-anchor="middle" x="844" y="-130.6" font-family="Fira Code" font-size="12.00" fill="#242424">params/curry.js</text>
</g>
<!-- debug/object.js&#45;&gt;params/curry.js -->
<g id="edge16" class="edge">
<title>debug/object.js&#45;&gt;params/curry.js</title>
<path fill="none" stroke="#242424" d="M1404.9201,-919.7772C1455.8019,-885.2109 1556,-804.8468 1556,-708 1556,-708 1556,-708 1556,-478 1556,-380.6626 1459.5717,-403.7979 1382,-345 1314.2072,-293.6143 1305.7573,-266.6697 1229,-230 1126.2616,-180.9181 995.8121,-154.7906 916.1883,-142.43"/>
<polygon fill="#242424" stroke="#242424" points="916.6696,-138.963 906.2569,-140.9188 915.6166,-145.8834 916.6696,-138.963"/>
</g>
<!-- utils/object.js -->
<g id="node18" class="node">
<title>utils/object.js</title>
<polygon fill="none" stroke="#242424" stroke-width="4" points="1242,-381 1118,-381 1118,-345 1242,-345 1242,-381"/>
<text text-anchor="middle" x="1180" y="-360.6" font-family="Fira Code" font-size="12.00" fill="#242424">utils/object.js</text>
</g>
<!-- debug/object.js&#45;&gt;utils/object.js -->
<g id="edge17" class="edge">
<title>debug/object.js&#45;&gt;utils/object.js</title>
<path fill="none" stroke="#242424" d="M1398.0819,-919.8891C1417.8063,-902.1571 1445.3323,-873.1757 1457,-841 1514.9554,-681.1773 1528.1382,-593.5967 1423,-460 1381.744,-407.577 1307.8521,-383.3785 1252.346,-372.2738"/>
<polygon fill="#242424" stroke="#242424" points="1252.6852,-368.7757 1242.2078,-370.3488 1251.3793,-375.6529 1252.6852,-368.7757"/>
</g>
<!-- debug/params.js&#45;&gt;placeholder/index.js -->
<g id="edge21" class="edge">
<title>debug/params.js&#45;&gt;placeholder/index.js</title>
<path fill="none" stroke="#242424" d="M701.2707,-584.6216C724.4151,-581.5436 750.9006,-578.0638 775,-575 918.9079,-556.705 1311.3139,-588.5765 1423,-496 1564.3016,-378.8752 1575.9655,-130.6154 1575.6753,-46.5319"/>
<polygon fill="#242424" stroke="#242424" points="1579.1744,-46.412 1575.5782,-36.4462 1572.1747,-46.4795 1579.1744,-46.412"/>
</g>
<!-- debug/params.js&#45;&gt;debug/to&#45;string.js -->
<g id="edge19" class="edge">
<title>debug/params.js&#45;&gt;debug/to&#45;string.js</title>
<path fill="none" stroke="#242424" d="M701.2978,-582.7945C828.0332,-562.033 1115.8873,-514.8774 1258.1927,-491.5653"/>
<polygon fill="#242424" stroke="#242424" points="1258.8803,-494.9994 1268.1829,-489.9287 1257.7486,-488.0915 1258.8803,-494.9994"/>
</g>
<!-- Ⓜ fast.js/array/some.js -->
<g id="node19" class="node">
<title>Ⓜ fast.js/array/some.js</title>
<polygon fill="none" stroke="#0c821d" stroke-width="4" points="197.4004,-36 10.5996,-36 10.5996,0 197.4004,0 197.4004,-36"/>
<text text-anchor="middle" x="104" y="-16.8" font-family="Fira Code" font-size="12.00" fill="#0c821d">Ⓜ fast.js/array/some.js</text>
</g>
<!-- debug/params.js&#45;&gt;Ⓜ fast.js/array/some.js -->
<g id="edge18" class="edge">
<title>debug/params.js&#45;&gt;Ⓜ fast.js/array/some.js</title>
<path fill="none" stroke="#242424" d="M576.751,-576.4593C529.0695,-561.4288 463.7476,-535.4943 417,-496 257.8639,-361.5551 149.1754,-125.9963 115.2646,-45.7122"/>
<polygon fill="#242424" stroke="#242424" points="118.4099,-44.1614 111.3258,-36.2832 111.9508,-46.8596 118.4099,-44.1614"/>
</g>
<!-- params/remap.js -->
<g id="node20" class="node">
<title>params/remap.js</title>
<polygon fill="none" stroke="#242424" stroke-width="4" points="332,-496 208,-496 208,-460 332,-460 332,-496"/>
<text text-anchor="middle" x="270" y="-475.6" font-family="Fira Code" font-size="12.00" fill="#242424">params/remap.js</text>
</g>
<!-- debug/params.js&#45;&gt;params/remap.js -->
<g id="edge20" class="edge">
<title>debug/params.js&#45;&gt;params/remap.js</title>
<path fill="none" stroke="#242424" d="M580.9378,-574.9047C514.9344,-554.3346 407.3342,-520.8006 337.6069,-499.0699"/>
<polygon fill="#242424" stroke="#242424" points="338.6162,-495.7185 328.0276,-496.0845 336.5333,-502.4014 338.6162,-495.7185"/>
</g>
<!-- debug/to&#45;string.js&#45;&gt;fp/pipe.js -->
<g id="edge22" class="edge">
<title>debug/to&#45;string.js&#45;&gt;fp/pipe.js</title>
<path fill="none" stroke="#242424" d="M1290.1759,-459.9047C1230.6854,-438.7239 1132.5897,-403.7982 1071.8325,-382.1664"/>
<polygon fill="#242424" stroke="#242424" points="1072.6404,-378.7389 1062.0457,-378.6819 1070.2925,-385.3334 1072.6404,-378.7389"/>
</g>
<!-- debug/to&#45;string.js&#45;&gt;params/curry.js -->
<g id="edge23" class="edge">
<title>debug/to&#45;string.js&#45;&gt;params/curry.js</title>
<path fill="none" stroke="#242424" d="M1332.5505,-459.9847C1309.9671,-413.8996 1243.5036,-291.0667 1150,-230 1078.027,-182.9948 981.6945,-157.4185 916.4866,-144.513"/>
<polygon fill="#242424" stroke="#242424" points="916.7785,-141.0049 906.2968,-142.5491 915.4538,-147.8784 916.7785,-141.0049"/>
</g>
<!-- object/by&#45;keys&#45;or&#45;number.js&#45;&gt;object/by&#45;keys.js -->
<g id="edge42" class="edge">
<title>object/by&#45;keys&#45;or&#45;number.js&#45;&gt;object/by&#45;keys.js</title>
<path fill="none" stroke="#242424" d="M1278.577,-804.7779C1245.4342,-784.9267 1192.3165,-753.1114 1156.1013,-731.42"/>
<polygon fill="#242424" stroke="#242424" points="1157.658,-728.2727 1147.2806,-726.1368 1154.0611,-734.2779 1157.658,-728.2727"/>
</g>
<!-- object/by&#45;keys&#45;or&#45;number.js&#45;&gt;object/by&#45;number&#45;of&#45;keys.js -->
<g id="edge43" class="edge">
<title>object/by&#45;keys&#45;or&#45;number.js&#45;&gt;object/by&#45;number&#45;of&#45;keys.js</title>
<path fill="none" stroke="#242424" d="M1309,-804.7779C1309,-786.3567 1309,-757.6329 1309,-736.2569"/>
<polygon fill="#242424" stroke="#242424" points="1312.5001,-736.1368 1309,-726.1368 1305.5001,-736.1369 1312.5001,-736.1368"/>
</g>
<!-- object/by&#45;condition.js -->
<g id="node27" class="node">
<title>object/by&#45;condition.js</title>
<polygon fill="none" stroke="#242424" stroke-width="4" points="1386.4005,-611 1211.5995,-611 1211.5995,-575 1386.4005,-575 1386.4005,-611"/>
<text text-anchor="middle" x="1299" y="-590.6" font-family="Fira Code" font-size="12.00" fill="#242424">object/by&#45;condition.js</text>
</g>
<!-- object/by&#45;keys&#45;or&#45;number.js&#45;&gt;object/by&#45;condition.js -->
<g id="edge41" class="edge">
<title>object/by&#45;keys&#45;or&#45;number.js&#45;&gt;object/by&#45;condition.js</title>
<path fill="none" stroke="#242424" d="M1344.8082,-804.8327C1386.2316,-781.151 1445.9828,-737.1578 1423,-690 1407.1169,-657.4099 1374.4027,-632.5507 1346.5634,-616.1605"/>
<polygon fill="#242424" stroke="#242424" points="1348.1471,-613.0348 1337.7235,-611.1375 1344.6888,-619.1209 1348.1471,-613.0348"/>
</g>
<!-- object/by&#45;keys.js&#45;&gt;object/by&#45;condition.js -->
<g id="edge44" class="edge">
<title>object/by&#45;keys.js&#45;&gt;object/by&#45;condition.js</title>
<path fill="none" stroke="#242424" d="M1145.8384,-689.7779C1177.122,-670.0108 1227.1799,-638.3808 1261.498,-616.6963"/>
<polygon fill="#242424" stroke="#242424" points="1263.7123,-619.4374 1270.2965,-611.1368 1259.9731,-613.5197 1263.7123,-619.4374"/>
</g>
<!-- utils/length.js -->
<g id="node28" class="node">
<title>utils/length.js</title>
<polygon fill="none" stroke="#242424" stroke-width="4" points="1174,-496 1050,-496 1050,-460 1174,-460 1174,-496"/>
<text text-anchor="middle" x="1112" y="-475.6" font-family="Fira Code" font-size="12.00" fill="#242424">utils/length.js</text>
</g>
<!-- object/by&#45;keys.js&#45;&gt;utils/length.js -->
<g id="edge45" class="edge">
<title>object/by&#45;keys.js&#45;&gt;utils/length.js</title>
<path fill="none" stroke="#242424" d="M1116.6077,-689.9523C1115.7408,-650.0788 1113.6571,-554.2253 1112.615,-506.2908"/>
<polygon fill="#242424" stroke="#242424" points="1116.114,-506.2037 1112.3974,-496.2821 1109.1157,-506.3559 1116.114,-506.2037"/>
</g>
<!-- utils/matching&#45;key&#45;count.js -->
<g id="node29" class="node">
<title>utils/matching&#45;key&#45;count.js</title>
<polygon fill="none" stroke="#242424" stroke-width="4" points="994.4004,-611 783.5996,-611 783.5996,-575 994.4004,-575 994.4004,-611"/>
<text text-anchor="middle" x="889" y="-590.6" font-family="Fira Code" font-size="12.00" fill="#242424">utils/matching&#45;key&#45;count.js</text>
</g>
<!-- object/by&#45;keys.js&#45;&gt;utils/matching&#45;key&#45;count.js -->
<g id="edge46" class="edge">
<title>object/by&#45;keys.js&#45;&gt;utils/matching&#45;key&#45;count.js</title>
<path fill="none" stroke="#242424" d="M1081.1242,-689.9047C1041.4008,-669.8688 977.2931,-637.5338 934.1768,-615.7865"/>
<polygon fill="#242424" stroke="#242424" points="935.5475,-612.5579 925.0427,-611.1794 932.3951,-618.8079 935.5475,-612.5579"/>
</g>
<!-- object/by&#45;number&#45;of&#45;keys.js&#45;&gt;object/by&#45;condition.js -->
<g id="edge47" class="edge">
<title>object/by&#45;number&#45;of&#45;keys.js&#45;&gt;object/by&#45;condition.js</title>
<path fill="none" stroke="#242424" d="M1307.4155,-689.7779C1305.8136,-671.3567 1303.3159,-642.6329 1301.4571,-621.2569"/>
<polygon fill="#242424" stroke="#242424" points="1304.9303,-620.796 1300.5771,-611.1368 1297.9567,-621.4025 1304.9303,-620.796"/>
</g>
<!-- object/by&#45;number&#45;of&#45;keys.js&#45;&gt;utils/length.js -->
<g id="edge48" class="edge">
<title>object/by&#45;number&#45;of&#45;keys.js&#45;&gt;utils/length.js</title>
<path fill="none" stroke="#242424" d="M1286.0759,-689.6754C1263.5933,-671.1166 1228.9999,-640.9522 1203,-611 1173.3406,-576.8319 1144.839,-532.7574 1127.8684,-504.9278"/>
<polygon fill="#242424" stroke="#242424" points="1130.7344,-502.9029 1122.5702,-496.1504 1124.7415,-506.5204 1130.7344,-502.9029"/>
</g>
<!-- params/curry.js&#45;&gt;placeholder/index.js -->
<g id="edge53" class="edge">
<title>params/curry.js&#45;&gt;placeholder/index.js</title>
<path fill="none" stroke="#242424" d="M906.0093,-123.2448C1035.2468,-102.9133 1333.8858,-55.9318 1484.5686,-32.2266"/>
<polygon fill="#242424" stroke="#242424" points="1485.3826,-35.6416 1494.7171,-30.63 1484.2947,-28.7267 1485.3826,-35.6416"/>
</g>
<!-- params/curry.js&#45;&gt;Ⓜ fast.js/array/some.js -->
<g id="edge52" class="edge">
<title>params/curry.js&#45;&gt;Ⓜ fast.js/array/some.js</title>
<path fill="none" stroke="#242424" d="M781.8636,-123.3437C654.7122,-103.5836 363.6896,-58.3572 207.5333,-34.0896"/>
<polygon fill="#242424" stroke="#242424" points="207.8646,-30.5992 197.4457,-32.522 206.7896,-37.5162 207.8646,-30.5992"/>
</g>
<!-- utils/object.js&#45;&gt;params/curry.js -->
<g id="edge72" class="edge">
<title>utils/object.js&#45;&gt;params/curry.js</title>
<path fill="none" stroke="#242424" d="M1177.1854,-344.836C1171.8517,-316.4378 1157.6391,-261.5197 1124,-230 1066.7465,-176.3539 978.3354,-152.2001 916.2102,-141.4385"/>
<polygon fill="#242424" stroke="#242424" points="916.5263,-137.9433 906.0889,-139.763 915.383,-144.8493 916.5263,-137.9433"/>
</g>
<!-- params/remap.js&#45;&gt;params/curry.js -->
<g id="edge58" class="edge">
<title>params/remap.js&#45;&gt;params/curry.js</title>
<path fill="none" stroke="#242424" d="M272.7526,-459.9477C280.7941,-413.7746 308.7022,-290.7499 385,-230 443.9898,-183.0311 657.7699,-153.2612 771.5643,-140.3822"/>
<polygon fill="#242424" stroke="#242424" points="772.038,-143.8511 781.5874,-139.2622 771.2606,-136.8944 772.038,-143.8511"/>
</g>
<!-- fp/compose.js -->
<g id="node21" class="node">
<title>fp/compose.js</title>
<polygon fill="none" stroke="#242424" stroke-width="4" points="917.6007,-496 808.3993,-496 808.3993,-460 917.6007,-460 917.6007,-496"/>
<text text-anchor="middle" x="863" y="-475.6" font-family="Fira Code" font-size="12.00" fill="#242424">fp/compose.js</text>
</g>
<!-- fp/compose.js&#45;&gt;fp/pipe.js -->
<g id="edge24" class="edge">
<title>fp/compose.js&#45;&gt;fp/pipe.js</title>
<path fill="none" stroke="#242424" d="M887.5602,-459.7779C913.976,-440.1791 956.11,-408.9184 985.3124,-387.2521"/>
<polygon fill="#242424" stroke="#242424" points="987.6092,-389.9062 993.5547,-381.1368 983.4382,-384.2845 987.6092,-389.9062"/>
</g>
<!-- utils/delegatee.js&#45;&gt;params/curry.js -->
<g id="edge60" class="edge">
<title>utils/delegatee.js&#45;&gt;params/curry.js</title>
<path fill="none" stroke="#242424" d="M758.1622,-229.7779C775.1725,-210.5997 802.0872,-180.2546 821.2407,-158.66"/>
<polygon fill="#242424" stroke="#242424" points="823.8963,-160.9406 827.9134,-151.1368 818.6594,-156.2957 823.8963,-160.9406"/>
</g>
<!-- fp/index.js -->
<g id="node23" class="node">
<title>fp/index.js</title>
<polygon fill="none" stroke="#242424" stroke-width="4" points="520.7002,-611 425.2998,-611 425.2998,-575 520.7002,-575 520.7002,-611"/>
<text text-anchor="middle" x="473" y="-590.6" font-family="Fira Code" font-size="12.00" fill="#242424">fp/index.js</text>
</g>
<!-- fp/index.js&#45;&gt;fp/filter.js -->
<g id="edge27" class="edge">
<title>fp/index.js&#45;&gt;fp/filter.js</title>
<path fill="none" stroke="#242424" d="M454.7941,-574.899C430.4713,-548.4448 393.0603,-498.2175 417,-460 447.2185,-411.7591 509.0149,-386.9063 555.9658,-374.5055"/>
<polygon fill="#242424" stroke="#242424" points="556.8996,-377.8798 565.7426,-372.0444 555.1907,-371.0915 556.8996,-377.8798"/>
</g>
<!-- fp/index.js&#45;&gt;fp/pipe.js -->
<g id="edge28" class="edge">
<title>fp/index.js&#45;&gt;fp/pipe.js</title>
<path fill="none" stroke="#242424" d="M520.8088,-578.9343C590.1983,-558.129 715.0044,-519.1262 756,-496 777.7087,-483.7538 777.8427,-473.1759 799,-460 852.2209,-426.8561 918.7182,-399.106 964.3918,-381.8932"/>
<polygon fill="#242424" stroke="#242424" points="965.6625,-385.1549 973.8097,-378.3819 963.2171,-378.5959 965.6625,-385.1549"/>
</g>
<!-- fp/index.js&#45;&gt;fp/compose.js -->
<g id="edge26" class="edge">
<title>fp/index.js&#45;&gt;fp/compose.js</title>
<path fill="none" stroke="#242424" d="M520.8217,-578.8987C590.555,-558.3364 720.323,-520.0714 798.4606,-497.0308"/>
<polygon fill="#242424" stroke="#242424" points="799.5926,-500.3461 808.1944,-494.1606 797.6127,-493.6319 799.5926,-500.3461"/>
</g>
<!-- index.js -->
<g id="node24" class="node">
<title>index.js</title>
<polygon fill="none" stroke="#242424" stroke-width="4" points="434.6011,-1071 361.3989,-1071 361.3989,-1035 434.6011,-1035 434.6011,-1071"/>
<text text-anchor="middle" x="398" y="-1050.6" font-family="Fira Code" font-size="12.00" fill="#242424">index.js</text>
</g>
<!-- index.js&#45;&gt;../package.json -->
<g id="edge29" class="edge">
<title>index.js&#45;&gt;../package.json</title>
<path fill="none" stroke="#242424" d="M383.7392,-1034.7779C368.8618,-1015.7679 345.3979,-985.7862 328.528,-964.2303"/>
<polygon fill="#242424" stroke="#242424" points="331.1134,-961.8548 322.194,-956.1368 325.6009,-966.169 331.1134,-961.8548"/>
</g>
<!-- index.js&#45;&gt;combinators/index.js -->
<g id="edge30" class="edge">
<title>index.js&#45;&gt;combinators/index.js</title>
<path fill="none" stroke="#242424" d="M434.921,-1040.693C493.1943,-1021.2686 607.2316,-983.2561 679.0283,-959.3239"/>
<polygon fill="#242424" stroke="#242424" points="680.4885,-962.5266 688.8685,-956.0438 678.2749,-955.8858 680.4885,-962.5266"/>
</g>
<!-- index.js&#45;&gt;fp/pipe.js -->
<g id="edge32" class="edge">
<title>index.js&#45;&gt;fp/pipe.js</title>
<path fill="none" stroke="#242424" d="M395.9239,-1034.8134C387.3627,-956.2965 357.9004,-647.0991 416,-575 504.4024,-465.2964 602.1836,-568.4795 723,-496 741.6127,-484.834 737.9851,-472.1068 756,-460 820.9956,-416.3202 908.2185,-389.1543 963.781,-375.046"/>
<polygon fill="#242424" stroke="#242424" points="964.914,-378.371 973.7748,-372.5626 963.2259,-371.5776 964.914,-378.371"/>
</g>
<!-- index.js&#45;&gt;placeholder/index.js -->
<g id="edge37" class="edge">
<title>index.js&#45;&gt;placeholder/index.js</title>
<path fill="none" stroke="#242424" d="M434.6898,-1050.2622C614.9053,-1036.7315 1399.5888,-976.8223 1447,-956 1527.6685,-920.5717 1594,-911.1054 1594,-823 1594,-823 1594,-823 1594,-248 1594,-175.0507 1584.3894,-89.527 1578.8385,-46.2145"/>
<polygon fill="#242424" stroke="#242424" points="1582.2891,-45.6079 1577.5231,-36.1456 1575.3481,-46.5148 1582.2891,-45.6079"/>
</g>
<!-- index.js&#45;&gt;params/curry.js -->
<g id="edge34" class="edge">
<title>index.js&#45;&gt;params/curry.js</title>
<path fill="none" stroke="#242424" d="M361.2987,-1043.2748C319.6137,-1030.3185 252.5305,-1003.3368 215,-956 177.0259,-908.1036 180,-884.1236 180,-823 180,-823 180,-823 180,-363 180,-268.1155 260.8583,-269.7827 347,-230 488.2572,-164.7634 671.7481,-143.3668 771.5592,-136.3735"/>
<polygon fill="#242424" stroke="#242424" points="772.0927,-139.8457 781.8359,-135.6838 771.624,-132.8614 772.0927,-139.8457"/>
</g>
<!-- index.js&#45;&gt;params/remap.js -->
<g id="edge36" class="edge">
<title>index.js&#45;&gt;params/remap.js</title>
<path fill="none" stroke="#242424" d="M361.3276,-1041.4516C323.6189,-1027.5401 266.3819,-1000.3393 237,-956 204.0163,-906.2254 218,-882.7112 218,-823 218,-823 218,-823 218,-708 218,-633.3371 244.392,-548.3226 259.5718,-505.6001"/>
<polygon fill="#242424" stroke="#242424" points="262.8734,-506.7619 262.987,-496.1677 256.2916,-504.3787 262.8734,-506.7619"/>
</g>
<!-- index.js&#45;&gt;fp/compose.js -->
<g id="edge31" class="edge">
<title>index.js&#45;&gt;fp/compose.js</title>
<path fill="none" stroke="#242424" d="M402.1807,-1034.9048C420.714,-956.0948 497.6493,-643.6808 568,-575 584.9133,-558.4881 717.0928,-519.0784 798.6767,-495.8916"/>
<polygon fill="#242424" stroke="#242424" points="799.6968,-499.2404 808.364,-493.147 797.7886,-492.5055 799.6968,-499.2404"/>
</g>
<!-- object/index.js -->
<g id="node25" class="node">
<title>object/index.js</title>
<polygon fill="none" stroke="#242424" stroke-width="4" points="1181,-956 1057,-956 1057,-920 1181,-920 1181,-956"/>
<text text-anchor="middle" x="1119" y="-935.6" font-family="Fira Code" font-size="12.00" fill="#242424">object/index.js</text>
</g>
<!-- index.js&#45;&gt;object/index.js -->
<g id="edge33" class="edge">
<title>index.js&#45;&gt;object/index.js</title>
<path fill="none" stroke="#242424" d="M434.7457,-1047.139C548.2858,-1029.0293 894.9648,-973.7338 1046.6532,-949.5394"/>
<polygon fill="#242424" stroke="#242424" points="1047.4713,-952.9532 1056.7952,-947.9217 1046.3687,-946.0406 1047.4713,-952.9532"/>
</g>
<!-- params/ify.js -->
<g id="node26" class="node">
<title>params/ify.js</title>
<polygon fill="none" stroke="#242424" stroke-width="4" points="113.6007,-496 4.3993,-496 4.3993,-460 113.6007,-460 113.6007,-496"/>
<text text-anchor="middle" x="59" y="-475.6" font-family="Fira Code" font-size="12.00" fill="#242424">params/ify.js</text>
</g>
<!-- index.js&#45;&gt;params/ify.js -->
<g id="edge35" class="edge">
<title>index.js&#45;&gt;params/ify.js</title>
<path fill="none" stroke="#242424" d="M361.2705,-1049.2817C262.7422,-1037.084 0,-988.9949 0,-823 0,-823 0,-823 0,-708 0,-648.2888 3.274,-632.6032 19,-575 25.6183,-550.7577 36.7193,-524.4749 45.5498,-505.3904"/>
<polygon fill="#242424" stroke="#242424" points="48.8241,-506.653 49.9249,-496.1155 42.4931,-503.6666 48.8241,-506.653"/>
</g>
<!-- object/index.js&#45;&gt;object/by&#45;keys&#45;or&#45;number.js -->
<g id="edge49" class="edge">
<title>object/index.js&#45;&gt;object/by&#45;keys&#45;or&#45;number.js</title>
<path fill="none" stroke="#242424" d="M1149.1061,-919.7779C1181.9037,-899.9267 1234.4681,-868.1114 1270.306,-846.42"/>
<polygon fill="#242424" stroke="#242424" points="1272.2921,-849.3092 1279.0348,-841.1368 1268.6674,-843.3207 1272.2921,-849.3092"/>
</g>
<!-- object/index.js&#45;&gt;object/by&#45;keys.js -->
<g id="edge50" class="edge">
<title>object/index.js&#45;&gt;object/by&#45;keys.js</title>
<path fill="none" stroke="#242424" d="M1118.8431,-919.9523C1118.4963,-880.0788 1117.6628,-784.2253 1117.246,-736.2908"/>
<polygon fill="#242424" stroke="#242424" points="1120.7459,-736.2513 1117.159,-726.2821 1113.7462,-736.3122 1120.7459,-736.2513"/>
</g>
<!-- object/index.js&#45;&gt;object/by&#45;number&#45;of&#45;keys.js -->
<g id="edge51" class="edge">
<title>object/index.js&#45;&gt;object/by&#45;number&#45;of&#45;keys.js</title>
<path fill="none" stroke="#242424" d="M1126.8341,-919.982C1139.0013,-893.194 1164.2683,-842.0486 1195,-805 1218.3005,-776.9101 1250.3453,-750.4471 1274.5276,-732.28"/>
<polygon fill="#242424" stroke="#242424" points="1276.7711,-734.974 1282.7261,-726.211 1272.6062,-729.3478 1276.7711,-734.974"/>
</g>
<!-- params/ify.js&#45;&gt;Ⓜ fast.js/array/some.js -->
<g id="edge54" class="edge">
<title>params/ify.js&#45;&gt;Ⓜ fast.js/array/some.js</title>
<path fill="none" stroke="#242424" d="M60.1761,-459.8328C63.6972,-406.6901 74.8555,-246.9593 90,-115 92.6681,-91.752 96.5101,-65.4872 99.4946,-46.1568"/>
<polygon fill="#242424" stroke="#242424" points="102.9654,-46.6149 101.0515,-36.1943 96.0493,-45.534 102.9654,-46.6149"/>
</g>
<!-- object/by&#45;condition.js&#45;&gt;fp/pipe.js -->
<g id="edge38" class="edge">
<title>object/by&#45;condition.js&#45;&gt;fp/pipe.js</title>
<path fill="none" stroke="#242424" d="M1285.9549,-574.5594C1265.9963,-547.2323 1225.6816,-495.4073 1183,-460 1146.6111,-429.8129 1099.7012,-403.2171 1065.2065,-385.5457"/>
<polygon fill="#242424" stroke="#242424" points="1066.7759,-382.4173 1056.2728,-381.0259 1063.6158,-388.6634 1066.7759,-382.4173"/>
</g>
<!-- object/by&#45;condition.js&#45;&gt;params/curry.js -->
<g id="edge39" class="edge">
<title>object/by&#45;condition.js&#45;&gt;params/curry.js</title>
<path fill="none" stroke="#242424" d="M1338.2907,-574.9843C1382.0387,-552.0937 1444.0223,-509.5502 1423,-460 1365.548,-324.5836 1312.4565,-303.4381 1185,-230 1099.6837,-180.8424 987.834,-155.2433 915.9291,-142.9555"/>
<polygon fill="#242424" stroke="#242424" points="916.4946,-139.5015 906.0551,-141.3089 915.3431,-146.4062 916.4946,-139.5015"/>
</g>
<!-- object/by&#45;condition.js&#45;&gt;utils/object.js -->
<g id="edge40" class="edge">
<title>object/by&#45;condition.js&#45;&gt;utils/object.js</title>
<path fill="none" stroke="#242424" d="M1289.6623,-574.9523C1268.902,-534.8275 1218.812,-438.0148 1194.1715,-390.3902"/>
<polygon fill="#242424" stroke="#242424" points="1197.1629,-388.5554 1189.459,-381.2821 1190.9458,-391.7721 1197.1629,-388.5554"/>
</g>
<!-- utils/length.js&#45;&gt;fp/pipe.js -->
<g id="edge61" class="edge">
<title>utils/length.js&#45;&gt;fp/pipe.js</title>
<path fill="none" stroke="#242424" d="M1097.1054,-459.7779C1081.498,-440.6838 1056.8429,-410.5206 1039.2069,-388.9446"/>
<polygon fill="#242424" stroke="#242424" points="1041.8635,-386.6644 1032.8249,-381.1368 1036.4437,-391.0945 1041.8635,-386.6644"/>
</g>
<!-- utils/length.js&#45;&gt;utils/object.js -->
<g id="edge62" class="edge">
<title>utils/length.js&#45;&gt;utils/object.js</title>
<path fill="none" stroke="#242424" d="M1122.7748,-459.7779C1133.916,-440.9361 1151.4306,-411.3159 1164.1504,-389.8045"/>
<polygon fill="#242424" stroke="#242424" points="1167.1985,-391.5261 1169.2756,-381.1368 1161.173,-387.9632 1167.1985,-391.5261"/>
</g>
<!-- utils/prop.js -->
<g id="node34" class="node">
<title>utils/prop.js</title>
<polygon fill="none" stroke="#242424" stroke-width="4" points="1114.6007,-266 1005.3993,-266 1005.3993,-230 1114.6007,-230 1114.6007,-266"/>
<text text-anchor="middle" x="1060" y="-245.6" font-family="Fira Code" font-size="12.00" fill="#242424">utils/prop.js</text>
</g>
<!-- utils/length.js&#45;&gt;utils/prop.js -->
<g id="edge63" class="edge">
<title>utils/length.js&#45;&gt;utils/prop.js</title>
<path fill="none" stroke="#242424" d="M1107.9196,-459.9523C1098.9048,-420.0788 1077.2335,-324.2253 1066.3962,-276.2908"/>
<polygon fill="#242424" stroke="#242424" points="1069.7525,-275.2641 1064.1334,-266.2821 1062.9248,-276.8078 1069.7525,-275.2641"/>
</g>
<!-- utils/matching&#45;key&#45;count.js&#45;&gt;fp/pipe.js -->
<g id="edge64" class="edge">
<title>utils/matching&#45;key&#45;count.js&#45;&gt;fp/pipe.js</title>
<path fill="none" stroke="#242424" d="M904.1598,-574.876C919.4936,-555.9878 943.26,-525.1328 960,-496 980.0079,-461.1801 997.5891,-418.1494 1008.0068,-390.6378"/>
<polygon fill="#242424" stroke="#242424" points="1011.2937,-391.8406 1011.512,-381.248 1004.7357,-389.3925 1011.2937,-391.8406"/>
</g>
<!-- utils/matching&#45;key&#45;count.js&#45;&gt;params/curry.js -->
<g id="edge65" class="edge">
<title>utils/matching&#45;key&#45;count.js&#45;&gt;params/curry.js</title>
<path fill="none" stroke="#242424" d="M898.5823,-574.6613C907.9588,-555.6021 921.5953,-524.6132 927,-496 939.4562,-430.055 939.4493,-410.9463 927,-345 913.887,-275.5375 878.5872,-199.6618 858.5003,-160.2349"/>
<polygon fill="#242424" stroke="#242424" points="861.4416,-158.3025 853.744,-151.0226 855.2217,-161.5138 861.4416,-158.3025"/>
</g>
<!-- utils/matching&#45;key&#45;count.js&#45;&gt;utils/length.js -->
<g id="edge66" class="edge">
<title>utils/matching&#45;key&#45;count.js&#45;&gt;utils/length.js</title>
<path fill="none" stroke="#242424" d="M924.335,-574.7779C963.2368,-554.7164 1025.8327,-522.436 1067.9156,-500.7341"/>
<polygon fill="#242424" stroke="#242424" points="1069.5467,-503.831 1076.8303,-496.1368 1066.3383,-497.6095 1069.5467,-503.831"/>
</g>
<!-- utils/matching&#45;keys.js -->
<g id="node35" class="node">
<title>utils/matching&#45;keys.js</title>
<polygon fill="none" stroke="#242424" stroke-width="4" points="600.4005,-496 425.5995,-496 425.5995,-460 600.4005,-460 600.4005,-496"/>
<text text-anchor="middle" x="513" y="-475.6" font-family="Fira Code" font-size="12.00" fill="#242424">utils/matching&#45;keys.js</text>
</g>
<!-- utils/matching&#45;key&#45;count.js&#45;&gt;utils/matching&#45;keys.js -->
<g id="edge67" class="edge">
<title>utils/matching&#45;key&#45;count.js&#45;&gt;utils/matching&#45;keys.js</title>
<path fill="none" stroke="#242424" d="M829.8364,-574.9047C762.5809,-554.3346 652.9395,-520.8006 581.8894,-499.0699"/>
<polygon fill="#242424" stroke="#242424" points="582.7149,-495.6624 572.1284,-496.0845 580.6675,-502.3563 582.7149,-495.6624"/>
</g>
<!-- params/index.js -->
<g id="node30" class="node">
<title>params/index.js</title>
<polygon fill="none" stroke="#242424" stroke-width="4" points="152,-611 28,-611 28,-575 152,-575 152,-611"/>
<text text-anchor="middle" x="90" y="-590.6" font-family="Fira Code" font-size="12.00" fill="#242424">params/index.js</text>
</g>
<!-- params/index.js&#45;&gt;params/curry.js -->
<g id="edge55" class="edge">
<title>params/index.js&#45;&gt;params/curry.js</title>
<path fill="none" stroke="#242424" d="M97.2634,-574.68C104.6706,-555.3788 116.0356,-523.9626 123,-496 151.9427,-379.7931 80.5535,-313.9084 166,-230 208.8225,-187.9483 605.8091,-151.8929 771.6921,-138.5313"/>
<polygon fill="#242424" stroke="#242424" points="772.1134,-142.0089 781.8022,-137.7221 771.5548,-135.0312 772.1134,-142.0089"/>
</g>
<!-- params/index.js&#45;&gt;params/remap.js -->
<g id="edge57" class="edge">
<title>params/index.js&#45;&gt;params/remap.js</title>
<path fill="none" stroke="#242424" d="M118.5215,-574.7779C149.4613,-555.0108 198.9691,-523.3808 232.9101,-501.6963"/>
<polygon fill="#242424" stroke="#242424" points="235.0693,-504.4702 241.6119,-496.1368 231.3005,-498.5713 235.0693,-504.4702"/>
</g>
<!-- params/index.js&#45;&gt;params/ify.js -->
<g id="edge56" class="edge">
<title>params/index.js&#45;&gt;params/ify.js</title>
<path fill="none" stroke="#242424" d="M85.088,-574.7779C80.0996,-556.2726 72.3085,-527.3704 66.5383,-505.9646"/>
<polygon fill="#242424" stroke="#242424" points="69.8713,-504.8812 63.8891,-496.1368 63.1125,-506.7032 69.8713,-504.8812"/>
</g>
<!-- performance.fixture.js -->
<g id="node31" class="node">
<title>performance.fixture.js</title>
<polygon fill="none" stroke="#0c821d" stroke-width="4" points="1542.4005,-252 1367.5995,-252 1367.5995,-216 1542.4005,-216 1542.4005,-252"/>
<text text-anchor="middle" x="1455" y="-231.6" font-family="Fira Code" font-size="12.00" fill="#0c821d">performance.fixture.js</text>
</g>
<!-- performance2.fixture.js -->
<g id="node32" class="node">
<title>performance2.fixture.js</title>
<polygon fill="none" stroke="#0c821d" stroke-width="4" points="1045.6004,-36 864.3996,-36 864.3996,0 1045.6004,0 1045.6004,-36"/>
<text text-anchor="middle" x="955" y="-15.6" font-family="Fira Code" font-size="12.00" fill="#0c821d">performance2.fixture.js</text>
</g>
<!-- utils/array.js -->
<g id="node33" class="node">
<title>utils/array.js</title>
<polygon fill="none" stroke="#242424" stroke-width="4" points="510.3002,-266 393.6998,-266 393.6998,-230 510.3002,-230 510.3002,-266"/>
<text text-anchor="middle" x="452" y="-245.6" font-family="Fira Code" font-size="12.00" fill="#242424">utils/array.js</text>
</g>
<!-- utils/array.js&#45;&gt;params/curry.js -->
<g id="edge59" class="edge">
<title>utils/array.js&#45;&gt;params/curry.js</title>
<path fill="none" stroke="#242424" d="M510.6864,-230.7833C580.5933,-210.2749 697.3346,-176.0269 772.4625,-153.9868"/>
<polygon fill="#242424" stroke="#242424" points="773.7118,-157.2678 782.3221,-151.0943 771.7413,-150.5509 773.7118,-157.2678"/>
</g>
<!-- utils/prop.js&#45;&gt;params/curry.js -->
<g id="edge73" class="edge">
<title>utils/prop.js&#45;&gt;params/curry.js</title>
<path fill="none" stroke="#242424" d="M1025.7742,-229.7779C988.1725,-209.7585 927.7166,-177.5713 886.9572,-155.8708"/>
<polygon fill="#242424" stroke="#242424" points="888.5375,-152.747 878.0657,-151.1368 885.2478,-158.9258 888.5375,-152.747"/>
</g>
<!-- utils/matching&#45;keys.js&#45;&gt;fp/filter.js -->
<g id="edge68" class="edge">
<title>utils/matching&#45;keys.js&#45;&gt;fp/filter.js</title>
<path fill="none" stroke="#242424" d="M529.4791,-459.7779C546.8229,-440.5997 574.2654,-410.2546 593.7945,-388.66"/>
<polygon fill="#242424" stroke="#242424" points="596.4864,-390.9014 600.598,-381.1368 591.2946,-386.2061 596.4864,-390.9014"/>
</g>
<!-- utils/matching&#45;keys.js&#45;&gt;params/curry.js -->
<g id="edge69" class="edge">
<title>utils/matching&#45;keys.js&#45;&gt;params/curry.js</title>
<path fill="none" stroke="#242424" d="M516.5302,-459.8106C522.2201,-433.2463 535.0598,-382.8831 557,-345 591.3875,-285.6245 605.9118,-272.2186 660,-230 700.0198,-198.7625 751.5756,-172.5807 789.9279,-155.3224"/>
<polygon fill="#242424" stroke="#242424" points="791.6576,-158.384 799.379,-151.1293 788.8188,-151.9855 791.6576,-158.384"/>
</g>
<!-- utils/matching&#45;keys.js&#45;&gt;utils/object.js -->
<g id="edge71" class="edge">
<title>utils/matching&#45;keys.js&#45;&gt;utils/object.js</title>
<path fill="none" stroke="#242424" d="M600.366,-461.5534C603.278,-461.0261 606.1622,-460.507 609,-460 703.783,-443.0646 976.3065,-397.1828 1107.595,-375.1412"/>
<polygon fill="#242424" stroke="#242424" points="1108.2802,-378.5752 1117.5628,-373.468 1107.1214,-371.6718 1108.2802,-378.5752"/>
</g>
<!-- utils/matching&#45;keys.js&#45;&gt;utils/array.js -->
<g id="edge70" class="edge">
<title>utils/matching&#45;keys.js&#45;&gt;utils/array.js</title>
<path fill="none" stroke="#242424" d="M508.2134,-459.9523C497.6161,-419.995 472.1094,-323.8223 459.4233,-275.9893"/>
<polygon fill="#242424" stroke="#242424" points="462.7954,-275.0507 456.8487,-266.2821 456.0293,-276.8452 462.7954,-275.0507"/>
</g>
<!-- utils/testing.js -->
<g id="node36" class="node">
<title>utils/testing.js</title>
<polygon fill="none" stroke="#0c821d" stroke-width="4" points="1283.7002,-36 1152.2998,-36 1152.2998,0 1283.7002,0 1283.7002,-36"/>
<text text-anchor="middle" x="1218" y="-15.6" font-family="Fira Code" font-size="12.00" fill="#0c821d">utils/testing.js</text>
</g>
</g>
</svg>
