<?xml version="1.0" encoding="UTF-8" standalone="no"?>
<!DOCTYPE svg PUBLIC "-//W3C//DTD SVG 1.1//EN"
 "http://www.w3.org/Graphics/SVG/1.1/DTD/svg11.dtd">
<!-- Generated by graphviz version 2.40.1 (20161225.0304)
 -->
<!-- Title: G Pages: 1 -->
<svg width="712pt" height="635pt"
 viewBox="0.00 0.00 712.18 634.98" xmlns="http://www.w3.org/2000/svg" xmlns:xlink="http://www.w3.org/1999/xlink">
<g id="graph0" class="graph" transform="scale(1 1) rotate(0) translate(7.992 626.992)">
<title>G</title>
<polygon fill="#eeeeff" stroke="transparent" points="-7.992,7.992 -7.992,-626.992 704.192,-626.992 704.192,7.992 -7.992,7.992"/>
<!-- ../package.json -->
<g id="node1" class="node">
<title>../package.json</title>
<polygon fill="none" stroke="#0c821d" stroke-width="4" points="498.2,-421 374.2,-421 374.2,-385 498.2,-385 498.2,-421"/>
<text text-anchor="middle" x="436.2" y="-400.6" font-family="Fira Code" font-size="12.00" fill="#0c821d">../package.json</text>
</g>
<!-- combinators/constant.js -->
<g id="node2" class="node">
<title>combinators/constant.js</title>
<polygon fill="none" stroke="#0c821d" stroke-width="4" points="676.8004,-487 495.5996,-487 495.5996,-451 676.8004,-451 676.8004,-487"/>
<text text-anchor="middle" x="586.2" y="-466.6" font-family="Fira Code" font-size="12.00" fill="#0c821d">combinators/constant.js</text>
</g>
<!-- combinators/identity.js -->
<g id="node3" class="node">
<title>combinators/identity.js</title>
<polygon fill="none" stroke="#0c821d" stroke-width="4" points="313.8004,-179 132.5996,-179 132.5996,-143 313.8004,-143 313.8004,-179"/>
<text text-anchor="middle" x="223.2" y="-158.6" font-family="Fira Code" font-size="12.00" fill="#0c821d">combinators/identity.js</text>
</g>
<!-- combinators/index.js -->
<g id="node4" class="node">
<title>combinators/index.js</title>
<polygon fill="none" stroke="#0c821d" stroke-width="4" points="446.2,-102 286.2,-102 286.2,-66 446.2,-66 446.2,-102"/>
<text text-anchor="middle" x="366.2" y="-81.6" font-family="Fira Code" font-size="12.00" fill="#0c821d">combinators/index.js</text>
</g>
<!-- curry/ify.js -->
<g id="node5" class="node">
<title>curry/ify.js</title>
<polygon fill="none" stroke="#242424" stroke-width="4" points="256.6008,-360 153.7992,-360 153.7992,-324 256.6008,-324 256.6008,-360"/>
<text text-anchor="middle" x="205.2" y="-339.6" font-family="Fira Code" font-size="12.00" fill="#242424">curry/ify.js</text>
</g>
<!-- Ⓜ fast.js/array/some.js -->
<g id="node6" class="node">
<title>Ⓜ fast.js/array/some.js</title>
<polygon fill="none" stroke="#0c821d" stroke-width="4" points="362.6004,-245 175.7996,-245 175.7996,-209 362.6004,-209 362.6004,-245"/>
<text text-anchor="middle" x="269.2" y="-225.8" font-family="Fira Code" font-size="12.00" fill="#0c821d">Ⓜ fast.js/array/some.js</text>
</g>
<!-- curry/ify.js&#45;&gt;Ⓜ fast.js/array/some.js -->
<g id="edge1" class="edge">
<title>curry/ify.js&#45;&gt;Ⓜ fast.js/array/some.js</title>
<path fill="none" stroke="#242424" d="M215.341,-323.7779C225.78,-305.0202 242.1641,-275.5802 254.1221,-254.0931"/>
<polygon fill="#242424" stroke="#242424" points="257.3018,-255.5769 259.1065,-245.1368 251.1852,-252.1728 257.3018,-255.5769"/>
</g>
<!-- curry/index.js -->
<g id="node7" class="node">
<title>curry/index.js</title>
<polygon fill="none" stroke="#0c821d" stroke-width="4" points="325.5002,-608 208.8998,-608 208.8998,-572 325.5002,-572 325.5002,-608"/>
<text text-anchor="middle" x="267.2" y="-587.6" font-family="Fira Code" font-size="12.00" fill="#0c821d">curry/index.js</text>
</g>
<!-- curry/katsu.js -->
<g id="node8" class="node">
<title>curry/katsu.js</title>
<polygon fill="none" stroke="#242424" stroke-width="4" points="391.5002,-360 274.8998,-360 274.8998,-324 391.5002,-324 391.5002,-360"/>
<text text-anchor="middle" x="333.2" y="-339.6" font-family="Fira Code" font-size="12.00" fill="#242424">curry/katsu.js</text>
</g>
<!-- curry/katsu.js&#45;&gt;Ⓜ fast.js/array/some.js -->
<g id="edge2" class="edge">
<title>curry/katsu.js&#45;&gt;Ⓜ fast.js/array/some.js</title>
<path fill="none" stroke="#242424" d="M323.059,-323.7779C312.62,-305.0202 296.2359,-275.5802 284.2779,-254.0931"/>
<polygon fill="#242424" stroke="#242424" points="287.2148,-252.1728 279.2935,-245.1368 281.0982,-255.5769 287.2148,-252.1728"/>
</g>
<!-- fp/compose.js -->
<g id="node9" class="node">
<title>fp/compose.js</title>
<polygon fill="none" stroke="#0c821d" stroke-width="4" points="120.8007,-520 11.5993,-520 11.5993,-484 120.8007,-484 120.8007,-520"/>
<text text-anchor="middle" x="66.2" y="-499.6" font-family="Fira Code" font-size="12.00" fill="#0c821d">fp/compose.js</text>
</g>
<!-- fp/filter.js -->
<g id="node10" class="node">
<title>fp/filter.js</title>
<polygon fill="none" stroke="#0c821d" stroke-width="4" points="102.6008,-47 -.2008,-47 -.2008,-11 102.6008,-11 102.6008,-47"/>
<text text-anchor="middle" x="51.2" y="-26.6" font-family="Fira Code" font-size="12.00" fill="#0c821d">fp/filter.js</text>
</g>
<!-- fp/index.js -->
<g id="node11" class="node">
<title>fp/index.js</title>
<polygon fill="none" stroke="#0c821d" stroke-width="4" points="227.9002,-47 132.4998,-47 132.4998,-11 227.9002,-11 227.9002,-47"/>
<text text-anchor="middle" x="180.2" y="-26.6" font-family="Fira Code" font-size="12.00" fill="#0c821d">fp/index.js</text>
</g>
<!-- fp/pipe.js -->
<g id="node12" class="node">
<title>fp/pipe.js</title>
<polygon fill="none" stroke="#0c821d" stroke-width="4" points="374.2,-36 286.2,-36 286.2,0 374.2,0 374.2,-36"/>
<text text-anchor="middle" x="330.2" y="-15.6" font-family="Fira Code" font-size="12.00" fill="#0c821d">fp/pipe.js</text>
</g>
<!-- index.js -->
<g id="node13" class="node">
<title>index.js</title>
<polygon fill="none" stroke="#242424" stroke-width="4" points="472.8011,-536 399.5989,-536 399.5989,-500 472.8011,-500 472.8011,-536"/>
<text text-anchor="middle" x="436.2" y="-515.6" font-family="Fira Code" font-size="12.00" fill="#242424">index.js</text>
</g>
<!-- index.js&#45;&gt;../package.json -->
<g id="edge3" class="edge">
<title>index.js&#45;&gt;../package.json</title>
<path fill="none" stroke="#242424" d="M436.2,-499.7779C436.2,-481.3567 436.2,-452.6329 436.2,-431.2569"/>
<polygon fill="#242424" stroke="#242424" points="439.7001,-431.1368 436.2,-421.1368 432.7001,-431.1369 439.7001,-431.1368"/>
</g>
<!-- object/by&#45;condition.js -->
<g id="node14" class="node">
<title>object/by&#45;condition.js</title>
<polygon fill="none" stroke="#0c821d" stroke-width="4" points="515.6005,-168 340.7995,-168 340.7995,-132 515.6005,-132 515.6005,-168"/>
<text text-anchor="middle" x="428.2" y="-147.6" font-family="Fira Code" font-size="12.00" fill="#0c821d">object/by&#45;condition.js</text>
</g>
<!-- object/by&#45;keys&#45;or&#45;number.js -->
<g id="node15" class="node">
<title>object/by&#45;keys&#45;or&#45;number.js</title>
<polygon fill="none" stroke="#0c821d" stroke-width="4" points="628.6004,-300 417.7996,-300 417.7996,-264 628.6004,-264 628.6004,-300"/>
<text text-anchor="middle" x="523.2" y="-279.6" font-family="Fira Code" font-size="12.00" fill="#0c821d">object/by&#45;keys&#45;or&#45;number.js</text>
</g>
<!-- object/by&#45;keys.js -->
<g id="node16" class="node">
<title>object/by&#45;keys.js</title>
<polygon fill="none" stroke="#0c821d" stroke-width="4" points="677.6006,-168 538.7994,-168 538.7994,-132 677.6006,-132 677.6006,-168"/>
<text text-anchor="middle" x="608.2" y="-147.6" font-family="Fira Code" font-size="12.00" fill="#0c821d">object/by&#45;keys.js</text>
</g>
<!-- object/by&#45;number&#45;of&#45;keys.js -->
<g id="node17" class="node">
<title>object/by&#45;number&#45;of&#45;keys.js</title>
<polygon fill="none" stroke="#0c821d" stroke-width="4" points="595.6004,-234 384.7996,-234 384.7996,-198 595.6004,-198 595.6004,-234"/>
<text text-anchor="middle" x="490.2" y="-213.6" font-family="Fira Code" font-size="12.00" fill="#0c821d">object/by&#45;number&#45;of&#45;keys.js</text>
</g>
<!-- object/index.js -->
<g id="node18" class="node">
<title>object/index.js</title>
<polygon fill="none" stroke="#0c821d" stroke-width="4" points="476.2,-608 352.2,-608 352.2,-572 476.2,-572 476.2,-608"/>
<text text-anchor="middle" x="414.2" y="-587.6" font-family="Fira Code" font-size="12.00" fill="#0c821d">object/index.js</text>
</g>
<!-- performance.fixture.js -->
<g id="node19" class="node">
<title>performance.fixture.js</title>
<polygon fill="none" stroke="#0c821d" stroke-width="4" points="372.6005,-542 197.7995,-542 197.7995,-506 372.6005,-506 372.6005,-542"/>
<text text-anchor="middle" x="285.2" y="-521.6" font-family="Fira Code" font-size="12.00" fill="#0c821d">performance.fixture.js</text>
</g>
<!-- performance2.fixture.js -->
<g id="node20" class="node">
<title>performance2.fixture.js</title>
<polygon fill="none" stroke="#0c821d" stroke-width="4" points="687.8004,-553 506.5996,-553 506.5996,-517 687.8004,-517 687.8004,-553"/>
<text text-anchor="middle" x="597.2" y="-532.6" font-family="Fira Code" font-size="12.00" fill="#0c821d">performance2.fixture.js</text>
</g>
<!-- placeholder/index.js -->
<g id="node21" class="node">
<title>placeholder/index.js</title>
<polygon fill="none" stroke="#0c821d" stroke-width="4" points="633.2,-102 473.2,-102 473.2,-66 633.2,-66 633.2,-102"/>
<text text-anchor="middle" x="553.2" y="-81.6" font-family="Fira Code" font-size="12.00" fill="#0c821d">placeholder/index.js</text>
</g>
<!-- testing&#45;helper.js -->
<g id="node22" class="node">
<title>testing&#45;helper.js</title>
<polygon fill="none" stroke="#0c821d" stroke-width="4" points="666.6006,-366 527.7994,-366 527.7994,-330 666.6006,-330 666.6006,-366"/>
<text text-anchor="middle" x="597.2" y="-345.6" font-family="Fira Code" font-size="12.00" fill="#0c821d">testing&#45;helper.js</text>
</g>
<!-- utils/array.js -->
<g id="node23" class="node">
<title>utils/array.js</title>
<polygon fill="none" stroke="#0c821d" stroke-width="4" points="127.5002,-410 10.8998,-410 10.8998,-374 127.5002,-374 127.5002,-410"/>
<text text-anchor="middle" x="69.2" y="-389.6" font-family="Fira Code" font-size="12.00" fill="#0c821d">utils/array.js</text>
</g>
<!-- utils/delegatee.js -->
<g id="node24" class="node">
<title>utils/delegatee.js</title>
<polygon fill="none" stroke="#0c821d" stroke-width="4" points="178.8005,-586 33.5995,-586 33.5995,-550 178.8005,-550 178.8005,-586"/>
<text text-anchor="middle" x="106.2" y="-565.6" font-family="Fira Code" font-size="12.00" fill="#0c821d">utils/delegatee.js</text>
</g>
<!-- utils/length.js -->
<g id="node25" class="node">
<title>utils/length.js</title>
<polygon fill="none" stroke="#0c821d" stroke-width="4" points="146.2,-289 22.2,-289 22.2,-253 146.2,-253 146.2,-289"/>
<text text-anchor="middle" x="84.2" y="-268.6" font-family="Fira Code" font-size="12.00" fill="#0c821d">utils/length.js</text>
</g>
<!-- utils/matching&#45;key&#45;count.js -->
<g id="node26" class="node">
<title>utils/matching&#45;key&#45;count.js</title>
<polygon fill="none" stroke="#0c821d" stroke-width="4" points="353.6004,-476 142.7996,-476 142.7996,-440 353.6004,-440 353.6004,-476"/>
<text text-anchor="middle" x="248.2" y="-455.6" font-family="Fira Code" font-size="12.00" fill="#0c821d">utils/matching&#45;key&#45;count.js</text>
</g>
<!-- utils/matching&#45;keys.js -->
<g id="node27" class="node">
<title>utils/matching&#45;keys.js</title>
<polygon fill="none" stroke="#0c821d" stroke-width="4" points="240.6005,-113 65.7995,-113 65.7995,-77 240.6005,-77 240.6005,-113"/>
<text text-anchor="middle" x="153.2" y="-92.6" font-family="Fira Code" font-size="12.00" fill="#0c821d">utils/matching&#45;keys.js</text>
</g>
<!-- utils/object.js -->
<g id="node28" class="node">
<title>utils/object.js</title>
<polygon fill="none" stroke="#0c821d" stroke-width="4" points="696.2,-619 572.2,-619 572.2,-583 696.2,-583 696.2,-619"/>
<text text-anchor="middle" x="634.2" y="-598.6" font-family="Fira Code" font-size="12.00" fill="#0c821d">utils/object.js</text>
</g>
<!-- utils/prop.js -->
<g id="node29" class="node">
<title>utils/prop.js</title>
<polygon fill="none" stroke="#0c821d" stroke-width="4" points="109.8007,-223 .5993,-223 .5993,-187 109.8007,-187 109.8007,-223"/>
<text text-anchor="middle" x="55.2" y="-202.6" font-family="Fira Code" font-size="12.00" fill="#0c821d">utils/prop.js</text>
</g>
</g>
</svg>
