<?xml version="1.0" encoding="UTF-8" standalone="no"?>
<!DOCTYPE svg PUBLIC "-//W3C//DTD SVG 1.1//EN"
 "http://www.w3.org/Graphics/SVG/1.1/DTD/svg11.dtd">
<!-- Generated by graphviz version 2.40.1 (20161225.0304)
 -->
<!-- Title: G Pages: 1 -->
<svg width="2074pt" height="1202pt"
 viewBox="0.00 0.00 2073.98 1201.98" xmlns="http://www.w3.org/2000/svg" xmlns:xlink="http://www.w3.org/1999/xlink">
<g id="graph0" class="graph" transform="scale(1 1) rotate(0) translate(7.992 1193.992)">
<title>G</title>
<polygon fill="#eeeeff" stroke="transparent" points="-7.992,7.992 -7.992,-1193.992 2065.992,-1193.992 2065.992,7.992 -7.992,7.992"/>
<!-- ../package.json -->
<g id="node1" class="node">
<title>../package.json</title>
<polygon fill="none" stroke="#0c821d" stroke-width="4" points="1935,-1071 1811,-1071 1811,-1035 1935,-1035 1935,-1071"/>
<text text-anchor="middle" x="1873" y="-1050.6" font-family="Fira Code" font-size="12.00" fill="#0c821d">../package.json</text>
</g>
<!-- benchmark.fixture.js -->
<g id="node2" class="node">
<title>benchmark.fixture.js</title>
<polygon fill="none" stroke="#0c821d" stroke-width="4" points="1135,-1086 975,-1086 975,-1050 1135,-1050 1135,-1086"/>
<text text-anchor="middle" x="1055" y="-1065.6" font-family="Fira Code" font-size="12.00" fill="#0c821d">benchmark.fixture.js</text>
</g>
<!-- combinators/constant.js -->
<g id="node3" class="node">
<title>combinators/constant.js</title>
<polygon fill="none" stroke="#0c821d" stroke-width="4" points="409.6004,-841 228.3996,-841 228.3996,-805 409.6004,-805 409.6004,-841"/>
<text text-anchor="middle" x="319" y="-820.6" font-family="Fira Code" font-size="12.00" fill="#0c821d">combinators/constant.js</text>
</g>
<!-- combinators/identity.js -->
<g id="node4" class="node">
<title>combinators/identity.js</title>
<polygon fill="none" stroke="#0c821d" stroke-width="4" points="209.6004,-841 28.3996,-841 28.3996,-805 209.6004,-805 209.6004,-841"/>
<text text-anchor="middle" x="119" y="-820.6" font-family="Fira Code" font-size="12.00" fill="#0c821d">combinators/identity.js</text>
</g>
<!-- combinators/index.js -->
<g id="node5" class="node">
<title>combinators/index.js</title>
<polygon fill="none" stroke="#242424" stroke-width="4" points="404,-956 244,-956 244,-920 404,-920 404,-956"/>
<text text-anchor="middle" x="324" y="-935.6" font-family="Fira Code" font-size="12.00" fill="#242424">combinators/index.js</text>
</g>
<!-- combinators/index.js&#45;&gt;combinators/constant.js -->
<g id="edge1" class="edge">
<title>combinators/index.js&#45;&gt;combinators/constant.js</title>
<path fill="none" stroke="#242424" d="M323.2077,-919.7779C322.4068,-901.3567 321.158,-872.6329 320.2286,-851.2569"/>
<polygon fill="#242424" stroke="#242424" points="323.7197,-850.9753 319.7886,-841.1368 316.7263,-851.2795 323.7197,-850.9753"/>
</g>
<!-- combinators/index.js&#45;&gt;combinators/identity.js -->
<g id="edge2" class="edge">
<title>combinators/index.js&#45;&gt;combinators/identity.js</title>
<path fill="none" stroke="#242424" d="M291.5171,-919.7779C255.9803,-899.8426 198.935,-867.8416 160.2582,-846.1448"/>
<polygon fill="#242424" stroke="#242424" points="161.7647,-842.9769 151.3309,-841.1368 158.3399,-849.0819 161.7647,-842.9769"/>
</g>
<!-- debug/fp.js -->
<g id="node6" class="node">
<title>debug/fp.js</title>
<polygon fill="none" stroke="#242424" stroke-width="4" points="1173.7002,-611 1078.2998,-611 1078.2998,-575 1173.7002,-575 1173.7002,-611"/>
<text text-anchor="middle" x="1126" y="-590.6" font-family="Fira Code" font-size="12.00" fill="#242424">debug/fp.js</text>
</g>
<!-- debug/to&#45;string&#45;composition.js -->
<g id="node7" class="node">
<title>debug/to&#45;string&#45;composition.js</title>
<polygon fill="none" stroke="#0c821d" stroke-width="4" points="1242,-496 1010,-496 1010,-460 1242,-460 1242,-496"/>
<text text-anchor="middle" x="1126" y="-475.6" font-family="Fira Code" font-size="12.00" fill="#0c821d">debug/to&#45;string&#45;composition.js</text>
</g>
<!-- debug/fp.js&#45;&gt;debug/to&#45;string&#45;composition.js -->
<g id="edge3" class="edge">
<title>debug/fp.js&#45;&gt;debug/to&#45;string&#45;composition.js</title>
<path fill="none" stroke="#242424" d="M1126,-574.7779C1126,-556.3567 1126,-527.6329 1126,-506.2569"/>
<polygon fill="#242424" stroke="#242424" points="1129.5001,-506.1368 1126,-496.1368 1122.5001,-506.1369 1129.5001,-506.1368"/>
</g>
<!-- fp/filter.js -->
<g id="node8" class="node">
<title>fp/filter.js</title>
<polygon fill="none" stroke="#242424" stroke-width="4" points="1468.4008,-496 1365.5992,-496 1365.5992,-460 1468.4008,-460 1468.4008,-496"/>
<text text-anchor="middle" x="1417" y="-475.6" font-family="Fira Code" font-size="12.00" fill="#242424">fp/filter.js</text>
</g>
<!-- debug/fp.js&#45;&gt;fp/filter.js -->
<g id="edge4" class="edge">
<title>debug/fp.js&#45;&gt;fp/filter.js</title>
<path fill="none" stroke="#242424" d="M1171.7889,-574.9047C1223.1262,-554.6168 1306.3734,-521.7184 1361.4039,-499.9709"/>
<polygon fill="#242424" stroke="#242424" points="1362.9844,-503.1099 1370.9981,-496.1794 1360.4116,-496.5998 1362.9844,-503.1099"/>
</g>
<!-- fp/pipe.js -->
<g id="node9" class="node">
<title>fp/pipe.js</title>
<polygon fill="none" stroke="#0c821d" stroke-width="4" points="1348,-496 1260,-496 1260,-460 1348,-460 1348,-496"/>
<text text-anchor="middle" x="1304" y="-475.6" font-family="Fira Code" font-size="12.00" fill="#0c821d">fp/pipe.js</text>
</g>
<!-- debug/fp.js&#45;&gt;fp/pipe.js -->
<g id="edge5" class="edge">
<title>debug/fp.js&#45;&gt;fp/pipe.js</title>
<path fill="none" stroke="#242424" d="M1154.2046,-574.7779C1184.8006,-555.0108 1233.7584,-523.3808 1267.3222,-501.6963"/>
<polygon fill="#242424" stroke="#242424" points="1269.4272,-504.5034 1275.9273,-496.1368 1265.6285,-498.6237 1269.4272,-504.5034"/>
</g>
<!-- utils/delegatee.js -->
<g id="node21" class="node">
<title>utils/delegatee.js</title>
<polygon fill="none" stroke="#242424" stroke-width="4" points="1396.6005,-381 1251.3995,-381 1251.3995,-345 1396.6005,-345 1396.6005,-381"/>
<text text-anchor="middle" x="1324" y="-360.6" font-family="Fira Code" font-size="12.00" fill="#242424">utils/delegatee.js</text>
</g>
<!-- fp/filter.js&#45;&gt;utils/delegatee.js -->
<g id="edge22" class="edge">
<title>fp/filter.js&#45;&gt;utils/delegatee.js</title>
<path fill="none" stroke="#242424" d="M1402.2639,-459.7779C1386.8225,-440.6838 1362.4297,-410.5206 1344.9813,-388.9446"/>
<polygon fill="#242424" stroke="#242424" points="1347.6768,-386.7116 1338.6672,-381.1368 1342.2338,-391.1133 1347.6768,-386.7116"/>
</g>
<!-- debug/index.js -->
<g id="node10" class="node">
<title>debug/index.js</title>
<polygon fill="none" stroke="#242424" stroke-width="4" points="624.3002,-1071 507.6998,-1071 507.6998,-1035 624.3002,-1035 624.3002,-1071"/>
<text text-anchor="middle" x="566" y="-1050.6" font-family="Fira Code" font-size="12.00" fill="#242424">debug/index.js</text>
</g>
<!-- debug/index.js&#45;&gt;combinators/index.js -->
<g id="edge6" class="edge">
<title>debug/index.js&#45;&gt;combinators/index.js</title>
<path fill="none" stroke="#242424" d="M527.9213,-1034.9047C485.582,-1014.7848 417.1436,-982.2624 371.3763,-960.5135"/>
<polygon fill="#242424" stroke="#242424" points="372.7902,-957.3104 362.2559,-956.1794 369.7857,-963.6328 372.7902,-957.3104"/>
</g>
<!-- debug/index.js&#45;&gt;debug/fp.js -->
<g id="edge7" class="edge">
<title>debug/index.js&#45;&gt;debug/fp.js</title>
<path fill="none" stroke="#242424" d="M600.2218,-1034.9522C633.6872,-1016.7186 685.5204,-986.8974 727,-956 879.328,-842.5338 1040.7404,-681.0017 1101.2235,-618.7922"/>
<polygon fill="#242424" stroke="#242424" points="1103.9743,-620.983 1108.4215,-611.3667 1098.9482,-616.1108 1103.9743,-620.983"/>
</g>
<!-- debug/object.js -->
<g id="node11" class="node">
<title>debug/object.js</title>
<polygon fill="none" stroke="#242424" stroke-width="4" points="718,-956 594,-956 594,-920 718,-920 718,-956"/>
<text text-anchor="middle" x="656" y="-935.6" font-family="Fira Code" font-size="12.00" fill="#242424">debug/object.js</text>
</g>
<!-- debug/index.js&#45;&gt;debug/object.js -->
<g id="edge8" class="edge">
<title>debug/index.js&#45;&gt;debug/object.js</title>
<path fill="none" stroke="#242424" d="M580.2608,-1034.7779C595.1382,-1015.7679 618.6021,-985.7862 635.472,-964.2303"/>
<polygon fill="#242424" stroke="#242424" points="638.3991,-966.169 641.806,-956.1368 632.8866,-961.8548 638.3991,-966.169"/>
</g>
<!-- debug/params.js -->
<g id="node12" class="node">
<title>debug/params.js</title>
<polygon fill="none" stroke="#242424" stroke-width="4" points="628,-726 504,-726 504,-690 628,-690 628,-726"/>
<text text-anchor="middle" x="566" y="-705.6" font-family="Fira Code" font-size="12.00" fill="#242424">debug/params.js</text>
</g>
<!-- debug/index.js&#45;&gt;debug/params.js -->
<g id="edge9" class="edge">
<title>debug/index.js&#45;&gt;debug/params.js</title>
<path fill="none" stroke="#242424" d="M566,-1034.937C566,-978.4787 566,-805.0177 566,-736.382"/>
<polygon fill="#242424" stroke="#242424" points="569.5001,-736.3003 566,-726.3004 562.5001,-736.3004 569.5001,-736.3003"/>
</g>
<!-- placeholder/index.js -->
<g id="node13" class="node">
<title>placeholder/index.js</title>
<polygon fill="none" stroke="#242424" stroke-width="4" points="556,-151 396,-151 396,-115 556,-115 556,-151"/>
<text text-anchor="middle" x="476" y="-130.6" font-family="Fira Code" font-size="12.00" fill="#242424">placeholder/index.js</text>
</g>
<!-- debug/index.js&#45;&gt;placeholder/index.js -->
<g id="edge10" class="edge">
<title>debug/index.js&#45;&gt;placeholder/index.js</title>
<path fill="none" stroke="#242424" d="M547.3877,-1034.9448C511.8872,-998.4711 438,-911.882 438,-823 438,-823 438,-823 438,-363 438,-289.1566 457.3028,-203.7397 468.3935,-160.7567"/>
<polygon fill="#242424" stroke="#242424" points="471.7955,-161.5816 470.9539,-151.0202 465.0256,-159.8012 471.7955,-161.5816"/>
</g>
<!-- debug/to&#45;string.js -->
<g id="node14" class="node">
<title>debug/to&#45;string.js</title>
<polygon fill="none" stroke="#242424" stroke-width="4" points="725.6005,-611 580.3995,-611 580.3995,-575 725.6005,-575 725.6005,-611"/>
<text text-anchor="middle" x="653" y="-590.6" font-family="Fira Code" font-size="12.00" fill="#242424">debug/to&#45;string.js</text>
</g>
<!-- debug/object.js&#45;&gt;debug/to&#45;string.js -->
<g id="edge11" class="edge">
<title>debug/object.js&#45;&gt;debug/to&#45;string.js</title>
<path fill="none" stroke="#242424" d="M655.8429,-919.937C655.352,-863.4787 653.8436,-690.0177 653.2468,-621.382"/>
<polygon fill="#242424" stroke="#242424" points="656.7461,-621.2695 653.1591,-611.3004 649.7463,-621.3305 656.7461,-621.2695"/>
</g>
<!-- object/by&#45;keys.js -->
<g id="node15" class="node">
<title>object/by&#45;keys.js</title>
<polygon fill="none" stroke="#242424" stroke-width="4" points="1681.4006,-841 1542.5994,-841 1542.5994,-805 1681.4006,-805 1681.4006,-841"/>
<text text-anchor="middle" x="1612" y="-820.6" font-family="Fira Code" font-size="12.00" fill="#242424">object/by&#45;keys.js</text>
</g>
<!-- debug/object.js&#45;&gt;object/by&#45;keys.js -->
<g id="edge12" class="edge">
<title>debug/object.js&#45;&gt;object/by&#45;keys.js</title>
<path fill="none" stroke="#242424" d="M718.3571,-930.4989C886.0783,-910.3232 1346.6837,-854.9157 1532.6141,-832.5496"/>
<polygon fill="#242424" stroke="#242424" points="1533.0839,-836.0184 1542.5943,-831.349 1532.2479,-829.0685 1533.0839,-836.0184"/>
</g>
<!-- params/curry.js -->
<g id="node16" class="node">
<title>params/curry.js</title>
<polygon fill="none" stroke="#242424" stroke-width="4" points="1386,-266 1262,-266 1262,-230 1386,-230 1386,-266"/>
<text text-anchor="middle" x="1324" y="-245.6" font-family="Fira Code" font-size="12.00" fill="#242424">params/curry.js</text>
</g>
<!-- debug/object.js&#45;&gt;params/curry.js -->
<g id="edge13" class="edge">
<title>debug/object.js&#45;&gt;params/curry.js</title>
<path fill="none" stroke="#242424" d="M635.2913,-919.8536C598.5282,-886.0916 523.0921,-809.4396 495,-726 472.1115,-658.0162 506.8823,-630.768 552,-575 655.4673,-447.1085 692.7851,-414.2578 842,-345 978.0967,-281.831 1154.5444,-259.6777 1251.7643,-251.9966"/>
<polygon fill="#242424" stroke="#242424" points="1252.0774,-255.483 1261.783,-251.2344 1251.5462,-248.5032 1252.0774,-255.483"/>
</g>
<!-- utils/length.js -->
<g id="node17" class="node">
<title>utils/length.js</title>
<polygon fill="none" stroke="#242424" stroke-width="4" points="1060,-611 936,-611 936,-575 1060,-575 1060,-611"/>
<text text-anchor="middle" x="998" y="-590.6" font-family="Fira Code" font-size="12.00" fill="#242424">utils/length.js</text>
</g>
<!-- debug/object.js&#45;&gt;utils/length.js -->
<g id="edge14" class="edge">
<title>debug/object.js&#45;&gt;utils/length.js</title>
<path fill="none" stroke="#242424" d="M670.8941,-919.727C705.6632,-877.4825 795.6422,-770.5186 880,-690 907.4563,-663.7932 941.0955,-636.5704 965.4221,-617.6591"/>
<polygon fill="#242424" stroke="#242424" points="967.8387,-620.215 973.6129,-611.3319 963.5594,-614.6753 967.8387,-620.215"/>
</g>
<!-- debug/params.js&#45;&gt;placeholder/index.js -->
<g id="edge18" class="edge">
<title>debug/params.js&#45;&gt;placeholder/index.js</title>
<path fill="none" stroke="#242424" d="M559.9018,-689.9715C553.5773,-670.6483 543.8161,-638.9721 538,-611 502.929,-442.3287 484.1685,-235.808 478.1664,-161.4008"/>
<polygon fill="#242424" stroke="#242424" points="481.6531,-161.0933 477.373,-151.4015 474.675,-161.647 481.6531,-161.0933"/>
</g>
<!-- debug/params.js&#45;&gt;debug/to&#45;string.js -->
<g id="edge16" class="edge">
<title>debug/params.js&#45;&gt;debug/to&#45;string.js</title>
<path fill="none" stroke="#242424" d="M579.7854,-689.7779C594.1669,-670.7679 616.8487,-640.7862 633.1562,-619.2303"/>
<polygon fill="#242424" stroke="#242424" points="636.0371,-621.2235 639.2791,-611.1368 630.4546,-617.0002 636.0371,-621.2235"/>
</g>
<!-- Ⓜ fast.js/array/some.js -->
<g id="node18" class="node">
<title>Ⓜ fast.js/array/some.js</title>
<polygon fill="none" stroke="#0c821d" stroke-width="4" points="1088.4004,-151 901.5996,-151 901.5996,-115 1088.4004,-115 1088.4004,-151"/>
<text text-anchor="middle" x="995" y="-131.8" font-family="Fira Code" font-size="12.00" fill="#0c821d">Ⓜ fast.js/array/some.js</text>
</g>
<!-- debug/params.js&#45;&gt;Ⓜ fast.js/array/some.js -->
<g id="edge15" class="edge">
<title>debug/params.js&#45;&gt;Ⓜ fast.js/array/some.js</title>
<path fill="none" stroke="#242424" d="M564.1409,-689.8352C560.3326,-651.0028 552,-557.0088 552,-478 552,-478 552,-478 552,-363 552,-210.7655 760.6102,-159.1572 891.5239,-141.7586"/>
<polygon fill="#242424" stroke="#242424" points="892.1189,-145.211 901.5924,-140.4672 891.2284,-138.2679 892.1189,-145.211"/>
</g>
<!-- params/remap.js -->
<g id="node19" class="node">
<title>params/remap.js</title>
<polygon fill="none" stroke="#242424" stroke-width="4" points="1864,-611 1740,-611 1740,-575 1864,-575 1864,-611"/>
<text text-anchor="middle" x="1802" y="-590.6" font-family="Fira Code" font-size="12.00" fill="#242424">params/remap.js</text>
</g>
<!-- debug/params.js&#45;&gt;params/remap.js -->
<g id="edge17" class="edge">
<title>debug/params.js&#45;&gt;params/remap.js</title>
<path fill="none" stroke="#242424" d="M628.0756,-703.1926C794.5464,-690.1443 1264.741,-652.2627 1655,-611 1679.3864,-608.4216 1706.0056,-605.266 1729.8092,-602.3212"/>
<polygon fill="#242424" stroke="#242424" points="1730.3327,-605.7831 1739.8236,-601.0743 1729.4677,-598.8367 1730.3327,-605.7831"/>
</g>
<!-- placeholder/constant.js -->
<g id="node33" class="node">
<title>placeholder/constant.js</title>
<polygon fill="none" stroke="#0c821d" stroke-width="4" points="755.6004,-36 574.3996,-36 574.3996,0 755.6004,0 755.6004,-36"/>
<text text-anchor="middle" x="665" y="-15.6" font-family="Fira Code" font-size="12.00" fill="#0c821d">placeholder/constant.js</text>
</g>
<!-- placeholder/index.js&#45;&gt;placeholder/constant.js -->
<g id="edge51" class="edge">
<title>placeholder/index.js&#45;&gt;placeholder/constant.js</title>
<path fill="none" stroke="#242424" d="M505.9476,-114.7779C538.5726,-94.9267 590.8604,-63.1114 626.5097,-41.42"/>
<polygon fill="#242424" stroke="#242424" points="628.469,-44.3249 635.1925,-36.1368 624.8303,-38.3449 628.469,-44.3249"/>
</g>
<!-- debug/to&#45;string.js&#45;&gt;fp/pipe.js -->
<g id="edge19" class="edge">
<title>debug/to&#45;string.js&#45;&gt;fp/pipe.js</title>
<path fill="none" stroke="#242424" d="M725.8282,-576.7592C728.9237,-576.1493 731.9909,-575.56 735,-575 959.8593,-533.1518 1023.8213,-550.5596 1250.0741,-496.0104"/>
<polygon fill="#242424" stroke="#242424" points="1251.0351,-499.3788 1259.9249,-493.615 1249.381,-492.577 1251.0351,-499.3788"/>
</g>
<!-- debug/to&#45;string.js&#45;&gt;params/curry.js -->
<g id="edge20" class="edge">
<title>debug/to&#45;string.js&#45;&gt;params/curry.js</title>
<path fill="none" stroke="#242424" d="M665.0111,-574.9055C696.7439,-528.632 787.8433,-405.3885 896,-345 1010.017,-281.3394 1163.2112,-259.442 1252.0162,-251.9215"/>
<polygon fill="#242424" stroke="#242424" points="1252.3057,-255.4096 1261.9909,-251.1145 1251.7411,-248.4324 1252.3057,-255.4096"/>
</g>
<!-- object/by&#45;keys.js&#45;&gt;params/curry.js -->
<g id="edge39" class="edge">
<title>object/by&#45;keys.js&#45;&gt;params/curry.js</title>
<path fill="none" stroke="#242424" d="M1626.1155,-804.7971C1653.6805,-767.369 1712,-678.1235 1712,-593 1712,-593 1712,-593 1712,-478 1712,-332.8157 1508.4874,-277.2877 1396.2443,-257.7031"/>
<polygon fill="#242424" stroke="#242424" points="1396.7828,-254.2446 1386.3389,-256.0266 1395.6146,-261.1464 1396.7828,-254.2446"/>
</g>
<!-- utils/matching&#45;key&#45;count.js -->
<g id="node30" class="node">
<title>utils/matching&#45;key&#45;count.js</title>
<polygon fill="none" stroke="#242424" stroke-width="4" points="1664.4004,-726 1453.5996,-726 1453.5996,-690 1664.4004,-690 1664.4004,-726"/>
<text text-anchor="middle" x="1559" y="-705.6" font-family="Fira Code" font-size="12.00" fill="#242424">utils/matching&#45;key&#45;count.js</text>
</g>
<!-- object/by&#45;keys.js&#45;&gt;utils/matching&#45;key&#45;count.js -->
<g id="edge40" class="edge">
<title>object/by&#45;keys.js&#45;&gt;utils/matching&#45;key&#45;count.js</title>
<path fill="none" stroke="#242424" d="M1603.602,-804.7779C1594.9959,-786.1043 1581.5107,-756.844 1571.6198,-735.3826"/>
<polygon fill="#242424" stroke="#242424" points="1574.723,-733.7538 1567.3587,-726.1368 1568.3657,-736.6837 1574.723,-733.7538"/>
</g>
<!-- params/curry.js&#45;&gt;placeholder/index.js -->
<g id="edge45" class="edge">
<title>params/curry.js&#45;&gt;placeholder/index.js</title>
<path fill="none" stroke="#242424" d="M1261.9881,-239.5904C1113.9307,-219.5118 739.2883,-168.7054 566.2079,-145.2334"/>
<polygon fill="#242424" stroke="#242424" points="566.4874,-141.7393 556.1078,-143.8637 565.5467,-148.6758 566.4874,-141.7393"/>
</g>
<!-- params/curry.js&#45;&gt;Ⓜ fast.js/array/some.js -->
<g id="edge44" class="edge">
<title>params/curry.js&#45;&gt;Ⓜ fast.js/array/some.js</title>
<path fill="none" stroke="#242424" d="M1272.2318,-229.9047C1213.7443,-209.4608 1118.6228,-176.2116 1056.4262,-154.4712"/>
<polygon fill="#242424" stroke="#242424" points="1057.3322,-151.0803 1046.7374,-151.0845 1055.0224,-157.6882 1057.3322,-151.0803"/>
</g>
<!-- utils/length.js&#45;&gt;fp/pipe.js -->
<g id="edge55" class="edge">
<title>utils/length.js&#45;&gt;fp/pipe.js</title>
<path fill="none" stroke="#242424" d="M1046.1491,-574.9047C1101.5173,-554.0964 1192.1836,-520.0225 1249.9312,-498.32"/>
<polygon fill="#242424" stroke="#242424" points="1251.4803,-501.4769 1259.6098,-494.6826 1249.0177,-494.9243 1251.4803,-501.4769"/>
</g>
<!-- utils/object.js -->
<g id="node28" class="node">
<title>utils/object.js</title>
<polygon fill="none" stroke="#242424" stroke-width="4" points="992,-496 868,-496 868,-460 992,-460 992,-496"/>
<text text-anchor="middle" x="930" y="-475.6" font-family="Fira Code" font-size="12.00" fill="#242424">utils/object.js</text>
</g>
<!-- utils/length.js&#45;&gt;utils/object.js -->
<g id="edge56" class="edge">
<title>utils/length.js&#45;&gt;utils/object.js</title>
<path fill="none" stroke="#242424" d="M987.2252,-574.7779C976.084,-555.9361 958.5694,-526.3159 945.8496,-504.8045"/>
<polygon fill="#242424" stroke="#242424" points="948.827,-502.9632 940.7244,-496.1368 942.8015,-506.5261 948.827,-502.9632"/>
</g>
<!-- utils/prop.js -->
<g id="node37" class="node">
<title>utils/prop.js</title>
<polygon fill="none" stroke="#242424" stroke-width="4" points="1066.6007,-381 957.3993,-381 957.3993,-345 1066.6007,-345 1066.6007,-381"/>
<text text-anchor="middle" x="1012" y="-360.6" font-family="Fira Code" font-size="12.00" fill="#242424">utils/prop.js</text>
</g>
<!-- utils/length.js&#45;&gt;utils/prop.js -->
<g id="edge57" class="edge">
<title>utils/length.js&#45;&gt;utils/prop.js</title>
<path fill="none" stroke="#242424" d="M952.2148,-574.8991C901.9105,-552.0756 831.6354,-509.7494 859,-460 878.328,-424.8613 916.3605,-400.6619 949.6691,-385.222"/>
<polygon fill="#242424" stroke="#242424" points="951.2111,-388.3667 958.9191,-381.0977 948.3605,-381.9734 951.2111,-388.3667"/>
</g>
<!-- params/remap.js&#45;&gt;params/curry.js -->
<g id="edge50" class="edge">
<title>params/remap.js&#45;&gt;params/curry.js</title>
<path fill="none" stroke="#242424" d="M1802.1569,-574.9269C1801.5198,-529.2391 1793.2244,-408.2694 1726,-345 1678.819,-300.5948 1498.3412,-270.5877 1395.9779,-256.7491"/>
<polygon fill="#242424" stroke="#242424" points="1396.3946,-253.2738 1386.0195,-255.4205 1395.4688,-260.2123 1396.3946,-253.2738"/>
</g>
<!-- fp/compose.js -->
<g id="node20" class="node">
<title>fp/compose.js</title>
<polygon fill="none" stroke="#242424" stroke-width="4" points="1339.6007,-611 1230.3993,-611 1230.3993,-575 1339.6007,-575 1339.6007,-611"/>
<text text-anchor="middle" x="1285" y="-590.6" font-family="Fira Code" font-size="12.00" fill="#242424">fp/compose.js</text>
</g>
<!-- fp/compose.js&#45;&gt;fp/pipe.js -->
<g id="edge21" class="edge">
<title>fp/compose.js&#45;&gt;fp/pipe.js</title>
<path fill="none" stroke="#242424" d="M1288.0106,-574.7779C1291.0541,-556.3567 1295.7998,-527.6329 1299.3315,-506.2569"/>
<polygon fill="#242424" stroke="#242424" points="1302.8265,-506.5736 1301.0035,-496.1368 1295.9201,-505.4325 1302.8265,-506.5736"/>
</g>
<!-- utils/delegatee.js&#45;&gt;params/curry.js -->
<g id="edge54" class="edge">
<title>utils/delegatee.js&#45;&gt;params/curry.js</title>
<path fill="none" stroke="#242424" d="M1324,-344.7779C1324,-326.3567 1324,-297.6329 1324,-276.2569"/>
<polygon fill="#242424" stroke="#242424" points="1327.5001,-276.1368 1324,-266.1368 1320.5001,-276.1369 1327.5001,-276.1368"/>
</g>
<!-- fp/index.js -->
<g id="node22" class="node">
<title>fp/index.js</title>
<polygon fill="none" stroke="#242424" stroke-width="4" points="1415.7002,-726 1320.2998,-726 1320.2998,-690 1415.7002,-690 1415.7002,-726"/>
<text text-anchor="middle" x="1368" y="-705.6" font-family="Fira Code" font-size="12.00" fill="#242424">fp/index.js</text>
</g>
<!-- fp/index.js&#45;&gt;fp/filter.js -->
<g id="edge24" class="edge">
<title>fp/index.js&#45;&gt;fp/filter.js</title>
<path fill="none" stroke="#242424" d="M1371.8449,-689.9523C1380.3397,-650.0788 1400.7607,-554.2253 1410.9728,-506.2908"/>
<polygon fill="#242424" stroke="#242424" points="1414.4445,-506.792 1413.1051,-496.2821 1407.5982,-505.3333 1414.4445,-506.792"/>
</g>
<!-- fp/index.js&#45;&gt;fp/pipe.js -->
<g id="edge25" class="edge">
<title>fp/index.js&#45;&gt;fp/pipe.js</title>
<path fill="none" stroke="#242424" d="M1367.069,-689.5692C1365.375,-663.5572 1360.7978,-614.8064 1349,-575 1341.7344,-550.4854 1329.2613,-524.272 1319.2871,-505.2835"/>
<polygon fill="#242424" stroke="#242424" points="1322.2921,-503.4809 1314.4828,-496.3209 1316.1225,-506.7881 1322.2921,-503.4809"/>
</g>
<!-- fp/index.js&#45;&gt;fp/compose.js -->
<g id="edge23" class="edge">
<title>fp/index.js&#45;&gt;fp/compose.js</title>
<path fill="none" stroke="#242424" d="M1354.8484,-689.7779C1341.1888,-670.852 1319.6805,-641.0513 1304.1383,-619.5169"/>
<polygon fill="#242424" stroke="#242424" points="1306.7805,-617.1972 1298.0901,-611.1368 1301.1044,-621.2938 1306.7805,-617.1972"/>
</g>
<!-- index.js -->
<g id="node23" class="node">
<title>index.js</title>
<polygon fill="none" stroke="#242424" stroke-width="4" points="1648.6011,-1186 1575.3989,-1186 1575.3989,-1150 1648.6011,-1150 1648.6011,-1186"/>
<text text-anchor="middle" x="1612" y="-1165.6" font-family="Fira Code" font-size="12.00" fill="#242424">index.js</text>
</g>
<!-- index.js&#45;&gt;../package.json -->
<g id="edge26" class="edge">
<title>index.js&#45;&gt;../package.json</title>
<path fill="none" stroke="#242424" d="M1648.8414,-1151.7672C1694.347,-1131.7168 1771.9655,-1097.5171 1822.8683,-1075.0887"/>
<polygon fill="#242424" stroke="#242424" points="1824.3085,-1078.2789 1832.0484,-1071.0438 1821.486,-1071.8731 1824.3085,-1078.2789"/>
</g>
<!-- index.js&#45;&gt;combinators/index.js -->
<g id="edge27" class="edge">
<title>index.js&#45;&gt;combinators/index.js</title>
<path fill="none" stroke="#242424" d="M1575.3841,-1167.5256C1406.5,-1164.9274 702.3399,-1149.4943 499,-1071 437.6288,-1047.3092 379.5554,-995.2138 348.1682,-963.7123"/>
<polygon fill="#242424" stroke="#242424" points="350.2786,-960.8655 340.7777,-956.177 345.2811,-965.7671 350.2786,-960.8655"/>
</g>
<!-- index.js&#45;&gt;fp/pipe.js -->
<g id="edge29" class="edge">
<title>index.js&#45;&gt;fp/pipe.js</title>
<path fill="none" stroke="#242424" d="M1575.2544,-1164.7985C1474.6195,-1153.8244 1202,-1108.3728 1202,-938 1202,-938 1202,-938 1202,-708 1202,-648.2888 1196.3887,-629.4033 1221,-575 1233.5496,-547.2591 1256.5313,-521.3585 1275.1351,-503.3115"/>
<polygon fill="#242424" stroke="#242424" points="1277.9299,-505.4863 1282.797,-496.0755 1273.1236,-500.3971 1277.9299,-505.4863"/>
</g>
<!-- index.js&#45;&gt;placeholder/index.js -->
<g id="edge34" class="edge">
<title>index.js&#45;&gt;placeholder/index.js</title>
<path fill="none" stroke="#242424" d="M1575.3024,-1166.7516C1335.3557,-1158.1176 0,-1102.6701 0,-938 0,-938 0,-938 0,-363 0,-275.9787 261.1794,-191.6776 396.606,-153.8151"/>
<polygon fill="#242424" stroke="#242424" points="397.8311,-157.1074 406.5308,-151.0605 395.959,-150.3624 397.8311,-157.1074"/>
</g>
<!-- index.js&#45;&gt;params/curry.js -->
<g id="edge31" class="edge">
<title>index.js&#45;&gt;params/curry.js</title>
<path fill="none" stroke="#242424" d="M1648.8775,-1166.1918C1755.7334,-1158.7849 2058,-1121.606 2058,-938 2058,-938 2058,-938 2058,-478 2058,-345.0279 1915.67,-388.4585 1790,-345 1654.6897,-298.2078 1489.0882,-270.3227 1396.1724,-257.185"/>
<polygon fill="#242424" stroke="#242424" points="1396.4227,-253.6861 1386.0347,-255.7695 1395.4546,-260.6189 1396.4227,-253.6861"/>
</g>
<!-- index.js&#45;&gt;params/remap.js -->
<g id="edge33" class="edge">
<title>index.js&#45;&gt;params/remap.js</title>
<path fill="none" stroke="#242424" d="M1638.7188,-1149.9752C1686.8125,-1115.1421 1783,-1033.5342 1783,-938 1783,-938 1783,-938 1783,-823 1783,-750.0507 1792.6106,-664.527 1798.1615,-621.2145"/>
<polygon fill="#242424" stroke="#242424" points="1801.6519,-621.5148 1799.4769,-611.1456 1794.7109,-620.6079 1801.6519,-621.5148"/>
</g>
<!-- index.js&#45;&gt;fp/compose.js -->
<g id="edge28" class="edge">
<title>index.js&#45;&gt;fp/compose.js</title>
<path fill="none" stroke="#242424" d="M1575.3988,-1162.5086C1483.6221,-1146.4582 1251,-1090.7133 1251,-938 1251,-938 1251,-938 1251,-823 1251,-749.3525 1268.2709,-663.8523 1278.1941,-620.8052"/>
<polygon fill="#242424" stroke="#242424" points="1281.6052,-621.5889 1280.4851,-611.0535 1274.7908,-619.988 1281.6052,-621.5889"/>
</g>
<!-- object/index.js -->
<g id="node24" class="node">
<title>object/index.js</title>
<polygon fill="none" stroke="#242424" stroke-width="4" points="1674,-1071 1550,-1071 1550,-1035 1674,-1035 1674,-1071"/>
<text text-anchor="middle" x="1612" y="-1050.6" font-family="Fira Code" font-size="12.00" fill="#242424">object/index.js</text>
</g>
<!-- index.js&#45;&gt;object/index.js -->
<g id="edge30" class="edge">
<title>index.js&#45;&gt;object/index.js</title>
<path fill="none" stroke="#242424" d="M1612,-1149.7779C1612,-1131.3567 1612,-1102.6329 1612,-1081.2569"/>
<polygon fill="#242424" stroke="#242424" points="1615.5001,-1081.1368 1612,-1071.1368 1608.5001,-1081.1369 1615.5001,-1081.1368"/>
</g>
<!-- params/ify.js -->
<g id="node25" class="node">
<title>params/ify.js</title>
<polygon fill="none" stroke="#242424" stroke-width="4" points="2029.6007,-611 1920.3993,-611 1920.3993,-575 2029.6007,-575 2029.6007,-611"/>
<text text-anchor="middle" x="1975" y="-590.6" font-family="Fira Code" font-size="12.00" fill="#242424">params/ify.js</text>
</g>
<!-- index.js&#45;&gt;params/ify.js -->
<g id="edge32" class="edge">
<title>index.js&#45;&gt;params/ify.js</title>
<path fill="none" stroke="#242424" d="M1648.8172,-1162.0191C1726.4363,-1148.6794 1903.0896,-1114.236 1944,-1071 1985.7161,-1026.9124 1975,-998.6956 1975,-938 1975,-938 1975,-938 1975,-823 1975,-750.2983 1975,-664.67 1975,-621.2764"/>
<polygon fill="#242424" stroke="#242424" points="1978.5001,-621.1877 1975,-611.1877 1971.5001,-621.1877 1978.5001,-621.1877"/>
</g>
<!-- object/index.js&#45;&gt;object/by&#45;keys.js -->
<g id="edge42" class="edge">
<title>object/index.js&#45;&gt;object/by&#45;keys.js</title>
<path fill="none" stroke="#242424" d="M1647.4968,-1034.9805C1688.5952,-1011.4531 1748.0071,-967.6209 1726,-920 1711.3576,-888.3155 1680.698,-863.1766 1654.8595,-846.437"/>
<polygon fill="#242424" stroke="#242424" points="1656.6449,-843.4254 1646.3119,-841.0847 1652.9299,-849.3583 1656.6449,-843.4254"/>
</g>
<!-- object/by&#45;keys&#45;or&#45;number.js -->
<g id="node29" class="node">
<title>object/by&#45;keys&#45;or&#45;number.js</title>
<polygon fill="none" stroke="#242424" stroke-width="4" points="1717.4004,-956 1506.5996,-956 1506.5996,-920 1717.4004,-920 1717.4004,-956"/>
<text text-anchor="middle" x="1612" y="-935.6" font-family="Fira Code" font-size="12.00" fill="#242424">object/by&#45;keys&#45;or&#45;number.js</text>
</g>
<!-- object/index.js&#45;&gt;object/by&#45;keys&#45;or&#45;number.js -->
<g id="edge41" class="edge">
<title>object/index.js&#45;&gt;object/by&#45;keys&#45;or&#45;number.js</title>
<path fill="none" stroke="#242424" d="M1612,-1034.7779C1612,-1016.3567 1612,-987.6329 1612,-966.2569"/>
<polygon fill="#242424" stroke="#242424" points="1615.5001,-966.1368 1612,-956.1368 1608.5001,-966.1369 1615.5001,-966.1368"/>
</g>
<!-- object/by&#45;number&#45;of&#45;keys.js -->
<g id="node31" class="node">
<title>object/by&#45;number&#45;of&#45;keys.js</title>
<polygon fill="none" stroke="#0c821d" stroke-width="4" points="1489.4004,-956 1278.5996,-956 1278.5996,-920 1489.4004,-920 1489.4004,-956"/>
<text text-anchor="middle" x="1384" y="-935.6" font-family="Fira Code" font-size="12.00" fill="#0c821d">object/by&#45;number&#45;of&#45;keys.js</text>
</g>
<!-- object/index.js&#45;&gt;object/by&#45;number&#45;of&#45;keys.js -->
<g id="edge43" class="edge">
<title>object/index.js&#45;&gt;object/by&#45;number&#45;of&#45;keys.js</title>
<path fill="none" stroke="#242424" d="M1576.1242,-1034.9047C1536.4008,-1014.8688 1472.2931,-982.5338 1429.1768,-960.7865"/>
<polygon fill="#242424" stroke="#242424" points="1430.5475,-957.5579 1420.0427,-956.1794 1427.3951,-963.8079 1430.5475,-957.5579"/>
</g>
<!-- params/ify.js&#45;&gt;Ⓜ fast.js/array/some.js -->
<g id="edge46" class="edge">
<title>params/ify.js&#45;&gt;Ⓜ fast.js/array/some.js</title>
<path fill="none" stroke="#242424" d="M1966.6704,-574.8679C1944.6785,-529.0419 1880.4712,-407.7745 1790,-345 1677.3694,-266.85 1286.7213,-186.7124 1098.2687,-151.5"/>
<polygon fill="#242424" stroke="#242424" points="1098.8216,-148.0428 1088.3499,-149.6533 1097.5403,-154.9246 1098.8216,-148.0428"/>
</g>
<!-- object&#45;performance.fixture.js -->
<g id="node26" class="node">
<title>object&#45;performance.fixture.js</title>
<polygon fill="none" stroke="#0c821d" stroke-width="4" points="1724.3001,-186 1499.6999,-186 1499.6999,-150 1724.3001,-150 1724.3001,-186"/>
<text text-anchor="middle" x="1612" y="-165.6" font-family="Fira Code" font-size="12.00" fill="#0c821d">object&#45;performance.fixture.js</text>
</g>
<!-- object/by&#45;condition.js -->
<g id="node27" class="node">
<title>object/by&#45;condition.js</title>
<polygon fill="none" stroke="#242424" stroke-width="4" points="918.4005,-611 743.5995,-611 743.5995,-575 918.4005,-575 918.4005,-611"/>
<text text-anchor="middle" x="831" y="-590.6" font-family="Fira Code" font-size="12.00" fill="#242424">object/by&#45;condition.js</text>
</g>
<!-- object/by&#45;condition.js&#45;&gt;fp/pipe.js -->
<g id="edge35" class="edge">
<title>object/by&#45;condition.js&#45;&gt;fp/pipe.js</title>
<path fill="none" stroke="#242424" d="M918.5249,-575.4638C1001.6886,-558.1902 1130.2745,-529.8972 1250.1399,-496.118"/>
<polygon fill="#242424" stroke="#242424" points="1251.1925,-499.4576 1259.858,-493.3617 1249.2824,-492.7232 1251.1925,-499.4576"/>
</g>
<!-- object/by&#45;condition.js&#45;&gt;params/curry.js -->
<g id="edge36" class="edge">
<title>object/by&#45;condition.js&#45;&gt;params/curry.js</title>
<path fill="none" stroke="#242424" d="M830.2687,-574.9078C829.8866,-548.4646 831.7967,-498.2509 849,-460 876.6628,-398.493 890.726,-380.6094 948,-345 1042.6524,-286.151 1171.8682,-262.8567 1251.528,-253.7381"/>
<polygon fill="#242424" stroke="#242424" points="1252.3922,-257.1644 1261.9504,-252.5937 1251.6281,-250.2062 1252.3922,-257.1644"/>
</g>
<!-- object/by&#45;condition.js&#45;&gt;utils/object.js -->
<g id="edge37" class="edge">
<title>object/by&#45;condition.js&#45;&gt;utils/object.js</title>
<path fill="none" stroke="#242424" d="M846.6868,-574.7779C863.1244,-555.6838 889.0909,-525.5206 907.6651,-503.9446"/>
<polygon fill="#242424" stroke="#242424" points="910.5148,-505.9989 914.3865,-496.1368 905.2098,-501.432 910.5148,-505.9989"/>
</g>
<!-- utils/object.js&#45;&gt;params/curry.js -->
<g id="edge66" class="edge">
<title>utils/object.js&#45;&gt;params/curry.js</title>
<path fill="none" stroke="#242424" d="M960.9165,-459.9523C1031.7484,-418.6037 1205.7026,-317.0568 1284.3035,-271.1731"/>
<polygon fill="#242424" stroke="#242424" points="1286.0833,-274.1869 1292.955,-266.1227 1282.5543,-268.1415 1286.0833,-274.1869"/>
</g>
<!-- object/by&#45;keys&#45;or&#45;number.js&#45;&gt;object/by&#45;keys.js -->
<g id="edge38" class="edge">
<title>object/by&#45;keys&#45;or&#45;number.js&#45;&gt;object/by&#45;keys.js</title>
<path fill="none" stroke="#242424" d="M1612,-919.7779C1612,-901.3567 1612,-872.6329 1612,-851.2569"/>
<polygon fill="#242424" stroke="#242424" points="1615.5001,-851.1368 1612,-841.1368 1608.5001,-851.1369 1615.5001,-851.1368"/>
</g>
<!-- utils/matching&#45;key&#45;count.js&#45;&gt;fp/pipe.js -->
<g id="edge58" class="edge">
<title>utils/matching&#45;key&#45;count.js&#45;&gt;fp/pipe.js</title>
<path fill="none" stroke="#242424" d="M1538.9906,-689.9523C1493.7614,-649.1573 1383.5657,-549.7652 1331.768,-503.0457"/>
<polygon fill="#242424" stroke="#242424" points="1334.0392,-500.3808 1324.2693,-496.2821 1329.3508,-505.5789 1334.0392,-500.3808"/>
</g>
<!-- utils/matching&#45;key&#45;count.js&#45;&gt;params/curry.js -->
<g id="edge59" class="edge">
<title>utils/matching&#45;key&#45;count.js&#45;&gt;params/curry.js</title>
<path fill="none" stroke="#242424" d="M1586.4214,-689.8105C1609.6162,-672.6266 1641.2142,-644.5272 1655,-611 1692.8682,-518.9039 1694.964,-477.6307 1563,-345 1517.8241,-299.5959 1448.5218,-274.6479 1396.1552,-261.4712"/>
<polygon fill="#242424" stroke="#242424" points="1396.7956,-258.0251 1386.2522,-259.0679 1395.1447,-264.8277 1396.7956,-258.0251"/>
</g>
<!-- utils/matching&#45;key&#45;count.js&#45;&gt;utils/length.js -->
<g id="edge60" class="edge">
<title>utils/matching&#45;key&#45;count.js&#45;&gt;utils/length.js</title>
<path fill="none" stroke="#242424" d="M1459.6643,-689.9297C1362.7687,-671.9377 1211.032,-642.7941 1070.3988,-611.2649"/>
<polygon fill="#242424" stroke="#242424" points="1070.8178,-607.7718 1060.2933,-608.9908 1069.2809,-614.601 1070.8178,-607.7718"/>
</g>
<!-- utils/matching&#45;keys.js -->
<g id="node38" class="node">
<title>utils/matching&#45;keys.js</title>
<polygon fill="none" stroke="#242424" stroke-width="4" points="1646.4005,-611 1471.5995,-611 1471.5995,-575 1646.4005,-575 1646.4005,-611"/>
<text text-anchor="middle" x="1559" y="-590.6" font-family="Fira Code" font-size="12.00" fill="#242424">utils/matching&#45;keys.js</text>
</g>
<!-- utils/matching&#45;key&#45;count.js&#45;&gt;utils/matching&#45;keys.js -->
<g id="edge61" class="edge">
<title>utils/matching&#45;key&#45;count.js&#45;&gt;utils/matching&#45;keys.js</title>
<path fill="none" stroke="#242424" d="M1559,-689.7779C1559,-671.3567 1559,-642.6329 1559,-621.2569"/>
<polygon fill="#242424" stroke="#242424" points="1562.5001,-621.1368 1559,-611.1368 1555.5001,-621.1369 1562.5001,-621.1368"/>
</g>
<!-- params/index.js -->
<g id="node32" class="node">
<title>params/index.js</title>
<polygon fill="none" stroke="#242424" stroke-width="4" points="1947,-726 1823,-726 1823,-690 1947,-690 1947,-726"/>
<text text-anchor="middle" x="1885" y="-705.6" font-family="Fira Code" font-size="12.00" fill="#242424">params/index.js</text>
</g>
<!-- params/index.js&#45;&gt;params/curry.js -->
<g id="edge47" class="edge">
<title>params/index.js&#45;&gt;params/curry.js</title>
<path fill="none" stroke="#242424" d="M1885.5306,-689.9594C1885.8141,-664.003 1884.5486,-614.8602 1873,-575 1841.0281,-464.6478 1845.8281,-415.3567 1755,-345 1699.6378,-302.1156 1503.9548,-271.0559 1396.3073,-256.7718"/>
<polygon fill="#242424" stroke="#242424" points="1396.5426,-253.2728 1386.1722,-255.442 1395.6319,-260.2133 1396.5426,-253.2728"/>
</g>
<!-- params/index.js&#45;&gt;params/remap.js -->
<g id="edge49" class="edge">
<title>params/index.js&#45;&gt;params/remap.js</title>
<path fill="none" stroke="#242424" d="M1871.8484,-689.7779C1858.1888,-670.852 1836.6805,-641.0513 1821.1383,-619.5169"/>
<polygon fill="#242424" stroke="#242424" points="1823.7805,-617.1972 1815.0901,-611.1368 1818.1044,-621.2938 1823.7805,-617.1972"/>
</g>
<!-- params/index.js&#45;&gt;params/ify.js -->
<g id="edge48" class="edge">
<title>params/index.js&#45;&gt;params/ify.js</title>
<path fill="none" stroke="#242424" d="M1899.2608,-689.7779C1914.1382,-670.7679 1937.6021,-640.7862 1954.472,-619.2303"/>
<polygon fill="#242424" stroke="#242424" points="1957.3991,-621.169 1960.806,-611.1368 1951.8866,-616.8548 1957.3991,-621.169"/>
</g>
<!-- placeholder/test.js -->
<g id="node34" class="node">
<title>placeholder/test.js</title>
<polygon fill="none" stroke="#242424" stroke-width="4" points="1259.3001,-151 1106.6999,-151 1106.6999,-115 1259.3001,-115 1259.3001,-151"/>
<text text-anchor="middle" x="1183" y="-130.6" font-family="Fira Code" font-size="12.00" fill="#242424">placeholder/test.js</text>
</g>
<!-- placeholder/test.js&#45;&gt;placeholder/constant.js -->
<g id="edge52" class="edge">
<title>placeholder/test.js&#45;&gt;placeholder/constant.js</title>
<path fill="none" stroke="#242424" d="M1106.5673,-116.0314C1013.3791,-95.3429 856.0347,-60.4112 756.4955,-38.3127"/>
<polygon fill="#242424" stroke="#242424" points="756.9703,-34.833 746.4494,-36.0824 755.4531,-41.6666 756.9703,-34.833"/>
</g>
<!-- testperf.fixture.js -->
<g id="node35" class="node">
<title>testperf.fixture.js</title>
<polygon fill="none" stroke="#0c821d" stroke-width="4" points="1202.3001,-36 1049.6999,-36 1049.6999,0 1202.3001,0 1202.3001,-36"/>
<text text-anchor="middle" x="1126" y="-15.6" font-family="Fira Code" font-size="12.00" fill="#0c821d">testperf.fixture.js</text>
</g>
<!-- utils/array.js -->
<g id="node36" class="node">
<title>utils/array.js</title>
<polygon fill="none" stroke="#242424" stroke-width="4" points="1531.3002,-381 1414.6998,-381 1414.6998,-345 1531.3002,-345 1531.3002,-381"/>
<text text-anchor="middle" x="1473" y="-360.6" font-family="Fira Code" font-size="12.00" fill="#242424">utils/array.js</text>
</g>
<!-- utils/array.js&#45;&gt;params/curry.js -->
<g id="edge53" class="edge">
<title>utils/array.js&#45;&gt;params/curry.js</title>
<path fill="none" stroke="#242424" d="M1449.3905,-344.7779C1423.9972,-325.1791 1383.4942,-293.9184 1355.4223,-272.2521"/>
<polygon fill="#242424" stroke="#242424" points="1357.5539,-269.4761 1347.499,-266.1368 1353.2769,-275.0175 1357.5539,-269.4761"/>
</g>
<!-- utils/prop.js&#45;&gt;params/curry.js -->
<g id="edge67" class="edge">
<title>utils/prop.js&#45;&gt;params/curry.js</title>
<path fill="none" stroke="#242424" d="M1061.0932,-344.9047C1116.4445,-324.5028 1206.3939,-291.3484 1265.3833,-269.6055"/>
<polygon fill="#242424" stroke="#242424" points="1266.7635,-272.827 1274.936,-266.0845 1264.3426,-266.259 1266.7635,-272.827"/>
</g>
<!-- utils/matching&#45;keys.js&#45;&gt;fp/filter.js -->
<g id="edge62" class="edge">
<title>utils/matching&#45;keys.js&#45;&gt;fp/filter.js</title>
<path fill="none" stroke="#242424" d="M1536.4997,-574.7779C1512.4032,-555.2632 1474.0303,-524.1865 1447.2912,-502.5316"/>
<polygon fill="#242424" stroke="#242424" points="1449.369,-499.7105 1439.3951,-496.1368 1444.9635,-505.1504 1449.369,-499.7105"/>
</g>
<!-- utils/matching&#45;keys.js&#45;&gt;params/curry.js -->
<g id="edge63" class="edge">
<title>utils/matching&#45;keys.js&#45;&gt;params/curry.js</title>
<path fill="none" stroke="#242424" d="M1563.3751,-574.7342C1572.8171,-530.6385 1590.4027,-416.7192 1540,-345 1506.8306,-297.8024 1445.1198,-273.2018 1396.1261,-260.6067"/>
<polygon fill="#242424" stroke="#242424" points="1396.7405,-257.1537 1386.1946,-258.171 1395.0731,-263.9523 1396.7405,-257.1537"/>
</g>
<!-- utils/matching&#45;keys.js&#45;&gt;utils/object.js -->
<g id="edge65" class="edge">
<title>utils/matching&#45;keys.js&#45;&gt;utils/object.js</title>
<path fill="none" stroke="#242424" d="M1471.6173,-579.9211C1363.5329,-563.269 1173.7985,-532.4894 1002.2448,-496.1936"/>
<polygon fill="#242424" stroke="#242424" points="1002.7845,-492.7301 992.2752,-494.0736 1001.3285,-499.5771 1002.7845,-492.7301"/>
</g>
<!-- utils/matching&#45;keys.js&#45;&gt;utils/array.js -->
<g id="edge64" class="edge">
<title>utils/matching&#45;keys.js&#45;&gt;utils/array.js</title>
<path fill="none" stroke="#242424" d="M1552.2517,-574.9523C1537.2799,-534.9112 1501.2001,-438.4188 1483.3533,-390.6891"/>
<polygon fill="#242424" stroke="#242424" points="1486.6166,-389.4229 1479.8359,-381.2821 1480.06,-391.8746 1486.6166,-389.4229"/>
</g>
<!-- utils/testing.js -->
<g id="node39" class="node">
<title>utils/testing.js</title>
<polygon fill="none" stroke="#0c821d" stroke-width="4" points="881.7002,-336 750.2998,-336 750.2998,-300 881.7002,-300 881.7002,-336"/>
<text text-anchor="middle" x="816" y="-315.6" font-family="Fira Code" font-size="12.00" fill="#0c821d">utils/testing.js</text>
</g>
</g>
</svg>
