<?xml version="1.0" encoding="UTF-8" standalone="no"?>
<!DOCTYPE svg PUBLIC "-//W3C//DTD SVG 1.1//EN"
 "http://www.w3.org/Graphics/SVG/1.1/DTD/svg11.dtd">
<!-- Generated by graphviz version 2.40.1 (20161225.0304)
 -->
<!-- Title: G Pages: 1 -->
<svg width="1248pt" height="1317pt"
 viewBox="0.00 0.00 1247.78 1316.98" xmlns="http://www.w3.org/2000/svg" xmlns:xlink="http://www.w3.org/1999/xlink">
<g id="graph0" class="graph" transform="scale(1 1) rotate(0) translate(7.992 1308.992)">
<title>G</title>
<polygon fill="#eeeeff" stroke="transparent" points="-7.992,7.992 -7.992,-1308.992 1239.792,-1308.992 1239.792,7.992 -7.992,7.992"/>
<!-- combinators/constant.js -->
<g id="node1" class="node">
<title>combinators/constant.js</title>
<polygon fill="none" stroke="#0c821d" stroke-width="4" points="381.4004,-1071 200.1996,-1071 200.1996,-1035 381.4004,-1035 381.4004,-1071"/>
<text text-anchor="middle" x="290.8" y="-1050.6" font-family="Fira Code" font-size="12.00" fill="#0c821d">combinators/constant.js</text>
</g>
<!-- combinators/identity.js -->
<g id="node2" class="node">
<title>combinators/identity.js</title>
<polygon fill="none" stroke="#0c821d" stroke-width="4" points="181.4004,-1071 .1996,-1071 .1996,-1035 181.4004,-1035 181.4004,-1071"/>
<text text-anchor="middle" x="90.8" y="-1050.6" font-family="Fira Code" font-size="12.00" fill="#0c821d">combinators/identity.js</text>
</g>
<!-- combinators/index.js -->
<g id="node3" class="node">
<title>combinators/index.js</title>
<polygon fill="none" stroke="#242424" stroke-width="4" points="370.8,-1186 210.8,-1186 210.8,-1150 370.8,-1150 370.8,-1186"/>
<text text-anchor="middle" x="290.8" y="-1165.6" font-family="Fira Code" font-size="12.00" fill="#242424">combinators/index.js</text>
</g>
<!-- combinators/index.js&#45;&gt;combinators/constant.js -->
<g id="edge1" class="edge">
<title>combinators/index.js&#45;&gt;combinators/constant.js</title>
<path fill="none" stroke="#242424" d="M290.8,-1149.7779C290.8,-1131.3567 290.8,-1102.6329 290.8,-1081.2569"/>
<polygon fill="#242424" stroke="#242424" points="294.3001,-1081.1368 290.8,-1071.1368 287.3001,-1081.1369 294.3001,-1081.1368"/>
</g>
<!-- combinators/index.js&#45;&gt;combinators/identity.js -->
<g id="edge2" class="edge">
<title>combinators/index.js&#45;&gt;combinators/identity.js</title>
<path fill="none" stroke="#242424" d="M259.1094,-1149.7779C224.4393,-1129.8426 168.7854,-1097.8416 131.0519,-1076.1448"/>
<polygon fill="#242424" stroke="#242424" points="132.7561,-1073.0874 122.3423,-1071.1368 129.2667,-1079.1558 132.7561,-1073.0874"/>
</g>
<!-- curry/ify.js -->
<g id="node4" class="node">
<title>curry/ify.js</title>
<polygon fill="none" stroke="#242424" stroke-width="4" points="549.2008,-266 446.3992,-266 446.3992,-230 549.2008,-230 549.2008,-266"/>
<text text-anchor="middle" x="497.8" y="-245.6" font-family="Fira Code" font-size="12.00" fill="#242424">curry/ify.js</text>
</g>
<!-- curry/powder.js -->
<g id="node5" class="node">
<title>curry/powder.js</title>
<polygon fill="none" stroke="#242424" stroke-width="4" points="559.8,-151 435.8,-151 435.8,-115 559.8,-115 559.8,-151"/>
<text text-anchor="middle" x="497.8" y="-130.6" font-family="Fira Code" font-size="12.00" fill="#242424">curry/powder.js</text>
</g>
<!-- curry/ify.js&#45;&gt;curry/powder.js -->
<g id="edge3" class="edge">
<title>curry/ify.js&#45;&gt;curry/powder.js</title>
<path fill="none" stroke="#242424" d="M497.8,-229.7779C497.8,-211.3567 497.8,-182.6329 497.8,-161.2569"/>
<polygon fill="#242424" stroke="#242424" points="501.3001,-161.1368 497.8,-151.1368 494.3001,-161.1369 501.3001,-161.1368"/>
</g>
<!-- curry/to&#45;string.js -->
<g id="node10" class="node">
<title>curry/to&#45;string.js</title>
<polygon fill="none" stroke="#0c821d" stroke-width="4" points="668.4005,-36 523.1995,-36 523.1995,0 668.4005,0 668.4005,-36"/>
<text text-anchor="middle" x="595.8" y="-15.6" font-family="Fira Code" font-size="12.00" fill="#0c821d">curry/to&#45;string.js</text>
</g>
<!-- curry/powder.js&#45;&gt;curry/to&#45;string.js -->
<g id="edge10" class="edge">
<title>curry/powder.js&#45;&gt;curry/to&#45;string.js</title>
<path fill="none" stroke="#242424" d="M513.3284,-114.7779C529.5999,-95.6838 555.3042,-65.5206 573.6907,-43.9446"/>
<polygon fill="#242424" stroke="#242424" points="576.5221,-46.0182 580.3443,-36.1368 571.1942,-41.4779 576.5221,-46.0182"/>
</g>
<!-- placeholder/count.js -->
<g id="node11" class="node">
<title>placeholder/count.js</title>
<polygon fill="none" stroke="#0c821d" stroke-width="4" points="941.8,-36 781.8,-36 781.8,0 941.8,0 941.8,-36"/>
<text text-anchor="middle" x="861.8" y="-15.6" font-family="Fira Code" font-size="12.00" fill="#0c821d">placeholder/count.js</text>
</g>
<!-- curry/powder.js&#45;&gt;placeholder/count.js -->
<g id="edge11" class="edge">
<title>curry/powder.js&#45;&gt;placeholder/count.js</title>
<path fill="none" stroke="#242424" d="M555.0754,-114.9047C620.0513,-94.3766 725.8927,-60.9377 794.6868,-39.2034"/>
<polygon fill="#242424" stroke="#242424" points="796.0776,-42.4345 804.5586,-36.0845 793.9688,-35.7597 796.0776,-42.4345"/>
</g>
<!-- placeholder/merge&#45;params.js -->
<g id="node12" class="node">
<title>placeholder/merge&#45;params.js</title>
<polygon fill="none" stroke="#0c821d" stroke-width="4" points="505.2004,-36 294.3996,-36 294.3996,0 505.2004,0 505.2004,-36"/>
<text text-anchor="middle" x="399.8" y="-15.6" font-family="Fira Code" font-size="12.00" fill="#0c821d">placeholder/merge&#45;params.js</text>
</g>
<!-- curry/powder.js&#45;&gt;placeholder/merge&#45;params.js -->
<g id="edge12" class="edge">
<title>curry/powder.js&#45;&gt;placeholder/merge&#45;params.js</title>
<path fill="none" stroke="#242424" d="M482.2716,-114.7779C466.0001,-95.6838 440.2958,-65.5206 421.9093,-43.9446"/>
<polygon fill="#242424" stroke="#242424" points="424.4058,-41.4779 415.2557,-36.1368 419.0779,-46.0182 424.4058,-41.4779"/>
</g>
<!-- curry/index.js -->
<g id="node6" class="node">
<title>curry/index.js</title>
<polygon fill="none" stroke="#242424" stroke-width="4" points="468.1002,-496 351.4998,-496 351.4998,-460 468.1002,-460 468.1002,-496"/>
<text text-anchor="middle" x="409.8" y="-475.6" font-family="Fira Code" font-size="12.00" fill="#242424">curry/index.js</text>
</g>
<!-- curry/index.js&#45;&gt;curry/ify.js -->
<g id="edge4" class="edge">
<title>curry/index.js&#45;&gt;curry/ify.js</title>
<path fill="none" stroke="#242424" d="M416.7052,-459.9523C432.0253,-419.9112 468.9441,-323.4188 487.2059,-275.6891"/>
<polygon fill="#242424" stroke="#242424" points="490.5005,-276.8726 490.8051,-266.2821 483.9627,-274.3711 490.5005,-276.8726"/>
</g>
<!-- curry/index.js&#45;&gt;curry/powder.js -->
<g id="edge6" class="edge">
<title>curry/index.js&#45;&gt;curry/powder.js</title>
<path fill="none" stroke="#242424" d="M409.1776,-459.9739C408.2996,-418.2487 409.3159,-312.3018 437.8,-230 446.7454,-204.1533 463.5047,-177.9596 477.0418,-159.3178"/>
<polygon fill="#242424" stroke="#242424" points="480.0245,-161.1723 483.1871,-151.0604 474.409,-156.993 480.0245,-161.1723"/>
</g>
<!-- curry/katsu.js -->
<g id="node7" class="node">
<title>curry/katsu.js</title>
<polygon fill="none" stroke="#242424" stroke-width="4" points="731.1002,-381 614.4998,-381 614.4998,-345 731.1002,-345 731.1002,-381"/>
<text text-anchor="middle" x="672.8" y="-360.6" font-family="Fira Code" font-size="12.00" fill="#242424">curry/katsu.js</text>
</g>
<!-- curry/index.js&#45;&gt;curry/katsu.js -->
<g id="edge5" class="edge">
<title>curry/index.js&#45;&gt;curry/katsu.js</title>
<path fill="none" stroke="#242424" d="M451.1831,-459.9047C497.3886,-439.7008 572.1953,-406.9906 621.9343,-385.2417"/>
<polygon fill="#242424" stroke="#242424" points="623.4643,-388.3927 631.2244,-381.1794 620.6598,-381.979 623.4643,-388.3927"/>
</g>
<!-- curry/katsu.js&#45;&gt;curry/ify.js -->
<g id="edge7" class="edge">
<title>curry/katsu.js&#45;&gt;curry/ify.js</title>
<path fill="none" stroke="#242424" d="M645.0707,-344.7779C614.9904,-325.0108 566.8578,-293.3808 533.8596,-271.6963"/>
<polygon fill="#242424" stroke="#242424" points="535.6787,-268.7037 525.3995,-266.1368 531.8345,-274.5536 535.6787,-268.7037"/>
</g>
<!-- placeholder/constant.js -->
<g id="node8" class="node">
<title>placeholder/constant.js</title>
<polygon fill="none" stroke="#0c821d" stroke-width="4" points="928.4004,-266 747.1996,-266 747.1996,-230 928.4004,-230 928.4004,-266"/>
<text text-anchor="middle" x="837.8" y="-245.6" font-family="Fira Code" font-size="12.00" fill="#0c821d">placeholder/constant.js</text>
</g>
<!-- curry/katsu.js&#45;&gt;placeholder/constant.js -->
<g id="edge8" class="edge">
<title>curry/katsu.js&#45;&gt;placeholder/constant.js</title>
<path fill="none" stroke="#242424" d="M698.9447,-344.7779C727.1855,-325.095 772.3024,-293.6498 803.403,-271.9737"/>
<polygon fill="#242424" stroke="#242424" points="805.5749,-274.7262 811.7776,-266.1368 801.5723,-268.9834 805.5749,-274.7262"/>
</g>
<!-- placeholder/test.js -->
<g id="node9" class="node">
<title>placeholder/test.js</title>
<polygon fill="none" stroke="#0c821d" stroke-width="4" points="729.1001,-266 576.4999,-266 576.4999,-230 729.1001,-230 729.1001,-266"/>
<text text-anchor="middle" x="652.8" y="-245.6" font-family="Fira Code" font-size="12.00" fill="#0c821d">placeholder/test.js</text>
</g>
<!-- curry/katsu.js&#45;&gt;placeholder/test.js -->
<g id="edge9" class="edge">
<title>curry/katsu.js&#45;&gt;placeholder/test.js</title>
<path fill="none" stroke="#242424" d="M669.6309,-344.7779C666.4273,-326.3567 661.4318,-297.6329 657.7142,-276.2569"/>
<polygon fill="#242424" stroke="#242424" points="661.116,-275.3892 655.9542,-266.1368 654.2195,-276.5887 661.116,-275.3892"/>
</g>
<!-- fp/compose.js -->
<g id="node13" class="node">
<title>fp/compose.js</title>
<polygon fill="none" stroke="#242424" stroke-width="4" points="1165.4007,-726 1056.1993,-726 1056.1993,-690 1165.4007,-690 1165.4007,-726"/>
<text text-anchor="middle" x="1110.8" y="-705.6" font-family="Fira Code" font-size="12.00" fill="#242424">fp/compose.js</text>
</g>
<!-- fp/meta.js -->
<g id="node14" class="node">
<title>fp/meta.js</title>
<polygon fill="none" stroke="#242424" stroke-width="4" points="1139.8,-496 1051.8,-496 1051.8,-460 1139.8,-460 1139.8,-496"/>
<text text-anchor="middle" x="1095.8" y="-475.6" font-family="Fira Code" font-size="12.00" fill="#242424">fp/meta.js</text>
</g>
<!-- fp/compose.js&#45;&gt;fp/meta.js -->
<g id="edge13" class="edge">
<title>fp/compose.js&#45;&gt;fp/meta.js</title>
<path fill="none" stroke="#242424" d="M1109.623,-689.9523C1107.0225,-650.0788 1100.7712,-554.2253 1097.6451,-506.2908"/>
<polygon fill="#242424" stroke="#242424" points="1101.1358,-506.0331 1096.9923,-496.2821 1094.1506,-506.4887 1101.1358,-506.0331"/>
</g>
<!-- fp/pipe.js -->
<g id="node15" class="node">
<title>fp/pipe.js</title>
<polygon fill="none" stroke="#242424" stroke-width="4" points="1073.8,-611 985.8,-611 985.8,-575 1073.8,-575 1073.8,-611"/>
<text text-anchor="middle" x="1029.8" y="-590.6" font-family="Fira Code" font-size="12.00" fill="#242424">fp/pipe.js</text>
</g>
<!-- fp/compose.js&#45;&gt;fp/pipe.js -->
<g id="edge14" class="edge">
<title>fp/compose.js&#45;&gt;fp/pipe.js</title>
<path fill="none" stroke="#242424" d="M1097.9653,-689.7779C1084.6349,-670.852 1063.6448,-641.0513 1048.4771,-619.5169"/>
<polygon fill="#242424" stroke="#242424" points="1051.1946,-617.297 1042.5746,-611.1368 1045.4717,-621.3279 1051.1946,-617.297"/>
</g>
<!-- fp/meta.js&#45;&gt;curry/katsu.js -->
<g id="edge20" class="edge">
<title>fp/meta.js&#45;&gt;curry/katsu.js</title>
<path fill="none" stroke="#242424" d="M1051.7287,-466.0184C977.869,-445.9384 828.6032,-405.3579 741.0723,-381.561"/>
<polygon fill="#242424" stroke="#242424" points="741.803,-378.1327 731.235,-378.8866 739.9665,-384.8875 741.803,-378.1327"/>
</g>
<!-- fp/pipe.js&#45;&gt;curry/katsu.js -->
<g id="edge21" class="edge">
<title>fp/pipe.js&#45;&gt;curry/katsu.js</title>
<path fill="none" stroke="#242424" d="M1026.7644,-574.7455C1021.0753,-546.2232 1006.1332,-491.1381 971.8,-460 937.707,-429.0797 818.7333,-396.7941 741.5347,-378.3662"/>
<polygon fill="#242424" stroke="#242424" points="741.9377,-374.865 731.4006,-375.9692 740.3264,-381.6771 741.9377,-374.865"/>
</g>
<!-- fp/pipe.js&#45;&gt;fp/meta.js -->
<g id="edge22" class="edge">
<title>fp/pipe.js&#45;&gt;fp/meta.js</title>
<path fill="none" stroke="#242424" d="M1040.2579,-574.7779C1051.0232,-556.0202 1067.9192,-526.5802 1080.2509,-505.0931"/>
<polygon fill="#242424" stroke="#242424" points="1083.449,-506.5522 1085.391,-496.1368 1077.3778,-503.0678 1083.449,-506.5522"/>
</g>
<!-- fp/filter.js -->
<g id="node16" class="node">
<title>fp/filter.js</title>
<polygon fill="none" stroke="#242424" stroke-width="4" points="930.2008,-611 827.3992,-611 827.3992,-575 930.2008,-575 930.2008,-611"/>
<text text-anchor="middle" x="878.8" y="-590.6" font-family="Fira Code" font-size="12.00" fill="#242424">fp/filter.js</text>
</g>
<!-- utils/delegatee.js -->
<g id="node17" class="node">
<title>utils/delegatee.js</title>
<polygon fill="none" stroke="#242424" stroke-width="4" points="929.4005,-496 784.1995,-496 784.1995,-460 929.4005,-460 929.4005,-496"/>
<text text-anchor="middle" x="856.8" y="-475.6" font-family="Fira Code" font-size="12.00" fill="#242424">utils/delegatee.js</text>
</g>
<!-- fp/filter.js&#45;&gt;utils/delegatee.js -->
<g id="edge15" class="edge">
<title>fp/filter.js&#45;&gt;utils/delegatee.js</title>
<path fill="none" stroke="#242424" d="M875.314,-574.7779C871.7739,-556.2726 866.2448,-527.3704 862.1497,-505.9646"/>
<polygon fill="#242424" stroke="#242424" points="865.5864,-505.3011 860.2697,-496.1368 858.711,-506.6164 865.5864,-505.3011"/>
</g>
<!-- utils/delegatee.js&#45;&gt;curry/katsu.js -->
<g id="edge47" class="edge">
<title>utils/delegatee.js&#45;&gt;curry/katsu.js</title>
<path fill="none" stroke="#242424" d="M827.6447,-459.7779C796.0174,-440.0108 745.4093,-408.3808 710.7141,-386.6963"/>
<polygon fill="#242424" stroke="#242424" points="712.154,-383.4689 701.8189,-381.1368 708.4439,-389.4049 712.154,-383.4689"/>
</g>
<!-- fp/index.js -->
<g id="node18" class="node">
<title>fp/index.js</title>
<polygon fill="none" stroke="#242424" stroke-width="4" points="1080.5002,-841 985.0998,-841 985.0998,-805 1080.5002,-805 1080.5002,-841"/>
<text text-anchor="middle" x="1032.8" y="-820.6" font-family="Fira Code" font-size="12.00" fill="#242424">fp/index.js</text>
</g>
<!-- fp/index.js&#45;&gt;fp/compose.js -->
<g id="edge16" class="edge">
<title>fp/index.js&#45;&gt;fp/compose.js</title>
<path fill="none" stroke="#242424" d="M1045.1593,-804.7779C1057.996,-785.852 1078.2087,-756.0513 1092.8146,-734.5169"/>
<polygon fill="#242424" stroke="#242424" points="1095.7818,-736.3775 1098.4985,-726.1368 1089.9886,-732.4482 1095.7818,-736.3775"/>
</g>
<!-- fp/index.js&#45;&gt;fp/meta.js -->
<g id="edge18" class="edge">
<title>fp/index.js&#45;&gt;fp/meta.js</title>
<path fill="none" stroke="#242424" d="M1080.074,-804.8922C1113.1888,-789.4162 1154.9373,-763.6228 1174.8,-726 1214.7198,-650.3863 1152.4649,-551.0591 1117.2704,-504.3852"/>
<polygon fill="#242424" stroke="#242424" points="1119.9189,-502.088 1111.0445,-496.3005 1114.3728,-506.359 1119.9189,-502.088"/>
</g>
<!-- fp/index.js&#45;&gt;fp/pipe.js -->
<g id="edge19" class="edge">
<title>fp/index.js&#45;&gt;fp/pipe.js</title>
<path fill="none" stroke="#242424" d="M1032.5646,-804.9523C1032.0445,-765.0788 1030.7942,-669.2253 1030.169,-621.2908"/>
<polygon fill="#242424" stroke="#242424" points="1033.6687,-621.2356 1030.0385,-611.2821 1026.6693,-621.327 1033.6687,-621.2356"/>
</g>
<!-- fp/index.js&#45;&gt;fp/filter.js -->
<g id="edge17" class="edge">
<title>fp/index.js&#45;&gt;fp/filter.js</title>
<path fill="none" stroke="#242424" d="M1020.7159,-804.9523C993.7375,-764.6599 928.4853,-667.2054 896.7418,-619.7962"/>
<polygon fill="#242424" stroke="#242424" points="899.5131,-617.6442 891.0411,-611.2821 893.6965,-621.5388 899.5131,-617.6442"/>
</g>
<!-- index.js -->
<g id="node19" class="node">
<title>index.js</title>
<polygon fill="none" stroke="#242424" stroke-width="4" points="849.4011,-1301 776.1989,-1301 776.1989,-1265 849.4011,-1265 849.4011,-1301"/>
<text text-anchor="middle" x="812.8" y="-1280.6" font-family="Fira Code" font-size="12.00" fill="#242424">index.js</text>
</g>
<!-- index.js&#45;&gt;combinators/index.js -->
<g id="edge23" class="edge">
<title>index.js&#45;&gt;combinators/index.js</title>
<path fill="none" stroke="#242424" d="M776.094,-1274.9134C694.8031,-1257.0045 497.5896,-1213.5571 381.1234,-1187.8988"/>
<polygon fill="#242424" stroke="#242424" points="381.6694,-1184.4353 371.1506,-1185.7018 380.1633,-1191.2713 381.6694,-1184.4353"/>
</g>
<!-- index.js&#45;&gt;curry/index.js -->
<g id="edge24" class="edge">
<title>index.js&#45;&gt;curry/index.js</title>
<path fill="none" stroke="#242424" d="M775.9681,-1279.4891C676.4829,-1267.7842 409.8,-1220.762 409.8,-1053 409.8,-1053 409.8,-1053 409.8,-708 409.8,-635.2983 409.8,-549.67 409.8,-506.2764"/>
<polygon fill="#242424" stroke="#242424" points="413.3001,-506.1877 409.8,-496.1877 406.3001,-506.1877 413.3001,-506.1877"/>
</g>
<!-- index.js&#45;&gt;fp/index.js -->
<g id="edge25" class="edge">
<title>index.js&#45;&gt;fp/index.js</title>
<path fill="none" stroke="#242424" d="M827.8146,-1264.7914C843.0328,-1245.8358 866.7086,-1214.9281 883.8,-1186 941.1494,-1088.9332 949.9614,-1061.0863 990.8,-956 1004.6439,-920.3767 1017.3825,-878.123 1025.1161,-850.9563"/>
<polygon fill="#242424" stroke="#242424" points="1028.4857,-851.9027 1027.827,-841.3283 1021.7477,-850.0055 1028.4857,-851.9027"/>
</g>
<!-- object/index.js -->
<g id="node20" class="node">
<title>object/index.js</title>
<polygon fill="none" stroke="#242424" stroke-width="4" points="874.8,-1186 750.8,-1186 750.8,-1150 874.8,-1150 874.8,-1186"/>
<text text-anchor="middle" x="812.8" y="-1165.6" font-family="Fira Code" font-size="12.00" fill="#242424">object/index.js</text>
</g>
<!-- index.js&#45;&gt;object/index.js -->
<g id="edge26" class="edge">
<title>index.js&#45;&gt;object/index.js</title>
<path fill="none" stroke="#242424" d="M812.8,-1264.7779C812.8,-1246.3567 812.8,-1217.6329 812.8,-1196.2569"/>
<polygon fill="#242424" stroke="#242424" points="816.3001,-1196.1368 812.8,-1186.1368 809.3001,-1196.1369 816.3001,-1196.1368"/>
</g>
<!-- placeholder/index.js -->
<g id="node21" class="node">
<title>placeholder/index.js</title>
<polygon fill="none" stroke="#242424" stroke-width="4" points="922.8,-381 762.8,-381 762.8,-345 922.8,-345 922.8,-381"/>
<text text-anchor="middle" x="842.8" y="-360.6" font-family="Fira Code" font-size="12.00" fill="#242424">placeholder/index.js</text>
</g>
<!-- index.js&#45;&gt;placeholder/index.js -->
<g id="edge27" class="edge">
<title>index.js&#45;&gt;placeholder/index.js</title>
<path fill="none" stroke="#242424" d="M849.6162,-1280.1628C951.86,-1270.0856 1231.8,-1226.6397 1231.8,-1053 1231.8,-1053 1231.8,-1053 1231.8,-593 1231.8,-454.8252 1047.6923,-397.9115 932.7932,-375.8467"/>
<polygon fill="#242424" stroke="#242424" points="933.4019,-372.4 922.9294,-374.0051 932.1171,-379.281 933.4019,-372.4"/>
</g>
<!-- object/by&#45;condition.js -->
<g id="node22" class="node">
<title>object/by&#45;condition.js</title>
<polygon fill="none" stroke="#242424" stroke-width="4" points="958.2005,-841 783.3995,-841 783.3995,-805 958.2005,-805 958.2005,-841"/>
<text text-anchor="middle" x="870.8" y="-820.6" font-family="Fira Code" font-size="12.00" fill="#242424">object/by&#45;condition.js</text>
</g>
<!-- object/index.js&#45;&gt;object/by&#45;condition.js -->
<g id="edge39" class="edge">
<title>object/index.js&#45;&gt;object/by&#45;condition.js</title>
<path fill="none" stroke="#242424" d="M833.7603,-1149.9118C870.971,-1116.2432 947.3302,-1039.7359 975.8,-956 990.8793,-911.6486 946.5756,-871.014 910.9284,-846.6319"/>
<polygon fill="#242424" stroke="#242424" points="912.8269,-843.6913 902.557,-841.0876 908.9617,-849.5274 912.8269,-843.6913"/>
</g>
<!-- object/by&#45;keys&#45;or&#45;number.js -->
<g id="node24" class="node">
<title>object/by&#45;keys&#45;or&#45;number.js</title>
<polygon fill="none" stroke="#242424" stroke-width="4" points="852.2004,-1071 641.3996,-1071 641.3996,-1035 852.2004,-1035 852.2004,-1071"/>
<text text-anchor="middle" x="746.8" y="-1050.6" font-family="Fira Code" font-size="12.00" fill="#242424">object/by&#45;keys&#45;or&#45;number.js</text>
</g>
<!-- object/index.js&#45;&gt;object/by&#45;keys&#45;or&#45;number.js -->
<g id="edge40" class="edge">
<title>object/index.js&#45;&gt;object/by&#45;keys&#45;or&#45;number.js</title>
<path fill="none" stroke="#242424" d="M802.3421,-1149.7779C791.5768,-1131.0202 774.6808,-1101.5802 762.3491,-1080.0931"/>
<polygon fill="#242424" stroke="#242424" points="765.2222,-1078.0678 757.209,-1071.1368 759.151,-1081.5522 765.2222,-1078.0678"/>
</g>
<!-- object/by&#45;keys.js -->
<g id="node25" class="node">
<title>object/by&#45;keys.js</title>
<polygon fill="none" stroke="#242424" stroke-width="4" points="701.2006,-956 562.3994,-956 562.3994,-920 701.2006,-920 701.2006,-956"/>
<text text-anchor="middle" x="631.8" y="-935.6" font-family="Fira Code" font-size="12.00" fill="#242424">object/by&#45;keys.js</text>
</g>
<!-- object/index.js&#45;&gt;object/by&#45;keys.js -->
<g id="edge41" class="edge">
<title>object/index.js&#45;&gt;object/by&#45;keys.js</title>
<path fill="none" stroke="#242424" d="M750.7678,-1152.3753C709.5002,-1138.4145 658.3462,-1113.4228 632.8,-1071 613.5977,-1039.112 618.1822,-994.6463 624.2106,-966.0876"/>
<polygon fill="#242424" stroke="#242424" points="627.6222,-966.8688 626.4555,-956.3384 620.8008,-965.298 627.6222,-966.8688"/>
</g>
<!-- object/by&#45;number&#45;of&#45;keys.js -->
<g id="node26" class="node">
<title>object/by&#45;number&#45;of&#45;keys.js</title>
<polygon fill="none" stroke="#242424" stroke-width="4" points="967.2004,-956 756.3996,-956 756.3996,-920 967.2004,-920 967.2004,-956"/>
<text text-anchor="middle" x="861.8" y="-935.6" font-family="Fira Code" font-size="12.00" fill="#242424">object/by&#45;number&#45;of&#45;keys.js</text>
</g>
<!-- object/index.js&#45;&gt;object/by&#45;number&#45;of&#45;keys.js -->
<g id="edge42" class="edge">
<title>object/index.js&#45;&gt;object/by&#45;number&#45;of&#45;keys.js</title>
<path fill="none" stroke="#242424" d="M824.8324,-1149.9987C836.6195,-1131.2082 853.7999,-1100.4298 860.8,-1071 869.1964,-1035.6996 867.6617,-993.6233 865.2242,-966.3904"/>
<polygon fill="#242424" stroke="#242424" points="868.7012,-965.9844 864.2269,-956.3807 861.7356,-966.6784 868.7012,-965.9844"/>
</g>
<!-- placeholder/index.js&#45;&gt;placeholder/constant.js -->
<g id="edge43" class="edge">
<title>placeholder/index.js&#45;&gt;placeholder/constant.js</title>
<path fill="none" stroke="#242424" d="M842.0077,-344.7779C841.2068,-326.3567 839.958,-297.6329 839.0286,-276.2569"/>
<polygon fill="#242424" stroke="#242424" points="842.5197,-275.9753 838.5886,-266.1368 835.5263,-276.2795 842.5197,-275.9753"/>
</g>
<!-- placeholder/index.js&#45;&gt;placeholder/test.js -->
<g id="edge45" class="edge">
<title>placeholder/index.js&#45;&gt;placeholder/test.js</title>
<path fill="none" stroke="#242424" d="M812.6939,-344.7779C779.8963,-324.9267 727.3319,-293.1114 691.494,-271.42"/>
<polygon fill="#242424" stroke="#242424" points="693.1326,-268.3207 682.7652,-266.1368 689.5079,-274.3092 693.1326,-268.3207"/>
</g>
<!-- placeholder/index.js&#45;&gt;placeholder/count.js -->
<g id="edge44" class="edge">
<title>placeholder/index.js&#45;&gt;placeholder/count.js</title>
<path fill="none" stroke="#242424" d="M869.9428,-344.7442C892.9008,-327.5167 924.1725,-299.3906 937.8,-266 969.8515,-187.4664 913.5925,-90.2389 881.6258,-44.3429"/>
<polygon fill="#242424" stroke="#242424" points="884.4285,-42.2447 875.778,-36.1275 878.7256,-46.304 884.4285,-42.2447"/>
</g>
<!-- object/by&#45;condition.js&#45;&gt;curry/katsu.js -->
<g id="edge28" class="edge">
<title>object/by&#45;condition.js&#45;&gt;curry/katsu.js</title>
<path fill="none" stroke="#242424" d="M878.7941,-804.7549C894.1347,-768.6321 927.2093,-685.0847 938.8,-611 949.1735,-544.6955 977.2766,-514.9859 938.8,-460 915.5513,-426.7758 811.7816,-396.0862 740.9379,-378.4645"/>
<polygon fill="#242424" stroke="#242424" points="741.7181,-375.0522 731.1719,-376.0658 740.0484,-381.8501 741.7181,-375.0522"/>
</g>
<!-- object/by&#45;condition.js&#45;&gt;fp/pipe.js -->
<g id="edge29" class="edge">
<title>object/by&#45;condition.js&#45;&gt;fp/pipe.js</title>
<path fill="none" stroke="#242424" d="M883.2765,-804.9523C911.1307,-764.6599 978.5015,-667.2054 1011.2756,-619.7962"/>
<polygon fill="#242424" stroke="#242424" points="1014.354,-621.4982 1017.1615,-611.2821 1008.5959,-617.5176 1014.354,-621.4982"/>
</g>
<!-- utils/object.js -->
<g id="node23" class="node">
<title>utils/object.js</title>
<polygon fill="none" stroke="#242424" stroke-width="4" points="809.8,-611 685.8,-611 685.8,-575 809.8,-575 809.8,-611"/>
<text text-anchor="middle" x="747.8" y="-590.6" font-family="Fira Code" font-size="12.00" fill="#242424">utils/object.js</text>
</g>
<!-- object/by&#45;condition.js&#45;&gt;utils/object.js -->
<g id="edge30" class="edge">
<title>object/by&#45;condition.js&#45;&gt;utils/object.js</title>
<path fill="none" stroke="#242424" d="M865.3154,-804.698C857.0754,-778.4236 840.1648,-728.8971 818.8,-690 804.7969,-664.5058 784.9963,-638.0198 769.8616,-619.1787"/>
<polygon fill="#242424" stroke="#242424" points="772.5111,-616.8893 763.4831,-611.3444 767.0828,-621.309 772.5111,-616.8893"/>
</g>
<!-- utils/object.js&#45;&gt;curry/katsu.js -->
<g id="edge59" class="edge">
<title>utils/object.js&#45;&gt;curry/katsu.js</title>
<path fill="none" stroke="#242424" d="M749.0912,-574.7791C750.3301,-548.6036 750.3517,-499.1962 736.8,-460 727.71,-433.7085 709.8457,-407.5992 695.2959,-389.1029"/>
<polygon fill="#242424" stroke="#242424" points="697.8931,-386.7482 688.8875,-381.167 692.4471,-391.146 697.8931,-386.7482"/>
</g>
<!-- object/by&#45;keys&#45;or&#45;number.js&#45;&gt;object/by&#45;condition.js -->
<g id="edge31" class="edge">
<title>object/by&#45;keys&#45;or&#45;number.js&#45;&gt;object/by&#45;condition.js</title>
<path fill="none" stroke="#242424" d="M742.1798,-1034.6643C736.4542,-1007.9178 729.524,-957.33 747.8,-920 763.7158,-887.4909 796.3292,-862.5659 823.9759,-846.1262"/>
<polygon fill="#242424" stroke="#242424" points="825.8209,-849.1027 832.7501,-841.0879 822.3352,-843.0323 825.8209,-849.1027"/>
</g>
<!-- object/by&#45;keys&#45;or&#45;number.js&#45;&gt;object/by&#45;keys.js -->
<g id="edge32" class="edge">
<title>object/by&#45;keys&#45;or&#45;number.js&#45;&gt;object/by&#45;keys.js</title>
<path fill="none" stroke="#242424" d="M728.5779,-1034.7779C709.3155,-1015.5155 678.7882,-984.9882 657.1763,-963.3763"/>
<polygon fill="#242424" stroke="#242424" points="659.4828,-960.7331 649.9368,-956.1368 654.5331,-965.6828 659.4828,-960.7331"/>
</g>
<!-- object/by&#45;keys&#45;or&#45;number.js&#45;&gt;object/by&#45;number&#45;of&#45;keys.js -->
<g id="edge33" class="edge">
<title>object/by&#45;keys&#45;or&#45;number.js&#45;&gt;object/by&#45;number&#45;of&#45;keys.js</title>
<path fill="none" stroke="#242424" d="M765.0221,-1034.7779C784.2845,-1015.5155 814.8118,-984.9882 836.4237,-963.3763"/>
<polygon fill="#242424" stroke="#242424" points="839.0669,-965.6828 843.6632,-956.1368 834.1172,-960.7331 839.0669,-965.6828"/>
</g>
<!-- object/by&#45;keys.js&#45;&gt;object/by&#45;condition.js -->
<g id="edge34" class="edge">
<title>object/by&#45;keys.js&#45;&gt;object/by&#45;condition.js</title>
<path fill="none" stroke="#242424" d="M669.4067,-919.9047C711.1338,-899.8268 778.529,-867.3982 823.7276,-845.6499"/>
<polygon fill="#242424" stroke="#242424" points="825.5248,-848.6693 833.0184,-841.1794 822.4897,-842.3615 825.5248,-848.6693"/>
</g>
<!-- utils/length.js -->
<g id="node27" class="node">
<title>utils/length.js</title>
<polygon fill="none" stroke="#242424" stroke-width="4" points="809.8,-726 685.8,-726 685.8,-690 809.8,-690 809.8,-726"/>
<text text-anchor="middle" x="747.8" y="-705.6" font-family="Fira Code" font-size="12.00" fill="#242424">utils/length.js</text>
</g>
<!-- object/by&#45;keys.js&#45;&gt;utils/length.js -->
<g id="edge35" class="edge">
<title>object/by&#45;keys.js&#45;&gt;utils/length.js</title>
<path fill="none" stroke="#242424" d="M646.3609,-919.9233C661.034,-901.0728 683.6206,-870.2474 698.8,-841 716.792,-806.3332 731.3098,-763.527 739.7451,-736.0009"/>
<polygon fill="#242424" stroke="#242424" points="743.1498,-736.8323 742.6748,-726.2482 736.4457,-734.8184 743.1498,-736.8323"/>
</g>
<!-- utils/matching&#45;key&#45;count.js -->
<g id="node28" class="node">
<title>utils/matching&#45;key&#45;count.js</title>
<polygon fill="none" stroke="#242424" stroke-width="4" points="690.2004,-841 479.3996,-841 479.3996,-805 690.2004,-805 690.2004,-841"/>
<text text-anchor="middle" x="584.8" y="-820.6" font-family="Fira Code" font-size="12.00" fill="#242424">utils/matching&#45;key&#45;count.js</text>
</g>
<!-- object/by&#45;keys.js&#45;&gt;utils/matching&#45;key&#45;count.js -->
<g id="edge36" class="edge">
<title>object/by&#45;keys.js&#45;&gt;utils/matching&#45;key&#45;count.js</title>
<path fill="none" stroke="#242424" d="M624.3527,-919.7779C616.7553,-901.1885 604.87,-872.1074 596.1099,-850.6731"/>
<polygon fill="#242424" stroke="#242424" points="599.2356,-849.0695 592.2124,-841.1368 592.7558,-851.7177 599.2356,-849.0695"/>
</g>
<!-- object/by&#45;number&#45;of&#45;keys.js&#45;&gt;object/by&#45;condition.js -->
<g id="edge37" class="edge">
<title>object/by&#45;number&#45;of&#45;keys.js&#45;&gt;object/by&#45;condition.js</title>
<path fill="none" stroke="#242424" d="M863.2261,-919.7779C864.6677,-901.3567 866.9157,-872.6329 868.5886,-851.2569"/>
<polygon fill="#242424" stroke="#242424" points="872.0896,-851.3795 869.3806,-841.1368 865.111,-850.8332 872.0896,-851.3795"/>
</g>
<!-- object/by&#45;number&#45;of&#45;keys.js&#45;&gt;utils/length.js -->
<g id="edge38" class="edge">
<title>object/by&#45;number&#45;of&#45;keys.js&#45;&gt;utils/length.js</title>
<path fill="none" stroke="#242424" d="M839.9854,-919.9378C819.8568,-902.027 790.7481,-872.7336 774.8,-841 757.9877,-807.5467 751.6439,-764.3789 749.2503,-736.4464"/>
<polygon fill="#242424" stroke="#242424" points="752.7196,-735.9008 748.4907,-726.1865 745.7387,-736.4177 752.7196,-735.9008"/>
</g>
<!-- utils/length.js&#45;&gt;fp/pipe.js -->
<g id="edge48" class="edge">
<title>utils/length.js&#45;&gt;fp/pipe.js</title>
<path fill="none" stroke="#242424" d="M792.1727,-689.9047C842.0686,-669.5571 923.0697,-636.5248 976.3932,-614.7794"/>
<polygon fill="#242424" stroke="#242424" points="977.7481,-618.0068 985.6861,-610.9897 975.1047,-611.525 977.7481,-618.0068"/>
</g>
<!-- utils/length.js&#45;&gt;utils/object.js -->
<g id="edge49" class="edge">
<title>utils/length.js&#45;&gt;utils/object.js</title>
<path fill="none" stroke="#242424" d="M747.8,-689.7779C747.8,-671.3567 747.8,-642.6329 747.8,-621.2569"/>
<polygon fill="#242424" stroke="#242424" points="751.3001,-621.1368 747.8,-611.1368 744.3001,-621.1369 751.3001,-621.1368"/>
</g>
<!-- utils/prop.js -->
<g id="node30" class="node">
<title>utils/prop.js</title>
<polygon fill="none" stroke="#242424" stroke-width="4" points="727.4007,-496 618.1993,-496 618.1993,-460 727.4007,-460 727.4007,-496"/>
<text text-anchor="middle" x="672.8" y="-475.6" font-family="Fira Code" font-size="12.00" fill="#242424">utils/prop.js</text>
</g>
<!-- utils/length.js&#45;&gt;utils/prop.js -->
<g id="edge50" class="edge">
<title>utils/length.js&#45;&gt;utils/prop.js</title>
<path fill="none" stroke="#242424" d="M729.2626,-689.9483C712.0489,-671.8248 687.5149,-642.1843 676.8,-611 664.9378,-576.4765 666.196,-533.8968 668.8967,-506.3614"/>
<polygon fill="#242424" stroke="#242424" points="672.3949,-506.5707 670.0211,-496.2453 665.4377,-505.7974 672.3949,-506.5707"/>
</g>
<!-- utils/matching&#45;key&#45;count.js&#45;&gt;curry/katsu.js -->
<g id="edge51" class="edge">
<title>utils/matching&#45;key&#45;count.js&#45;&gt;curry/katsu.js</title>
<path fill="none" stroke="#242424" d="M557.9842,-804.8258C534.64,-787.4578 501.9323,-759.0738 484.8,-726 453.7134,-665.9873 445.1176,-639.0139 466.8,-575 495.9037,-489.0756 583.0388,-420.7307 634.1842,-386.6577"/>
<polygon fill="#242424" stroke="#242424" points="636.2341,-389.499 642.6812,-381.0915 632.3983,-383.6436 636.2341,-389.499"/>
</g>
<!-- utils/matching&#45;key&#45;count.js&#45;&gt;fp/pipe.js -->
<g id="edge52" class="edge">
<title>utils/matching&#45;key&#45;count.js&#45;&gt;fp/pipe.js</title>
<path fill="none" stroke="#242424" d="M635.2094,-804.9416C683.366,-787.0335 757.485,-757.742 818.8,-726 883.9602,-692.2674 955.3034,-644.9208 996.0968,-616.7613"/>
<polygon fill="#242424" stroke="#242424" points="998.1018,-619.6302 1004.3247,-611.0554 994.1127,-613.878 998.1018,-619.6302"/>
</g>
<!-- utils/matching&#45;key&#45;count.js&#45;&gt;utils/length.js -->
<g id="edge53" class="edge">
<title>utils/matching&#45;key&#45;count.js&#45;&gt;utils/length.js</title>
<path fill="none" stroke="#242424" d="M610.6278,-804.7779C638.5263,-785.095 683.0964,-753.6498 713.8199,-731.9737"/>
<polygon fill="#242424" stroke="#242424" points="715.9396,-734.7616 722.093,-726.1368 711.9042,-729.0419 715.9396,-734.7616"/>
</g>
<!-- utils/matching&#45;keys.js -->
<g id="node31" class="node">
<title>utils/matching&#45;keys.js</title>
<polygon fill="none" stroke="#242424" stroke-width="4" points="668.2005,-726 493.3995,-726 493.3995,-690 668.2005,-690 668.2005,-726"/>
<text text-anchor="middle" x="580.8" y="-705.6" font-family="Fira Code" font-size="12.00" fill="#242424">utils/matching&#45;keys.js</text>
</g>
<!-- utils/matching&#45;key&#45;count.js&#45;&gt;utils/matching&#45;keys.js -->
<g id="edge54" class="edge">
<title>utils/matching&#45;key&#45;count.js&#45;&gt;utils/matching&#45;keys.js</title>
<path fill="none" stroke="#242424" d="M584.1662,-804.7779C583.5255,-786.3567 582.5264,-757.6329 581.7828,-736.2569"/>
<polygon fill="#242424" stroke="#242424" points="585.2764,-736.0091 581.4308,-726.1368 578.2807,-736.2525 585.2764,-736.0091"/>
</g>
<!-- utils/array.js -->
<g id="node29" class="node">
<title>utils/array.js</title>
<polygon fill="none" stroke="#242424" stroke-width="4" points="592.1002,-611 475.4998,-611 475.4998,-575 592.1002,-575 592.1002,-611"/>
<text text-anchor="middle" x="533.8" y="-590.6" font-family="Fira Code" font-size="12.00" fill="#242424">utils/array.js</text>
</g>
<!-- utils/array.js&#45;&gt;curry/katsu.js -->
<g id="edge46" class="edge">
<title>utils/array.js&#45;&gt;curry/katsu.js</title>
<path fill="none" stroke="#242424" d="M536.7265,-574.645C541.6056,-547.8744 553.1806,-497.2568 575.8,-460 592.8967,-431.8397 619.8385,-405.7906 640.9941,-387.7932"/>
<polygon fill="#242424" stroke="#242424" points="643.343,-390.3918 648.7863,-381.3022 638.8627,-385.0134 643.343,-390.3918"/>
</g>
<!-- utils/prop.js&#45;&gt;curry/katsu.js -->
<g id="edge60" class="edge">
<title>utils/prop.js&#45;&gt;curry/katsu.js</title>
<path fill="none" stroke="#242424" d="M672.8,-459.7779C672.8,-441.3567 672.8,-412.6329 672.8,-391.2569"/>
<polygon fill="#242424" stroke="#242424" points="676.3001,-391.1368 672.8,-381.1368 669.3001,-391.1369 676.3001,-391.1368"/>
</g>
<!-- utils/matching&#45;keys.js&#45;&gt;curry/katsu.js -->
<g id="edge55" class="edge">
<title>utils/matching&#45;keys.js&#45;&gt;curry/katsu.js</title>
<path fill="none" stroke="#242424" d="M585.3827,-689.9023C590.0897,-670.5213 597.2186,-638.7973 600.8,-611 609.3877,-544.3457 587.782,-523.8341 608.8,-460 617.5001,-433.5769 635.3944,-407.4778 650.0551,-389.0189"/>
<polygon fill="#242424" stroke="#242424" points="652.9058,-391.0614 656.5188,-381.1016 647.4834,-386.6344 652.9058,-391.0614"/>
</g>
<!-- utils/matching&#45;keys.js&#45;&gt;fp/filter.js -->
<g id="edge56" class="edge">
<title>utils/matching&#45;keys.js&#45;&gt;fp/filter.js</title>
<path fill="none" stroke="#242424" d="M627.6903,-689.9047C680.3714,-669.5748 765.8655,-636.5821 822.2162,-614.836"/>
<polygon fill="#242424" stroke="#242424" points="823.6222,-618.0451 831.6915,-611.1794 821.102,-611.5145 823.6222,-618.0451"/>
</g>
<!-- utils/matching&#45;keys.js&#45;&gt;utils/object.js -->
<g id="edge58" class="edge">
<title>utils/matching&#45;keys.js&#45;&gt;utils/object.js</title>
<path fill="none" stroke="#242424" d="M607.2616,-689.7779C635.8447,-670.095 681.5085,-638.6498 712.9861,-616.9737"/>
<polygon fill="#242424" stroke="#242424" points="715.2111,-619.6911 721.4622,-611.1368 711.241,-613.9258 715.2111,-619.6911"/>
</g>
<!-- utils/matching&#45;keys.js&#45;&gt;utils/array.js -->
<g id="edge57" class="edge">
<title>utils/matching&#45;keys.js&#45;&gt;utils/array.js</title>
<path fill="none" stroke="#242424" d="M573.3527,-689.7779C565.7553,-671.1885 553.87,-642.1074 545.1099,-620.6731"/>
<polygon fill="#242424" stroke="#242424" points="548.2356,-619.0695 541.2124,-611.1368 541.7558,-621.7177 548.2356,-619.0695"/>
</g>
</g>
</svg>
