<?xml version="1.0" encoding="UTF-8" standalone="no"?>
<!DOCTYPE svg PUBLIC "-//W3C//DTD SVG 1.1//EN"
 "http://www.w3.org/Graphics/SVG/1.1/DTD/svg11.dtd">
<!-- Generated by graphviz version 2.40.1 (20161225.0304)
 -->
<!-- Title: G Pages: 1 -->
<svg width="2470pt" height="1546pt"
 viewBox="0.00 0.00 2469.98 1546.17" xmlns="http://www.w3.org/2000/svg" xmlns:xlink="http://www.w3.org/1999/xlink">
<g id="graph0" class="graph" transform="scale(1 1) rotate(0) translate(7.992 1494.3888)">
<title>G</title>
<polygon fill="#eeeeff" stroke="transparent" points="-7.992,51.7853 -7.992,-1494.3888 2461.992,-1494.3888 2461.992,51.7853 -7.992,51.7853"/>
<!-- combinators.spec.js -->
<g id="node1" class="node">
<title>combinators.spec.js</title>
<polygon fill="none" stroke="#242424" stroke-width="4" points="691.7782,-55.269 539.178,-55.269 539.178,-19.269 691.7782,-19.269 691.7782,-55.269"/>
<text text-anchor="middle" x="615.4781" y="-34.869" font-family="Fira Code" font-size="12.00" fill="#242424">combinators.spec.js</text>
</g>
<!-- ../node_modules/ava/index.js -->
<g id="node2" class="node">
<title>../node_modules/ava/index.js</title>
<polygon fill="none" stroke="#0c821d" stroke-width="4" points="984.851,-379.459 767.6503,-379.459 767.6503,-343.459 984.851,-343.459 984.851,-379.459"/>
<text text-anchor="middle" x="876.2506" y="-359.059" font-family="Fira Code" font-size="12.00" fill="#0c821d">../node_modules/ava/index.js</text>
</g>
<!-- combinators/constant.js -->
<g id="node3" class="node">
<title>combinators/constant.js</title>
<polygon fill="none" stroke="#0c821d" stroke-width="4" points="203.2758,-97.633 22.0749,-97.633 22.0749,-61.633 203.2758,-61.633 203.2758,-97.633"/>
<text text-anchor="middle" x="112.6753" y="-77.233" font-family="Fira Code" font-size="12.00" fill="#0c821d">combinators/constant.js</text>
</g>
<!-- combinators/identity.js -->
<g id="node4" class="node">
<title>combinators/identity.js</title>
<polygon fill="none" stroke="#0c821d" stroke-width="4" points="180.9663,-560.0359 -.2345,-560.0359 -.2345,-524.0359 180.9663,-524.0359 180.9663,-560.0359"/>
<text text-anchor="middle" x="90.3659" y="-539.6359" font-family="Fira Code" font-size="12.00" fill="#0c821d">combinators/identity.js</text>
</g>
<!-- combinators/index.js -->
<g id="node5" class="node">
<title>combinators/index.js</title>
<polygon fill="none" stroke="#242424" stroke-width="4" points="637.5897,-449.8094 477.5897,-449.8094 477.5897,-413.8094 637.5897,-413.8094 637.5897,-449.8094"/>
<text text-anchor="middle" x="557.5897" y="-429.4094" font-family="Fira Code" font-size="12.00" fill="#242424">combinators/index.js</text>
</g>
<!-- curry&#45;object.spec.js -->
<g id="node6" class="node">
<title>curry&#45;object.spec.js</title>
<polygon fill="none" stroke="#242424" stroke-width="4" points="1561.0308,-36.0857 1401.0308,-36.0857 1401.0308,-.0857 1561.0308,-.0857 1561.0308,-36.0857"/>
<text text-anchor="middle" x="1481.0308" y="-15.6857" font-family="Fira Code" font-size="12.00" fill="#242424">curry&#45;object.spec.js</text>
</g>
<!-- ../node_modules/ramda/src/filter.js -->
<g id="node7" class="node">
<title>../node_modules/ramda/src/filter.js</title>
<polygon fill="none" stroke="#0c821d" stroke-width="4" points="1346.5702,-71.0534 1078.5702,-71.0534 1078.5702,-35.0534 1346.5702,-35.0534 1346.5702,-71.0534"/>
<text text-anchor="middle" x="1212.5702" y="-50.6534" font-family="Fira Code" font-size="12.00" fill="#0c821d">../node_modules/ramda/src/filter.js</text>
</g>
<!-- ../node_modules/ramda/src/map.js -->
<g id="node8" class="node">
<title>../node_modules/ramda/src/map.js</title>
<polygon fill="none" stroke="#0c821d" stroke-width="4" points="2453.8252,-97.4828 2207.0246,-97.4828 2207.0246,-61.4828 2453.8252,-61.4828 2453.8252,-97.4828"/>
<text text-anchor="middle" x="2330.4249" y="-77.0828" font-family="Fira Code" font-size="12.00" fill="#0c821d">../node_modules/ramda/src/map.js</text>
</g>
<!-- ../node_modules/ramda/src/reject.js -->
<g id="node9" class="node">
<title>../node_modules/ramda/src/reject.js</title>
<polygon fill="none" stroke="#0c821d" stroke-width="4" points="1960.0525,-58.4581 1692.0525,-58.4581 1692.0525,-22.4581 1960.0525,-22.4581 1960.0525,-58.4581"/>
<text text-anchor="middle" x="1826.0525" y="-38.0581" font-family="Fira Code" font-size="12.00" fill="#0c821d">../node_modules/ramda/src/reject.js</text>
</g>
<!-- fp/index.js -->
<g id="node10" class="node">
<title>fp/index.js</title>
<polygon fill="none" stroke="#242424" stroke-width="4" points="1141.4456,-740.747 1046.0452,-740.747 1046.0452,-704.747 1141.4456,-704.747 1141.4456,-740.747"/>
<text text-anchor="middle" x="1093.7454" y="-720.347" font-family="Fira Code" font-size="12.00" fill="#242424">fp/index.js</text>
</g>
<!-- object/index.js -->
<g id="node11" class="node">
<title>object/index.js</title>
<polygon fill="none" stroke="#242424" stroke-width="4" points="1169.5633,-463.3289 1045.5633,-463.3289 1045.5633,-427.3289 1169.5633,-427.3289 1169.5633,-463.3289"/>
<text text-anchor="middle" x="1107.5633" y="-442.9289" font-family="Fira Code" font-size="12.00" fill="#242424">object/index.js</text>
</g>
<!-- utils/length.js -->
<g id="node12" class="node">
<title>utils/length.js</title>
<polygon fill="none" stroke="#242424" stroke-width="4" points="1948.8469,-458.8223 1824.8469,-458.8223 1824.8469,-422.8223 1948.8469,-422.8223 1948.8469,-458.8223"/>
<text text-anchor="middle" x="1886.8469" y="-438.4223" font-family="Fira Code" font-size="12.00" fill="#242424">utils/length.js</text>
</g>
<!-- utils/object.js -->
<g id="node13" class="node">
<title>utils/object.js</title>
<polygon fill="none" stroke="#242424" stroke-width="4" points="1639.7674,-641.101 1515.7674,-641.101 1515.7674,-605.101 1639.7674,-605.101 1639.7674,-641.101"/>
<text text-anchor="middle" x="1577.7674" y="-620.7011" font-family="Fira Code" font-size="12.00" fill="#242424">utils/object.js</text>
</g>
<!-- curry.spec.js -->
<g id="node14" class="node">
<title>curry.spec.js</title>
<polygon fill="none" stroke="#242424" stroke-width="4" points="618.3594,-759.3349 509.1579,-759.3349 509.1579,-723.3349 618.3594,-723.3349 618.3594,-759.3349"/>
<text text-anchor="middle" x="563.7587" y="-738.9349" font-family="Fira Code" font-size="12.00" fill="#242424">curry.spec.js</text>
</g>
<!-- curry/index.js -->
<g id="node15" class="node">
<title>curry/index.js</title>
<polygon fill="none" stroke="#242424" stroke-width="4" points="1167.091,-1064.8672 1050.4907,-1064.8672 1050.4907,-1028.8672 1167.091,-1028.8672 1167.091,-1064.8672"/>
<text text-anchor="middle" x="1108.7908" y="-1044.4672" font-family="Fira Code" font-size="12.00" fill="#242424">curry/index.js</text>
</g>
<!-- placeholder/index.js -->
<g id="node16" class="node">
<title>placeholder/index.js</title>
<polygon fill="none" stroke="#242424" stroke-width="4" points="952.5806,-1132.7126 792.5806,-1132.7126 792.5806,-1096.7126 952.5806,-1096.7126 952.5806,-1132.7126"/>
<text text-anchor="middle" x="872.5806" y="-1112.3126" font-family="Fira Code" font-size="12.00" fill="#242424">placeholder/index.js</text>
</g>
<!-- curry/ify.js -->
<g id="node17" class="node">
<title>curry/ify.js</title>
<polygon fill="none" stroke="#242424" stroke-width="4" points="1015.5572,-1471.4767 912.7557,-1471.4767 912.7557,-1435.4767 1015.5572,-1435.4767 1015.5572,-1471.4767"/>
<text text-anchor="middle" x="964.1564" y="-1451.0767" font-family="Fira Code" font-size="12.00" fill="#242424">curry/ify.js</text>
</g>
<!-- curry/powder.js -->
<g id="node18" class="node">
<title>curry/powder.js</title>
<polygon fill="none" stroke="#242424" stroke-width="4" points="621.2446,-1065.1795 497.2446,-1065.1795 497.2446,-1029.1795 621.2446,-1029.1795 621.2446,-1065.1795"/>
<text text-anchor="middle" x="559.2446" y="-1044.7795" font-family="Fira Code" font-size="12.00" fill="#242424">curry/powder.js</text>
</g>
<!-- curry/katsu.js -->
<g id="node19" class="node">
<title>curry/katsu.js</title>
<polygon fill="none" stroke="#242424" stroke-width="4" points="1658.5282,-1089.7158 1541.9279,-1089.7158 1541.9279,-1053.7158 1658.5282,-1053.7158 1658.5282,-1089.7158"/>
<text text-anchor="middle" x="1600.228" y="-1069.3158" font-family="Fira Code" font-size="12.00" fill="#242424">curry/katsu.js</text>
</g>
<!-- placeholder/constant.js -->
<g id="node20" class="node">
<title>placeholder/constant.js</title>
<polygon fill="none" stroke="#0c821d" stroke-width="4" points="1315.2763,-1446.8153 1134.0755,-1446.8153 1134.0755,-1410.8153 1315.2763,-1410.8153 1315.2763,-1446.8153"/>
<text text-anchor="middle" x="1224.6759" y="-1426.4153" font-family="Fira Code" font-size="12.00" fill="#0c821d">placeholder/constant.js</text>
</g>
<!-- placeholder/test.js -->
<g id="node21" class="node">
<title>placeholder/test.js</title>
<polygon fill="none" stroke="#0c821d" stroke-width="4" points="1420.2611,-1112.6419 1267.6609,-1112.6419 1267.6609,-1076.6419 1420.2611,-1076.6419 1420.2611,-1112.6419"/>
<text text-anchor="middle" x="1343.961" y="-1092.2419" font-family="Fira Code" font-size="12.00" fill="#0c821d">placeholder/test.js</text>
</g>
<!-- curry/to&#45;string.js -->
<g id="node22" class="node">
<title>curry/to&#45;string.js</title>
<polygon fill="none" stroke="#0c821d" stroke-width="4" points="186.9285,-1416.1845 41.7274,-1416.1845 41.7274,-1380.1845 186.9285,-1380.1845 186.9285,-1416.1845"/>
<text text-anchor="middle" x="114.328" y="-1395.7845" font-family="Fira Code" font-size="12.00" fill="#0c821d">curry/to&#45;string.js</text>
</g>
<!-- placeholder/count.js -->
<g id="node23" class="node">
<title>placeholder/count.js</title>
<polygon fill="none" stroke="#0c821d" stroke-width="4" points="170.4068,-955.3198 10.4068,-955.3198 10.4068,-919.3198 170.4068,-919.3198 170.4068,-955.3198"/>
<text text-anchor="middle" x="90.4068" y="-934.9198" font-family="Fira Code" font-size="12.00" fill="#0c821d">placeholder/count.js</text>
</g>
<!-- placeholder/merge&#45;params.js -->
<g id="node24" class="node">
<title>placeholder/merge&#45;params.js</title>
<polygon fill="none" stroke="#0c821d" stroke-width="4" points="725.5805,-1458.7983 514.7798,-1458.7983 514.7798,-1422.7983 725.5805,-1422.7983 725.5805,-1458.7983"/>
<text text-anchor="middle" x="620.1801" y="-1438.3983" font-family="Fira Code" font-size="12.00" fill="#0c821d">placeholder/merge&#45;params.js</text>
</g>
<!-- fp.spec.js -->
<g id="node25" class="node">
<title>fp.spec.js</title>
<polygon fill="none" stroke="#242424" stroke-width="4" points="923.8038,-876.53 835.8038,-876.53 835.8038,-840.53 923.8038,-840.53 923.8038,-876.53"/>
<text text-anchor="middle" x="879.8038" y="-856.13" font-family="Fira Code" font-size="12.00" fill="#242424">fp.spec.js</text>
</g>
<!-- fp/compose.js -->
<g id="node26" class="node">
<title>fp/compose.js</title>
<polygon fill="none" stroke="#242424" stroke-width="4" points="1563.8845,-855.002 1454.6831,-855.002 1454.6831,-819.002 1563.8845,-819.002 1563.8845,-855.002"/>
<text text-anchor="middle" x="1509.2838" y="-834.602" font-family="Fira Code" font-size="12.00" fill="#242424">fp/compose.js</text>
</g>
<!-- fp/meta.js -->
<g id="node27" class="node">
<title>fp/meta.js</title>
<polygon fill="none" stroke="#242424" stroke-width="4" points="1310.8384,-870.6868 1222.8384,-870.6868 1222.8384,-834.6868 1310.8384,-834.6868 1310.8384,-870.6868"/>
<text text-anchor="middle" x="1266.8384" y="-850.2868" font-family="Fira Code" font-size="12.00" fill="#242424">fp/meta.js</text>
</g>
<!-- fp/pipe.js -->
<g id="node28" class="node">
<title>fp/pipe.js</title>
<polygon fill="none" stroke="#242424" stroke-width="4" points="1901.131,-771.6588 1813.131,-771.6588 1813.131,-735.6588 1901.131,-735.6588 1901.131,-771.6588"/>
<text text-anchor="middle" x="1857.131" y="-751.2588" font-family="Fira Code" font-size="12.00" fill="#242424">fp/pipe.js</text>
</g>
<!-- fp/filter.js -->
<g id="node29" class="node">
<title>fp/filter.js</title>
<polygon fill="none" stroke="#242424" stroke-width="4" points="1541.3292,-1462.9217 1438.5276,-1462.9217 1438.5276,-1426.9217 1541.3292,-1426.9217 1541.3292,-1462.9217"/>
<text text-anchor="middle" x="1489.9284" y="-1442.5217" font-family="Fira Code" font-size="12.00" fill="#242424">fp/filter.js</text>
</g>
<!-- utils/delegatee.js -->
<g id="node30" class="node">
<title>utils/delegatee.js</title>
<polygon fill="none" stroke="#242424" stroke-width="4" points="1897.8142,-1458.9537 1752.6131,-1458.9537 1752.6131,-1422.9537 1897.8142,-1422.9537 1897.8142,-1458.9537"/>
<text text-anchor="middle" x="1825.2136" y="-1438.5537" font-family="Fira Code" font-size="12.00" fill="#242424">utils/delegatee.js</text>
</g>
<!-- index.js -->
<g id="node31" class="node">
<title>index.js</title>
<polygon fill="none" stroke="#242424" stroke-width="4" points="901.2515,-638.1234 828.0493,-638.1234 828.0493,-602.1234 901.2515,-602.1234 901.2515,-638.1234"/>
<text text-anchor="middle" x="864.6504" y="-617.7234" font-family="Fira Code" font-size="12.00" fill="#242424">index.js</text>
</g>
<!-- object/by&#45;condition.js -->
<g id="node32" class="node">
<title>object/by&#45;condition.js</title>
<polygon fill="none" stroke="#242424" stroke-width="4" points="1408.3393,-646.4303 1233.5384,-646.4303 1233.5384,-610.4303 1408.3393,-610.4303 1408.3393,-646.4303"/>
<text text-anchor="middle" x="1320.9389" y="-626.0303" font-family="Fira Code" font-size="12.00" fill="#242424">object/by&#45;condition.js</text>
</g>
<!-- object/by&#45;keys&#45;or&#45;number.js -->
<g id="node33" class="node">
<title>object/by&#45;keys&#45;or&#45;number.js</title>
<polygon fill="none" stroke="#242424" stroke-width="4" points="1061.9083,-39.6315 851.1075,-39.6315 851.1075,-3.6315 1061.9083,-3.6315 1061.9083,-39.6315"/>
<text text-anchor="middle" x="956.5079" y="-19.2315" font-family="Fira Code" font-size="12.00" fill="#242424">object/by&#45;keys&#45;or&#45;number.js</text>
</g>
<!-- object/by&#45;keys.js -->
<g id="node34" class="node">
<title>object/by&#45;keys.js</title>
<polygon fill="none" stroke="#242424" stroke-width="4" points="1642.9243,-387.5868 1504.1231,-387.5868 1504.1231,-351.5868 1642.9243,-351.5868 1642.9243,-387.5868"/>
<text text-anchor="middle" x="1573.5237" y="-367.1868" font-family="Fira Code" font-size="12.00" fill="#242424">object/by&#45;keys.js</text>
</g>
<!-- object/by&#45;number&#45;of&#45;keys.js -->
<g id="node35" class="node">
<title>object/by&#45;number&#45;of&#45;keys.js</title>
<polygon fill="none" stroke="#242424" stroke-width="4" points="1429.5699,-395.1642 1218.7692,-395.1642 1218.7692,-359.1642 1429.5699,-359.1642 1429.5699,-395.1642"/>
<text text-anchor="middle" x="1324.1695" y="-374.7642" font-family="Fira Code" font-size="12.00" fill="#242424">object/by&#45;number&#45;of&#45;keys.js</text>
</g>
<!-- utils/matching&#45;key&#45;count.js -->
<g id="node36" class="node">
<title>utils/matching&#45;key&#45;count.js</title>
<polygon fill="none" stroke="#242424" stroke-width="4" points="2454.0634,-557.8173 2243.2626,-557.8173 2243.2626,-521.8173 2454.0634,-521.8173 2454.0634,-557.8173"/>
<text text-anchor="middle" x="2348.663" y="-537.4173" font-family="Fira Code" font-size="12.00" fill="#242424">utils/matching&#45;key&#45;count.js</text>
</g>
<!-- utils/array.js -->
<g id="node37" class="node">
<title>utils/array.js</title>
<polygon fill="none" stroke="#242424" stroke-width="4" points="2390.3992,-1415.4246 2273.7989,-1415.4246 2273.7989,-1379.4246 2390.3992,-1379.4246 2390.3992,-1415.4246"/>
<text text-anchor="middle" x="2332.099" y="-1395.0247" font-family="Fira Code" font-size="12.00" fill="#242424">utils/array.js</text>
</g>
<!-- utils/prop.js -->
<g id="node38" class="node">
<title>utils/prop.js</title>
<polygon fill="none" stroke="#242424" stroke-width="4" points="2411.5328,-948.8817 2302.3313,-948.8817 2302.3313,-912.8817 2411.5328,-912.8817 2411.5328,-948.8817"/>
<text text-anchor="middle" x="2356.932" y="-928.4817" font-family="Fira Code" font-size="12.00" fill="#242424">utils/prop.js</text>
</g>
<!-- utils/matching&#45;keys.js -->
<g id="node39" class="node">
<title>utils/matching&#45;keys.js</title>
<polygon fill="none" stroke="#242424" stroke-width="4" points="1991.6466,-1069.445 1816.8457,-1069.445 1816.8457,-1033.445 1991.6466,-1033.445 1991.6466,-1069.445"/>
<text text-anchor="middle" x="1904.2461" y="-1049.045" font-family="Fira Code" font-size="12.00" fill="#242424">utils/matching&#45;keys.js</text>
</g>
<!-- combinators.spec.js&#45;&gt;../node_modules/ava/index.js -->
<g id="edge1" class="edge">
<title>combinators.spec.js&#45;&gt;../node_modules/ava/index.js</title>
<path fill="none" stroke="#242424" d="M629.0808,-55.4754C688.3921,-134.7965 701.2141,-150.5816 854.6695,-335.4601"/>
<polygon fill="#242424" stroke="#242424" points="852.0523,-337.787 861.1324,-343.2462 857.4385,-333.3161 852.0523,-337.787"/>
</g>
<!-- combinators.spec.js&#45;&gt;combinators/constant.js -->
<g id="edge2" class="edge">
<title>combinators.spec.js&#45;&gt;combinators/constant.js</title>
<path fill="none" stroke="#242424" d="M538.8346,-27.8058C311.34,-.136 276.0082,-2.2125 159.6109,-57.0563"/>
<polygon fill="#242424" stroke="#242424" points="157.8799,-54.0035 150.3438,-61.4505 160.8791,-60.3284 157.8799,-54.0035"/>
</g>
<!-- combinators.spec.js&#45;&gt;combinators/identity.js -->
<g id="edge3" class="edge">
<title>combinators.spec.js&#45;&gt;combinators/identity.js</title>
<path fill="none" stroke="#242424" d="M577.4086,-55.3458C233.8306,-218.6705 219.3009,-233.339 101.7938,-514.6382"/>
<polygon fill="#242424" stroke="#242424" points="98.5513,-513.3203 97.9288,-523.8968 105.011,-516.0169 98.5513,-513.3203"/>
</g>
<!-- combinators/index.js&#45;&gt;combinators/constant.js -->
<g id="edge4" class="edge">
<title>combinators/index.js&#45;&gt;combinators/constant.js</title>
<path fill="none" stroke="#242424" d="M532.3041,-413.7815C257.9308,-218.1468 234.1264,-200.3948 138.2816,-105.1611"/>
<polygon fill="#242424" stroke="#242424" points="140.5032,-102.4341 130.9457,-97.8618 135.5658,-107.3962 140.5032,-102.4341"/>
</g>
<!-- combinators/index.js&#45;&gt;combinators/identity.js -->
<g id="edge5" class="edge">
<title>combinators/index.js&#45;&gt;combinators/identity.js</title>
<path fill="none" stroke="#242424" d="M477.2342,-439.1585C259.0312,-459.4214 224.6176,-466.9259 131.0161,-518.9946"/>
<polygon fill="#242424" stroke="#242424" points="129.0854,-516.0643 122.0694,-524.0032 132.5048,-522.1723 129.0854,-516.0643"/>
</g>
<!-- curry&#45;object.spec.js&#45;&gt;../node_modules/ava/index.js -->
<g id="edge6" class="edge">
<title>curry&#45;object.spec.js&#45;&gt;../node_modules/ava/index.js</title>
<path fill="none" stroke="#242424" d="M1400.7116,-26.771C1171.307,-53.0658 1141.0646,-78.5015 900.4312,-335.6083"/>
<polygon fill="#242424" stroke="#242424" points="897.5269,-333.5895 893.2501,-343.2828 902.6382,-338.3722 897.5269,-333.5895"/>
</g>
<!-- curry&#45;object.spec.js&#45;&gt;../node_modules/ramda/src/filter.js -->
<g id="edge7" class="edge">
<title>curry&#45;object.spec.js&#45;&gt;../node_modules/ramda/src/filter.js</title>
<path fill="none" stroke="#242424" d="M1414.0848,-.0533C1359.1182,12.1752 1333.1111,5.408 1258.6867,-30.4337"/>
<polygon fill="#242424" stroke="#242424" points="1256.8389,-27.4397 1249.3653,-34.9494 1259.8908,-33.7393 1256.8389,-27.4397"/>
</g>
<!-- curry&#45;object.spec.js&#45;&gt;../node_modules/ramda/src/map.js -->
<g id="edge8" class="edge">
<title>curry&#45;object.spec.js&#45;&gt;../node_modules/ramda/src/map.js</title>
<path fill="none" stroke="#242424" d="M1561.3467,-4.8163C2000.6631,67.4341 2038.4335,64.8176 2284.6345,-56.7571"/>
<polygon fill="#242424" stroke="#242424" points="2283.3434,-60.0231 2293.8587,-61.3189 2286.4465,-53.7485 2283.3434,-60.0231"/>
</g>
<!-- curry&#45;object.spec.js&#45;&gt;../node_modules/ramda/src/reject.js -->
<g id="edge9" class="edge">
<title>curry&#45;object.spec.js&#45;&gt;../node_modules/ramda/src/reject.js</title>
<path fill="none" stroke="#242424" d="M1561.4478,-.1474C1674.1137,23.8286 1702.9533,20.8218 1781.4575,-17.8239"/>
<polygon fill="#242424" stroke="#242424" points="1780.2505,-21.1326 1790.7629,-22.4514 1783.3674,-14.8648 1780.2505,-21.1326"/>
</g>
<!-- curry&#45;object.spec.js&#45;&gt;fp/index.js -->
<g id="edge10" class="edge">
<title>curry&#45;object.spec.js&#45;&gt;fp/index.js</title>
<path fill="none" stroke="#242424" d="M1465.5074,-36.2559C1317.8806,-209.2219 1308.4324,-227.8313 1105.7182,-695.144"/>
<polygon fill="#242424" stroke="#242424" points="1102.4258,-693.9392 1101.6572,-704.5061 1108.8477,-696.7248 1102.4258,-693.9392"/>
</g>
<!-- curry&#45;object.spec.js&#45;&gt;object/index.js -->
<g id="edge11" class="edge">
<title>curry&#45;object.spec.js&#45;&gt;object/index.js</title>
<path fill="none" stroke="#242424" d="M1450.4322,-36.2467C1313.4939,-118.0413 1298.0003,-138.7553 1124.4508,-418.1349"/>
<polygon fill="#242424" stroke="#242424" points="1121.3087,-416.5603 1119.0056,-426.9018 1127.255,-420.2536 1121.3087,-416.5603"/>
</g>
<!-- curry&#45;object.spec.js&#45;&gt;utils/length.js -->
<g id="edge12" class="edge">
<title>curry&#45;object.spec.js&#45;&gt;utils/length.js</title>
<path fill="none" stroke="#242424" d="M1521.684,-36.2135C1756.4506,-141.283 1769.8713,-158.0682 1875.3821,-413.0741"/>
<polygon fill="#242424" stroke="#242424" points="1872.281,-414.734 1879.3365,-422.6378 1878.7498,-412.0592 1872.281,-414.734"/>
</g>
<!-- curry&#45;object.spec.js&#45;&gt;utils/object.js -->
<g id="edge13" class="edge">
<title>curry&#45;object.spec.js&#45;&gt;utils/object.js</title>
<path fill="none" stroke="#242424" d="M1491.8746,-36.1913C1601.2963,-219.1503 1603.2962,-234.8767 1579.6365,-594.7333"/>
<polygon fill="#242424" stroke="#242424" points="1576.1296,-594.7252 1578.9652,-604.9335 1583.1145,-595.185 1576.1296,-594.7252"/>
</g>
<!-- fp/index.js&#45;&gt;fp/compose.js -->
<g id="edge34" class="edge">
<title>fp/index.js&#45;&gt;fp/compose.js</title>
<path fill="none" stroke="#242424" d="M1136.7381,-740.8084C1323.3477,-819.1055 1363.2827,-833.7678 1444.3579,-836.4361"/>
<polygon fill="#242424" stroke="#242424" points="1444.3719,-839.9376 1454.4617,-836.7055 1444.5586,-832.9401 1444.3719,-839.9376"/>
</g>
<!-- fp/index.js&#45;&gt;fp/meta.js -->
<g id="edge36" class="edge">
<title>fp/index.js&#45;&gt;fp/meta.js</title>
<path fill="none" stroke="#242424" d="M1105.1085,-740.8982C1146.4369,-806.6163 1159.2909,-821.6877 1212.8504,-838.0454"/>
<polygon fill="#242424" stroke="#242424" points="1211.9865,-841.4395 1222.568,-840.9073 1213.9642,-834.7247 1211.9865,-841.4395"/>
</g>
<!-- fp/index.js&#45;&gt;fp/pipe.js -->
<g id="edge37" class="edge">
<title>fp/index.js&#45;&gt;fp/pipe.js</title>
<path fill="none" stroke="#242424" d="M1141.5097,-725.4771C1584.6873,-750.801 1629.5949,-753.0519 1802.6282,-753.5453"/>
<polygon fill="#242424" stroke="#242424" points="1802.8448,-757.0458 1812.854,-753.5722 1802.8633,-750.0458 1802.8448,-757.0458"/>
</g>
<!-- fp/index.js&#45;&gt;fp/filter.js -->
<g id="edge35" class="edge">
<title>fp/index.js&#45;&gt;fp/filter.js</title>
<path fill="none" stroke="#242424" d="M1101.616,-740.9319C1310.2369,-1222.9341 1321.6059,-1247.1645 1467.8386,-1419.0138"/>
<polygon fill="#242424" stroke="#242424" points="1465.3025,-1421.434 1474.4509,-1426.7779 1470.6317,-1416.8953 1465.3025,-1421.434"/>
</g>
<!-- object/index.js&#45;&gt;object/by&#45;condition.js -->
<g id="edge57" class="edge">
<title>object/index.js&#45;&gt;object/by&#45;condition.js</title>
<path fill="none" stroke="#242424" d="M1157.5482,-463.4137C1210.0088,-484.6356 1228.8893,-506.0223 1301.4121,-602.4206"/>
<polygon fill="#242424" stroke="#242424" points="1298.6177,-604.5281 1307.4239,-610.4189 1304.2133,-600.3222 1298.6177,-604.5281"/>
</g>
<!-- object/index.js&#45;&gt;object/by&#45;keys&#45;or&#45;number.js -->
<g id="edge58" class="edge">
<title>object/index.js&#45;&gt;object/by&#45;keys&#45;or&#45;number.js</title>
<path fill="none" stroke="#242424" d="M1100.8172,-427.1211C1006.3319,-172.1003 998.0928,-149.5838 965.5555,-49.5044"/>
<polygon fill="#242424" stroke="#242424" points="968.8523,-48.3245 962.4338,-39.8952 962.1948,-50.4874 968.8523,-48.3245"/>
</g>
<!-- object/index.js&#45;&gt;object/by&#45;keys.js -->
<g id="edge59" class="edge">
<title>object/index.js&#45;&gt;object/by&#45;keys.js</title>
<path fill="none" stroke="#242424" d="M1145.7109,-427.2081C1337.2755,-336.4128 1374.747,-323.5517 1494.3288,-350.2297"/>
<polygon fill="#242424" stroke="#242424" points="1493.7019,-353.6765 1504.2294,-352.4834 1495.2556,-346.8511 1493.7019,-353.6765"/>
</g>
<!-- object/index.js&#45;&gt;object/by&#45;number&#45;of&#45;keys.js -->
<g id="edge60" class="edge">
<title>object/index.js&#45;&gt;object/by&#45;number&#45;of&#45;keys.js</title>
<path fill="none" stroke="#242424" d="M1132.0368,-427.1433C1166.7248,-401.5387 1188.3661,-386.7963 1209.1897,-379.0679"/>
<polygon fill="#242424" stroke="#242424" points="1210.2946,-382.3892 1218.7437,-375.9967 1208.1523,-375.725 1210.2946,-382.3892"/>
</g>
<!-- utils/length.js&#45;&gt;utils/object.js -->
<g id="edge67" class="edge">
<title>utils/length.js&#45;&gt;utils/object.js</title>
<path fill="none" stroke="#242424" d="M1863.1315,-458.9927C1802.7765,-504.9202 1781.1266,-517.3144 1621.6151,-600.305"/>
<polygon fill="#242424" stroke="#242424" points="1619.6756,-597.3686 1612.4192,-605.0883 1622.9059,-603.5787 1619.6756,-597.3686"/>
</g>
<!-- utils/length.js&#45;&gt;fp/pipe.js -->
<g id="edge66" class="edge">
<title>utils/length.js&#45;&gt;fp/pipe.js</title>
<path fill="none" stroke="#242424" d="M1892.7674,-459.1577C1931.2094,-578.6886 1930.697,-592.1502 1869.706,-726.1391"/>
<polygon fill="#242424" stroke="#242424" points="1866.3706,-725.018 1865.4058,-735.5688 1872.7396,-727.9225 1866.3706,-725.018"/>
</g>
<!-- utils/length.js&#45;&gt;utils/prop.js -->
<g id="edge68" class="edge">
<title>utils/length.js&#45;&gt;utils/prop.js</title>
<path fill="none" stroke="#242424" d="M1914.6393,-458.8758C2244.2586,-673.0691 2259.4664,-687.2106 2345.9652,-903.3919"/>
<polygon fill="#242424" stroke="#242424" points="2342.7771,-904.8461 2349.7377,-912.8336 2349.2774,-902.2487 2342.7771,-904.8461"/>
</g>
<!-- utils/object.js&#45;&gt;curry/katsu.js -->
<g id="edge77" class="edge">
<title>utils/object.js&#45;&gt;curry/katsu.js</title>
<path fill="none" stroke="#242424" d="M1584.5911,-641.3608C1668.6013,-866.3093 1671.414,-882.1599 1610.7927,-1043.7072"/>
<polygon fill="#242424" stroke="#242424" points="1607.3398,-1042.9457 1607.0945,-1053.5377 1613.8915,-1045.4104 1607.3398,-1042.9457"/>
</g>
<!-- curry.spec.js&#45;&gt;../node_modules/ava/index.js -->
<g id="edge14" class="edge">
<title>curry.spec.js&#45;&gt;../node_modules/ava/index.js</title>
<path fill="none" stroke="#242424" d="M568.9293,-723.1712C623.4169,-532.1206 632.4998,-517.9295 839.1579,-385.2231"/>
<polygon fill="#242424" stroke="#242424" points="841.3398,-387.9816 847.8661,-379.6355 837.5595,-382.0901 841.3398,-387.9816"/>
</g>
<!-- curry.spec.js&#45;&gt;curry/index.js -->
<g id="edge15" class="edge">
<title>curry.spec.js&#45;&gt;curry/index.js</title>
<path fill="none" stroke="#242424" d="M577.7833,-759.4131C713.6845,-934.3719 732.461,-948.375 1039.9495,-1028.9252"/>
<polygon fill="#242424" stroke="#242424" points="1039.5087,-1032.4276 1050.069,-1031.5731 1041.2807,-1025.6556 1039.5087,-1032.4276"/>
</g>
<!-- curry.spec.js&#45;&gt;placeholder/index.js -->
<g id="edge16" class="edge">
<title>curry.spec.js&#45;&gt;placeholder/index.js</title>
<path fill="none" stroke="#242424" d="M569.0503,-759.5516C625.6347,-954.0166 634.724,-968.6879 834.2567,-1091.2422"/>
<polygon fill="#242424" stroke="#242424" points="832.6194,-1094.3439 842.9733,-1096.5908 836.2804,-1088.3776 832.6194,-1094.3439"/>
</g>
<!-- curry/index.js&#45;&gt;curry/ify.js -->
<g id="edge18" class="edge">
<title>curry/index.js&#45;&gt;curry/ify.js</title>
<path fill="none" stroke="#242424" d="M1102.2651,-1065.2223C1015.5448,-1309.1407 1007.4596,-1331.8784 974.085,-1425.5971"/>
<polygon fill="#242424" stroke="#242424" points="970.7206,-1424.6118 970.6629,-1435.2065 977.315,-1426.9602 970.7206,-1424.6118"/>
</g>
<!-- curry/index.js&#45;&gt;curry/powder.js -->
<g id="edge20" class="edge">
<title>curry/index.js&#45;&gt;curry/powder.js</title>
<path fill="none" stroke="#242424" d="M1050.2755,-1058.4754C786.1376,-1110.6694 746.02,-1114.0432 618.1948,-1068.774"/>
<polygon fill="#242424" stroke="#242424" points="619.0232,-1065.3533 608.4286,-1065.284 616.6676,-1071.9451 619.0232,-1065.3533"/>
</g>
<!-- curry/index.js&#45;&gt;curry/katsu.js -->
<g id="edge19" class="edge">
<title>curry/index.js&#45;&gt;curry/katsu.js</title>
<path fill="none" stroke="#242424" d="M1157.0043,-1064.8836C1364.3806,-1142.0345 1396.3336,-1146.6793 1542.1043,-1093.4428"/>
<polygon fill="#242424" stroke="#242424" points="1543.6947,-1096.5873 1551.8736,-1089.8526 1541.2801,-1090.0169 1543.6947,-1096.5873"/>
</g>
<!-- placeholder/index.js&#45;&gt;placeholder/constant.js -->
<g id="edge61" class="edge">
<title>placeholder/index.js&#45;&gt;placeholder/constant.js</title>
<path fill="none" stroke="#242424" d="M883.5232,-1133.0501C1003.5454,-1334.0789 1021.9597,-1359.6454 1160.2965,-1407.376"/>
<polygon fill="#242424" stroke="#242424" points="1159.4303,-1410.7788 1170.0249,-1410.7037 1161.6959,-1404.1555 1159.4303,-1410.7788"/>
</g>
<!-- placeholder/index.js&#45;&gt;placeholder/test.js -->
<g id="edge63" class="edge">
<title>placeholder/index.js&#45;&gt;placeholder/test.js</title>
<path fill="none" stroke="#242424" d="M919.6322,-1132.7339C1068.7854,-1189.0804 1097.9395,-1187.5659 1287.0432,-1116.2705"/>
<polygon fill="#242424" stroke="#242424" points="1288.3463,-1119.5197 1296.4641,-1112.7115 1285.8725,-1112.9714 1288.3463,-1119.5197"/>
</g>
<!-- placeholder/index.js&#45;&gt;placeholder/count.js -->
<g id="edge62" class="edge">
<title>placeholder/index.js&#45;&gt;placeholder/count.js</title>
<path fill="none" stroke="#242424" d="M792.3966,-1110.7211C359.3017,-1088.9308 323.7107,-1081.0496 128.1077,-960.636"/>
<polygon fill="#242424" stroke="#242424" points="129.9274,-957.6462 119.5784,-955.3773 126.2537,-963.6047 129.9274,-957.6462"/>
</g>
<!-- curry/ify.js&#45;&gt;curry/powder.js -->
<g id="edge17" class="edge">
<title>curry/ify.js&#45;&gt;curry/powder.js</title>
<path fill="none" stroke="#242424" d="M921.0365,-1435.3477C694.2497,-1339.5567 680.3132,-1322.2917 571.2723,-1074.5442"/>
<polygon fill="#242424" stroke="#242424" points="574.4156,-1072.9975 567.1856,-1065.2531 568.0081,-1075.8159 574.4156,-1072.9975"/>
</g>
<!-- curry/powder.js&#45;&gt;curry/to&#45;string.js -->
<g id="edge24" class="edge">
<title>curry/powder.js&#45;&gt;curry/to&#45;string.js</title>
<path fill="none" stroke="#242424" d="M534.0807,-1065.3575C261.3087,-1262.4162 237.3385,-1280.3911 140.557,-1373.0101"/>
<polygon fill="#242424" stroke="#242424" points="137.9485,-1370.6621 133.1493,-1380.1076 142.7913,-1375.7165 137.9485,-1370.6621"/>
</g>
<!-- curry/powder.js&#45;&gt;placeholder/count.js -->
<g id="edge25" class="edge">
<title>curry/powder.js&#45;&gt;placeholder/count.js</title>
<path fill="none" stroke="#242424" d="M497.1423,-1042.1139C261.2808,-1022.686 228.2163,-1016.3728 130.1993,-960.4344"/>
<polygon fill="#242424" stroke="#242424" points="131.8719,-957.3588 121.4568,-955.4152 128.3866,-963.4295 131.8719,-957.3588"/>
</g>
<!-- curry/powder.js&#45;&gt;placeholder/merge&#45;params.js -->
<g id="edge26" class="edge">
<title>curry/powder.js&#45;&gt;placeholder/merge&#45;params.js</title>
<path fill="none" stroke="#242424" d="M557.0046,-1065.2347C530.455,-1279.5711 530.605,-1297.0782 603.2933,-1413.8551"/>
<polygon fill="#242424" stroke="#242424" points="600.3877,-1415.81 608.6529,-1422.4386 606.3253,-1412.1026 600.3877,-1415.81"/>
</g>
<!-- curry/katsu.js&#45;&gt;curry/ify.js -->
<g id="edge21" class="edge">
<title>curry/katsu.js&#45;&gt;curry/ify.js</title>
<path fill="none" stroke="#242424" d="M1584.0883,-1089.7333C1316.0812,-1388.8541 1293.059,-1409.4766 1025.4647,-1445.4258"/>
<polygon fill="#242424" stroke="#242424" points="1024.8795,-1441.9728 1015.431,-1446.7662 1025.8064,-1448.9112 1024.8795,-1441.9728"/>
</g>
<!-- curry/katsu.js&#45;&gt;placeholder/constant.js -->
<g id="edge22" class="edge">
<title>curry/katsu.js&#45;&gt;placeholder/constant.js</title>
<path fill="none" stroke="#242424" d="M1590.0849,-1089.9334C1460.5758,-1322.4444 1443.6881,-1347.1196 1283.6471,-1407.1665"/>
<polygon fill="#242424" stroke="#242424" points="1282.0562,-1404.0242 1273.9104,-1410.7989 1284.5031,-1410.5827 1282.0562,-1404.0242"/>
</g>
<!-- curry/katsu.js&#45;&gt;placeholder/test.js -->
<g id="edge23" class="edge">
<title>curry/katsu.js&#45;&gt;placeholder/test.js</title>
<path fill="none" stroke="#242424" d="M1566.5548,-1089.8338C1516.1292,-1116.1144 1493.4081,-1121.1762 1430.4933,-1111.0936"/>
<polygon fill="#242424" stroke="#242424" points="1430.917,-1107.616 1420.4772,-1109.4219 1429.7645,-1114.5205 1430.917,-1107.616"/>
</g>
<!-- fp.spec.js&#45;&gt;../node_modules/ava/index.js -->
<g id="edge27" class="edge">
<title>fp.spec.js&#45;&gt;../node_modules/ava/index.js</title>
<path fill="none" stroke="#242424" d="M873.4091,-840.2897C786.799,-593.0889 784.8236,-577.6837 864.5869,-388.9662"/>
<polygon fill="#242424" stroke="#242424" points="867.8964,-390.1263 868.5715,-379.5529 861.4502,-387.3975 867.8964,-390.1263"/>
</g>
<!-- fp.spec.js&#45;&gt;fp/index.js -->
<g id="edge29" class="edge">
<title>fp.spec.js&#45;&gt;fp/index.js</title>
<path fill="none" stroke="#242424" d="M900.3164,-840.341C936.4144,-808.8403 954.4009,-797.7692 1051.142,-745.6492"/>
<polygon fill="#242424" stroke="#242424" points="1052.9732,-748.6384 1060.1191,-740.8162 1049.6549,-742.4748 1052.9732,-748.6384"/>
</g>
<!-- fp.spec.js&#45;&gt;curry/index.js -->
<g id="edge28" class="edge">
<title>fp.spec.js&#45;&gt;curry/index.js</title>
<path fill="none" stroke="#242424" d="M889.63,-876.8668C942.6948,-975.6067 956.3603,-993.6343 1045.5076,-1025.437"/>
<polygon fill="#242424" stroke="#242424" points="1044.3694,-1028.7468 1054.9642,-1028.7662 1046.6939,-1022.144 1044.3694,-1028.7468"/>
</g>
<!-- fp.spec.js&#45;&gt;placeholder/index.js -->
<g id="edge30" class="edge">
<title>fp.spec.js&#45;&gt;placeholder/index.js</title>
<path fill="none" stroke="#242424" d="M874.7227,-876.9464C840.0924,-1002.676 837.395,-1019.4786 862.1296,-1086.9786"/>
<polygon fill="#242424" stroke="#242424" points="858.8631,-1088.2364 865.6267,-1096.3914 865.4249,-1085.7985 858.8631,-1088.2364"/>
</g>
<!-- fp/compose.js&#45;&gt;fp/meta.js -->
<g id="edge31" class="edge">
<title>fp/compose.js&#45;&gt;fp/meta.js</title>
<path fill="none" stroke="#242424" d="M1468.7885,-855.0048C1427.739,-871.5458 1403.8194,-871.7014 1321.1147,-860.3829"/>
<polygon fill="#242424" stroke="#242424" points="1321.3951,-856.8884 1311.0097,-858.9848 1320.4357,-863.8224 1321.3951,-856.8884"/>
</g>
<!-- fp/compose.js&#45;&gt;fp/pipe.js -->
<g id="edge32" class="edge">
<title>fp/compose.js&#45;&gt;fp/pipe.js</title>
<path fill="none" stroke="#242424" d="M1564.0681,-830.4648C1720.5977,-811.642 1753.5521,-805.5693 1813.3021,-776.2183"/>
<polygon fill="#242424" stroke="#242424" points="1814.944,-779.3106 1822.33,-771.7146 1811.8192,-773.0467 1814.944,-779.3106"/>
</g>
<!-- fp/meta.js&#45;&gt;curry/katsu.js -->
<g id="edge38" class="edge">
<title>fp/meta.js&#45;&gt;curry/katsu.js</title>
<path fill="none" stroke="#242424" d="M1289.8937,-870.7835C1449.1774,-995.7788 1480.9328,-1019.692 1548.182,-1049.6246"/>
<polygon fill="#242424" stroke="#242424" points="1546.9061,-1052.8868 1557.4695,-1053.7024 1549.7203,-1046.4774 1546.9061,-1052.8868"/>
</g>
<!-- fp/pipe.js&#45;&gt;curry/katsu.js -->
<g id="edge39" class="edge">
<title>fp/pipe.js&#45;&gt;curry/katsu.js</title>
<path fill="none" stroke="#242424" d="M1852.0709,-771.8898C1807.6708,-931.447 1798.9678,-945.8092 1637.6977,-1048.0556"/>
<polygon fill="#242424" stroke="#242424" points="1635.4702,-1045.3233 1628.8934,-1053.6297 1639.2147,-1051.2376 1635.4702,-1045.3233"/>
</g>
<!-- fp/pipe.js&#45;&gt;fp/meta.js -->
<g id="edge40" class="edge">
<title>fp/pipe.js&#45;&gt;fp/meta.js</title>
<path fill="none" stroke="#242424" d="M1816.7064,-771.6853C1682.0721,-831.0673 1647.6979,-835.3069 1321.2954,-850.2149"/>
<polygon fill="#242424" stroke="#242424" points="1320.8864,-846.7298 1311.0562,-850.6818 1321.2053,-853.7226 1320.8864,-846.7298"/>
</g>
<!-- fp/filter.js&#45;&gt;utils/delegatee.js -->
<g id="edge33" class="edge">
<title>fp/filter.js&#45;&gt;utils/delegatee.js</title>
<path fill="none" stroke="#242424" d="M1541.1343,-1458.9992C1668.9283,-1493.689 1697.0312,-1495.5828 1775.1756,-1462.9086"/>
<polygon fill="#242424" stroke="#242424" points="1776.6037,-1466.1048 1784.4421,-1458.9767 1773.8694,-1459.6609 1776.6037,-1466.1048"/>
</g>
<!-- utils/delegatee.js&#45;&gt;curry/katsu.js -->
<g id="edge65" class="edge">
<title>utils/delegatee.js&#45;&gt;curry/katsu.js</title>
<path fill="none" stroke="#242424" d="M1817.0332,-1422.8277C1772.202,-1323.715 1762.5766,-1308.3634 1618.5419,-1098.4071"/>
<polygon fill="#242424" stroke="#242424" points="1621.2402,-1096.1532 1612.6968,-1089.8873 1615.468,-1100.1133 1621.2402,-1096.1532"/>
</g>
<!-- index.js&#45;&gt;combinators/index.js -->
<g id="edge41" class="edge">
<title>index.js&#45;&gt;combinators/index.js</title>
<path fill="none" stroke="#242424" d="M831.2101,-602.0049C670.1426,-514.7011 644.087,-499.7638 588.3984,-456.2198"/>
<polygon fill="#242424" stroke="#242424" points="590.3516,-453.3033 580.3267,-449.8752 586.0258,-458.8067 590.3516,-453.3033"/>
</g>
<!-- index.js&#45;&gt;fp/index.js -->
<g id="edge43" class="edge">
<title>index.js&#45;&gt;fp/index.js</title>
<path fill="none" stroke="#242424" d="M893.4177,-638.1481C928.0774,-659.2598 949.9193,-668.7339 1036.4488,-701.2891"/>
<polygon fill="#242424" stroke="#242424" points="1035.2898,-704.5925 1045.8819,-704.8337 1037.7521,-698.0398 1035.2898,-704.5925"/>
</g>
<!-- index.js&#45;&gt;object/index.js -->
<g id="edge44" class="edge">
<title>index.js&#45;&gt;object/index.js</title>
<path fill="none" stroke="#242424" d="M875.6277,-601.7989C928.6294,-513.6561 943.3108,-497.0261 1038.4117,-466.4664"/>
<polygon fill="#242424" stroke="#242424" points="1039.7119,-469.7258 1048.1841,-463.364 1037.5938,-463.054 1039.7119,-469.7258"/>
</g>
<!-- index.js&#45;&gt;curry/index.js -->
<g id="edge42" class="edge">
<title>index.js&#45;&gt;curry/index.js</title>
<path fill="none" stroke="#242424" d="M867.0102,-638.3485C896.177,-863.0688 902.1983,-878.2605 1078.6899,-1022.3534"/>
<polygon fill="#242424" stroke="#242424" points="1076.7134,-1025.2579 1086.6749,-1028.8663 1081.1379,-1019.8335 1076.7134,-1025.2579"/>
</g>
<!-- index.js&#45;&gt;placeholder/index.js -->
<g id="edge45" class="edge">
<title>index.js&#45;&gt;placeholder/index.js</title>
<path fill="none" stroke="#242424" d="M859.0001,-638.4796C780.8525,-892.5161 779.0964,-908.3993 860.1657,-1087.3968"/>
<polygon fill="#242424" stroke="#242424" points="857.0237,-1088.9428 864.3423,-1096.6036 863.3984,-1086.0509 857.0237,-1088.9428"/>
</g>
<!-- object/by&#45;condition.js&#45;&gt;utils/object.js -->
<g id="edge48" class="edge">
<title>object/by&#45;condition.js&#45;&gt;utils/object.js</title>
<path fill="none" stroke="#242424" d="M1408.3708,-617.243C1455.7149,-611.5371 1482.0885,-609.5451 1505.4728,-610.8941"/>
<polygon fill="#242424" stroke="#242424" points="1505.4694,-614.4048 1515.716,-611.7112 1506.0261,-607.427 1505.4694,-614.4048"/>
</g>
<!-- object/by&#45;condition.js&#45;&gt;curry/katsu.js -->
<g id="edge46" class="edge">
<title>object/by&#45;condition.js&#45;&gt;curry/katsu.js</title>
<path fill="none" stroke="#242424" d="M1336.5087,-646.7481C1539.4889,-885.5904 1552.5543,-903.2384 1592.2841,-1043.445"/>
<polygon fill="#242424" stroke="#242424" points="1588.983,-1044.6344 1595.0675,-1053.3079 1595.7198,-1042.7331 1588.983,-1044.6344"/>
</g>
<!-- object/by&#45;condition.js&#45;&gt;fp/pipe.js -->
<g id="edge47" class="edge">
<title>object/by&#45;condition.js&#45;&gt;fp/pipe.js</title>
<path fill="none" stroke="#242424" d="M1408.4588,-640.8387C1663.156,-677.1427 1704.5671,-685.9371 1807.7838,-731.47"/>
<polygon fill="#242424" stroke="#242424" points="1806.4129,-734.6907 1816.9731,-735.5464 1809.2515,-728.292 1806.4129,-734.6907"/>
</g>
<!-- object/by&#45;keys&#45;or&#45;number.js&#45;&gt;object/by&#45;condition.js -->
<g id="edge49" class="edge">
<title>object/by&#45;keys&#45;or&#45;number.js&#45;&gt;object/by&#45;condition.js</title>
<path fill="none" stroke="#242424" d="M973.1716,-39.8239C1105.2974,-184.2651 1115.6519,-202.9008 1307.7795,-601.1502"/>
<polygon fill="#242424" stroke="#242424" points="1304.7095,-602.8419 1312.2069,-610.3279 1311.0143,-599.8004 1304.7095,-602.8419"/>
</g>
<!-- object/by&#45;keys&#45;or&#45;number.js&#45;&gt;object/by&#45;keys.js -->
<g id="edge50" class="edge">
<title>object/by&#45;keys&#45;or&#45;number.js&#45;&gt;object/by&#45;keys.js</title>
<path fill="none" stroke="#242424" d="M1061.9307,-32.9883C1272.8835,-58.3542 1310.1034,-91.3696 1549.1369,-343.8174"/>
<polygon fill="#242424" stroke="#242424" points="1546.8516,-346.4945 1556.2681,-351.3505 1551.9351,-341.6822 1546.8516,-346.4945"/>
</g>
<!-- object/by&#45;keys&#45;or&#45;number.js&#45;&gt;object/by&#45;number&#45;of&#45;keys.js -->
<g id="edge51" class="edge">
<title>object/by&#45;keys&#45;or&#45;number.js&#45;&gt;object/by&#45;number&#45;of&#45;keys.js</title>
<path fill="none" stroke="#242424" d="M995.7,-39.7751C1120.395,-98.3248 1139.361,-120.563 1305.0656,-350.6287"/>
<polygon fill="#242424" stroke="#242424" points="1302.3386,-352.8313 1311.0226,-358.9009 1308.0191,-348.7407 1302.3386,-352.8313"/>
</g>
<!-- object/by&#45;keys.js&#45;&gt;utils/length.js -->
<g id="edge53" class="edge">
<title>object/by&#45;keys.js&#45;&gt;utils/length.js</title>
<path fill="none" stroke="#242424" d="M1642.9173,-370.1898C1765.0242,-371.8125 1791.1226,-377.5616 1851.6292,-417.0877"/>
<polygon fill="#242424" stroke="#242424" points="1849.7263,-420.0254 1859.9989,-422.6186 1853.5856,-414.1853 1849.7263,-420.0254"/>
</g>
<!-- object/by&#45;keys.js&#45;&gt;object/by&#45;condition.js -->
<g id="edge52" class="edge">
<title>object/by&#45;keys.js&#45;&gt;object/by&#45;condition.js</title>
<path fill="none" stroke="#242424" d="M1555.9758,-387.7506C1500.0832,-445.594 1484.8636,-461.1672 1345.9886,-602.8707"/>
<polygon fill="#242424" stroke="#242424" points="1343.3485,-600.5642 1338.8487,-610.156 1348.3479,-605.4638 1343.3485,-600.5642"/>
</g>
<!-- object/by&#45;keys.js&#45;&gt;utils/matching&#45;key&#45;count.js -->
<g id="edge54" class="edge">
<title>object/by&#45;keys.js&#45;&gt;utils/matching&#45;key&#45;count.js</title>
<path fill="none" stroke="#242424" d="M1643.0399,-373.6047C2081.8705,-399.125 2118.0322,-405.9897 2308.8045,-516.5844"/>
<polygon fill="#242424" stroke="#242424" points="2307.307,-519.7621 2317.7122,-521.7576 2310.8225,-513.7089 2307.307,-519.7621"/>
</g>
<!-- object/by&#45;number&#45;of&#45;keys.js&#45;&gt;utils/length.js -->
<g id="edge56" class="edge">
<title>object/by&#45;number&#45;of&#45;keys.js&#45;&gt;utils/length.js</title>
<path fill="none" stroke="#242424" d="M1429.6184,-365.8016C1671.3317,-340.5581 1708.1637,-346.4662 1843.7947,-417.8824"/>
<polygon fill="#242424" stroke="#242424" points="1842.398,-421.103 1852.8746,-422.6816 1845.6691,-414.9142 1842.398,-421.103"/>
</g>
<!-- object/by&#45;number&#45;of&#45;keys.js&#45;&gt;object/by&#45;condition.js -->
<g id="edge55" class="edge">
<title>object/by&#45;number&#45;of&#45;keys.js&#45;&gt;object/by&#45;condition.js</title>
<path fill="none" stroke="#242424" d="M1328.3519,-395.282C1341.6437,-453.9306 1341.0508,-468.9921 1324.5203,-600.1186"/>
<polygon fill="#242424" stroke="#242424" points="1321.0299,-599.8238 1323.2493,-610.1835 1327.9747,-600.7008 1321.0299,-599.8238"/>
</g>
<!-- utils/matching&#45;key&#45;count.js&#45;&gt;utils/length.js -->
<g id="edge71" class="edge">
<title>utils/matching&#45;key&#45;count.js&#45;&gt;utils/length.js</title>
<path fill="none" stroke="#242424" d="M2314.1137,-521.7864C2216.1839,-471.3427 2185.5812,-465.0928 1959.2473,-446.6473"/>
<polygon fill="#242424" stroke="#242424" points="1959.2731,-443.138 1949.0224,-445.8164 1958.7061,-450.115 1959.2731,-443.138"/>
</g>
<!-- utils/matching&#45;key&#45;count.js&#45;&gt;curry/katsu.js -->
<g id="edge69" class="edge">
<title>utils/matching&#45;key&#45;count.js&#45;&gt;curry/katsu.js</title>
<path fill="none" stroke="#242424" d="M2336.5628,-557.8961C2162.3464,-818.0175 2145.8686,-831.0694 1650.2662,-1049.6586"/>
<polygon fill="#242424" stroke="#242424" points="1648.8189,-1046.4715 1641.0814,-1053.709 1651.6435,-1052.8764 1648.8189,-1046.4715"/>
</g>
<!-- utils/matching&#45;key&#45;count.js&#45;&gt;fp/pipe.js -->
<g id="edge70" class="edge">
<title>utils/matching&#45;key&#45;count.js&#45;&gt;fp/pipe.js</title>
<path fill="none" stroke="#242424" d="M2323.0363,-557.8232C2214.8196,-633.5166 2189.4398,-644.1757 1911.0644,-735.9046"/>
<polygon fill="#242424" stroke="#242424" points="1909.8834,-732.6085 1901.4806,-739.0617 1912.0737,-739.2571 1909.8834,-732.6085"/>
</g>
<!-- utils/matching&#45;key&#45;count.js&#45;&gt;utils/matching&#45;keys.js -->
<g id="edge72" class="edge">
<title>utils/matching&#45;key&#45;count.js&#45;&gt;utils/matching&#45;keys.js</title>
<path fill="none" stroke="#242424" d="M2342.6745,-558.1557C2264.138,-798.3603 2253.8091,-811.8537 1939.1008,-1027.5705"/>
<polygon fill="#242424" stroke="#242424" points="1936.9276,-1024.8167 1930.6572,-1033.3567 1940.8846,-1030.591 1936.9276,-1024.8167"/>
</g>
<!-- utils/array.js&#45;&gt;curry/katsu.js -->
<g id="edge64" class="edge">
<title>utils/array.js&#45;&gt;curry/katsu.js</title>
<path fill="none" stroke="#242424" d="M2273.7918,-1379.5652C2099.7791,-1325.7559 2055.7367,-1304.4352 1644.6553,-1094.4163"/>
<polygon fill="#242424" stroke="#242424" points="1645.9934,-1091.1697 1635.4959,-1089.7367 1642.8086,-1097.4032 1645.9934,-1091.1697"/>
</g>
<!-- utils/prop.js&#45;&gt;curry/katsu.js -->
<g id="edge78" class="edge">
<title>utils/prop.js&#45;&gt;curry/katsu.js</title>
<path fill="none" stroke="#242424" d="M2322.6698,-949.0182C2131.1721,-1049.9644 2098.9039,-1055.5714 1668.8051,-1069.5164"/>
<polygon fill="#242424" stroke="#242424" points="1668.4526,-1066.0258 1658.5711,-1069.8474 1668.679,-1073.0222 1668.4526,-1066.0258"/>
</g>
<!-- utils/matching&#45;keys.js&#45;&gt;utils/object.js -->
<g id="edge76" class="edge">
<title>utils/matching&#45;keys.js&#45;&gt;utils/object.js</title>
<path fill="none" stroke="#242424" d="M1898.7129,-1033.3484C1847.7684,-867.166 1837.9988,-853.9895 1605.7836,-647.9459"/>
<polygon fill="#242424" stroke="#242424" points="1607.9432,-645.183 1598.1398,-641.1651 1603.2979,-650.4195 1607.9432,-645.183"/>
</g>
<!-- utils/matching&#45;keys.js&#45;&gt;curry/katsu.js -->
<g id="edge73" class="edge">
<title>utils/matching&#45;keys.js&#45;&gt;curry/katsu.js</title>
<path fill="none" stroke="#242424" d="M1860.9593,-1069.5102C1807.478,-1090.3093 1779.1137,-1091.2197 1668.8903,-1079.3742"/>
<polygon fill="#242424" stroke="#242424" points="1669.0028,-1075.8659 1658.6837,-1078.267 1668.2479,-1082.8251 1669.0028,-1075.8659"/>
</g>
<!-- utils/matching&#45;keys.js&#45;&gt;fp/filter.js -->
<g id="edge74" class="edge">
<title>utils/matching&#45;keys.js&#45;&gt;fp/filter.js</title>
<path fill="none" stroke="#242424" d="M1895.7911,-1069.6302C1781.8033,-1314.6506 1768.4093,-1334.2261 1545.3091,-1423.0482"/>
<polygon fill="#242424" stroke="#242424" points="1543.911,-1419.8375 1535.91,-1426.7825 1546.4957,-1426.3429 1543.911,-1419.8375"/>
</g>
<!-- utils/matching&#45;keys.js&#45;&gt;utils/array.js -->
<g id="edge75" class="edge">
<title>utils/matching&#45;keys.js&#45;&gt;utils/array.js</title>
<path fill="none" stroke="#242424" d="M1928.9698,-1069.5714C2191.6543,-1262.1761 2214.9909,-1280.0159 2306.866,-1372.0608"/>
<polygon fill="#242424" stroke="#242424" points="2304.653,-1374.7985 2314.1916,-1379.4101 2309.6108,-1369.8567 2304.653,-1374.7985"/>
</g>
</g>
</svg>
