<?xml version="1.0" encoding="UTF-8" standalone="no"?>
<!DOCTYPE svg PUBLIC "-//W3C//DTD SVG 1.1//EN"
 "http://www.w3.org/Graphics/SVG/1.1/DTD/svg11.dtd">
<!-- Generated by graphviz version 2.40.1 (20161225.0304)
 -->
<!-- Title: G Pages: 1 -->
<svg width="1625pt" height="1087pt"
 viewBox="0.00 0.00 1624.78 1086.98" xmlns="http://www.w3.org/2000/svg" xmlns:xlink="http://www.w3.org/1999/xlink">
<g id="graph0" class="graph" transform="scale(1 1) rotate(0) translate(7.992 1078.992)">
<title>G</title>
<polygon fill="#eeeeff" stroke="transparent" points="-7.992,7.992 -7.992,-1078.992 1616.792,-1078.992 1616.792,7.992 -7.992,7.992"/>
<!-- ../package.json -->
<g id="node1" class="node">
<title>../package.json</title>
<polygon fill="none" stroke="#0c821d" stroke-width="4" points="198.8,-956 74.8,-956 74.8,-920 198.8,-920 198.8,-956"/>
<text text-anchor="middle" x="136.8" y="-935.6" font-family="Fira Code" font-size="12.00" fill="#0c821d">../package.json</text>
</g>
<!-- combinators/constant.js -->
<g id="node2" class="node">
<title>combinators/constant.js</title>
<polygon fill="none" stroke="#0c821d" stroke-width="4" points="381.4004,-841 200.1996,-841 200.1996,-805 381.4004,-805 381.4004,-841"/>
<text text-anchor="middle" x="290.8" y="-820.6" font-family="Fira Code" font-size="12.00" fill="#0c821d">combinators/constant.js</text>
</g>
<!-- combinators/identity.js -->
<g id="node3" class="node">
<title>combinators/identity.js</title>
<polygon fill="none" stroke="#0c821d" stroke-width="4" points="181.4004,-841 .1996,-841 .1996,-805 181.4004,-805 181.4004,-841"/>
<text text-anchor="middle" x="90.8" y="-820.6" font-family="Fira Code" font-size="12.00" fill="#0c821d">combinators/identity.js</text>
</g>
<!-- combinators/index.js -->
<g id="node4" class="node">
<title>combinators/index.js</title>
<polygon fill="none" stroke="#242424" stroke-width="4" points="376.8,-956 216.8,-956 216.8,-920 376.8,-920 376.8,-956"/>
<text text-anchor="middle" x="296.8" y="-935.6" font-family="Fira Code" font-size="12.00" fill="#242424">combinators/index.js</text>
</g>
<!-- combinators/index.js&#45;&gt;combinators/constant.js -->
<g id="edge1" class="edge">
<title>combinators/index.js&#45;&gt;combinators/constant.js</title>
<path fill="none" stroke="#242424" d="M295.8493,-919.7779C294.8882,-901.3567 293.3895,-872.6329 292.2743,-851.2569"/>
<polygon fill="#242424" stroke="#242424" points="295.7626,-850.9409 291.7463,-841.1368 288.7721,-851.3056 295.7626,-850.9409"/>
</g>
<!-- combinators/index.js&#45;&gt;combinators/identity.js -->
<g id="edge2" class="edge">
<title>combinators/index.js&#45;&gt;combinators/identity.js</title>
<path fill="none" stroke="#242424" d="M264.1587,-919.7779C228.4485,-899.8426 171.1249,-867.8416 132.2595,-846.1448"/>
<polygon fill="#242424" stroke="#242424" points="133.7262,-842.9553 123.2886,-841.1368 130.3141,-849.0674 133.7262,-842.9553"/>
</g>
<!-- fp/compose.js -->
<g id="node5" class="node">
<title>fp/compose.js</title>
<polygon fill="none" stroke="#242424" stroke-width="4" points="547.4007,-496 438.1993,-496 438.1993,-460 547.4007,-460 547.4007,-496"/>
<text text-anchor="middle" x="492.8" y="-475.6" font-family="Fira Code" font-size="12.00" fill="#242424">fp/compose.js</text>
</g>
<!-- fp/pipe.js -->
<g id="node6" class="node">
<title>fp/pipe.js</title>
<polygon fill="none" stroke="#0c821d" stroke-width="4" points="618.8,-381 530.8,-381 530.8,-345 618.8,-345 618.8,-381"/>
<text text-anchor="middle" x="574.8" y="-360.6" font-family="Fira Code" font-size="12.00" fill="#0c821d">fp/pipe.js</text>
</g>
<!-- fp/compose.js&#45;&gt;fp/pipe.js -->
<g id="edge3" class="edge">
<title>fp/compose.js&#45;&gt;fp/pipe.js</title>
<path fill="none" stroke="#242424" d="M505.7931,-459.7779C519.2881,-440.852 540.5374,-411.0513 555.8923,-389.5169"/>
<polygon fill="#242424" stroke="#242424" points="558.9117,-391.311 561.8676,-381.1368 553.2122,-387.247 558.9117,-391.311"/>
</g>
<!-- fp/filter.js -->
<g id="node7" class="node">
<title>fp/filter.js</title>
<polygon fill="none" stroke="#242424" stroke-width="4" points="1003.2008,-381 900.3992,-381 900.3992,-345 1003.2008,-345 1003.2008,-381"/>
<text text-anchor="middle" x="951.8" y="-360.6" font-family="Fira Code" font-size="12.00" fill="#242424">fp/filter.js</text>
</g>
<!-- utils/delegatee.js -->
<g id="node8" class="node">
<title>utils/delegatee.js</title>
<polygon fill="none" stroke="#242424" stroke-width="4" points="1024.4005,-266 879.1995,-266 879.1995,-230 1024.4005,-230 1024.4005,-266"/>
<text text-anchor="middle" x="951.8" y="-245.6" font-family="Fira Code" font-size="12.00" fill="#242424">utils/delegatee.js</text>
</g>
<!-- fp/filter.js&#45;&gt;utils/delegatee.js -->
<g id="edge4" class="edge">
<title>fp/filter.js&#45;&gt;utils/delegatee.js</title>
<path fill="none" stroke="#242424" d="M951.8,-344.7779C951.8,-326.3567 951.8,-297.6329 951.8,-276.2569"/>
<polygon fill="#242424" stroke="#242424" points="955.3001,-276.1368 951.8,-266.1368 948.3001,-276.1369 955.3001,-276.1368"/>
</g>
<!-- params/curry.js -->
<g id="node12" class="node">
<title>params/curry.js</title>
<polygon fill="none" stroke="#242424" stroke-width="4" points="1248.8,-151 1124.8,-151 1124.8,-115 1248.8,-115 1248.8,-151"/>
<text text-anchor="middle" x="1186.8" y="-130.6" font-family="Fira Code" font-size="12.00" fill="#242424">params/curry.js</text>
</g>
<!-- utils/delegatee.js&#45;&gt;params/curry.js -->
<g id="edge41" class="edge">
<title>utils/delegatee.js&#45;&gt;params/curry.js</title>
<path fill="none" stroke="#242424" d="M988.7773,-229.9047C1029.8061,-209.8268 1096.0733,-177.3982 1140.5154,-155.6499"/>
<polygon fill="#242424" stroke="#242424" points="1142.207,-158.7188 1149.6507,-151.1794 1139.1301,-152.4313 1142.207,-158.7188"/>
</g>
<!-- fp/index.js -->
<g id="node9" class="node">
<title>fp/index.js</title>
<polygon fill="none" stroke="#242424" stroke-width="4" points="622.5002,-611 527.0998,-611 527.0998,-575 622.5002,-575 622.5002,-611"/>
<text text-anchor="middle" x="574.8" y="-590.6" font-family="Fira Code" font-size="12.00" fill="#242424">fp/index.js</text>
</g>
<!-- fp/index.js&#45;&gt;fp/compose.js -->
<g id="edge5" class="edge">
<title>fp/index.js&#45;&gt;fp/compose.js</title>
<path fill="none" stroke="#242424" d="M561.8069,-574.7779C548.3119,-555.852 527.0626,-526.0513 511.7077,-504.5169"/>
<polygon fill="#242424" stroke="#242424" points="514.3878,-502.247 505.7324,-496.1368 508.6883,-506.311 514.3878,-502.247"/>
</g>
<!-- fp/index.js&#45;&gt;fp/pipe.js -->
<g id="edge7" class="edge">
<title>fp/index.js&#45;&gt;fp/pipe.js</title>
<path fill="none" stroke="#242424" d="M574.8,-574.9523C574.8,-535.0788 574.8,-439.2253 574.8,-391.2908"/>
<polygon fill="#242424" stroke="#242424" points="578.3001,-391.2821 574.8,-381.2821 571.3001,-391.2822 578.3001,-391.2821"/>
</g>
<!-- fp/index.js&#45;&gt;fp/filter.js -->
<g id="edge6" class="edge">
<title>fp/index.js&#45;&gt;fp/filter.js</title>
<path fill="none" stroke="#242424" d="M622.4012,-586.3351C709.1115,-573.2061 887.6729,-541.2871 928.8,-496 954.6164,-467.5722 956.8056,-421.0397 955.0379,-391.2304"/>
<polygon fill="#242424" stroke="#242424" points="958.5124,-390.7662 954.2441,-381.0692 951.5337,-391.3115 958.5124,-390.7662"/>
</g>
<!-- index.js -->
<g id="node10" class="node">
<title>index.js</title>
<polygon fill="none" stroke="#242424" stroke-width="4" points="953.4011,-1071 880.1989,-1071 880.1989,-1035 953.4011,-1035 953.4011,-1071"/>
<text text-anchor="middle" x="916.8" y="-1050.6" font-family="Fira Code" font-size="12.00" fill="#242424">index.js</text>
</g>
<!-- index.js&#45;&gt;../package.json -->
<g id="edge8" class="edge">
<title>index.js&#45;&gt;../package.json</title>
<path fill="none" stroke="#242424" d="M880.0326,-1049.4433C776.032,-1039.0708 470.8637,-1006.482 209.1237,-956.1526"/>
<polygon fill="#242424" stroke="#242424" points="209.5319,-952.6667 199.0489,-954.2023 208.2015,-959.5391 209.5319,-952.6667"/>
</g>
<!-- index.js&#45;&gt;combinators/index.js -->
<g id="edge9" class="edge">
<title>index.js&#45;&gt;combinators/index.js</title>
<path fill="none" stroke="#242424" d="M879.8729,-1046.1506C784.0549,-1028.3779 525.3242,-980.3875 386.9619,-954.7236"/>
<polygon fill="#242424" stroke="#242424" points="387.2756,-951.2221 376.805,-952.8396 385.9989,-958.1047 387.2756,-951.2221"/>
</g>
<!-- index.js&#45;&gt;fp/compose.js -->
<g id="edge10" class="edge">
<title>index.js&#45;&gt;fp/compose.js</title>
<path fill="none" stroke="#242424" d="M880.1755,-1050.2619C777.7488,-1040.421 495.8,-997.4852 495.8,-823 495.8,-823 495.8,-823 495.8,-708 495.8,-635.2921 494.2825,-549.6665 493.4061,-506.2749"/>
<polygon fill="#242424" stroke="#242424" points="496.9036,-506.1125 493.1984,-496.1867 489.9051,-506.2566 496.9036,-506.1125"/>
</g>
<!-- index.js&#45;&gt;fp/pipe.js -->
<g id="edge11" class="edge">
<title>index.js&#45;&gt;fp/pipe.js</title>
<path fill="none" stroke="#242424" d="M880.0033,-1051.0204C807.5557,-1045.6476 643.4348,-1026.0607 527.8,-956 460.2147,-915.0515 409.8,-902.0224 409.8,-823 409.8,-823 409.8,-823 409.8,-593 409.8,-533.2888 396.9237,-510.4909 428.8,-460 450.4615,-425.6889 489.1659,-400.805 521.2831,-384.8361"/>
<polygon fill="#242424" stroke="#242424" points="523.0828,-387.8545 530.579,-380.3673 520.0499,-381.5456 523.0828,-387.8545"/>
</g>
<!-- object/index.js -->
<g id="node11" class="node">
<title>object/index.js</title>
<polygon fill="none" stroke="#242424" stroke-width="4" points="978.8,-956 854.8,-956 854.8,-920 978.8,-920 978.8,-956"/>
<text text-anchor="middle" x="916.8" y="-935.6" font-family="Fira Code" font-size="12.00" fill="#242424">object/index.js</text>
</g>
<!-- index.js&#45;&gt;object/index.js -->
<g id="edge12" class="edge">
<title>index.js&#45;&gt;object/index.js</title>
<path fill="none" stroke="#242424" d="M916.8,-1034.7779C916.8,-1016.3567 916.8,-987.6329 916.8,-966.2569"/>
<polygon fill="#242424" stroke="#242424" points="920.3001,-966.1368 916.8,-956.1368 913.3001,-966.1369 920.3001,-966.1368"/>
</g>
<!-- index.js&#45;&gt;params/curry.js -->
<g id="edge13" class="edge">
<title>index.js&#45;&gt;params/curry.js</title>
<path fill="none" stroke="#242424" d="M953.7873,-1045.2542C1073.5161,-1019.1309 1442.8,-929.8938 1442.8,-823 1442.8,-823 1442.8,-823 1442.8,-363 1442.8,-299.2025 1432.4917,-276.4882 1388.8,-230 1353.7511,-192.7078 1301.3827,-168.1282 1258.7499,-153.0435"/>
<polygon fill="#242424" stroke="#242424" points="1259.8503,-149.7208 1249.2557,-149.7824 1257.5763,-156.3412 1259.8503,-149.7208"/>
</g>
<!-- params/ify.js -->
<g id="node13" class="node">
<title>params/ify.js</title>
<polygon fill="none" stroke="#242424" stroke-width="4" points="1580.4007,-266 1471.1993,-266 1471.1993,-230 1580.4007,-230 1580.4007,-266"/>
<text text-anchor="middle" x="1525.8" y="-245.6" font-family="Fira Code" font-size="12.00" fill="#242424">params/ify.js</text>
</g>
<!-- index.js&#45;&gt;params/ify.js -->
<g id="edge14" class="edge">
<title>index.js&#45;&gt;params/ify.js</title>
<path fill="none" stroke="#242424" d="M953.5255,-1051.1404C1062.3631,-1044.9198 1380.3566,-1021.4098 1456.8,-956 1504.3238,-915.3357 1502.8,-885.5468 1502.8,-823 1502.8,-823 1502.8,-823 1502.8,-478 1502.8,-404.9357 1514.4339,-319.4606 1521.1534,-276.1857"/>
<polygon fill="#242424" stroke="#242424" points="1524.6392,-276.5504 1522.7458,-266.1261 1517.7253,-275.4559 1524.6392,-276.5504"/>
</g>
<!-- params/remap.js -->
<g id="node14" class="node">
<title>params/remap.js</title>
<polygon fill="none" stroke="#242424" stroke-width="4" points="1338.8,-266 1214.8,-266 1214.8,-230 1338.8,-230 1338.8,-266"/>
<text text-anchor="middle" x="1276.8" y="-245.6" font-family="Fira Code" font-size="12.00" fill="#242424">params/remap.js</text>
</g>
<!-- index.js&#45;&gt;params/remap.js -->
<g id="edge15" class="edge">
<title>index.js&#45;&gt;params/remap.js</title>
<path fill="none" stroke="#242424" d="M953.5064,-1046.1354C1040.8494,-1027.4604 1253.8,-967.148 1253.8,-823 1253.8,-823 1253.8,-823 1253.8,-593 1253.8,-482.6882 1225.794,-453.8323 1243.8,-345 1247.8055,-320.7898 1257.0769,-294.5044 1264.7757,-275.4108"/>
<polygon fill="#242424" stroke="#242424" points="1268.0264,-276.7088 1268.6222,-266.1308 1261.5599,-274.0286 1268.0264,-276.7088"/>
</g>
<!-- placeholder/index.js -->
<g id="node15" class="node">
<title>placeholder/index.js</title>
<polygon fill="none" stroke="#0c821d" stroke-width="4" points="1573.8,-36 1413.8,-36 1413.8,0 1573.8,0 1573.8,-36"/>
<text text-anchor="middle" x="1493.8" y="-15.6" font-family="Fira Code" font-size="12.00" fill="#0c821d">placeholder/index.js</text>
</g>
<!-- index.js&#45;&gt;placeholder/index.js -->
<g id="edge16" class="edge">
<title>index.js&#45;&gt;placeholder/index.js</title>
<path fill="none" stroke="#242424" d="M953.5632,-1049.8387C1064.2578,-1039.8413 1392.5209,-1006.5531 1485.8,-956 1556.5871,-917.6365 1608.8,-903.5144 1608.8,-823 1608.8,-823 1608.8,-823 1608.8,-248 1608.8,-166.5557 1550.3993,-84.3882 1516.8333,-43.8883"/>
<polygon fill="#242424" stroke="#242424" points="1519.403,-41.5065 1510.2767,-36.1249 1514.0551,-46.0232 1519.403,-41.5065"/>
</g>
<!-- object/by&#45;keys&#45;or&#45;number.js -->
<g id="node19" class="node">
<title>object/by&#45;keys&#45;or&#45;number.js</title>
<polygon fill="none" stroke="#242424" stroke-width="4" points="889.2004,-841 678.3996,-841 678.3996,-805 889.2004,-805 889.2004,-841"/>
<text text-anchor="middle" x="783.8" y="-820.6" font-family="Fira Code" font-size="12.00" fill="#242424">object/by&#45;keys&#45;or&#45;number.js</text>
</g>
<!-- object/index.js&#45;&gt;object/by&#45;keys&#45;or&#45;number.js -->
<g id="edge29" class="edge">
<title>object/index.js&#45;&gt;object/by&#45;keys&#45;or&#45;number.js</title>
<path fill="none" stroke="#242424" d="M895.7258,-919.7779C873.2538,-900.3473 837.5252,-869.4542 812.4958,-847.8121"/>
<polygon fill="#242424" stroke="#242424" points="814.6293,-845.03 804.7756,-841.1368 810.0508,-850.3251 814.6293,-845.03"/>
</g>
<!-- object/by&#45;keys.js -->
<g id="node20" class="node">
<title>object/by&#45;keys.js</title>
<polygon fill="none" stroke="#242424" stroke-width="4" points="1045.2006,-726 906.3994,-726 906.3994,-690 1045.2006,-690 1045.2006,-726"/>
<text text-anchor="middle" x="975.8" y="-705.6" font-family="Fira Code" font-size="12.00" fill="#242424">object/by&#45;keys.js</text>
</g>
<!-- object/index.js&#45;&gt;object/by&#45;keys.js -->
<g id="edge30" class="edge">
<title>object/index.js&#45;&gt;object/by&#45;keys.js</title>
<path fill="none" stroke="#242424" d="M921.4296,-919.9523C931.6795,-879.995 956.3499,-783.8223 968.6201,-735.9893"/>
<polygon fill="#242424" stroke="#242424" points="972.0156,-736.8382 971.1102,-726.2821 965.2352,-735.0988 972.0156,-736.8382"/>
</g>
<!-- object/by&#45;number&#45;of&#45;keys.js -->
<g id="node21" class="node">
<title>object/by&#45;number&#45;of&#45;keys.js</title>
<polygon fill="none" stroke="#242424" stroke-width="4" points="889.2004,-726 678.3996,-726 678.3996,-690 889.2004,-690 889.2004,-726"/>
<text text-anchor="middle" x="783.8" y="-705.6" font-family="Fira Code" font-size="12.00" fill="#242424">object/by&#45;number&#45;of&#45;keys.js</text>
</g>
<!-- object/index.js&#45;&gt;object/by&#45;number&#45;of&#45;keys.js -->
<g id="edge31" class="edge">
<title>object/index.js&#45;&gt;object/by&#45;number&#45;of&#45;keys.js</title>
<path fill="none" stroke="#242424" d="M918.1115,-919.9622C919.2409,-893.1487 918.1826,-841.9714 897.8,-805 880.7971,-774.1589 849.8484,-748.7875 824.4842,-731.7377"/>
<polygon fill="#242424" stroke="#242424" points="826.0654,-728.5904 815.7774,-726.0588 822.2411,-734.4535 826.0654,-728.5904"/>
</g>
<!-- params/curry.js&#45;&gt;placeholder/index.js -->
<g id="edge34" class="edge">
<title>params/curry.js&#45;&gt;placeholder/index.js</title>
<path fill="none" stroke="#242424" d="M1235.1065,-114.9047C1289.5707,-94.5028 1378.0786,-61.3484 1436.1227,-39.6055"/>
<polygon fill="#242424" stroke="#242424" points="1437.3855,-42.87 1445.5223,-36.0845 1434.9299,-36.3149 1437.3855,-42.87"/>
</g>
<!-- params/to&#45;string.js -->
<g id="node17" class="node">
<title>params/to&#45;string.js</title>
<polygon fill="none" stroke="#0c821d" stroke-width="4" points="957.1001,-36 804.4999,-36 804.4999,0 957.1001,0 957.1001,-36"/>
<text text-anchor="middle" x="880.8" y="-15.6" font-family="Fira Code" font-size="12.00" fill="#0c821d">params/to&#45;string.js</text>
</g>
<!-- params/curry.js&#45;&gt;params/to&#45;string.js -->
<g id="edge33" class="edge">
<title>params/curry.js&#45;&gt;params/to&#45;string.js</title>
<path fill="none" stroke="#242424" d="M1138.6509,-114.9047C1084.3641,-94.5028 996.1444,-61.3484 938.2895,-39.6055"/>
<polygon fill="#242424" stroke="#242424" points="939.5126,-36.3262 928.9205,-36.0845 937.05,-42.8788 939.5126,-36.3262"/>
</g>
<!-- Ⓜ fast.js/array/some.js -->
<g id="node24" class="node">
<title>Ⓜ fast.js/array/some.js</title>
<polygon fill="none" stroke="#0c821d" stroke-width="4" points="1338.2004,-36 1151.3996,-36 1151.3996,0 1338.2004,0 1338.2004,-36"/>
<text text-anchor="middle" x="1244.8" y="-16.8" font-family="Fira Code" font-size="12.00" fill="#0c821d">Ⓜ fast.js/array/some.js</text>
</g>
<!-- params/curry.js&#45;&gt;Ⓜ fast.js/array/some.js -->
<g id="edge32" class="edge">
<title>params/curry.js&#45;&gt;Ⓜ fast.js/array/some.js</title>
<path fill="none" stroke="#242424" d="M1195.9903,-114.7779C1205.4507,-96.0202 1220.2987,-66.5802 1231.1357,-45.0931"/>
<polygon fill="#242424" stroke="#242424" points="1234.2745,-46.6417 1235.6527,-36.1368 1228.0245,-43.4894 1234.2745,-46.6417"/>
</g>
<!-- params/ify.js&#45;&gt;Ⓜ fast.js/array/some.js -->
<g id="edge35" class="edge">
<title>params/ify.js&#45;&gt;Ⓜ fast.js/array/some.js</title>
<path fill="none" stroke="#242424" d="M1503.7504,-229.9523C1453.8073,-189.0736 1331.9793,-89.3567 1275.0485,-42.7585"/>
<polygon fill="#242424" stroke="#242424" points="1277.0912,-39.9076 1267.136,-36.2821 1272.6575,-45.3245 1277.0912,-39.9076"/>
</g>
<!-- params/remap.js&#45;&gt;params/curry.js -->
<g id="edge39" class="edge">
<title>params/remap.js&#45;&gt;params/curry.js</title>
<path fill="none" stroke="#242424" d="M1262.5392,-229.7779C1247.6618,-210.7679 1224.1979,-180.7862 1207.328,-159.2303"/>
<polygon fill="#242424" stroke="#242424" points="1209.9134,-156.8548 1200.994,-151.1368 1204.4009,-161.169 1209.9134,-156.8548"/>
</g>
<!-- object/by&#45;condition.js -->
<g id="node16" class="node">
<title>object/by&#45;condition.js</title>
<polygon fill="none" stroke="#242424" stroke-width="4" points="778.2005,-496 603.3995,-496 603.3995,-460 778.2005,-460 778.2005,-496"/>
<text text-anchor="middle" x="690.8" y="-475.6" font-family="Fira Code" font-size="12.00" fill="#242424">object/by&#45;condition.js</text>
</g>
<!-- object/by&#45;condition.js&#45;&gt;fp/pipe.js -->
<g id="edge17" class="edge">
<title>object/by&#45;condition.js&#45;&gt;fp/pipe.js</title>
<path fill="none" stroke="#242424" d="M672.4195,-459.7779C652.9896,-440.5155 622.1968,-409.9882 600.397,-388.3763"/>
<polygon fill="#242424" stroke="#242424" points="602.6603,-385.6917 593.0946,-381.1368 597.732,-390.6628 602.6603,-385.6917"/>
</g>
<!-- object/by&#45;condition.js&#45;&gt;params/curry.js -->
<g id="edge18" class="edge">
<title>object/by&#45;condition.js&#45;&gt;params/curry.js</title>
<path fill="none" stroke="#242424" d="M686.9783,-459.967C678.4742,-414.3734 663.351,-293.6066 725.8,-230 779.1258,-175.6857 998.6125,-149.0745 1114.4454,-138.5947"/>
<polygon fill="#242424" stroke="#242424" points="1114.9912,-142.0601 1124.6426,-137.6895 1114.3723,-135.0875 1114.9912,-142.0601"/>
</g>
<!-- object/by&#45;condition.js&#45;&gt;params/to&#45;string.js -->
<g id="edge19" class="edge">
<title>object/by&#45;condition.js&#45;&gt;params/to&#45;string.js</title>
<path fill="none" stroke="#242424" d="M686.8988,-459.8747C682.9369,-440.4707 677.0715,-408.7277 674.8,-381 669.2627,-313.4068 667.1839,-291.0114 696.8,-230 734.8875,-151.5368 809.6467,-79.1698 851.1902,-42.7221"/>
<polygon fill="#242424" stroke="#242424" points="853.5287,-45.3269 858.7899,-36.1306 848.9422,-40.0388 853.5287,-45.3269"/>
</g>
<!-- utils/object.js -->
<g id="node18" class="node">
<title>utils/object.js</title>
<polygon fill="none" stroke="#242424" stroke-width="4" points="836.8,-381 712.8,-381 712.8,-345 836.8,-345 836.8,-381"/>
<text text-anchor="middle" x="774.8" y="-360.6" font-family="Fira Code" font-size="12.00" fill="#242424">utils/object.js</text>
</g>
<!-- object/by&#45;condition.js&#45;&gt;utils/object.js -->
<g id="edge20" class="edge">
<title>object/by&#45;condition.js&#45;&gt;utils/object.js</title>
<path fill="none" stroke="#242424" d="M704.11,-459.7779C717.9956,-440.7679 739.8953,-410.7862 755.6405,-389.2303"/>
<polygon fill="#242424" stroke="#242424" points="758.4801,-391.2765 761.5522,-381.1368 752.8275,-387.1476 758.4801,-391.2765"/>
</g>
<!-- utils/object.js&#45;&gt;params/curry.js -->
<g id="edge53" class="edge">
<title>utils/object.js&#45;&gt;params/curry.js</title>
<path fill="none" stroke="#242424" d="M761.618,-344.9944C743.0874,-317.2997 714.4893,-263.9051 741.8,-230 787.7818,-172.9155 1000.5704,-147.6381 1114.4327,-138.0379"/>
<polygon fill="#242424" stroke="#242424" points="1114.7859,-141.5208 1124.4646,-137.2111 1114.2108,-134.5444 1114.7859,-141.5208"/>
</g>
<!-- object/by&#45;keys&#45;or&#45;number.js&#45;&gt;object/by&#45;condition.js -->
<g id="edge21" class="edge">
<title>object/by&#45;keys&#45;or&#45;number.js&#45;&gt;object/by&#45;condition.js</title>
<path fill="none" stroke="#242424" d="M749.4881,-804.9153C722.2385,-788.4233 686.0977,-761.2663 669.8,-726 635.7719,-652.367 662.942,-553.3667 679.8547,-505.7979"/>
<polygon fill="#242424" stroke="#242424" points="683.222,-506.7814 683.3837,-496.1878 676.6511,-504.3684 683.222,-506.7814"/>
</g>
<!-- object/by&#45;keys&#45;or&#45;number.js&#45;&gt;object/by&#45;keys.js -->
<g id="edge22" class="edge">
<title>object/by&#45;keys&#45;or&#45;number.js&#45;&gt;object/by&#45;keys.js</title>
<path fill="none" stroke="#242424" d="M814.223,-804.7779C847.3658,-784.9267 900.4835,-753.1114 936.6987,-731.42"/>
<polygon fill="#242424" stroke="#242424" points="938.7389,-734.2779 945.5194,-726.1368 935.142,-728.2727 938.7389,-734.2779"/>
</g>
<!-- object/by&#45;keys&#45;or&#45;number.js&#45;&gt;object/by&#45;number&#45;of&#45;keys.js -->
<g id="edge23" class="edge">
<title>object/by&#45;keys&#45;or&#45;number.js&#45;&gt;object/by&#45;number&#45;of&#45;keys.js</title>
<path fill="none" stroke="#242424" d="M783.8,-804.7779C783.8,-786.3567 783.8,-757.6329 783.8,-736.2569"/>
<polygon fill="#242424" stroke="#242424" points="787.3001,-736.1368 783.8,-726.1368 780.3001,-736.1369 787.3001,-736.1368"/>
</g>
<!-- object/by&#45;keys.js&#45;&gt;object/by&#45;condition.js -->
<g id="edge24" class="edge">
<title>object/by&#45;keys.js&#45;&gt;object/by&#45;condition.js</title>
<path fill="none" stroke="#242424" d="M953.4365,-689.9523C902.7825,-649.0736 779.2203,-549.3567 721.479,-502.7585"/>
<polygon fill="#242424" stroke="#242424" points="723.434,-499.8387 713.4539,-496.2821 719.0379,-505.2861 723.434,-499.8387"/>
</g>
<!-- utils/length.js -->
<g id="node22" class="node">
<title>utils/length.js</title>
<polygon fill="none" stroke="#242424" stroke-width="4" points="919.8,-496 795.8,-496 795.8,-460 919.8,-460 919.8,-496"/>
<text text-anchor="middle" x="857.8" y="-475.6" font-family="Fira Code" font-size="12.00" fill="#242424">utils/length.js</text>
</g>
<!-- object/by&#45;keys.js&#45;&gt;utils/length.js -->
<g id="edge25" class="edge">
<title>object/by&#45;keys.js&#45;&gt;utils/length.js</title>
<path fill="none" stroke="#242424" d="M950.2402,-689.9789C927.577,-672.5157 895.5509,-643.895 878.8,-611 861.9438,-577.8982 857.9224,-534.6456 857.2968,-506.5981"/>
<polygon fill="#242424" stroke="#242424" points="860.794,-506.2603 857.2051,-496.2918 853.7943,-506.3226 860.794,-506.2603"/>
</g>
<!-- utils/matching&#45;key&#45;count.js -->
<g id="node23" class="node">
<title>utils/matching&#45;key&#45;count.js</title>
<polygon fill="none" stroke="#242424" stroke-width="4" points="1098.2004,-611 887.3996,-611 887.3996,-575 1098.2004,-575 1098.2004,-611"/>
<text text-anchor="middle" x="992.8" y="-590.6" font-family="Fira Code" font-size="12.00" fill="#242424">utils/matching&#45;key&#45;count.js</text>
</g>
<!-- object/by&#45;keys.js&#45;&gt;utils/matching&#45;key&#45;count.js -->
<g id="edge26" class="edge">
<title>object/by&#45;keys.js&#45;&gt;utils/matching&#45;key&#45;count.js</title>
<path fill="none" stroke="#242424" d="M978.4937,-689.7779C981.2168,-671.3567 985.463,-642.6329 988.6229,-621.2569"/>
<polygon fill="#242424" stroke="#242424" points="992.1188,-621.5412 990.1189,-611.1368 985.1941,-620.5175 992.1188,-621.5412"/>
</g>
<!-- object/by&#45;number&#45;of&#45;keys.js&#45;&gt;object/by&#45;condition.js -->
<g id="edge27" class="edge">
<title>object/by&#45;number&#45;of&#45;keys.js&#45;&gt;object/by&#45;condition.js</title>
<path fill="none" stroke="#242424" d="M776.5024,-689.9523C760.3119,-649.9112 721.2954,-553.4188 701.996,-505.6891"/>
<polygon fill="#242424" stroke="#242424" points="705.1858,-504.2409 698.1923,-496.2821 698.6962,-506.865 705.1858,-504.2409"/>
</g>
<!-- object/by&#45;number&#45;of&#45;keys.js&#45;&gt;utils/length.js -->
<g id="edge28" class="edge">
<title>object/by&#45;number&#45;of&#45;keys.js&#45;&gt;utils/length.js</title>
<path fill="none" stroke="#242424" d="M789.6067,-689.9523C802.4625,-649.995 833.405,-553.8223 848.7947,-505.9893"/>
<polygon fill="#242424" stroke="#242424" points="852.1869,-506.8736 851.9179,-496.2821 845.5233,-504.7296 852.1869,-506.8736"/>
</g>
<!-- utils/length.js&#45;&gt;fp/pipe.js -->
<g id="edge42" class="edge">
<title>utils/length.js&#45;&gt;fp/pipe.js</title>
<path fill="none" stroke="#242424" d="M813.2699,-459.9047C763.1971,-439.5571 681.9088,-406.5248 628.3961,-384.7794"/>
<polygon fill="#242424" stroke="#242424" points="629.6523,-381.5119 619.0704,-380.9897 627.017,-387.997 629.6523,-381.5119"/>
</g>
<!-- utils/length.js&#45;&gt;utils/object.js -->
<g id="edge43" class="edge">
<title>utils/length.js&#45;&gt;utils/object.js</title>
<path fill="none" stroke="#242424" d="M844.6484,-459.7779C830.9888,-440.852 809.4805,-411.0513 793.9383,-389.5169"/>
<polygon fill="#242424" stroke="#242424" points="796.5805,-387.1972 787.8901,-381.1368 790.9044,-391.2938 796.5805,-387.1972"/>
</g>
<!-- utils/prop.js -->
<g id="node29" class="node">
<title>utils/prop.js</title>
<polygon fill="none" stroke="#242424" stroke-width="4" points="860.4007,-266 751.1993,-266 751.1993,-230 860.4007,-230 860.4007,-266"/>
<text text-anchor="middle" x="805.8" y="-245.6" font-family="Fira Code" font-size="12.00" fill="#242424">utils/prop.js</text>
</g>
<!-- utils/length.js&#45;&gt;utils/prop.js -->
<g id="edge44" class="edge">
<title>utils/length.js&#45;&gt;utils/prop.js</title>
<path fill="none" stroke="#242424" d="M857.875,-459.6452C857.5927,-433.7235 855.6316,-385.0794 845.8,-345 839.8131,-320.5941 828.663,-294.324 819.6529,-275.286"/>
<polygon fill="#242424" stroke="#242424" points="822.6832,-273.513 815.175,-266.0378 816.3829,-276.5636 822.6832,-273.513"/>
</g>
<!-- utils/matching&#45;key&#45;count.js&#45;&gt;fp/pipe.js -->
<g id="edge45" class="edge">
<title>utils/matching&#45;key&#45;count.js&#45;&gt;fp/pipe.js</title>
<path fill="none" stroke="#242424" d="M989.1649,-574.988C982.4211,-546.2934 965.2138,-490.3531 928.8,-460 883.1872,-421.9789 716.3676,-387.9073 628.9957,-372.1859"/>
<polygon fill="#242424" stroke="#242424" points="629.4626,-368.714 619.0037,-370.4057 628.2347,-375.6055 629.4626,-368.714"/>
</g>
<!-- utils/matching&#45;key&#45;count.js&#45;&gt;params/curry.js -->
<g id="edge46" class="edge">
<title>utils/matching&#45;key&#45;count.js&#45;&gt;params/curry.js</title>
<path fill="none" stroke="#242424" d="M1078.8434,-574.9803C1174.0063,-549.8549 1322.2679,-494.0257 1385.8,-381 1404.8343,-347.1373 1398.1086,-274.9518 1365.8,-230 1339.8413,-193.8831 1296.1528,-169.8355 1258.4366,-154.7185"/>
<polygon fill="#242424" stroke="#242424" points="1259.5802,-151.4082 1248.9909,-151.0657 1257.0554,-157.937 1259.5802,-151.4082"/>
</g>
<!-- utils/matching&#45;key&#45;count.js&#45;&gt;utils/length.js -->
<g id="edge47" class="edge">
<title>utils/matching&#45;key&#45;count.js&#45;&gt;utils/length.js</title>
<path fill="none" stroke="#242424" d="M971.4088,-574.7779C948.599,-555.3473 912.3331,-524.4542 886.9273,-502.8121"/>
<polygon fill="#242424" stroke="#242424" points="888.9732,-499.9572 879.0911,-496.1368 884.4339,-505.2859 888.9732,-499.9572"/>
</g>
<!-- utils/matching&#45;keys.js -->
<g id="node30" class="node">
<title>utils/matching&#45;keys.js</title>
<polygon fill="none" stroke="#242424" stroke-width="4" points="1188.2005,-496 1013.3995,-496 1013.3995,-460 1188.2005,-460 1188.2005,-496"/>
<text text-anchor="middle" x="1100.8" y="-475.6" font-family="Fira Code" font-size="12.00" fill="#242424">utils/matching&#45;keys.js</text>
</g>
<!-- utils/matching&#45;key&#45;count.js&#45;&gt;utils/matching&#45;keys.js -->
<g id="edge48" class="edge">
<title>utils/matching&#45;key&#45;count.js&#45;&gt;utils/matching&#45;keys.js</title>
<path fill="none" stroke="#242424" d="M1009.9129,-574.7779C1027.9238,-555.5997 1056.4217,-525.2546 1076.7019,-503.66"/>
<polygon fill="#242424" stroke="#242424" points="1079.4727,-505.8223 1083.7671,-496.1368 1074.3701,-501.0303 1079.4727,-505.8223"/>
</g>
<!-- params/index.js -->
<g id="node25" class="node">
<title>params/index.js</title>
<polygon fill="none" stroke="#242424" stroke-width="4" points="1376.8,-381 1252.8,-381 1252.8,-345 1376.8,-345 1376.8,-381"/>
<text text-anchor="middle" x="1314.8" y="-360.6" font-family="Fira Code" font-size="12.00" fill="#242424">params/index.js</text>
</g>
<!-- params/index.js&#45;&gt;params/curry.js -->
<g id="edge36" class="edge">
<title>params/index.js&#45;&gt;params/curry.js</title>
<path fill="none" stroke="#242424" d="M1327.3681,-344.6521C1343.9925,-317.8903 1368.8647,-267.2836 1347.8,-230 1327.6986,-194.4214 1288.7384,-170.44 1254.1795,-155.2232"/>
<polygon fill="#242424" stroke="#242424" points="1255.1418,-151.8303 1244.5681,-151.1614 1252.4169,-158.2781 1255.1418,-151.8303"/>
</g>
<!-- params/index.js&#45;&gt;params/ify.js -->
<g id="edge37" class="edge">
<title>params/index.js&#45;&gt;params/ify.js</title>
<path fill="none" stroke="#242424" d="M1348.2336,-344.7779C1384.8877,-324.8006 1443.7733,-292.7065 1483.586,-271.0077"/>
<polygon fill="#242424" stroke="#242424" points="1485.4173,-273.9957 1492.5228,-266.1368 1482.0673,-267.8493 1485.4173,-273.9957"/>
</g>
<!-- params/index.js&#45;&gt;params/remap.js -->
<g id="edge38" class="edge">
<title>params/index.js&#45;&gt;params/remap.js</title>
<path fill="none" stroke="#242424" d="M1308.7788,-344.7779C1302.6362,-326.1885 1293.0268,-297.1074 1285.9442,-275.6731"/>
<polygon fill="#242424" stroke="#242424" points="1289.2539,-274.5338 1282.793,-266.1368 1282.6073,-276.73 1289.2539,-274.5338"/>
</g>
<!-- performance.fixture.js -->
<g id="node26" class="node">
<title>performance.fixture.js</title>
<polygon fill="none" stroke="#0c821d" stroke-width="4" points="666.2005,-282 491.3995,-282 491.3995,-246 666.2005,-246 666.2005,-282"/>
<text text-anchor="middle" x="578.8" y="-261.6" font-family="Fira Code" font-size="12.00" fill="#0c821d">performance.fixture.js</text>
</g>
<!-- performance2.fixture.js -->
<g id="node27" class="node">
<title>performance2.fixture.js</title>
<polygon fill="none" stroke="#0c821d" stroke-width="4" points="509.4004,-118 328.1996,-118 328.1996,-82 509.4004,-82 509.4004,-118"/>
<text text-anchor="middle" x="418.8" y="-97.6" font-family="Fira Code" font-size="12.00" fill="#0c821d">performance2.fixture.js</text>
</g>
<!-- utils/array.js -->
<g id="node28" class="node">
<title>utils/array.js</title>
<polygon fill="none" stroke="#242424" stroke-width="4" points="1159.1002,-266 1042.4998,-266 1042.4998,-230 1159.1002,-230 1159.1002,-266"/>
<text text-anchor="middle" x="1100.8" y="-245.6" font-family="Fira Code" font-size="12.00" fill="#242424">utils/array.js</text>
</g>
<!-- utils/array.js&#45;&gt;params/curry.js -->
<g id="edge40" class="edge">
<title>utils/array.js&#45;&gt;params/curry.js</title>
<path fill="none" stroke="#242424" d="M1114.427,-229.7779C1128.6431,-210.7679 1151.0643,-180.7862 1167.1843,-159.2303"/>
<polygon fill="#242424" stroke="#242424" points="1170.0508,-161.2413 1173.2368,-151.1368 1164.445,-157.0491 1170.0508,-161.2413"/>
</g>
<!-- utils/prop.js&#45;&gt;params/curry.js -->
<g id="edge54" class="edge">
<title>utils/prop.js&#45;&gt;params/curry.js</title>
<path fill="none" stroke="#242424" d="M860.7938,-231.4008C928.539,-210.9528 1043.6875,-176.1967 1117.4383,-153.9359"/>
<polygon fill="#242424" stroke="#242424" points="1118.5517,-157.2559 1127.1138,-151.0155 1116.529,-150.5545 1118.5517,-157.2559"/>
</g>
<!-- utils/matching&#45;keys.js&#45;&gt;fp/filter.js -->
<g id="edge49" class="edge">
<title>utils/matching&#45;keys.js&#45;&gt;fp/filter.js</title>
<path fill="none" stroke="#242424" d="M1077.1905,-459.7779C1051.7972,-440.1791 1011.2942,-408.9184 983.2223,-387.2521"/>
<polygon fill="#242424" stroke="#242424" points="985.3539,-384.4761 975.299,-381.1368 981.0769,-390.0175 985.3539,-384.4761"/>
</g>
<!-- utils/matching&#45;keys.js&#45;&gt;params/curry.js -->
<g id="edge50" class="edge">
<title>utils/matching&#45;keys.js&#45;&gt;params/curry.js</title>
<path fill="none" stroke="#242424" d="M1107.655,-459.8472C1121.1119,-423.5465 1151.123,-339.2011 1167.8,-266 1175.9417,-230.2631 1181.2471,-188.2862 1184.1306,-161.1952"/>
<polygon fill="#242424" stroke="#242424" points="1187.6127,-161.5481 1185.1518,-151.243 1180.6492,-160.8335 1187.6127,-161.5481"/>
</g>
<!-- utils/matching&#45;keys.js&#45;&gt;utils/object.js -->
<g id="edge52" class="edge">
<title>utils/matching&#45;keys.js&#45;&gt;utils/object.js</title>
<path fill="none" stroke="#242424" d="M1049.5039,-459.9047C991.5497,-439.4608 897.2955,-406.2116 835.6661,-384.4712"/>
<polygon fill="#242424" stroke="#242424" points="836.6604,-381.1106 826.0656,-381.0845 834.3317,-387.7119 836.6604,-381.1106"/>
</g>
<!-- utils/matching&#45;keys.js&#45;&gt;utils/array.js -->
<g id="edge51" class="edge">
<title>utils/matching&#45;keys.js&#45;&gt;utils/array.js</title>
<path fill="none" stroke="#242424" d="M1100.8,-459.9523C1100.8,-420.0788 1100.8,-324.2253 1100.8,-276.2908"/>
<polygon fill="#242424" stroke="#242424" points="1104.3001,-276.2821 1100.8,-266.2821 1097.3001,-276.2822 1104.3001,-276.2821"/>
</g>
</g>
</svg>
