<?xml version="1.0" encoding="UTF-8" standalone="no"?>
<!DOCTYPE svg PUBLIC "-//W3C//DTD SVG 1.1//EN"
 "http://www.w3.org/Graphics/SVG/1.1/DTD/svg11.dtd">
<!-- Generated by graphviz version 2.40.1 (20161225.0304)
 -->
<!-- Title: G Pages: 1 -->
<svg width="1548pt" height="1172pt"
 viewBox="0.00 0.00 1547.58 1171.98" xmlns="http://www.w3.org/2000/svg" xmlns:xlink="http://www.w3.org/1999/xlink">
<g id="graph0" class="graph" transform="scale(1 1) rotate(0) translate(7.992 1163.992)">
<title>G</title>
<polygon fill="#eeeeff" stroke="transparent" points="-7.992,7.992 -7.992,-1163.992 1539.592,-1163.992 1539.592,7.992 -7.992,7.992"/>
<!-- ../package.json -->
<g id="node1" class="node">
<title>../package.json</title>
<polygon fill="none" stroke="#0c821d" stroke-width="4" points="198.8,-956 74.8,-956 74.8,-920 198.8,-920 198.8,-956"/>
<text text-anchor="middle" x="136.8" y="-935.6" font-family="Fira Code" font-size="12.00" fill="#0c821d">../package.json</text>
</g>
<!-- combinators/constant.js -->
<g id="node2" class="node">
<title>combinators/constant.js</title>
<polygon fill="none" stroke="#0c821d" stroke-width="4" points="181.4004,-841 .1996,-841 .1996,-805 181.4004,-805 181.4004,-841"/>
<text text-anchor="middle" x="90.8" y="-820.6" font-family="Fira Code" font-size="12.00" fill="#0c821d">combinators/constant.js</text>
</g>
<!-- combinators/identity.js -->
<g id="node3" class="node">
<title>combinators/identity.js</title>
<polygon fill="none" stroke="#0c821d" stroke-width="4" points="381.4004,-841 200.1996,-841 200.1996,-805 381.4004,-805 381.4004,-841"/>
<text text-anchor="middle" x="290.8" y="-820.6" font-family="Fira Code" font-size="12.00" fill="#0c821d">combinators/identity.js</text>
</g>
<!-- combinators/index.js -->
<g id="node4" class="node">
<title>combinators/index.js</title>
<polygon fill="none" stroke="#242424" stroke-width="4" points="376.8,-956 216.8,-956 216.8,-920 376.8,-920 376.8,-956"/>
<text text-anchor="middle" x="296.8" y="-935.6" font-family="Fira Code" font-size="12.00" fill="#242424">combinators/index.js</text>
</g>
<!-- combinators/index.js&#45;&gt;combinators/constant.js -->
<g id="edge1" class="edge">
<title>combinators/index.js&#45;&gt;combinators/constant.js</title>
<path fill="none" stroke="#242424" d="M264.1587,-919.7779C228.4485,-899.8426 171.1249,-867.8416 132.2595,-846.1448"/>
<polygon fill="#242424" stroke="#242424" points="133.7262,-842.9553 123.2886,-841.1368 130.3141,-849.0674 133.7262,-842.9553"/>
</g>
<!-- combinators/index.js&#45;&gt;combinators/identity.js -->
<g id="edge2" class="edge">
<title>combinators/index.js&#45;&gt;combinators/identity.js</title>
<path fill="none" stroke="#242424" d="M295.8493,-919.7779C294.8882,-901.3567 293.3895,-872.6329 292.2743,-851.2569"/>
<polygon fill="#242424" stroke="#242424" points="295.7626,-850.9409 291.7463,-841.1368 288.7721,-851.3056 295.7626,-850.9409"/>
</g>
<!-- fp/compose.js -->
<g id="node5" class="node">
<title>fp/compose.js</title>
<polygon fill="none" stroke="#242424" stroke-width="4" points="547.4007,-496 438.1993,-496 438.1993,-460 547.4007,-460 547.4007,-496"/>
<text text-anchor="middle" x="492.8" y="-475.6" font-family="Fira Code" font-size="12.00" fill="#242424">fp/compose.js</text>
</g>
<!-- fp/pipe.js -->
<g id="node6" class="node">
<title>fp/pipe.js</title>
<polygon fill="none" stroke="#0c821d" stroke-width="4" points="651.8,-381 563.8,-381 563.8,-345 651.8,-345 651.8,-381"/>
<text text-anchor="middle" x="607.8" y="-360.6" font-family="Fira Code" font-size="12.00" fill="#0c821d">fp/pipe.js</text>
</g>
<!-- fp/compose.js&#45;&gt;fp/pipe.js -->
<g id="edge3" class="edge">
<title>fp/compose.js&#45;&gt;fp/pipe.js</title>
<path fill="none" stroke="#242424" d="M511.0221,-459.7779C530.2845,-440.5155 560.8118,-409.9882 582.4237,-388.3763"/>
<polygon fill="#242424" stroke="#242424" points="585.0669,-390.6828 589.6632,-381.1368 580.1172,-385.7331 585.0669,-390.6828"/>
</g>
<!-- fp/filter.js -->
<g id="node7" class="node">
<title>fp/filter.js</title>
<polygon fill="none" stroke="#242424" stroke-width="4" points="772.2008,-381 669.3992,-381 669.3992,-345 772.2008,-345 772.2008,-381"/>
<text text-anchor="middle" x="720.8" y="-360.6" font-family="Fira Code" font-size="12.00" fill="#242424">fp/filter.js</text>
</g>
<!-- utils/delegatee.js -->
<g id="node8" class="node">
<title>utils/delegatee.js</title>
<polygon fill="none" stroke="#242424" stroke-width="4" points="771.4005,-266 626.1995,-266 626.1995,-230 771.4005,-230 771.4005,-266"/>
<text text-anchor="middle" x="698.8" y="-245.6" font-family="Fira Code" font-size="12.00" fill="#242424">utils/delegatee.js</text>
</g>
<!-- fp/filter.js&#45;&gt;utils/delegatee.js -->
<g id="edge4" class="edge">
<title>fp/filter.js&#45;&gt;utils/delegatee.js</title>
<path fill="none" stroke="#242424" d="M717.314,-344.7779C713.7739,-326.2726 708.2448,-297.3704 704.1497,-275.9646"/>
<polygon fill="#242424" stroke="#242424" points="707.5864,-275.3011 702.2697,-266.1368 700.711,-276.6164 707.5864,-275.3011"/>
</g>
<!-- params/curry.js -->
<g id="node12" class="node">
<title>params/curry.js</title>
<polygon fill="none" stroke="#242424" stroke-width="4" points="1112.8,-151 988.8,-151 988.8,-115 1112.8,-115 1112.8,-151"/>
<text text-anchor="middle" x="1050.8" y="-130.6" font-family="Fira Code" font-size="12.00" fill="#242424">params/curry.js</text>
</g>
<!-- utils/delegatee.js&#45;&gt;params/curry.js -->
<g id="edge39" class="edge">
<title>utils/delegatee.js&#45;&gt;params/curry.js</title>
<path fill="none" stroke="#242424" d="M754.1872,-229.9047C817.0211,-209.3766 919.3732,-175.9377 985.8993,-154.2034"/>
<polygon fill="#242424" stroke="#242424" points="987.0271,-157.517 995.4457,-151.0845 984.8532,-150.8631 987.0271,-157.517"/>
</g>
<!-- fp/index.js -->
<g id="node9" class="node">
<title>fp/index.js</title>
<polygon fill="none" stroke="#242424" stroke-width="4" points="585.5002,-611 490.0998,-611 490.0998,-575 585.5002,-575 585.5002,-611"/>
<text text-anchor="middle" x="537.8" y="-590.6" font-family="Fira Code" font-size="12.00" fill="#242424">fp/index.js</text>
</g>
<!-- fp/index.js&#45;&gt;fp/compose.js -->
<g id="edge5" class="edge">
<title>fp/index.js&#45;&gt;fp/compose.js</title>
<path fill="none" stroke="#242424" d="M530.6696,-574.7779C523.3955,-556.1885 512.0159,-527.1074 503.6286,-505.6731"/>
<polygon fill="#242424" stroke="#242424" points="506.8004,-504.1739 499.897,-496.1368 500.2817,-506.7247 506.8004,-504.1739"/>
</g>
<!-- fp/index.js&#45;&gt;fp/pipe.js -->
<g id="edge7" class="edge">
<title>fp/index.js&#45;&gt;fp/pipe.js</title>
<path fill="none" stroke="#242424" d="M543.2928,-574.9523C555.4537,-534.995 584.7237,-438.8223 599.2815,-390.9893"/>
<polygon fill="#242424" stroke="#242424" points="602.6725,-391.868 602.2359,-381.2821 595.9758,-389.8298 602.6725,-391.868"/>
</g>
<!-- fp/index.js&#45;&gt;fp/filter.js -->
<g id="edge6" class="edge">
<title>fp/index.js&#45;&gt;fp/filter.js</title>
<path fill="none" stroke="#242424" d="M552.1597,-574.9523C584.3517,-534.4924 662.404,-436.3939 699.948,-389.2075"/>
<polygon fill="#242424" stroke="#242424" points="702.7664,-391.2866 706.2538,-381.2821 697.2887,-386.9282 702.7664,-391.2866"/>
</g>
<!-- index.js -->
<g id="node10" class="node">
<title>index.js</title>
<polygon fill="none" stroke="#242424" stroke-width="4" points="650.4011,-1071 577.1989,-1071 577.1989,-1035 650.4011,-1035 650.4011,-1071"/>
<text text-anchor="middle" x="613.8" y="-1050.6" font-family="Fira Code" font-size="12.00" fill="#242424">index.js</text>
</g>
<!-- index.js&#45;&gt;../package.json -->
<g id="edge8" class="edge">
<title>index.js&#45;&gt;../package.json</title>
<path fill="none" stroke="#242424" d="M577.0894,-1044.4079C507.4246,-1028.0643 351.0203,-991.1864 208.8987,-956.2569"/>
<polygon fill="#242424" stroke="#242424" points="209.6726,-952.843 199.126,-953.8526 208.0002,-959.6403 209.6726,-952.843"/>
</g>
<!-- index.js&#45;&gt;combinators/index.js -->
<g id="edge9" class="edge">
<title>index.js&#45;&gt;combinators/index.js</title>
<path fill="none" stroke="#242424" d="M577.1264,-1039.6957C523.0247,-1020.0689 421.2374,-983.1429 356.3418,-959.6003"/>
<polygon fill="#242424" stroke="#242424" points="357.2448,-956.2048 346.6506,-956.0846 354.8576,-962.7852 357.2448,-956.2048"/>
</g>
<!-- index.js&#45;&gt;fp/compose.js -->
<g id="edge10" class="edge">
<title>index.js&#45;&gt;fp/compose.js</title>
<path fill="none" stroke="#242424" d="M590.7145,-1034.8512C548.1929,-999.1918 461.8,-915.3747 461.8,-823 461.8,-823 461.8,-823 461.8,-708 461.8,-634.6409 477.4805,-549.2904 486.5372,-506.112"/>
<polygon fill="#242424" stroke="#242424" points="490.0147,-506.5869 488.6834,-496.076 483.1695,-505.1229 490.0147,-506.5869"/>
</g>
<!-- index.js&#45;&gt;fp/pipe.js -->
<g id="edge11" class="edge">
<title>index.js&#45;&gt;fp/pipe.js</title>
<path fill="none" stroke="#242424" d="M613.8,-1034.8123C613.8,-995.9361 613.8,-901.8628 613.8,-823 613.8,-823 613.8,-823 613.8,-593 613.8,-520.2736 610.7651,-434.6558 609.0122,-391.2703"/>
<polygon fill="#242424" stroke="#242424" points="612.5054,-391.031 608.5968,-381.1835 605.5113,-391.3191 612.5054,-391.031"/>
</g>
<!-- object/index.js -->
<g id="node11" class="node">
<title>object/index.js</title>
<polygon fill="none" stroke="#242424" stroke-width="4" points="913.8,-956 789.8,-956 789.8,-920 913.8,-920 913.8,-956"/>
<text text-anchor="middle" x="851.8" y="-935.6" font-family="Fira Code" font-size="12.00" fill="#242424">object/index.js</text>
</g>
<!-- index.js&#45;&gt;object/index.js -->
<g id="edge12" class="edge">
<title>index.js&#45;&gt;object/index.js</title>
<path fill="none" stroke="#242424" d="M650.4659,-1035.2833C692.0639,-1015.1834 759.9893,-982.3623 805.2835,-960.4765"/>
<polygon fill="#242424" stroke="#242424" points="806.8254,-963.6187 814.3066,-956.1165 803.7799,-957.3159 806.8254,-963.6187"/>
</g>
<!-- index.js&#45;&gt;params/curry.js -->
<g id="edge13" class="edge">
<title>index.js&#45;&gt;params/curry.js</title>
<path fill="none" stroke="#242424" d="M650.5501,-1050.4665C806.9024,-1038.7028 1408.8,-983.0246 1408.8,-823 1408.8,-823 1408.8,-823 1408.8,-478 1408.8,-365.2889 1434.6796,-310.5097 1355.8,-230 1323.17,-196.6957 1202.2468,-165.371 1122.8155,-147.743"/>
<polygon fill="#242424" stroke="#242424" points="1123.3795,-144.2835 1112.8615,-145.5573 1121.8781,-151.1207 1123.3795,-144.2835"/>
</g>
<!-- params/ify.js -->
<g id="node13" class="node">
<title>params/ify.js</title>
<polygon fill="none" stroke="#242424" stroke-width="4" points="1531.4007,-266 1422.1993,-266 1422.1993,-230 1531.4007,-230 1531.4007,-266"/>
<text text-anchor="middle" x="1476.8" y="-245.6" font-family="Fira Code" font-size="12.00" fill="#242424">params/ify.js</text>
</g>
<!-- index.js&#45;&gt;params/ify.js -->
<g id="edge14" class="edge">
<title>index.js&#45;&gt;params/ify.js</title>
<path fill="none" stroke="#242424" d="M650.4067,-1050.9619C800.4087,-1042.2982 1362.9782,-1006.6378 1422.8,-956 1469.8171,-916.2011 1461.8,-884.6001 1461.8,-823 1461.8,-823 1461.8,-823 1461.8,-478 1461.8,-405.1439 1469.3873,-319.5808 1473.7696,-276.2378"/>
<polygon fill="#242424" stroke="#242424" points="1477.2644,-276.4676 1474.8081,-266.1615 1470.3013,-275.7499 1477.2644,-276.4676"/>
</g>
<!-- params/remap.js -->
<g id="node14" class="node">
<title>params/remap.js</title>
<polygon fill="none" stroke="#242424" stroke-width="4" points="1327.8,-266 1203.8,-266 1203.8,-230 1327.8,-230 1327.8,-266"/>
<text text-anchor="middle" x="1265.8" y="-245.6" font-family="Fira Code" font-size="12.00" fill="#242424">params/remap.js</text>
</g>
<!-- index.js&#45;&gt;params/remap.js -->
<g id="edge15" class="edge">
<title>index.js&#45;&gt;params/remap.js</title>
<path fill="none" stroke="#242424" d="M650.4293,-1047.5145C782.8274,-1026.674 1228.8,-947.2526 1228.8,-823 1228.8,-823 1228.8,-823 1228.8,-478 1228.8,-404.2076 1247.5948,-318.769 1258.3936,-275.7693"/>
<polygon fill="#242424" stroke="#242424" points="1261.7977,-276.5845 1260.8867,-266.0289 1255.0163,-274.8487 1261.7977,-276.5845"/>
</g>
<!-- placeholder/index.js -->
<g id="node15" class="node">
<title>placeholder/index.js</title>
<polygon fill="none" stroke="#0c821d" stroke-width="4" points="874.8,-36 714.8,-36 714.8,0 874.8,0 874.8,-36"/>
<text text-anchor="middle" x="794.8" y="-15.6" font-family="Fira Code" font-size="12.00" fill="#0c821d">placeholder/index.js</text>
</g>
<!-- index.js&#45;&gt;placeholder/index.js -->
<g id="edge16" class="edge">
<title>index.js&#45;&gt;placeholder/index.js</title>
<path fill="none" stroke="#242424" d="M579.655,-1034.9782C521.5812,-1001.5752 409.8,-924.1438 409.8,-823 409.8,-823 409.8,-823 409.8,-248 409.8,-111.3923 590.6466,-53.9999 704.4463,-31.4082"/>
<polygon fill="#242424" stroke="#242424" points="705.4043,-34.788 714.56,-29.4565 704.078,-27.9148 705.4043,-34.788"/>
</g>
<!-- object/by&#45;keys&#45;or&#45;number.js -->
<g id="node18" class="node">
<title>object/by&#45;keys&#45;or&#45;number.js</title>
<polygon fill="none" stroke="#242424" stroke-width="4" points="1115.2004,-841 904.3996,-841 904.3996,-805 1115.2004,-805 1115.2004,-841"/>
<text text-anchor="middle" x="1009.8" y="-820.6" font-family="Fira Code" font-size="12.00" fill="#242424">object/by&#45;keys&#45;or&#45;number.js</text>
</g>
<!-- object/index.js&#45;&gt;object/by&#45;keys&#45;or&#45;number.js -->
<g id="edge28" class="edge">
<title>object/index.js&#45;&gt;object/by&#45;keys&#45;or&#45;number.js</title>
<path fill="none" stroke="#242424" d="M876.8356,-919.7779C903.7627,-900.1791 946.7122,-868.9184 976.4797,-847.2521"/>
<polygon fill="#242424" stroke="#242424" points="978.8561,-849.8514 984.8816,-841.1368 974.7367,-844.1918 978.8561,-849.8514"/>
</g>
<!-- object/by&#45;keys.js -->
<g id="node19" class="node">
<title>object/by&#45;keys.js</title>
<polygon fill="none" stroke="#242424" stroke-width="4" points="897.2006,-726 758.3994,-726 758.3994,-690 897.2006,-690 897.2006,-726"/>
<text text-anchor="middle" x="827.8" y="-705.6" font-family="Fira Code" font-size="12.00" fill="#242424">object/by&#45;keys.js</text>
</g>
<!-- object/index.js&#45;&gt;object/by&#45;keys.js -->
<g id="edge29" class="edge">
<title>object/index.js&#45;&gt;object/by&#45;keys.js</title>
<path fill="none" stroke="#242424" d="M849.9168,-919.9523C845.756,-880.0788 835.7539,-784.2253 830.7521,-736.2908"/>
<polygon fill="#242424" stroke="#242424" points="834.2267,-735.8649 829.7077,-726.2821 827.2645,-736.5914 834.2267,-735.8649"/>
</g>
<!-- object/by&#45;number&#45;of&#45;keys.js -->
<g id="node20" class="node">
<title>object/by&#45;number&#45;of&#45;keys.js</title>
<polygon fill="none" stroke="#242424" stroke-width="4" points="1125.2004,-726 914.3996,-726 914.3996,-690 1125.2004,-690 1125.2004,-726"/>
<text text-anchor="middle" x="1019.8" y="-705.6" font-family="Fira Code" font-size="12.00" fill="#242424">object/by&#45;number&#45;of&#45;keys.js</text>
</g>
<!-- object/index.js&#45;&gt;object/by&#45;number&#45;of&#45;keys.js -->
<g id="edge30" class="edge">
<title>object/index.js&#45;&gt;object/by&#45;number&#45;of&#45;keys.js</title>
<path fill="none" stroke="#242424" d="M854.3933,-919.7121C858.9602,-892.5796 870.4653,-841.0002 895.8,-805 917.4455,-774.2421 951.6491,-748.5238 978.6559,-731.3143"/>
<polygon fill="#242424" stroke="#242424" points="980.5057,-734.2856 987.1464,-726.0302 976.807,-728.3426 980.5057,-734.2856"/>
</g>
<!-- params/curry.js&#45;&gt;placeholder/index.js -->
<g id="edge32" class="edge">
<title>params/curry.js&#45;&gt;placeholder/index.js</title>
<path fill="none" stroke="#242424" d="M1010.5184,-114.9047C965.6362,-94.7428 893.0296,-62.1266 844.6142,-40.3775"/>
<polygon fill="#242424" stroke="#242424" points="845.8251,-37.0846 835.269,-36.1794 842.9567,-43.4699 845.8251,-37.0846"/>
</g>
<!-- Ⓜ fast.js/array/some.js -->
<g id="node23" class="node">
<title>Ⓜ fast.js/array/some.js</title>
<polygon fill="none" stroke="#0c821d" stroke-width="4" points="1283.2004,-36 1096.3996,-36 1096.3996,0 1283.2004,0 1283.2004,-36"/>
<text text-anchor="middle" x="1189.8" y="-16.8" font-family="Fira Code" font-size="12.00" fill="#0c821d">Ⓜ fast.js/array/some.js</text>
</g>
<!-- params/curry.js&#45;&gt;Ⓜ fast.js/array/some.js -->
<g id="edge31" class="edge">
<title>params/curry.js&#45;&gt;Ⓜ fast.js/array/some.js</title>
<path fill="none" stroke="#242424" d="M1072.825,-114.7779C1096.4123,-95.2632 1133.9746,-64.1865 1160.1488,-42.5316"/>
<polygon fill="#242424" stroke="#242424" points="1162.4043,-45.2081 1167.8781,-36.1368 1157.9421,-39.8147 1162.4043,-45.2081"/>
</g>
<!-- params/ify.js&#45;&gt;Ⓜ fast.js/array/some.js -->
<g id="edge33" class="edge">
<title>params/ify.js&#45;&gt;Ⓜ fast.js/array/some.js</title>
<path fill="none" stroke="#242424" d="M1454.2796,-229.9523C1403.2701,-189.0736 1278.8408,-89.3567 1220.6943,-42.7585"/>
<polygon fill="#242424" stroke="#242424" points="1222.6051,-39.8046 1212.6129,-36.2821 1218.2276,-45.2669 1222.6051,-39.8046"/>
</g>
<!-- params/remap.js&#45;&gt;params/curry.js -->
<g id="edge37" class="edge">
<title>params/remap.js&#45;&gt;params/curry.js</title>
<path fill="none" stroke="#242424" d="M1231.7326,-229.7779C1194.305,-209.7585 1134.129,-177.5713 1093.5584,-155.8708"/>
<polygon fill="#242424" stroke="#242424" points="1095.1767,-152.7672 1084.708,-151.1368 1091.8751,-158.9397 1095.1767,-152.7672"/>
</g>
<!-- object/by&#45;condition.js -->
<g id="node16" class="node">
<title>object/by&#45;condition.js</title>
<polygon fill="none" stroke="#242424" stroke-width="4" points="1201.2005,-611 1026.3995,-611 1026.3995,-575 1201.2005,-575 1201.2005,-611"/>
<text text-anchor="middle" x="1113.8" y="-590.6" font-family="Fira Code" font-size="12.00" fill="#242424">object/by&#45;condition.js</text>
</g>
<!-- object/by&#45;condition.js&#45;&gt;fp/pipe.js -->
<g id="edge17" class="edge">
<title>object/by&#45;condition.js&#45;&gt;fp/pipe.js</title>
<path fill="none" stroke="#242424" d="M1026.4132,-583.3523C948.6858,-571.7527 834.137,-547.0478 746.8,-496 727.5342,-484.7393 727.742,-475.615 711.8,-460 686.4626,-435.1824 656.8144,-407.6747 635.671,-388.31"/>
<polygon fill="#242424" stroke="#242424" points="637.7538,-385.472 628.0108,-381.3096 633.0315,-390.6393 637.7538,-385.472"/>
</g>
<!-- object/by&#45;condition.js&#45;&gt;params/curry.js -->
<g id="edge18" class="edge">
<title>object/by&#45;condition.js&#45;&gt;params/curry.js</title>
<path fill="none" stroke="#242424" d="M1122.3218,-574.6538C1146.5625,-519.6815 1210.7705,-352.5454 1156.8,-230 1143.1744,-199.0616 1114.2692,-173.6959 1090.0803,-156.6731"/>
<polygon fill="#242424" stroke="#242424" points="1091.9898,-153.7389 1081.7539,-151.0044 1088.0504,-159.5253 1091.9898,-153.7389"/>
</g>
<!-- utils/object.js -->
<g id="node17" class="node">
<title>utils/object.js</title>
<polygon fill="none" stroke="#242424" stroke-width="4" points="1109.8,-381 985.8,-381 985.8,-345 1109.8,-345 1109.8,-381"/>
<text text-anchor="middle" x="1047.8" y="-360.6" font-family="Fira Code" font-size="12.00" fill="#242424">utils/object.js</text>
</g>
<!-- object/by&#45;condition.js&#45;&gt;utils/object.js -->
<g id="edge19" class="edge">
<title>object/by&#45;condition.js&#45;&gt;utils/object.js</title>
<path fill="none" stroke="#242424" d="M1118.3727,-574.8111C1124.086,-548.6743 1131.6507,-499.3138 1118.8,-460 1109.972,-432.9928 1090.4521,-407.2763 1074.1098,-389.1164"/>
<polygon fill="#242424" stroke="#242424" points="1076.2447,-386.2719 1066.8747,-381.3269 1071.1158,-391.0359 1076.2447,-386.2719"/>
</g>
<!-- utils/object.js&#45;&gt;params/curry.js -->
<g id="edge51" class="edge">
<title>utils/object.js&#45;&gt;params/curry.js</title>
<path fill="none" stroke="#242424" d="M1042.2965,-344.9741C1035.1702,-319.443 1024.1797,-271.2601 1028.8,-230 1031.4429,-206.3986 1037.5957,-180.1602 1042.7243,-160.9298"/>
<polygon fill="#242424" stroke="#242424" points="1046.1702,-161.5981 1045.4394,-151.0285 1039.4194,-159.7469 1046.1702,-161.5981"/>
</g>
<!-- object/by&#45;keys&#45;or&#45;number.js&#45;&gt;object/by&#45;condition.js -->
<g id="edge20" class="edge">
<title>object/by&#45;keys&#45;or&#45;number.js&#45;&gt;object/by&#45;condition.js</title>
<path fill="none" stroke="#242424" d="M1048.5235,-804.8625C1077.9246,-788.7395 1116.198,-762.1171 1133.8,-726 1150.1993,-692.3507 1138.2164,-648.6889 1126.9673,-620.7503"/>
<polygon fill="#242424" stroke="#242424" points="1130.0463,-619.0472 1122.91,-611.2162 1123.6053,-621.7882 1130.0463,-619.0472"/>
</g>
<!-- object/by&#45;keys&#45;or&#45;number.js&#45;&gt;object/by&#45;keys.js -->
<g id="edge21" class="edge">
<title>object/by&#45;keys&#45;or&#45;number.js&#45;&gt;object/by&#45;keys.js</title>
<path fill="none" stroke="#242424" d="M980.9616,-804.7779C949.678,-785.0108 899.6201,-753.3808 865.302,-731.6963"/>
<polygon fill="#242424" stroke="#242424" points="866.8269,-728.5197 856.5035,-726.1368 863.0877,-734.4374 866.8269,-728.5197"/>
</g>
<!-- object/by&#45;keys&#45;or&#45;number.js&#45;&gt;object/by&#45;number&#45;of&#45;keys.js -->
<g id="edge22" class="edge">
<title>object/by&#45;keys&#45;or&#45;number.js&#45;&gt;object/by&#45;number&#45;of&#45;keys.js</title>
<path fill="none" stroke="#242424" d="M1011.3845,-804.7779C1012.9864,-786.3567 1015.4841,-757.6329 1017.3429,-736.2569"/>
<polygon fill="#242424" stroke="#242424" points="1020.8433,-736.4025 1018.2229,-726.1368 1013.8697,-735.796 1020.8433,-736.4025"/>
</g>
<!-- object/by&#45;keys.js&#45;&gt;object/by&#45;condition.js -->
<g id="edge23" class="edge">
<title>object/by&#45;keys.js&#45;&gt;object/by&#45;condition.js</title>
<path fill="none" stroke="#242424" d="M872.8021,-689.9047C923.2573,-669.6168 1005.0742,-636.7184 1059.1592,-614.9709"/>
<polygon fill="#242424" stroke="#242424" points="1060.6162,-618.1575 1068.5885,-611.1794 1058.0047,-611.6629 1060.6162,-618.1575"/>
</g>
<!-- utils/length.js -->
<g id="node21" class="node">
<title>utils/length.js</title>
<polygon fill="none" stroke="#242424" stroke-width="4" points="1109.8,-496 985.8,-496 985.8,-460 1109.8,-460 1109.8,-496"/>
<text text-anchor="middle" x="1047.8" y="-475.6" font-family="Fira Code" font-size="12.00" fill="#242424">utils/length.js</text>
</g>
<!-- object/by&#45;keys.js&#45;&gt;utils/length.js -->
<g id="edge24" class="edge">
<title>object/by&#45;keys.js&#45;&gt;utils/length.js</title>
<path fill="none" stroke="#242424" d="M851.6676,-689.9094C875.5751,-671.2921 912.8751,-640.8686 941.8,-611 975.1626,-576.5489 1008.86,-532.2757 1029.0375,-504.5118"/>
<polygon fill="#242424" stroke="#242424" points="1032.0854,-506.2691 1035.096,-496.111 1026.4078,-502.1745 1032.0854,-506.2691"/>
</g>
<!-- utils/matching&#45;key&#45;count.js -->
<g id="node22" class="node">
<title>utils/matching&#45;key&#45;count.js</title>
<polygon fill="none" stroke="#242424" stroke-width="4" points="933.2004,-611 722.3996,-611 722.3996,-575 933.2004,-575 933.2004,-611"/>
<text text-anchor="middle" x="827.8" y="-590.6" font-family="Fira Code" font-size="12.00" fill="#242424">utils/matching&#45;key&#45;count.js</text>
</g>
<!-- object/by&#45;keys.js&#45;&gt;utils/matching&#45;key&#45;count.js -->
<g id="edge25" class="edge">
<title>object/by&#45;keys.js&#45;&gt;utils/matching&#45;key&#45;count.js</title>
<path fill="none" stroke="#242424" d="M827.8,-689.7779C827.8,-671.3567 827.8,-642.6329 827.8,-621.2569"/>
<polygon fill="#242424" stroke="#242424" points="831.3001,-621.1368 827.8,-611.1368 824.3001,-621.1369 831.3001,-621.1368"/>
</g>
<!-- object/by&#45;number&#45;of&#45;keys.js&#45;&gt;object/by&#45;condition.js -->
<g id="edge26" class="edge">
<title>object/by&#45;number&#45;of&#45;keys.js&#45;&gt;object/by&#45;condition.js</title>
<path fill="none" stroke="#242424" d="M1034.6946,-689.7779C1050.302,-670.6838 1074.9571,-640.5206 1092.5931,-618.9446"/>
<polygon fill="#242424" stroke="#242424" points="1095.3563,-621.0945 1098.9751,-611.1368 1089.9365,-616.6644 1095.3563,-621.0945"/>
</g>
<!-- object/by&#45;number&#45;of&#45;keys.js&#45;&gt;utils/length.js -->
<g id="edge27" class="edge">
<title>object/by&#45;number&#45;of&#45;keys.js&#45;&gt;utils/length.js</title>
<path fill="none" stroke="#242424" d="M1017.6457,-689.8025C1015.0244,-664.0675 1011.6584,-615.6439 1017.8,-575 1021.4166,-551.0658 1029.7853,-524.8985 1036.7673,-505.7804"/>
<polygon fill="#242424" stroke="#242424" points="1040.1224,-506.8016 1040.3618,-496.2095 1033.5693,-504.3405 1040.1224,-506.8016"/>
</g>
<!-- utils/length.js&#45;&gt;fp/pipe.js -->
<g id="edge40" class="edge">
<title>utils/length.js&#45;&gt;fp/pipe.js</title>
<path fill="none" stroke="#242424" d="M985.7149,-464.0902C910.9461,-446.9703 781.4697,-416.1506 661.6705,-381.1517"/>
<polygon fill="#242424" stroke="#242424" points="662.5412,-377.7597 651.9601,-378.2993 660.5682,-384.4759 662.5412,-377.7597"/>
</g>
<!-- utils/length.js&#45;&gt;utils/object.js -->
<g id="edge41" class="edge">
<title>utils/length.js&#45;&gt;utils/object.js</title>
<path fill="none" stroke="#242424" d="M1047.8,-459.7779C1047.8,-441.3567 1047.8,-412.6329 1047.8,-391.2569"/>
<polygon fill="#242424" stroke="#242424" points="1051.3001,-391.1368 1047.8,-381.1368 1044.3001,-391.1369 1051.3001,-391.1368"/>
</g>
<!-- utils/prop.js -->
<g id="node28" class="node">
<title>utils/prop.js</title>
<polygon fill="none" stroke="#242424" stroke-width="4" points="1147.4007,-266 1038.1993,-266 1038.1993,-230 1147.4007,-230 1147.4007,-266"/>
<text text-anchor="middle" x="1092.8" y="-245.6" font-family="Fira Code" font-size="12.00" fill="#242424">utils/prop.js</text>
</g>
<!-- utils/length.js&#45;&gt;utils/prop.js -->
<g id="edge42" class="edge">
<title>utils/length.js&#45;&gt;utils/prop.js</title>
<path fill="none" stroke="#242424" d="M1066.8747,-459.6731C1084.2223,-441.5706 1108.62,-412.1435 1118.8,-381 1130.3885,-345.5477 1117.6537,-303.0003 1106.2766,-275.7407"/>
<polygon fill="#242424" stroke="#242424" points="1109.4155,-274.1834 1102.194,-266.4309 1103.0048,-276.9947 1109.4155,-274.1834"/>
</g>
<!-- utils/matching&#45;key&#45;count.js&#45;&gt;fp/pipe.js -->
<g id="edge43" class="edge">
<title>utils/matching&#45;key&#45;count.js&#45;&gt;fp/pipe.js</title>
<path fill="none" stroke="#242424" d="M803.9324,-574.9094C780.0249,-556.2921 742.7249,-525.8686 713.8,-496 680.4374,-461.5489 646.74,-417.2757 626.5625,-389.5118"/>
<polygon fill="#242424" stroke="#242424" points="629.1922,-387.1745 620.504,-381.111 623.5146,-391.2691 629.1922,-387.1745"/>
</g>
<!-- utils/matching&#45;key&#45;count.js&#45;&gt;params/curry.js -->
<g id="edge44" class="edge">
<title>utils/matching&#45;key&#45;count.js&#45;&gt;params/curry.js</title>
<path fill="none" stroke="#242424" d="M857.3146,-574.744C882.6941,-557.5165 918.348,-529.3903 938.8,-496 974.9465,-436.9867 956.9325,-411.2904 976.8,-345 996.8671,-278.0435 1025.1262,-200.8795 1040.2575,-160.6538"/>
<polygon fill="#242424" stroke="#242424" points="1043.5495,-161.8432 1043.8086,-151.2515 1037.001,-159.3699 1043.5495,-161.8432"/>
</g>
<!-- utils/matching&#45;key&#45;count.js&#45;&gt;utils/length.js -->
<g id="edge45" class="edge">
<title>utils/matching&#45;key&#45;count.js&#45;&gt;utils/length.js</title>
<path fill="none" stroke="#242424" d="M862.6597,-574.7779C900.9576,-554.7585 962.5331,-522.5713 1004.0473,-500.8708"/>
<polygon fill="#242424" stroke="#242424" points="1005.8626,-503.8712 1013.1034,-496.1368 1002.6198,-497.6676 1005.8626,-503.8712"/>
</g>
<!-- utils/matching&#45;keys.js -->
<g id="node29" class="node">
<title>utils/matching&#45;keys.js</title>
<polygon fill="none" stroke="#242424" stroke-width="4" points="930.2005,-496 755.3995,-496 755.3995,-460 930.2005,-460 930.2005,-496"/>
<text text-anchor="middle" x="842.8" y="-475.6" font-family="Fira Code" font-size="12.00" fill="#242424">utils/matching&#45;keys.js</text>
</g>
<!-- utils/matching&#45;key&#45;count.js&#45;&gt;utils/matching&#45;keys.js -->
<g id="edge46" class="edge">
<title>utils/matching&#45;key&#45;count.js&#45;&gt;utils/matching&#45;keys.js</title>
<path fill="none" stroke="#242424" d="M830.1768,-574.7779C832.5796,-556.3567 836.3261,-527.6329 839.1143,-506.2569"/>
<polygon fill="#242424" stroke="#242424" points="842.6114,-506.5056 840.4343,-496.1368 835.6702,-505.6001 842.6114,-506.5056"/>
</g>
<!-- params/index.js -->
<g id="node24" class="node">
<title>params/index.js</title>
<polygon fill="none" stroke="#242424" stroke-width="4" points="1380.8,-381 1256.8,-381 1256.8,-345 1380.8,-345 1380.8,-381"/>
<text text-anchor="middle" x="1318.8" y="-360.6" font-family="Fira Code" font-size="12.00" fill="#242424">params/index.js</text>
</g>
<!-- params/index.js&#45;&gt;params/curry.js -->
<g id="edge34" class="edge">
<title>params/index.js&#45;&gt;params/curry.js</title>
<path fill="none" stroke="#242424" d="M1328.6356,-344.7255C1341.9853,-317.149 1361.5059,-264.4675 1336.8,-230 1311.477,-194.6716 1198.983,-164.4158 1122.8581,-147.4816"/>
<polygon fill="#242424" stroke="#242424" points="1123.3536,-144.0071 1112.8357,-145.282 1121.8529,-150.8444 1123.3536,-144.0071"/>
</g>
<!-- params/index.js&#45;&gt;params/ify.js -->
<g id="edge35" class="edge">
<title>params/index.js&#45;&gt;params/ify.js</title>
<path fill="none" stroke="#242424" d="M1343.8356,-344.7779C1370.7627,-325.1791 1413.7122,-293.9184 1443.4797,-272.2521"/>
<polygon fill="#242424" stroke="#242424" points="1445.8561,-274.8514 1451.8816,-266.1368 1441.7367,-269.1918 1445.8561,-274.8514"/>
</g>
<!-- params/index.js&#45;&gt;params/remap.js -->
<g id="edge36" class="edge">
<title>params/index.js&#45;&gt;params/remap.js</title>
<path fill="none" stroke="#242424" d="M1310.402,-344.7779C1301.7959,-326.1043 1288.3107,-296.844 1278.4198,-275.3826"/>
<polygon fill="#242424" stroke="#242424" points="1281.523,-273.7538 1274.1587,-266.1368 1275.1657,-276.6837 1281.523,-273.7538"/>
</g>
<!-- performance.fixture.js -->
<g id="node25" class="node">
<title>performance.fixture.js</title>
<polygon fill="none" stroke="#0c821d" stroke-width="4" points="414.2005,-1156 239.3995,-1156 239.3995,-1120 414.2005,-1120 414.2005,-1156"/>
<text text-anchor="middle" x="326.8" y="-1135.6" font-family="Fira Code" font-size="12.00" fill="#0c821d">performance.fixture.js</text>
</g>
<!-- performance2.fixture.js -->
<g id="node26" class="node">
<title>performance2.fixture.js</title>
<polygon fill="none" stroke="#0c821d" stroke-width="4" points="421.4004,-36 240.1996,-36 240.1996,0 421.4004,0 421.4004,-36"/>
<text text-anchor="middle" x="330.8" y="-15.6" font-family="Fira Code" font-size="12.00" fill="#0c821d">performance2.fixture.js</text>
</g>
<!-- utils/array.js -->
<g id="node27" class="node">
<title>utils/array.js</title>
<polygon fill="none" stroke="#242424" stroke-width="4" points="944.1002,-266 827.4998,-266 827.4998,-230 944.1002,-230 944.1002,-266"/>
<text text-anchor="middle" x="885.8" y="-245.6" font-family="Fira Code" font-size="12.00" fill="#242424">utils/array.js</text>
</g>
<!-- utils/array.js&#45;&gt;params/curry.js -->
<g id="edge38" class="edge">
<title>utils/array.js&#45;&gt;params/curry.js</title>
<path fill="none" stroke="#242424" d="M911.9447,-229.7779C940.1855,-210.095 985.3024,-178.6498 1016.403,-156.9737"/>
<polygon fill="#242424" stroke="#242424" points="1018.5749,-159.7262 1024.7776,-151.1368 1014.5723,-153.9834 1018.5749,-159.7262"/>
</g>
<!-- utils/prop.js&#45;&gt;params/curry.js -->
<g id="edge52" class="edge">
<title>utils/prop.js&#45;&gt;params/curry.js</title>
<path fill="none" stroke="#242424" d="M1086.145,-229.7779C1079.3558,-211.1885 1068.7349,-182.1074 1060.9067,-160.6731"/>
<polygon fill="#242424" stroke="#242424" points="1064.1421,-159.3293 1057.4239,-151.1368 1057.5669,-161.7307 1064.1421,-159.3293"/>
</g>
<!-- utils/matching&#45;keys.js&#45;&gt;fp/filter.js -->
<g id="edge47" class="edge">
<title>utils/matching&#45;keys.js&#45;&gt;fp/filter.js</title>
<path fill="none" stroke="#242424" d="M823.4687,-459.7779C802.9446,-440.4314 770.3653,-409.7214 747.4212,-388.0937"/>
<polygon fill="#242424" stroke="#242424" points="749.7183,-385.4492 740.0408,-381.1368 744.9169,-390.543 749.7183,-385.4492"/>
</g>
<!-- utils/matching&#45;keys.js&#45;&gt;params/curry.js -->
<g id="edge48" class="edge">
<title>utils/matching&#45;keys.js&#45;&gt;params/curry.js</title>
<path fill="none" stroke="#242424" d="M833.8824,-459.9108C813.7412,-416.2073 770.1359,-303.093 818.8,-230 854.1604,-176.889 924.7636,-152.8052 978.8431,-141.9156"/>
<polygon fill="#242424" stroke="#242424" points="979.5676,-145.3406 988.7364,-140.0318 978.2582,-138.4642 979.5676,-145.3406"/>
</g>
<!-- utils/matching&#45;keys.js&#45;&gt;utils/object.js -->
<g id="edge50" class="edge">
<title>utils/matching&#45;keys.js&#45;&gt;utils/object.js</title>
<path fill="none" stroke="#242424" d="M875.2829,-459.7779C910.8197,-439.8426 967.865,-407.8416 1006.5418,-386.1448"/>
<polygon fill="#242424" stroke="#242424" points="1008.4601,-389.0819 1015.4691,-381.1368 1005.0353,-382.9769 1008.4601,-389.0819"/>
</g>
<!-- utils/matching&#45;keys.js&#45;&gt;utils/array.js -->
<g id="edge49" class="edge">
<title>utils/matching&#45;keys.js&#45;&gt;utils/array.js</title>
<path fill="none" stroke="#242424" d="M846.1741,-459.9523C853.6287,-420.0788 871.5492,-324.2253 880.5109,-276.2908"/>
<polygon fill="#242424" stroke="#242424" points="883.9846,-276.7551 882.382,-266.2821 877.1038,-275.4686 883.9846,-276.7551"/>
</g>
</g>
</svg>
