<?xml version="1.0" encoding="UTF-8" standalone="no"?>
<!DOCTYPE svg PUBLIC "-//W3C//DTD SVG 1.1//EN"
 "http://www.w3.org/Graphics/SVG/1.1/DTD/svg11.dtd">
<!-- Generated by graphviz version 2.40.1 (20161225.0304)
 -->
<!-- Title: G Pages: 1 -->
<svg width="1228pt" height="1087pt"
 viewBox="0.00 0.00 1227.97 1086.98" xmlns="http://www.w3.org/2000/svg" xmlns:xlink="http://www.w3.org/1999/xlink">
<g id="graph0" class="graph" transform="scale(1 1) rotate(0) translate(7.992 1078.992)">
<title>G</title>
<polygon fill="#eeeeff" stroke="transparent" points="-7.992,7.992 -7.992,-1078.992 1219.9791,-1078.992 1219.9791,7.992 -7.992,7.992"/>
<!-- ../package.json -->
<g id="node1" class="node">
<title>../package.json</title>
<polygon fill="none" stroke="#0c821d" stroke-width="4" points="198.8,-956 74.8,-956 74.8,-920 198.8,-920 198.8,-956"/>
<text text-anchor="middle" x="136.8" y="-935.6" font-family="Fira Code" font-size="12.00" fill="#0c821d">../package.json</text>
</g>
<!-- combinators/constant.js -->
<g id="node2" class="node">
<title>combinators/constant.js</title>
<polygon fill="none" stroke="#0c821d" stroke-width="4" points="181.4004,-841 .1996,-841 .1996,-805 181.4004,-805 181.4004,-841"/>
<text text-anchor="middle" x="90.8" y="-820.6" font-family="Fira Code" font-size="12.00" fill="#0c821d">combinators/constant.js</text>
</g>
<!-- combinators/identity.js -->
<g id="node3" class="node">
<title>combinators/identity.js</title>
<polygon fill="none" stroke="#0c821d" stroke-width="4" points="381.4004,-841 200.1996,-841 200.1996,-805 381.4004,-805 381.4004,-841"/>
<text text-anchor="middle" x="290.8" y="-820.6" font-family="Fira Code" font-size="12.00" fill="#0c821d">combinators/identity.js</text>
</g>
<!-- combinators/index.js -->
<g id="node4" class="node">
<title>combinators/index.js</title>
<polygon fill="none" stroke="#242424" stroke-width="4" points="376.8,-956 216.8,-956 216.8,-920 376.8,-920 376.8,-956"/>
<text text-anchor="middle" x="296.8" y="-935.6" font-family="Fira Code" font-size="12.00" fill="#242424">combinators/index.js</text>
</g>
<!-- combinators/index.js&#45;&gt;combinators/constant.js -->
<g id="edge1" class="edge">
<title>combinators/index.js&#45;&gt;combinators/constant.js</title>
<path fill="none" stroke="#242424" d="M264.1587,-919.7779C228.4485,-899.8426 171.1249,-867.8416 132.2595,-846.1448"/>
<polygon fill="#242424" stroke="#242424" points="133.7262,-842.9553 123.2886,-841.1368 130.3141,-849.0674 133.7262,-842.9553"/>
</g>
<!-- combinators/index.js&#45;&gt;combinators/identity.js -->
<g id="edge2" class="edge">
<title>combinators/index.js&#45;&gt;combinators/identity.js</title>
<path fill="none" stroke="#242424" d="M295.8493,-919.7779C294.8882,-901.3567 293.3895,-872.6329 292.2743,-851.2569"/>
<polygon fill="#242424" stroke="#242424" points="295.7626,-850.9409 291.7463,-841.1368 288.7721,-851.3056 295.7626,-850.9409"/>
</g>
<!-- curry/ify.js -->
<g id="node5" class="node">
<title>curry/ify.js</title>
<polygon fill="none" stroke="#242424" stroke-width="4" points="712.2008,-151 609.3992,-151 609.3992,-115 712.2008,-115 712.2008,-151"/>
<text text-anchor="middle" x="660.8" y="-130.6" font-family="Fira Code" font-size="12.00" fill="#242424">curry/ify.js</text>
</g>
<!-- Ⓜ fast.js/array/some.js -->
<g id="node6" class="node">
<title>Ⓜ fast.js/array/some.js</title>
<polygon fill="none" stroke="#0c821d" stroke-width="4" points="818.2004,-36 631.3996,-36 631.3996,0 818.2004,0 818.2004,-36"/>
<text text-anchor="middle" x="724.8" y="-16.8" font-family="Fira Code" font-size="12.00" fill="#0c821d">Ⓜ fast.js/array/some.js</text>
</g>
<!-- curry/ify.js&#45;&gt;Ⓜ fast.js/array/some.js -->
<g id="edge3" class="edge">
<title>curry/ify.js&#45;&gt;Ⓜ fast.js/array/some.js</title>
<path fill="none" stroke="#242424" d="M670.941,-114.7779C681.38,-96.0202 697.7641,-66.5802 709.7221,-45.0931"/>
<polygon fill="#242424" stroke="#242424" points="712.9018,-46.5769 714.7065,-36.1368 706.7852,-43.1728 712.9018,-46.5769"/>
</g>
<!-- curry/index.js -->
<g id="node7" class="node">
<title>curry/index.js</title>
<polygon fill="none" stroke="#242424" stroke-width="4" points="581.1002,-266 464.4998,-266 464.4998,-230 581.1002,-230 581.1002,-266"/>
<text text-anchor="middle" x="522.8" y="-245.6" font-family="Fira Code" font-size="12.00" fill="#242424">curry/index.js</text>
</g>
<!-- curry/index.js&#45;&gt;curry/ify.js -->
<g id="edge4" class="edge">
<title>curry/index.js&#45;&gt;curry/ify.js</title>
<path fill="none" stroke="#242424" d="M544.6665,-229.7779C567.9832,-210.3473 605.055,-179.4542 631.0254,-157.8121"/>
<polygon fill="#242424" stroke="#242424" points="633.5942,-160.2275 639.0358,-151.1368 629.1129,-154.8499 633.5942,-160.2275"/>
</g>
<!-- curry/katsu.js -->
<g id="node8" class="node">
<title>curry/katsu.js</title>
<polygon fill="none" stroke="#242424" stroke-width="4" points="910.1002,-151 793.4998,-151 793.4998,-115 910.1002,-115 910.1002,-151"/>
<text text-anchor="middle" x="851.8" y="-130.6" font-family="Fira Code" font-size="12.00" fill="#242424">curry/katsu.js</text>
</g>
<!-- curry/index.js&#45;&gt;curry/katsu.js -->
<g id="edge5" class="edge">
<title>curry/index.js&#45;&gt;curry/katsu.js</title>
<path fill="none" stroke="#242424" d="M574.5682,-229.9047C633.0557,-209.4608 728.1772,-176.2116 790.3738,-154.4712"/>
<polygon fill="#242424" stroke="#242424" points="791.7776,-157.6882 800.0626,-151.0845 789.4678,-151.0803 791.7776,-157.6882"/>
</g>
<!-- curry/katsu.js&#45;&gt;Ⓜ fast.js/array/some.js -->
<g id="edge6" class="edge">
<title>curry/katsu.js&#45;&gt;Ⓜ fast.js/array/some.js</title>
<path fill="none" stroke="#242424" d="M831.6765,-114.7779C810.3112,-95.4314 776.3967,-64.7214 752.5122,-43.0937"/>
<polygon fill="#242424" stroke="#242424" points="754.5913,-40.2546 744.8294,-36.1368 749.8927,-45.4435 754.5913,-40.2546"/>
</g>
<!-- placeholder/index.js -->
<g id="node9" class="node">
<title>placeholder/index.js</title>
<polygon fill="none" stroke="#0c821d" stroke-width="4" points="1151.8,-36 991.8,-36 991.8,0 1151.8,0 1151.8,-36"/>
<text text-anchor="middle" x="1071.8" y="-15.6" font-family="Fira Code" font-size="12.00" fill="#0c821d">placeholder/index.js</text>
</g>
<!-- curry/katsu.js&#45;&gt;placeholder/index.js -->
<g id="edge7" class="edge">
<title>curry/katsu.js&#45;&gt;placeholder/index.js</title>
<path fill="none" stroke="#242424" d="M886.6597,-114.7779C924.9576,-94.7585 986.5331,-62.5713 1028.0473,-40.8708"/>
<polygon fill="#242424" stroke="#242424" points="1029.8626,-43.8712 1037.1034,-36.1368 1026.6198,-37.6676 1029.8626,-43.8712"/>
</g>
<!-- fp/compose.js -->
<g id="node10" class="node">
<title>fp/compose.js</title>
<polygon fill="none" stroke="#242424" stroke-width="4" points="585.4007,-496 476.1993,-496 476.1993,-460 585.4007,-460 585.4007,-496"/>
<text text-anchor="middle" x="530.8" y="-475.6" font-family="Fira Code" font-size="12.00" fill="#242424">fp/compose.js</text>
</g>
<!-- fp/pipe.js -->
<g id="node11" class="node">
<title>fp/pipe.js</title>
<polygon fill="none" stroke="#0c821d" stroke-width="4" points="581.8,-381 493.8,-381 493.8,-345 581.8,-345 581.8,-381"/>
<text text-anchor="middle" x="537.8" y="-360.6" font-family="Fira Code" font-size="12.00" fill="#0c821d">fp/pipe.js</text>
</g>
<!-- fp/compose.js&#45;&gt;fp/pipe.js -->
<g id="edge8" class="edge">
<title>fp/compose.js&#45;&gt;fp/pipe.js</title>
<path fill="none" stroke="#242424" d="M531.9092,-459.7779C533.0305,-441.3567 534.7789,-412.6329 536.08,-391.2569"/>
<polygon fill="#242424" stroke="#242424" points="539.5819,-391.331 536.696,-381.1368 532.5948,-390.9057 539.5819,-391.331"/>
</g>
<!-- fp/filter.js -->
<g id="node12" class="node">
<title>fp/filter.js</title>
<polygon fill="none" stroke="#242424" stroke-width="4" points="740.2008,-381 637.3992,-381 637.3992,-345 740.2008,-345 740.2008,-381"/>
<text text-anchor="middle" x="688.8" y="-360.6" font-family="Fira Code" font-size="12.00" fill="#242424">fp/filter.js</text>
</g>
<!-- utils/delegatee.js -->
<g id="node13" class="node">
<title>utils/delegatee.js</title>
<polygon fill="none" stroke="#242424" stroke-width="4" points="782.4005,-266 637.1995,-266 637.1995,-230 782.4005,-230 782.4005,-266"/>
<text text-anchor="middle" x="709.8" y="-245.6" font-family="Fira Code" font-size="12.00" fill="#242424">utils/delegatee.js</text>
</g>
<!-- fp/filter.js&#45;&gt;utils/delegatee.js -->
<g id="edge9" class="edge">
<title>fp/filter.js&#45;&gt;utils/delegatee.js</title>
<path fill="none" stroke="#242424" d="M692.1275,-344.7779C695.4914,-326.3567 700.7366,-297.6329 704.64,-276.2569"/>
<polygon fill="#242424" stroke="#242424" points="708.1347,-276.6029 706.4881,-266.1368 701.2485,-275.3454 708.1347,-276.6029"/>
</g>
<!-- utils/delegatee.js&#45;&gt;curry/katsu.js -->
<g id="edge34" class="edge">
<title>utils/delegatee.js&#45;&gt;curry/katsu.js</title>
<path fill="none" stroke="#242424" d="M732.3003,-229.7779C756.3968,-210.2632 794.7697,-179.1865 821.5088,-157.5316"/>
<polygon fill="#242424" stroke="#242424" points="823.8365,-160.1504 829.4049,-151.1368 819.431,-154.7105 823.8365,-160.1504"/>
</g>
<!-- fp/index.js -->
<g id="node14" class="node">
<title>fp/index.js</title>
<polygon fill="none" stroke="#242424" stroke-width="4" points="540.5002,-611 445.0998,-611 445.0998,-575 540.5002,-575 540.5002,-611"/>
<text text-anchor="middle" x="492.8" y="-590.6" font-family="Fira Code" font-size="12.00" fill="#242424">fp/index.js</text>
</g>
<!-- fp/index.js&#45;&gt;fp/compose.js -->
<g id="edge10" class="edge">
<title>fp/index.js&#45;&gt;fp/compose.js</title>
<path fill="none" stroke="#242424" d="M498.8212,-574.7779C504.9638,-556.1885 514.5732,-527.1074 521.6558,-505.6731"/>
<polygon fill="#242424" stroke="#242424" points="524.9927,-506.73 524.807,-496.1368 518.3461,-504.5338 524.9927,-506.73"/>
</g>
<!-- fp/index.js&#45;&gt;fp/pipe.js -->
<g id="edge12" class="edge">
<title>fp/index.js&#45;&gt;fp/pipe.js</title>
<path fill="none" stroke="#242424" d="M483.406,-574.5691C471.441,-548.5569 453.7884,-499.8061 466.8,-460 475.628,-432.9928 495.1479,-407.2763 511.4902,-389.1164"/>
<polygon fill="#242424" stroke="#242424" points="514.4842,-391.0359 518.7253,-381.3269 509.3553,-386.2719 514.4842,-391.0359"/>
</g>
<!-- fp/index.js&#45;&gt;fp/filter.js -->
<g id="edge11" class="edge">
<title>fp/index.js&#45;&gt;fp/filter.js</title>
<path fill="none" stroke="#242424" d="M514.2853,-574.7868C535.7773,-556.0741 569.2281,-525.578 594.8,-496 624.7059,-461.4091 654.3397,-417.446 672.1109,-389.7557"/>
<polygon fill="#242424" stroke="#242424" points="675.2502,-391.3417 677.6661,-381.026 669.3445,-387.5836 675.2502,-391.3417"/>
</g>
<!-- index.js -->
<g id="node15" class="node">
<title>index.js</title>
<polygon fill="none" stroke="#242424" stroke-width="4" points="473.4011,-1071 400.1989,-1071 400.1989,-1035 473.4011,-1035 473.4011,-1071"/>
<text text-anchor="middle" x="436.8" y="-1050.6" font-family="Fira Code" font-size="12.00" fill="#242424">index.js</text>
</g>
<!-- index.js&#45;&gt;../package.json -->
<g id="edge13" class="edge">
<title>index.js&#45;&gt;../package.json</title>
<path fill="none" stroke="#242424" d="M400.0141,-1038.8987C348.3302,-1019.0866 253.7743,-982.8401 193.1792,-959.612"/>
<polygon fill="#242424" stroke="#242424" points="194.3477,-956.3117 183.7574,-956.0003 191.8421,-962.8479 194.3477,-956.3117"/>
</g>
<!-- index.js&#45;&gt;combinators/index.js -->
<g id="edge14" class="edge">
<title>index.js&#45;&gt;combinators/index.js</title>
<path fill="none" stroke="#242424" d="M414.6166,-1034.7779C390.8595,-1015.2632 353.027,-984.1865 326.6646,-962.5316"/>
<polygon fill="#242424" stroke="#242424" points="328.8285,-959.7797 318.8796,-956.1368 324.3853,-965.1888 328.8285,-959.7797"/>
</g>
<!-- index.js&#45;&gt;curry/index.js -->
<g id="edge15" class="edge">
<title>index.js&#45;&gt;curry/index.js</title>
<path fill="none" stroke="#242424" d="M433.2146,-1034.8971C425.8701,-996.1836 409.8,-902.4044 409.8,-823 409.8,-823 409.8,-823 409.8,-478 409.8,-396.837 467.1851,-314.5499 500.1673,-273.958"/>
<polygon fill="#242424" stroke="#242424" points="502.9287,-276.1109 506.6099,-266.1762 497.5367,-271.647 502.9287,-276.1109"/>
</g>
<!-- index.js&#45;&gt;placeholder/index.js -->
<g id="edge18" class="edge">
<title>index.js&#45;&gt;placeholder/index.js</title>
<path fill="none" stroke="#242424" d="M473.4818,-1049.8596C624.059,-1035.9794 1186.8,-974.0045 1186.8,-823 1186.8,-823 1186.8,-823 1186.8,-248 1186.8,-166.5557 1128.3993,-84.3882 1094.8333,-43.8883"/>
<polygon fill="#242424" stroke="#242424" points="1097.403,-41.5065 1088.2767,-36.1249 1092.0551,-46.0232 1097.403,-41.5065"/>
</g>
<!-- index.js&#45;&gt;fp/index.js -->
<g id="edge16" class="edge">
<title>index.js&#45;&gt;fp/index.js</title>
<path fill="none" stroke="#242424" d="M438.9953,-1034.9675C447.5667,-964.559 478.8224,-707.8161 489.3283,-621.5174"/>
<polygon fill="#242424" stroke="#242424" points="492.8248,-621.7575 490.5591,-611.4078 485.8762,-620.9115 492.8248,-621.7575"/>
</g>
<!-- object/index.js -->
<g id="node16" class="node">
<title>object/index.js</title>
<polygon fill="none" stroke="#242424" stroke-width="4" points="752.8,-956 628.8,-956 628.8,-920 752.8,-920 752.8,-956"/>
<text text-anchor="middle" x="690.8" y="-935.6" font-family="Fira Code" font-size="12.00" fill="#242424">object/index.js</text>
</g>
<!-- index.js&#45;&gt;object/index.js -->
<g id="edge17" class="edge">
<title>index.js&#45;&gt;object/index.js</title>
<path fill="none" stroke="#242424" d="M473.4625,-1036.4008C517.732,-1016.3576 592.3647,-982.5672 641.6069,-960.2725"/>
<polygon fill="#242424" stroke="#242424" points="643.1303,-963.4248 650.7965,-956.1118 640.2431,-957.048 643.1303,-963.4248"/>
</g>
<!-- object/by&#45;keys&#45;or&#45;number.js -->
<g id="node19" class="node">
<title>object/by&#45;keys&#45;or&#45;number.js</title>
<polygon fill="none" stroke="#242424" stroke-width="4" points="730.2004,-841 519.3996,-841 519.3996,-805 730.2004,-805 730.2004,-841"/>
<text text-anchor="middle" x="624.8" y="-820.6" font-family="Fira Code" font-size="12.00" fill="#242424">object/by&#45;keys&#45;or&#45;number.js</text>
</g>
<!-- object/index.js&#45;&gt;object/by&#45;keys&#45;or&#45;number.js -->
<g id="edge30" class="edge">
<title>object/index.js&#45;&gt;object/by&#45;keys&#45;or&#45;number.js</title>
<path fill="none" stroke="#242424" d="M680.3421,-919.7779C669.5768,-901.0202 652.6808,-871.5802 640.3491,-850.0931"/>
<polygon fill="#242424" stroke="#242424" points="643.2222,-848.0678 635.209,-841.1368 637.151,-851.5522 643.2222,-848.0678"/>
</g>
<!-- object/by&#45;keys.js -->
<g id="node20" class="node">
<title>object/by&#45;keys.js</title>
<polygon fill="none" stroke="#242424" stroke-width="4" points="913.2006,-726 774.3994,-726 774.3994,-690 913.2006,-690 913.2006,-726"/>
<text text-anchor="middle" x="843.8" y="-705.6" font-family="Fira Code" font-size="12.00" fill="#242424">object/by&#45;keys.js</text>
</g>
<!-- object/index.js&#45;&gt;object/by&#45;keys.js -->
<g id="edge31" class="edge">
<title>object/index.js&#45;&gt;object/by&#45;keys.js</title>
<path fill="none" stroke="#242424" d="M702.8057,-919.9523C729.6088,-879.6599 794.4373,-782.2054 825.9747,-734.7962"/>
<polygon fill="#242424" stroke="#242424" points="829.0138,-736.5468 831.6384,-726.2821 823.1856,-732.6697 829.0138,-736.5468"/>
</g>
<!-- object/by&#45;number&#45;of&#45;keys.js -->
<g id="node21" class="node">
<title>object/by&#45;number&#45;of&#45;keys.js</title>
<polygon fill="none" stroke="#242424" stroke-width="4" points="757.2004,-726 546.3996,-726 546.3996,-690 757.2004,-690 757.2004,-726"/>
<text text-anchor="middle" x="651.8" y="-705.6" font-family="Fira Code" font-size="12.00" fill="#242424">object/by&#45;number&#45;of&#45;keys.js</text>
</g>
<!-- object/index.js&#45;&gt;object/by&#45;number&#45;of&#45;keys.js -->
<g id="edge32" class="edge">
<title>object/index.js&#45;&gt;object/by&#45;number&#45;of&#45;keys.js</title>
<path fill="none" stroke="#242424" d="M705.8029,-919.8483C725.1121,-894.1677 754.4196,-845.8084 738.8,-805 727.7349,-776.091 703.6423,-750.373 683.6103,-732.6943"/>
<polygon fill="#242424" stroke="#242424" points="685.7624,-729.9295 675.8876,-726.0904 681.2131,-735.2496 685.7624,-729.9295"/>
</g>
<!-- object/by&#45;condition.js -->
<g id="node17" class="node">
<title>object/by&#45;condition.js</title>
<polygon fill="none" stroke="#242424" stroke-width="4" points="739.2005,-611 564.3995,-611 564.3995,-575 739.2005,-575 739.2005,-611"/>
<text text-anchor="middle" x="651.8" y="-590.6" font-family="Fira Code" font-size="12.00" fill="#242424">object/by&#45;condition.js</text>
</g>
<!-- object/by&#45;condition.js&#45;&gt;curry/katsu.js -->
<g id="edge19" class="edge">
<title>object/by&#45;condition.js&#45;&gt;curry/katsu.js</title>
<path fill="none" stroke="#242424" d="M647.7766,-574.7347C633.7839,-509.2949 590.0977,-287.412 627.8,-230 662.056,-177.836 731.0214,-153.5883 783.4293,-142.4009"/>
<polygon fill="#242424" stroke="#242424" points="784.2342,-145.809 793.3422,-140.3966 782.8468,-138.9479 784.2342,-145.809"/>
</g>
<!-- object/by&#45;condition.js&#45;&gt;fp/pipe.js -->
<g id="edge20" class="edge">
<title>object/by&#45;condition.js&#45;&gt;fp/pipe.js</title>
<path fill="none" stroke="#242424" d="M644.7686,-574.597C634.6513,-548.618 614.9749,-499.9063 594.8,-460 582.4754,-435.6217 566.6055,-408.9303 554.7421,-389.7286"/>
<polygon fill="#242424" stroke="#242424" points="557.6937,-387.8472 549.4371,-381.2081 551.7514,-391.5471 557.6937,-387.8472"/>
</g>
<!-- utils/object.js -->
<g id="node18" class="node">
<title>utils/object.js</title>
<polygon fill="none" stroke="#242424" stroke-width="4" points="881.8,-381 757.8,-381 757.8,-345 881.8,-345 881.8,-381"/>
<text text-anchor="middle" x="819.8" y="-360.6" font-family="Fira Code" font-size="12.00" fill="#242424">utils/object.js</text>
</g>
<!-- object/by&#45;condition.js&#45;&gt;utils/object.js -->
<g id="edge21" class="edge">
<title>object/by&#45;condition.js&#45;&gt;utils/object.js</title>
<path fill="none" stroke="#242424" d="M664.9693,-574.9225C683.6165,-549.3301 718.789,-501.0749 748.8,-460 766.2815,-436.0738 786.2126,-408.8486 800.4982,-389.3444"/>
<polygon fill="#242424" stroke="#242424" points="803.3574,-391.364 806.4431,-381.2285 797.7103,-387.2275 803.3574,-391.364"/>
</g>
<!-- utils/object.js&#45;&gt;curry/katsu.js -->
<g id="edge46" class="edge">
<title>utils/object.js&#45;&gt;curry/katsu.js</title>
<path fill="none" stroke="#242424" d="M820.3148,-344.8347C821.2359,-319.1381 823.6798,-270.7598 829.8,-230 833.3264,-206.5144 839.4134,-180.2673 844.292,-161.0042"/>
<polygon fill="#242424" stroke="#242424" points="847.7424,-161.6404 846.854,-151.0829 840.9648,-159.8901 847.7424,-161.6404"/>
</g>
<!-- object/by&#45;keys&#45;or&#45;number.js&#45;&gt;object/by&#45;condition.js -->
<g id="edge22" class="edge">
<title>object/by&#45;keys&#45;or&#45;number.js&#45;&gt;object/by&#45;condition.js</title>
<path fill="none" stroke="#242424" d="M598.3765,-804.8567C565.9124,-780.1511 517.4863,-733.9564 537.8,-690 552.4424,-658.3155 583.102,-633.1766 608.9405,-616.437"/>
<polygon fill="#242424" stroke="#242424" points="610.8701,-619.3583 617.4881,-611.0847 607.1551,-613.4254 610.8701,-619.3583"/>
</g>
<!-- object/by&#45;keys&#45;or&#45;number.js&#45;&gt;object/by&#45;keys.js -->
<g id="edge23" class="edge">
<title>object/by&#45;keys&#45;or&#45;number.js&#45;&gt;object/by&#45;keys.js</title>
<path fill="none" stroke="#242424" d="M659.5012,-804.7779C697.6251,-784.7585 758.9207,-752.5713 800.2461,-730.8708"/>
<polygon fill="#242424" stroke="#242424" points="802.0348,-733.8848 809.2612,-726.1368 798.7804,-727.6873 802.0348,-733.8848"/>
</g>
<!-- object/by&#45;keys&#45;or&#45;number.js&#45;&gt;object/by&#45;number&#45;of&#45;keys.js -->
<g id="edge24" class="edge">
<title>object/by&#45;keys&#45;or&#45;number.js&#45;&gt;object/by&#45;number&#45;of&#45;keys.js</title>
<path fill="none" stroke="#242424" d="M629.0782,-804.7779C633.423,-786.2726 640.2087,-757.3704 645.2344,-735.9646"/>
<polygon fill="#242424" stroke="#242424" points="648.6634,-736.6721 647.5418,-726.1368 641.8487,-735.0721 648.6634,-736.6721"/>
</g>
<!-- object/by&#45;keys.js&#45;&gt;object/by&#45;condition.js -->
<g id="edge25" class="edge">
<title>object/by&#45;keys.js&#45;&gt;object/by&#45;condition.js</title>
<path fill="none" stroke="#242424" d="M813.377,-689.7779C780.2342,-669.9267 727.1165,-638.1114 690.9013,-616.42"/>
<polygon fill="#242424" stroke="#242424" points="692.458,-613.2727 682.0806,-611.1368 688.8611,-619.2779 692.458,-613.2727"/>
</g>
<!-- utils/length.js -->
<g id="node22" class="node">
<title>utils/length.js</title>
<polygon fill="none" stroke="#242424" stroke-width="4" points="881.8,-496 757.8,-496 757.8,-460 881.8,-460 881.8,-496"/>
<text text-anchor="middle" x="819.8" y="-475.6" font-family="Fira Code" font-size="12.00" fill="#242424">utils/length.js</text>
</g>
<!-- object/by&#45;keys.js&#45;&gt;utils/length.js -->
<g id="edge26" class="edge">
<title>object/by&#45;keys.js&#45;&gt;utils/length.js</title>
<path fill="none" stroke="#242424" d="M841.9168,-689.9523C837.756,-650.0788 827.7539,-554.2253 822.7521,-506.2908"/>
<polygon fill="#242424" stroke="#242424" points="826.2267,-505.8649 821.7077,-496.2821 819.2645,-506.5914 826.2267,-505.8649"/>
</g>
<!-- utils/matching&#45;key&#45;count.js -->
<g id="node23" class="node">
<title>utils/matching&#45;key&#45;count.js</title>
<polygon fill="none" stroke="#242424" stroke-width="4" points="1058.2004,-611 847.3996,-611 847.3996,-575 1058.2004,-575 1058.2004,-611"/>
<text text-anchor="middle" x="952.8" y="-590.6" font-family="Fira Code" font-size="12.00" fill="#242424">utils/matching&#45;key&#45;count.js</text>
</g>
<!-- object/by&#45;keys.js&#45;&gt;utils/matching&#45;key&#45;count.js -->
<g id="edge27" class="edge">
<title>object/by&#45;keys.js&#45;&gt;utils/matching&#45;key&#45;count.js</title>
<path fill="none" stroke="#242424" d="M861.0714,-689.7779C879.249,-670.5997 908.0108,-640.2546 928.4788,-618.66"/>
<polygon fill="#242424" stroke="#242424" points="931.2705,-620.8025 935.6094,-611.1368 926.1899,-615.987 931.2705,-620.8025"/>
</g>
<!-- object/by&#45;number&#45;of&#45;keys.js&#45;&gt;object/by&#45;condition.js -->
<g id="edge28" class="edge">
<title>object/by&#45;number&#45;of&#45;keys.js&#45;&gt;object/by&#45;condition.js</title>
<path fill="none" stroke="#242424" d="M651.8,-689.7779C651.8,-671.3567 651.8,-642.6329 651.8,-621.2569"/>
<polygon fill="#242424" stroke="#242424" points="655.3001,-621.1368 651.8,-611.1368 648.3001,-621.1369 655.3001,-621.1368"/>
</g>
<!-- object/by&#45;number&#45;of&#45;keys.js&#45;&gt;utils/length.js -->
<g id="edge29" class="edge">
<title>object/by&#45;number&#45;of&#45;keys.js&#45;&gt;utils/length.js</title>
<path fill="none" stroke="#242424" d="M673.0369,-689.8068C693.7595,-671.3478 725.3567,-641.2573 747.8,-611 772.9867,-577.0441 794.9734,-533.1878 807.8216,-505.318"/>
<polygon fill="#242424" stroke="#242424" points="811.0281,-506.7217 811.9753,-496.1693 804.6542,-503.8278 811.0281,-506.7217"/>
</g>
<!-- utils/length.js&#45;&gt;fp/pipe.js -->
<g id="edge35" class="edge">
<title>utils/length.js&#45;&gt;fp/pipe.js</title>
<path fill="none" stroke="#242424" d="M775.4273,-459.9047C725.5314,-439.5571 644.5303,-406.5248 591.2068,-384.7794"/>
<polygon fill="#242424" stroke="#242424" points="592.4953,-381.525 581.9139,-380.9897 589.8519,-388.0068 592.4953,-381.525"/>
</g>
<!-- utils/length.js&#45;&gt;utils/object.js -->
<g id="edge36" class="edge">
<title>utils/length.js&#45;&gt;utils/object.js</title>
<path fill="none" stroke="#242424" d="M819.8,-459.7779C819.8,-441.3567 819.8,-412.6329 819.8,-391.2569"/>
<polygon fill="#242424" stroke="#242424" points="823.3001,-391.1368 819.8,-381.1368 816.3001,-391.1369 823.3001,-391.1368"/>
</g>
<!-- utils/prop.js -->
<g id="node27" class="node">
<title>utils/prop.js</title>
<polygon fill="none" stroke="#242424" stroke-width="4" points="948.4007,-266 839.1993,-266 839.1993,-230 948.4007,-230 948.4007,-266"/>
<text text-anchor="middle" x="893.8" y="-245.6" font-family="Fira Code" font-size="12.00" fill="#242424">utils/prop.js</text>
</g>
<!-- utils/length.js&#45;&gt;utils/prop.js -->
<g id="edge37" class="edge">
<title>utils/length.js&#45;&gt;utils/prop.js</title>
<path fill="none" stroke="#242424" d="M838.3889,-459.9659C855.6408,-441.8554 880.2024,-412.2243 890.8,-381 902.5301,-346.439 900.9218,-303.8681 897.9726,-276.3449"/>
<polygon fill="#242424" stroke="#242424" points="901.4256,-275.7437 896.7553,-266.2337 894.4757,-276.5804 901.4256,-275.7437"/>
</g>
<!-- utils/matching&#45;key&#45;count.js&#45;&gt;curry/katsu.js -->
<g id="edge38" class="edge">
<title>utils/matching&#45;key&#45;count.js&#45;&gt;curry/katsu.js</title>
<path fill="none" stroke="#242424" d="M1014.6803,-574.8647C1052.5908,-560.1973 1098.067,-535.3758 1120.8,-496 1137.1933,-467.6052 1211.9871,-367.5146 1112.8,-230 1089.6539,-197.9099 989.3874,-167.1969 920.0941,-149.2213"/>
<polygon fill="#242424" stroke="#242424" points="920.6639,-145.7543 910.1081,-146.663 918.9266,-152.5353 920.6639,-145.7543"/>
</g>
<!-- utils/matching&#45;key&#45;count.js&#45;&gt;fp/pipe.js -->
<g id="edge39" class="edge">
<title>utils/matching&#45;key&#45;count.js&#45;&gt;fp/pipe.js</title>
<path fill="none" stroke="#242424" d="M949.3439,-574.5341C942.973,-545.7222 926.611,-490.2474 890.8,-460 867.757,-440.5369 684.7827,-396.6011 591.7373,-375.1896"/>
<polygon fill="#242424" stroke="#242424" points="592.466,-371.766 581.9366,-372.9411 590.9007,-378.5887 592.466,-371.766"/>
</g>
<!-- utils/matching&#45;key&#45;count.js&#45;&gt;utils/length.js -->
<g id="edge40" class="edge">
<title>utils/matching&#45;key&#45;count.js&#45;&gt;utils/length.js</title>
<path fill="none" stroke="#242424" d="M931.7258,-574.7779C909.2538,-555.3473 873.5252,-524.4542 848.4958,-502.8121"/>
<polygon fill="#242424" stroke="#242424" points="850.6293,-500.03 840.7756,-496.1368 846.0508,-505.3251 850.6293,-500.03"/>
</g>
<!-- utils/matching&#45;keys.js -->
<g id="node28" class="node">
<title>utils/matching&#45;keys.js</title>
<polygon fill="none" stroke="#242424" stroke-width="4" points="1112.2005,-496 937.3995,-496 937.3995,-460 1112.2005,-460 1112.2005,-496"/>
<text text-anchor="middle" x="1024.8" y="-475.6" font-family="Fira Code" font-size="12.00" fill="#242424">utils/matching&#45;keys.js</text>
</g>
<!-- utils/matching&#45;key&#45;count.js&#45;&gt;utils/matching&#45;keys.js -->
<g id="edge41" class="edge">
<title>utils/matching&#45;key&#45;count.js&#45;&gt;utils/matching&#45;keys.js</title>
<path fill="none" stroke="#242424" d="M964.2086,-574.7779C976.0052,-555.9361 994.55,-526.3159 1008.018,-504.8045"/>
<polygon fill="#242424" stroke="#242424" points="1011.1047,-506.47 1013.4448,-496.1368 1005.1716,-502.7554 1011.1047,-506.47"/>
</g>
<!-- performance.fixture.js -->
<g id="node24" class="node">
<title>performance.fixture.js</title>
<polygon fill="none" stroke="#0c821d" stroke-width="4" points="1110.2005,-900 935.3995,-900 935.3995,-864 1110.2005,-864 1110.2005,-900"/>
<text text-anchor="middle" x="1022.8" y="-879.6" font-family="Fira Code" font-size="12.00" fill="#0c821d">performance.fixture.js</text>
</g>
<!-- performance2.fixture.js -->
<g id="node25" class="node">
<title>performance2.fixture.js</title>
<polygon fill="none" stroke="#0c821d" stroke-width="4" points="397.4004,-756 216.1996,-756 216.1996,-720 397.4004,-720 397.4004,-756"/>
<text text-anchor="middle" x="306.8" y="-735.6" font-family="Fira Code" font-size="12.00" fill="#0c821d">performance2.fixture.js</text>
</g>
<!-- utils/array.js -->
<g id="node26" class="node">
<title>utils/array.js</title>
<polygon fill="none" stroke="#242424" stroke-width="4" points="1083.1002,-266 966.4998,-266 966.4998,-230 1083.1002,-230 1083.1002,-266"/>
<text text-anchor="middle" x="1024.8" y="-245.6" font-family="Fira Code" font-size="12.00" fill="#242424">utils/array.js</text>
</g>
<!-- utils/array.js&#45;&gt;curry/katsu.js -->
<g id="edge33" class="edge">
<title>utils/array.js&#45;&gt;curry/katsu.js</title>
<path fill="none" stroke="#242424" d="M997.3876,-229.7779C967.6511,-210.0108 920.0686,-178.3808 887.4475,-156.6963"/>
<polygon fill="#242424" stroke="#242424" points="889.3496,-153.758 879.0841,-151.1368 885.4745,-159.5875 889.3496,-153.758"/>
</g>
<!-- utils/prop.js&#45;&gt;curry/katsu.js -->
<g id="edge47" class="edge">
<title>utils/prop.js&#45;&gt;curry/katsu.js</title>
<path fill="none" stroke="#242424" d="M887.145,-229.7779C880.3558,-211.1885 869.7349,-182.1074 861.9067,-160.6731"/>
<polygon fill="#242424" stroke="#242424" points="865.1421,-159.3293 858.4239,-151.1368 858.5669,-161.7307 865.1421,-159.3293"/>
</g>
<!-- utils/matching&#45;keys.js&#45;&gt;curry/katsu.js -->
<g id="edge42" class="edge">
<title>utils/matching&#45;keys.js&#45;&gt;curry/katsu.js</title>
<path fill="none" stroke="#242424" d="M1038.9719,-459.8439C1070.9843,-416.4709 1142.298,-304.8761 1091.8,-230 1053.7531,-173.5858 976.7584,-149.9721 920.1955,-140.0936"/>
<polygon fill="#242424" stroke="#242424" points="920.6761,-136.6257 910.241,-138.4587 919.5416,-143.5332 920.6761,-136.6257"/>
</g>
<!-- utils/matching&#45;keys.js&#45;&gt;fp/filter.js -->
<g id="edge43" class="edge">
<title>utils/matching&#45;keys.js&#45;&gt;fp/filter.js</title>
<path fill="none" stroke="#242424" d="M971.9304,-459.9047C911.6361,-439.2683 813.2205,-405.5844 749.7481,-383.8602"/>
<polygon fill="#242424" stroke="#242424" points="750.8538,-380.5394 740.2592,-380.6125 748.587,-387.1622 750.8538,-380.5394"/>
</g>
<!-- utils/matching&#45;keys.js&#45;&gt;utils/object.js -->
<g id="edge45" class="edge">
<title>utils/matching&#45;keys.js&#45;&gt;utils/object.js</title>
<path fill="none" stroke="#242424" d="M992.3171,-459.7779C956.7803,-439.8426 899.735,-407.8416 861.0582,-386.1448"/>
<polygon fill="#242424" stroke="#242424" points="862.5647,-382.9769 852.1309,-381.1368 859.1399,-389.0819 862.5647,-382.9769"/>
</g>
<!-- utils/matching&#45;keys.js&#45;&gt;utils/array.js -->
<g id="edge44" class="edge">
<title>utils/matching&#45;keys.js&#45;&gt;utils/array.js</title>
<path fill="none" stroke="#242424" d="M1024.8,-459.9523C1024.8,-420.0788 1024.8,-324.2253 1024.8,-276.2908"/>
<polygon fill="#242424" stroke="#242424" points="1028.3001,-276.2821 1024.8,-266.2821 1021.3001,-276.2822 1028.3001,-276.2821"/>
</g>
</g>
</svg>
