<?xml version="1.0" encoding="UTF-8" standalone="no"?>
<!DOCTYPE svg PUBLIC "-//W3C//DTD SVG 1.1//EN"
 "http://www.w3.org/Graphics/SVG/1.1/DTD/svg11.dtd">
<!-- Generated by graphviz version 2.40.1 (20161225.0304)
 -->
<!-- Title: G Pages: 1 -->
<svg width="2035pt" height="1276pt"
 viewBox="0.00 0.00 2034.98 1275.98" xmlns="http://www.w3.org/2000/svg" xmlns:xlink="http://www.w3.org/1999/xlink">
<g id="graph0" class="graph" transform="scale(1 1) rotate(0) translate(7.992 1267.992)">
<title>G</title>
<polygon fill="#eeeeff" stroke="transparent" points="-7.992,7.992 -7.992,-1267.992 2026.992,-1267.992 2026.992,7.992 -7.992,7.992"/>
<!-- ../package.json -->
<g id="node1" class="node">
<title>../package.json</title>
<polygon fill="none" stroke="#0c821d" stroke-width="4" points="1653,-1145 1529,-1145 1529,-1109 1653,-1109 1653,-1145"/>
<text text-anchor="middle" x="1591" y="-1124.6" font-family="Fira Code" font-size="12.00" fill="#0c821d">../package.json</text>
</g>
<!-- benchmark.fixture.js -->
<g id="node2" class="node">
<title>benchmark.fixture.js</title>
<polygon fill="none" stroke="#0c821d" stroke-width="4" points="604,-110 444,-110 444,-74 604,-74 604,-110"/>
<text text-anchor="middle" x="524" y="-89.6" font-family="Fira Code" font-size="12.00" fill="#0c821d">benchmark.fixture.js</text>
</g>
<!-- combinators/constant.js -->
<g id="node3" class="node">
<title>combinators/constant.js</title>
<polygon fill="none" stroke="#0c821d" stroke-width="4" points="1790.6004,-915 1609.3996,-915 1609.3996,-879 1790.6004,-879 1790.6004,-915"/>
<text text-anchor="middle" x="1700" y="-894.6" font-family="Fira Code" font-size="12.00" fill="#0c821d">combinators/constant.js</text>
</g>
<!-- combinators/identity.js -->
<g id="node4" class="node">
<title>combinators/identity.js</title>
<polygon fill="none" stroke="#0c821d" stroke-width="4" points="1990.6004,-915 1809.3996,-915 1809.3996,-879 1990.6004,-879 1990.6004,-915"/>
<text text-anchor="middle" x="1900" y="-894.6" font-family="Fira Code" font-size="12.00" fill="#0c821d">combinators/identity.js</text>
</g>
<!-- combinators/index.js -->
<g id="node5" class="node">
<title>combinators/index.js</title>
<polygon fill="none" stroke="#242424" stroke-width="4" points="1775,-1030 1615,-1030 1615,-994 1775,-994 1775,-1030"/>
<text text-anchor="middle" x="1695" y="-1009.6" font-family="Fira Code" font-size="12.00" fill="#242424">combinators/index.js</text>
</g>
<!-- combinators/index.js&#45;&gt;combinators/constant.js -->
<g id="edge1" class="edge">
<title>combinators/index.js&#45;&gt;combinators/constant.js</title>
<path fill="none" stroke="#242424" d="M1695.7923,-993.7779C1696.5932,-975.3567 1697.842,-946.6329 1698.7714,-925.2569"/>
<polygon fill="#242424" stroke="#242424" points="1702.2737,-925.2795 1699.2114,-915.1368 1695.2803,-924.9753 1702.2737,-925.2795"/>
</g>
<!-- combinators/index.js&#45;&gt;combinators/identity.js -->
<g id="edge2" class="edge">
<title>combinators/index.js&#45;&gt;combinators/identity.js</title>
<path fill="none" stroke="#242424" d="M1727.4829,-993.7779C1763.0197,-973.8426 1820.065,-941.8416 1858.7418,-920.1448"/>
<polygon fill="#242424" stroke="#242424" points="1860.6601,-923.0819 1867.6691,-915.1368 1857.2353,-916.9769 1860.6601,-923.0819"/>
</g>
<!-- debug/fp.js -->
<g id="node6" class="node">
<title>debug/fp.js</title>
<polygon fill="none" stroke="#242424" stroke-width="4" points="1476.7002,-685 1381.2998,-685 1381.2998,-649 1476.7002,-649 1476.7002,-685"/>
<text text-anchor="middle" x="1429" y="-664.6" font-family="Fira Code" font-size="12.00" fill="#242424">debug/fp.js</text>
</g>
<!-- debug/to&#45;string&#45;composition.js -->
<g id="node7" class="node">
<title>debug/to&#45;string&#45;composition.js</title>
<polygon fill="none" stroke="#0c821d" stroke-width="4" points="1477,-570 1245,-570 1245,-534 1477,-534 1477,-570"/>
<text text-anchor="middle" x="1361" y="-549.6" font-family="Fira Code" font-size="12.00" fill="#0c821d">debug/to&#45;string&#45;composition.js</text>
</g>
<!-- debug/fp.js&#45;&gt;debug/to&#45;string&#45;composition.js -->
<g id="edge3" class="edge">
<title>debug/fp.js&#45;&gt;debug/to&#45;string&#45;composition.js</title>
<path fill="none" stroke="#242424" d="M1418.2252,-648.7779C1407.084,-629.9361 1389.5694,-600.3159 1376.8496,-578.8045"/>
<polygon fill="#242424" stroke="#242424" points="1379.827,-576.9632 1371.7244,-570.1368 1373.8015,-580.5261 1379.827,-576.9632"/>
</g>
<!-- fp/filter.js -->
<g id="node8" class="node">
<title>fp/filter.js</title>
<polygon fill="none" stroke="#242424" stroke-width="4" points="1174.4008,-570 1071.5992,-570 1071.5992,-534 1174.4008,-534 1174.4008,-570"/>
<text text-anchor="middle" x="1123" y="-549.6" font-family="Fira Code" font-size="12.00" fill="#242424">fp/filter.js</text>
</g>
<!-- debug/fp.js&#45;&gt;fp/filter.js -->
<g id="edge4" class="edge">
<title>debug/fp.js&#45;&gt;fp/filter.js</title>
<path fill="none" stroke="#242424" d="M1381.1875,-649.0313C1326.8912,-628.6258 1238.3397,-595.3466 1180.3672,-573.5596"/>
<polygon fill="#242424" stroke="#242424" points="1181.5728,-570.2737 1170.9807,-570.032 1179.1102,-576.8262 1181.5728,-570.2737"/>
</g>
<!-- fp/pipe.js -->
<g id="node9" class="node">
<title>fp/pipe.js</title>
<polygon fill="none" stroke="#0c821d" stroke-width="4" points="1035,-570 947,-570 947,-534 1035,-534 1035,-570"/>
<text text-anchor="middle" x="991" y="-549.6" font-family="Fira Code" font-size="12.00" fill="#0c821d">fp/pipe.js</text>
</g>
<!-- debug/fp.js&#45;&gt;fp/pipe.js -->
<g id="edge5" class="edge">
<title>debug/fp.js&#45;&gt;fp/pipe.js</title>
<path fill="none" stroke="#242424" d="M1381.0989,-651.3866C1378.364,-650.5627 1375.65,-649.7615 1373,-649 1341.4808,-639.9422 1142.932,-590.0501 1045.2035,-565.5643"/>
<polygon fill="#242424" stroke="#242424" points="1045.7694,-562.098 1035.2186,-563.0631 1044.0684,-568.8882 1045.7694,-562.098"/>
</g>
<!-- utils/delegatee.js -->
<g id="node21" class="node">
<title>utils/delegatee.js</title>
<polygon fill="none" stroke="#242424" stroke-width="4" points="1127.6005,-455 982.3995,-455 982.3995,-419 1127.6005,-419 1127.6005,-455"/>
<text text-anchor="middle" x="1055" y="-434.6" font-family="Fira Code" font-size="12.00" fill="#242424">utils/delegatee.js</text>
</g>
<!-- fp/filter.js&#45;&gt;utils/delegatee.js -->
<g id="edge22" class="edge">
<title>fp/filter.js&#45;&gt;utils/delegatee.js</title>
<path fill="none" stroke="#242424" d="M1112.2252,-533.7779C1101.084,-514.9361 1083.5694,-485.3159 1070.8496,-463.8045"/>
<polygon fill="#242424" stroke="#242424" points="1073.827,-461.9632 1065.7244,-455.1368 1067.8015,-465.5261 1073.827,-461.9632"/>
</g>
<!-- debug/index.js -->
<g id="node10" class="node">
<title>debug/index.js</title>
<polygon fill="none" stroke="#242424" stroke-width="4" points="1511.3002,-1145 1394.6998,-1145 1394.6998,-1109 1511.3002,-1109 1511.3002,-1145"/>
<text text-anchor="middle" x="1453" y="-1124.6" font-family="Fira Code" font-size="12.00" fill="#242424">debug/index.js</text>
</g>
<!-- debug/index.js&#45;&gt;combinators/index.js -->
<g id="edge6" class="edge">
<title>debug/index.js&#45;&gt;combinators/index.js</title>
<path fill="none" stroke="#242424" d="M1491.0787,-1108.9047C1533.418,-1088.7848 1601.8564,-1056.2624 1647.6237,-1034.5135"/>
<polygon fill="#242424" stroke="#242424" points="1649.2143,-1037.6328 1656.7441,-1030.1794 1646.2098,-1031.3104 1649.2143,-1037.6328"/>
</g>
<!-- debug/index.js&#45;&gt;debug/fp.js -->
<g id="edge7" class="edge">
<title>debug/index.js&#45;&gt;debug/fp.js</title>
<path fill="none" stroke="#242424" d="M1459.0708,-1108.8561C1476.1187,-1055.1216 1520.9697,-892.5338 1486,-764 1478.9615,-738.1296 1463.084,-712.1152 1449.8696,-693.5487"/>
<polygon fill="#242424" stroke="#242424" points="1452.5717,-691.3147 1443.8373,-685.318 1446.9257,-695.4527 1452.5717,-691.3147"/>
</g>
<!-- debug/object.js -->
<g id="node11" class="node">
<title>debug/object.js</title>
<polygon fill="none" stroke="#242424" stroke-width="4" points="1353,-1030 1229,-1030 1229,-994 1353,-994 1353,-1030"/>
<text text-anchor="middle" x="1291" y="-1009.6" font-family="Fira Code" font-size="12.00" fill="#242424">debug/object.js</text>
</g>
<!-- debug/index.js&#45;&gt;debug/object.js -->
<g id="edge8" class="edge">
<title>debug/index.js&#45;&gt;debug/object.js</title>
<path fill="none" stroke="#242424" d="M1427.3306,-1108.7779C1399.6033,-1089.095 1355.3067,-1057.6498 1324.7716,-1035.9737"/>
<polygon fill="#242424" stroke="#242424" points="1326.7296,-1033.0714 1316.5493,-1030.1368 1322.6776,-1038.7794 1326.7296,-1033.0714"/>
</g>
<!-- debug/params.js -->
<g id="node12" class="node">
<title>debug/params.js</title>
<polygon fill="none" stroke="#242424" stroke-width="4" points="1477,-800 1353,-800 1353,-764 1477,-764 1477,-800"/>
<text text-anchor="middle" x="1415" y="-779.6" font-family="Fira Code" font-size="12.00" fill="#242424">debug/params.js</text>
</g>
<!-- debug/index.js&#45;&gt;debug/params.js -->
<g id="edge9" class="edge">
<title>debug/index.js&#45;&gt;debug/params.js</title>
<path fill="none" stroke="#242424" d="M1451.0105,-1108.937C1444.7919,-1052.4787 1425.686,-879.0177 1418.1261,-810.382"/>
<polygon fill="#242424" stroke="#242424" points="1421.5896,-809.857 1417.0157,-800.3004 1414.6316,-810.6235 1421.5896,-809.857"/>
</g>
<!-- placeholder/index.js -->
<g id="node13" class="node">
<title>placeholder/index.js</title>
<polygon fill="none" stroke="#242424" stroke-width="4" points="1680,-225 1520,-225 1520,-189 1680,-189 1680,-225"/>
<text text-anchor="middle" x="1600" y="-204.6" font-family="Fira Code" font-size="12.00" fill="#242424">placeholder/index.js</text>
</g>
<!-- debug/index.js&#45;&gt;placeholder/index.js -->
<g id="edge10" class="edge">
<title>debug/index.js&#45;&gt;placeholder/index.js</title>
<path fill="none" stroke="#242424" d="M1462.4005,-1108.698C1497.5168,-1038.576 1619,-779.5479 1619,-552 1619,-552 1619,-552 1619,-437 1619,-364.0507 1609.3894,-278.527 1603.8385,-235.2145"/>
<polygon fill="#242424" stroke="#242424" points="1607.2891,-234.6079 1602.5231,-225.1456 1600.3481,-235.5148 1607.2891,-234.6079"/>
</g>
<!-- debug/to&#45;string.js -->
<g id="node14" class="node">
<title>debug/to&#45;string.js</title>
<polygon fill="none" stroke="#242424" stroke-width="4" points="1363.6005,-685 1218.3995,-685 1218.3995,-649 1363.6005,-649 1363.6005,-685"/>
<text text-anchor="middle" x="1291" y="-664.6" font-family="Fira Code" font-size="12.00" fill="#242424">debug/to&#45;string.js</text>
</g>
<!-- debug/object.js&#45;&gt;debug/to&#45;string.js -->
<g id="edge11" class="edge">
<title>debug/object.js&#45;&gt;debug/to&#45;string.js</title>
<path fill="none" stroke="#242424" d="M1291,-993.937C1291,-937.4787 1291,-764.0177 1291,-695.382"/>
<polygon fill="#242424" stroke="#242424" points="1294.5001,-695.3003 1291,-685.3004 1287.5001,-695.3004 1294.5001,-695.3003"/>
</g>
<!-- object/by&#45;keys.js -->
<g id="node15" class="node">
<title>object/by&#45;keys.js</title>
<polygon fill="none" stroke="#242424" stroke-width="4" points="903.4006,-915 764.5994,-915 764.5994,-879 903.4006,-879 903.4006,-915"/>
<text text-anchor="middle" x="834" y="-894.6" font-family="Fira Code" font-size="12.00" fill="#242424">object/by&#45;keys.js</text>
</g>
<!-- debug/object.js&#45;&gt;object/by&#45;keys.js -->
<g id="edge12" class="edge">
<title>debug/object.js&#45;&gt;object/by&#45;keys.js</title>
<path fill="none" stroke="#242424" d="M1228.8913,-996.3709C1147.0316,-975.7716 1002.9444,-939.5134 913.2974,-916.9545"/>
<polygon fill="#242424" stroke="#242424" points="914.003,-913.523 903.4512,-914.4768 912.2947,-920.3114 914.003,-913.523"/>
</g>
<!-- params/curry.js -->
<g id="node16" class="node">
<title>params/curry.js</title>
<polygon fill="none" stroke="#242424" stroke-width="4" points="658,-340 534,-340 534,-304 658,-304 658,-340"/>
<text text-anchor="middle" x="596" y="-319.6" font-family="Fira Code" font-size="12.00" fill="#242424">params/curry.js</text>
</g>
<!-- debug/object.js&#45;&gt;params/curry.js -->
<g id="edge13" class="edge">
<title>debug/object.js&#45;&gt;params/curry.js</title>
<path fill="none" stroke="#242424" d="M1327.7879,-993.9047C1388.9737,-960.9178 1505,-884.8108 1505,-782 1505,-782 1505,-782 1505,-552 1505,-379.7248 883.6219,-335.0966 668.366,-324.8051"/>
<polygon fill="#242424" stroke="#242424" points="668.2739,-321.297 658.1215,-324.3266 667.9473,-328.2894 668.2739,-321.297"/>
</g>
<!-- utils/length.js -->
<g id="node17" class="node">
<title>utils/length.js</title>
<polygon fill="none" stroke="#242424" stroke-width="4" points="920,-685 796,-685 796,-649 920,-649 920,-685"/>
<text text-anchor="middle" x="858" y="-664.6" font-family="Fira Code" font-size="12.00" fill="#242424">utils/length.js</text>
</g>
<!-- debug/object.js&#45;&gt;utils/length.js -->
<g id="edge14" class="edge">
<title>debug/object.js&#45;&gt;utils/length.js</title>
<path fill="none" stroke="#242424" d="M1268.3297,-993.937C1196.074,-936.3661 971.1272,-757.136 888.6843,-691.4483"/>
<polygon fill="#242424" stroke="#242424" points="890.7085,-688.5859 880.7064,-685.0917 886.3464,-694.0606 890.7085,-688.5859"/>
</g>
<!-- debug/params.js&#45;&gt;placeholder/index.js -->
<g id="edge18" class="edge">
<title>debug/params.js&#45;&gt;placeholder/index.js</title>
<path fill="none" stroke="#242424" d="M1457.9916,-763.9241C1490.4413,-747.9852 1533.2941,-721.5793 1557,-685 1589.6667,-634.5938 1581,-612.0658 1581,-552 1581,-552 1581,-552 1581,-437 1581,-364.0507 1590.6106,-278.527 1596.1615,-235.2145"/>
<polygon fill="#242424" stroke="#242424" points="1599.6519,-235.5148 1597.4769,-225.1456 1592.7109,-234.6079 1599.6519,-235.5148"/>
</g>
<!-- debug/params.js&#45;&gt;debug/to&#45;string.js -->
<g id="edge16" class="edge">
<title>debug/params.js&#45;&gt;debug/to&#45;string.js</title>
<path fill="none" stroke="#242424" d="M1395.3518,-763.7779C1374.4913,-744.4314 1341.3779,-713.7214 1318.0576,-692.0937"/>
<polygon fill="#242424" stroke="#242424" points="1320.2684,-689.3706 1310.5562,-685.1368 1315.5084,-694.5031 1320.2684,-689.3706"/>
</g>
<!-- Ⓜ fast.js/array/some.js -->
<g id="node18" class="node">
<title>Ⓜ fast.js/array/some.js</title>
<polygon fill="none" stroke="#0c821d" stroke-width="4" points="689.4004,-225 502.5996,-225 502.5996,-189 689.4004,-189 689.4004,-225"/>
<text text-anchor="middle" x="596" y="-205.8" font-family="Fira Code" font-size="12.00" fill="#0c821d">Ⓜ fast.js/array/some.js</text>
</g>
<!-- debug/params.js&#45;&gt;Ⓜ fast.js/array/some.js -->
<g id="edge15" class="edge">
<title>debug/params.js&#45;&gt;Ⓜ fast.js/array/some.js</title>
<path fill="none" stroke="#242424" d="M1433.6123,-763.9448C1469.1128,-727.4711 1543,-640.882 1543,-552 1543,-552 1543,-552 1543,-437 1543,-264.909 945.0005,-221.0845 699.4011,-210.3425"/>
<polygon fill="#242424" stroke="#242424" points="699.5341,-206.8451 689.3937,-209.9147 699.235,-213.8387 699.5341,-206.8451"/>
</g>
<!-- params/remap.js -->
<g id="node19" class="node">
<title>params/remap.js</title>
<polygon fill="none" stroke="#242424" stroke-width="4" points="356,-685 232,-685 232,-649 356,-649 356,-685"/>
<text text-anchor="middle" x="294" y="-664.6" font-family="Fira Code" font-size="12.00" fill="#242424">params/remap.js</text>
</g>
<!-- debug/params.js&#45;&gt;params/remap.js -->
<g id="edge17" class="edge">
<title>debug/params.js&#45;&gt;params/remap.js</title>
<path fill="none" stroke="#242424" d="M1352.7064,-776.5905C1162.1434,-759.9534 588.7392,-709.2092 403,-685 391.1131,-683.4507 378.5335,-681.585 366.3078,-679.6497"/>
<polygon fill="#242424" stroke="#242424" points="366.5738,-676.1475 356.1445,-678.0131 365.4609,-683.0585 366.5738,-676.1475"/>
</g>
<!-- placeholder/constant.js -->
<g id="node33" class="node">
<title>placeholder/constant.js</title>
<polygon fill="none" stroke="#0c821d" stroke-width="4" points="1690.6004,-110 1509.3996,-110 1509.3996,-74 1690.6004,-74 1690.6004,-110"/>
<text text-anchor="middle" x="1600" y="-89.6" font-family="Fira Code" font-size="12.00" fill="#0c821d">placeholder/constant.js</text>
</g>
<!-- placeholder/index.js&#45;&gt;placeholder/constant.js -->
<g id="edge51" class="edge">
<title>placeholder/index.js&#45;&gt;placeholder/constant.js</title>
<path fill="none" stroke="#242424" d="M1600,-188.7779C1600,-170.3567 1600,-141.6329 1600,-120.2569"/>
<polygon fill="#242424" stroke="#242424" points="1603.5001,-120.1368 1600,-110.1368 1596.5001,-120.1369 1603.5001,-120.1368"/>
</g>
<!-- debug/to&#45;string.js&#45;&gt;fp/pipe.js -->
<g id="edge19" class="edge">
<title>debug/to&#45;string.js&#45;&gt;fp/pipe.js</title>
<path fill="none" stroke="#242424" d="M1243.795,-648.9047C1189.6685,-628.1562 1101.1345,-594.2182 1044.4975,-572.5074"/>
<polygon fill="#242424" stroke="#242424" points="1045.5913,-569.1784 1035.0011,-568.8671 1043.0857,-575.7146 1045.5913,-569.1784"/>
</g>
<!-- debug/to&#45;string.js&#45;&gt;params/curry.js -->
<g id="edge20" class="edge">
<title>debug/to&#45;string.js&#45;&gt;params/curry.js</title>
<path fill="none" stroke="#242424" d="M1280.8856,-648.8766C1250.252,-594.2612 1159.2261,-434.0838 1137,-419 1061.6636,-367.8725 798.023,-339.069 668.679,-327.7176"/>
<polygon fill="#242424" stroke="#242424" points="668.7372,-324.2097 658.4725,-326.8337 668.1331,-331.1836 668.7372,-324.2097"/>
</g>
<!-- object/by&#45;keys.js&#45;&gt;params/curry.js -->
<g id="edge39" class="edge">
<title>object/by&#45;keys.js&#45;&gt;params/curry.js</title>
<path fill="none" stroke="#242424" d="M764.6692,-891.2952C605.7161,-877.5664 225.5246,-840.7874 185,-800 142.9145,-757.6415 166,-726.7112 166,-667 166,-667 166,-667 166,-552 166,-391.631 401.4302,-342.6613 523.8819,-328.0371"/>
<polygon fill="#242424" stroke="#242424" points="524.3979,-331.501 533.9335,-326.8835 523.5996,-324.5466 524.3979,-331.501"/>
</g>
<!-- utils/matching&#45;key&#45;count.js -->
<g id="node30" class="node">
<title>utils/matching&#45;key&#45;count.js</title>
<polygon fill="none" stroke="#242424" stroke-width="4" points="939.4004,-800 728.5996,-800 728.5996,-764 939.4004,-764 939.4004,-800"/>
<text text-anchor="middle" x="834" y="-779.6" font-family="Fira Code" font-size="12.00" fill="#242424">utils/matching&#45;key&#45;count.js</text>
</g>
<!-- object/by&#45;keys.js&#45;&gt;utils/matching&#45;key&#45;count.js -->
<g id="edge40" class="edge">
<title>object/by&#45;keys.js&#45;&gt;utils/matching&#45;key&#45;count.js</title>
<path fill="none" stroke="#242424" d="M834,-878.7779C834,-860.3567 834,-831.6329 834,-810.2569"/>
<polygon fill="#242424" stroke="#242424" points="837.5001,-810.1368 834,-800.1368 830.5001,-810.1369 837.5001,-810.1368"/>
</g>
<!-- params/curry.js&#45;&gt;placeholder/index.js -->
<g id="edge45" class="edge">
<title>params/curry.js&#45;&gt;placeholder/index.js</title>
<path fill="none" stroke="#242424" d="M658.047,-314.893C829.1825,-295.2908 1308.4817,-240.391 1509.4851,-217.3677"/>
<polygon fill="#242424" stroke="#242424" points="1510.1775,-220.8114 1519.7142,-216.1961 1509.3808,-213.8569 1510.1775,-220.8114"/>
</g>
<!-- params/curry.js&#45;&gt;Ⓜ fast.js/array/some.js -->
<g id="edge44" class="edge">
<title>params/curry.js&#45;&gt;Ⓜ fast.js/array/some.js</title>
<path fill="none" stroke="#242424" d="M596,-303.7779C596,-285.3567 596,-256.6329 596,-235.2569"/>
<polygon fill="#242424" stroke="#242424" points="599.5001,-235.1368 596,-225.1368 592.5001,-235.1369 599.5001,-235.1368"/>
</g>
<!-- utils/length.js&#45;&gt;fp/pipe.js -->
<g id="edge54" class="edge">
<title>utils/length.js&#45;&gt;fp/pipe.js</title>
<path fill="none" stroke="#242424" d="M879.0742,-648.7779C901.5462,-629.3473 937.2748,-598.4542 962.3042,-576.8121"/>
<polygon fill="#242424" stroke="#242424" points="964.7492,-579.3251 970.0244,-570.1368 960.1707,-574.03 964.7492,-579.3251"/>
</g>
<!-- utils/object.js -->
<g id="node28" class="node">
<title>utils/object.js</title>
<polygon fill="none" stroke="#242424" stroke-width="4" points="716,-570 592,-570 592,-534 716,-534 716,-570"/>
<text text-anchor="middle" x="654" y="-549.6" font-family="Fira Code" font-size="12.00" fill="#242424">utils/object.js</text>
</g>
<!-- utils/length.js&#45;&gt;utils/object.js -->
<g id="edge55" class="edge">
<title>utils/length.js&#45;&gt;utils/object.js</title>
<path fill="none" stroke="#242424" d="M825.6756,-648.7779C790.3121,-628.8426 733.5451,-596.8416 695.0569,-575.1448"/>
<polygon fill="#242424" stroke="#242424" points="696.6031,-571.9987 686.1732,-570.1368 693.1656,-578.0965 696.6031,-571.9987"/>
</g>
<!-- utils/prop.js -->
<g id="node36" class="node">
<title>utils/prop.js</title>
<polygon fill="none" stroke="#242424" stroke-width="4" points="894.6007,-455 785.3993,-455 785.3993,-419 894.6007,-419 894.6007,-455"/>
<text text-anchor="middle" x="840" y="-434.6" font-family="Fira Code" font-size="12.00" fill="#242424">utils/prop.js</text>
</g>
<!-- utils/length.js&#45;&gt;utils/prop.js -->
<g id="edge56" class="edge">
<title>utils/length.js&#45;&gt;utils/prop.js</title>
<path fill="none" stroke="#242424" d="M856.5876,-648.9523C853.467,-609.0788 845.9655,-513.2253 842.2141,-465.2908"/>
<polygon fill="#242424" stroke="#242424" points="845.7004,-464.9785 841.4308,-455.2821 838.7218,-465.5248 845.7004,-464.9785"/>
</g>
<!-- params/remap.js&#45;&gt;params/curry.js -->
<g id="edge50" class="edge">
<title>params/remap.js&#45;&gt;params/curry.js</title>
<path fill="none" stroke="#242424" d="M294.5388,-648.9227C296.8135,-604.2584 308.6444,-487.3717 370,-419 410.1022,-374.3122 474.3419,-349.4502 524.1002,-336.1173"/>
<polygon fill="#242424" stroke="#242424" points="525.0391,-339.4898 533.8473,-333.602 523.2899,-332.7118 525.0391,-339.4898"/>
</g>
<!-- fp/compose.js -->
<g id="node20" class="node">
<title>fp/compose.js</title>
<polygon fill="none" stroke="#242424" stroke-width="4" points="1123.6007,-685 1014.3993,-685 1014.3993,-649 1123.6007,-649 1123.6007,-685"/>
<text text-anchor="middle" x="1069" y="-664.6" font-family="Fira Code" font-size="12.00" fill="#242424">fp/compose.js</text>
</g>
<!-- fp/compose.js&#45;&gt;fp/pipe.js -->
<g id="edge21" class="edge">
<title>fp/compose.js&#45;&gt;fp/pipe.js</title>
<path fill="none" stroke="#242424" d="M1056.6407,-648.7779C1043.804,-629.852 1023.5913,-600.0513 1008.9854,-578.5169"/>
<polygon fill="#242424" stroke="#242424" points="1011.8114,-576.4482 1003.3015,-570.1368 1006.0182,-580.3775 1011.8114,-576.4482"/>
</g>
<!-- utils/delegatee.js&#45;&gt;params/curry.js -->
<g id="edge53" class="edge">
<title>utils/delegatee.js&#45;&gt;params/curry.js</title>
<path fill="none" stroke="#242424" d="M983.0289,-418.968C897.1164,-397.4431 754.2885,-361.6583 668.2521,-340.1024"/>
<polygon fill="#242424" stroke="#242424" points="668.8575,-336.6459 658.3067,-337.6106 667.1562,-343.4361 668.8575,-336.6459"/>
</g>
<!-- fp/index.js -->
<g id="node22" class="node">
<title>fp/index.js</title>
<polygon fill="none" stroke="#242424" stroke-width="4" points="1199.7002,-800 1104.2998,-800 1104.2998,-764 1199.7002,-764 1199.7002,-800"/>
<text text-anchor="middle" x="1152" y="-779.6" font-family="Fira Code" font-size="12.00" fill="#242424">fp/index.js</text>
</g>
<!-- fp/index.js&#45;&gt;fp/filter.js -->
<g id="edge24" class="edge">
<title>fp/index.js&#45;&gt;fp/filter.js</title>
<path fill="none" stroke="#242424" d="M1157.491,-763.7433C1164.4478,-737.9381 1174.5599,-689.4316 1166,-649 1160.7451,-624.1791 1148.698,-597.9889 1138.6883,-579.0873"/>
<polygon fill="#242424" stroke="#242424" points="1141.6895,-577.28 1133.832,-570.1729 1135.5425,-580.6288 1141.6895,-577.28"/>
</g>
<!-- fp/index.js&#45;&gt;fp/pipe.js -->
<g id="edge25" class="edge">
<title>fp/index.js&#45;&gt;fp/pipe.js</title>
<path fill="none" stroke="#242424" d="M1153.8071,-763.6716C1155.5687,-736.4875 1155.3073,-684.843 1133,-649 1112.1091,-615.4329 1074.8333,-590.6374 1043.7145,-574.5207"/>
<polygon fill="#242424" stroke="#242424" points="1045.2088,-571.3547 1034.7008,-570.0016 1042.0715,-577.6123 1045.2088,-571.3547"/>
</g>
<!-- fp/index.js&#45;&gt;fp/compose.js -->
<g id="edge23" class="edge">
<title>fp/index.js&#45;&gt;fp/compose.js</title>
<path fill="none" stroke="#242424" d="M1138.8484,-763.7779C1125.1888,-744.852 1103.6805,-715.0513 1088.1383,-693.5169"/>
<polygon fill="#242424" stroke="#242424" points="1090.7805,-691.1972 1082.0901,-685.1368 1085.1044,-695.2938 1090.7805,-691.1972"/>
</g>
<!-- index.js -->
<g id="node23" class="node">
<title>index.js</title>
<polygon fill="none" stroke="#242424" stroke-width="4" points="1022.6011,-1260 949.3989,-1260 949.3989,-1224 1022.6011,-1224 1022.6011,-1260"/>
<text text-anchor="middle" x="986" y="-1239.6" font-family="Fira Code" font-size="12.00" fill="#242424">index.js</text>
</g>
<!-- index.js&#45;&gt;../package.json -->
<g id="edge26" class="edge">
<title>index.js&#45;&gt;../package.json</title>
<path fill="none" stroke="#242424" d="M1022.7516,-1236.2168C1108.1272,-1222.5914 1326.5987,-1186.6269 1518.7224,-1145.2118"/>
<polygon fill="#242424" stroke="#242424" points="1519.6865,-1148.5842 1528.719,-1143.0467 1518.2047,-1141.7428 1519.6865,-1148.5842"/>
</g>
<!-- index.js&#45;&gt;combinators/index.js -->
<g id="edge27" class="edge">
<title>index.js&#45;&gt;combinators/index.js</title>
<path fill="none" stroke="#242424" d="M1022.6327,-1239.1244C1156.5152,-1228.2966 1614.0125,-1188.3835 1662,-1145 1691.2047,-1118.5972 1696.4415,-1070.7516 1696.4937,-1040.2193"/>
<polygon fill="#242424" stroke="#242424" points="1699.9931,-1040.1455 1696.3268,-1030.2053 1692.9941,-1040.2622 1699.9931,-1040.1455"/>
</g>
<!-- index.js&#45;&gt;fp/pipe.js -->
<g id="edge29" class="edge">
<title>index.js&#45;&gt;fp/pipe.js</title>
<path fill="none" stroke="#242424" d="M986,-1223.8123C986,-1184.9361 986,-1090.8628 986,-1012 986,-1012 986,-1012 986,-782 986,-709.2811 988.5291,-623.6601 989.9899,-580.2721"/>
<polygon fill="#242424" stroke="#242424" points="993.4909,-580.299 990.336,-570.1848 986.495,-580.0588 993.4909,-580.299"/>
</g>
<!-- index.js&#45;&gt;placeholder/index.js -->
<g id="edge34" class="edge">
<title>index.js&#45;&gt;placeholder/index.js</title>
<path fill="none" stroke="#242424" d="M1022.7335,-1240.0709C1127.8929,-1233.8793 1438.5054,-1210.9089 1687,-1145 1840.6428,-1104.2489 2019,-1170.9552 2019,-1012 2019,-1012 2019,-1012 2019,-437 2019,-288.2865 1813.6627,-235.0707 1690.4794,-216.5263"/>
<polygon fill="#242424" stroke="#242424" points="1690.6916,-213.0204 1680.2916,-215.0432 1689.6831,-219.9474 1690.6916,-213.0204"/>
</g>
<!-- index.js&#45;&gt;params/curry.js -->
<g id="edge31" class="edge">
<title>index.js&#45;&gt;params/curry.js</title>
<path fill="none" stroke="#242424" d="M949.1472,-1241.4598C770.1479,-1237.8654 0,-1210.8467 0,-1012 0,-1012 0,-1012 0,-667 0,-427.4651 365.0478,-351.5493 523.7549,-329.8632"/>
<polygon fill="#242424" stroke="#242424" points="524.4536,-333.3011 533.9042,-328.512 523.5298,-326.3623 524.4536,-333.3011"/>
</g>
<!-- index.js&#45;&gt;params/remap.js -->
<g id="edge33" class="edge">
<title>index.js&#45;&gt;params/remap.js</title>
<path fill="none" stroke="#242424" d="M949.3431,-1235.8688C821.0534,-1213.3902 400,-1130.5815 400,-1012 400,-1012 400,-1012 400,-897 400,-816.7522 346.119,-734.0197 315.187,-693.1363"/>
<polygon fill="#242424" stroke="#242424" points="317.8403,-690.8456 308.9624,-685.0634 312.2968,-695.1199 317.8403,-690.8456"/>
</g>
<!-- index.js&#45;&gt;fp/compose.js -->
<g id="edge28" class="edge">
<title>index.js&#45;&gt;fp/compose.js</title>
<path fill="none" stroke="#242424" d="M988.6211,-1223.8417C1000.6117,-1140.7744 1050.2798,-796.6879 1064.9209,-695.2592"/>
<polygon fill="#242424" stroke="#242424" points="1068.4136,-695.5602 1066.3783,-685.1627 1061.4854,-694.56 1068.4136,-695.5602"/>
</g>
<!-- object/index.js -->
<g id="node24" class="node">
<title>object/index.js</title>
<polygon fill="none" stroke="#242424" stroke-width="4" points="918,-1145 794,-1145 794,-1109 918,-1109 918,-1145"/>
<text text-anchor="middle" x="856" y="-1124.6" font-family="Fira Code" font-size="12.00" fill="#242424">object/index.js</text>
</g>
<!-- index.js&#45;&gt;object/index.js -->
<g id="edge30" class="edge">
<title>index.js&#45;&gt;object/index.js</title>
<path fill="none" stroke="#242424" d="M965.4011,-1223.7779C943.4361,-1204.3473 908.5134,-1173.4542 884.0485,-1151.8121"/>
<polygon fill="#242424" stroke="#242424" points="886.3115,-1149.1411 876.5025,-1145.1368 881.6735,-1154.3841 886.3115,-1149.1411"/>
</g>
<!-- params/ify.js -->
<g id="node25" class="node">
<title>params/ify.js</title>
<polygon fill="none" stroke="#242424" stroke-width="4" points="137.6007,-685 28.3993,-685 28.3993,-649 137.6007,-649 137.6007,-685"/>
<text text-anchor="middle" x="83" y="-664.6" font-family="Fira Code" font-size="12.00" fill="#242424">params/ify.js</text>
</g>
<!-- index.js&#45;&gt;params/ify.js -->
<g id="edge32" class="edge">
<title>index.js&#45;&gt;params/ify.js</title>
<path fill="none" stroke="#242424" d="M949.3079,-1240.4612C782.7612,-1232.5018 106,-1189.2537 106,-1012 106,-1012 106,-1012 106,-897 106,-823.9357 94.3661,-738.4606 87.6466,-695.1857"/>
<polygon fill="#242424" stroke="#242424" points="91.0747,-694.4559 86.0542,-685.1261 84.1608,-695.5504 91.0747,-694.4559"/>
</g>
<!-- object/index.js&#45;&gt;object/by&#45;keys.js -->
<g id="edge42" class="edge">
<title>object/index.js&#45;&gt;object/by&#45;keys.js</title>
<path fill="none" stroke="#242424" d="M878.0631,-1108.7273C905.4443,-1083.6889 946.5171,-1036.921 929,-994 916.9162,-964.3919 890.9593,-938.9232 869.2273,-921.5219"/>
<polygon fill="#242424" stroke="#242424" points="871.1909,-918.6156 861.1428,-915.2558 866.9026,-924.1483 871.1909,-918.6156"/>
</g>
<!-- object/by&#45;keys&#45;or&#45;number.js -->
<g id="node29" class="node">
<title>object/by&#45;keys&#45;or&#45;number.js</title>
<polygon fill="none" stroke="#242424" stroke-width="4" points="920.4004,-1030 709.5996,-1030 709.5996,-994 920.4004,-994 920.4004,-1030"/>
<text text-anchor="middle" x="815" y="-1009.6" font-family="Fira Code" font-size="12.00" fill="#242424">object/by&#45;keys&#45;or&#45;number.js</text>
</g>
<!-- object/index.js&#45;&gt;object/by&#45;keys&#45;or&#45;number.js -->
<g id="edge41" class="edge">
<title>object/index.js&#45;&gt;object/by&#45;keys&#45;or&#45;number.js</title>
<path fill="none" stroke="#242424" d="M849.5034,-1108.7779C842.8759,-1090.1885 832.5079,-1061.1074 824.8661,-1039.6731"/>
<polygon fill="#242424" stroke="#242424" points="828.1212,-1038.3807 821.4662,-1030.1368 821.5277,-1040.7315 828.1212,-1038.3807"/>
</g>
<!-- object/by&#45;number&#45;of&#45;keys.js -->
<g id="node31" class="node">
<title>object/by&#45;number&#45;of&#45;keys.js</title>
<polygon fill="none" stroke="#0c821d" stroke-width="4" points="692.4004,-1030 481.5996,-1030 481.5996,-994 692.4004,-994 692.4004,-1030"/>
<text text-anchor="middle" x="587" y="-1009.6" font-family="Fira Code" font-size="12.00" fill="#0c821d">object/by&#45;number&#45;of&#45;keys.js</text>
</g>
<!-- object/index.js&#45;&gt;object/by&#45;number&#45;of&#45;keys.js -->
<g id="edge43" class="edge">
<title>object/index.js&#45;&gt;object/by&#45;number&#45;of&#45;keys.js</title>
<path fill="none" stroke="#242424" d="M813.6728,-1108.9047C766.4132,-1088.7008 689.8998,-1055.9906 639.0262,-1034.2417"/>
<polygon fill="#242424" stroke="#242424" points="640.0949,-1030.8922 629.5241,-1030.1794 637.3432,-1037.3287 640.0949,-1030.8922"/>
</g>
<!-- params/ify.js&#45;&gt;Ⓜ fast.js/array/some.js -->
<g id="edge46" class="edge">
<title>params/ify.js&#45;&gt;Ⓜ fast.js/array/some.js</title>
<path fill="none" stroke="#242424" d="M83.1378,-648.7762C84.4154,-604.2813 93.5261,-488.6562 152,-419 242.3562,-311.3645 399.9538,-254.5164 501.0474,-227.6325"/>
<polygon fill="#242424" stroke="#242424" points="502.1628,-230.9587 510.9541,-225.0457 500.3942,-224.1858 502.1628,-230.9587"/>
</g>
<!-- object&#45;performance.fixture.js -->
<g id="node26" class="node">
<title>object&#45;performance.fixture.js</title>
<polygon fill="none" stroke="#0c821d" stroke-width="4" points="1260.3001,-184 1035.6999,-184 1035.6999,-148 1260.3001,-148 1260.3001,-184"/>
<text text-anchor="middle" x="1148" y="-163.6" font-family="Fira Code" font-size="12.00" fill="#0c821d">object&#45;performance.fixture.js</text>
</g>
<!-- object/by&#45;condition.js -->
<g id="node27" class="node">
<title>object/by&#45;condition.js</title>
<polygon fill="none" stroke="#242424" stroke-width="4" points="778.4005,-685 603.5995,-685 603.5995,-649 778.4005,-649 778.4005,-685"/>
<text text-anchor="middle" x="691" y="-664.6" font-family="Fira Code" font-size="12.00" fill="#242424">object/by&#45;condition.js</text>
</g>
<!-- object/by&#45;condition.js&#45;&gt;fp/pipe.js -->
<g id="edge35" class="edge">
<title>object/by&#45;condition.js&#45;&gt;fp/pipe.js</title>
<path fill="none" stroke="#242424" d="M738.205,-648.9047C792.3315,-628.1562 880.8655,-594.2182 937.5025,-572.5074"/>
<polygon fill="#242424" stroke="#242424" points="938.9143,-575.7146 946.9989,-568.8671 936.4087,-569.1784 938.9143,-575.7146"/>
</g>
<!-- object/by&#45;condition.js&#45;&gt;params/curry.js -->
<g id="edge36" class="edge">
<title>object/by&#45;condition.js&#45;&gt;params/curry.js</title>
<path fill="none" stroke="#242424" d="M701.7349,-648.8592C715.5404,-623.1917 736.4511,-574.8477 725,-534 704.2412,-459.9499 649.714,-386.095 618.6021,-348.1647"/>
<polygon fill="#242424" stroke="#242424" points="621.0552,-345.6406 611.9696,-340.1905 615.6734,-350.1169 621.0552,-345.6406"/>
</g>
<!-- object/by&#45;condition.js&#45;&gt;utils/object.js -->
<g id="edge37" class="edge">
<title>object/by&#45;condition.js&#45;&gt;utils/object.js</title>
<path fill="none" stroke="#242424" d="M685.1372,-648.7779C679.1563,-630.1885 669.7998,-601.1074 662.9035,-579.6731"/>
<polygon fill="#242424" stroke="#242424" points="666.23,-578.5843 659.8353,-570.1368 659.5664,-580.7283 666.23,-578.5843"/>
</g>
<!-- utils/object.js&#45;&gt;params/curry.js -->
<g id="edge65" class="edge">
<title>utils/object.js&#45;&gt;params/curry.js</title>
<path fill="none" stroke="#242424" d="M649.4488,-533.9523C639.3727,-493.995 615.1204,-397.8223 603.0582,-349.9893"/>
<polygon fill="#242424" stroke="#242424" points="606.4493,-349.1227 600.6103,-340.2821 599.6618,-350.8344 606.4493,-349.1227"/>
</g>
<!-- object/by&#45;keys&#45;or&#45;number.js&#45;&gt;object/by&#45;keys.js -->
<g id="edge38" class="edge">
<title>object/by&#45;keys&#45;or&#45;number.js&#45;&gt;object/by&#45;keys.js</title>
<path fill="none" stroke="#242424" d="M818.0106,-993.7779C821.0541,-975.3567 825.7998,-946.6329 829.3315,-925.2569"/>
<polygon fill="#242424" stroke="#242424" points="832.8265,-925.5736 831.0035,-915.1368 825.9201,-924.4325 832.8265,-925.5736"/>
</g>
<!-- utils/matching&#45;key&#45;count.js&#45;&gt;fp/pipe.js -->
<g id="edge57" class="edge">
<title>utils/matching&#45;key&#45;count.js&#45;&gt;fp/pipe.js</title>
<path fill="none" stroke="#242424" d="M855.7859,-763.7001C876.5808,-745.3925 907.7993,-715.6197 929,-685 952.249,-651.422 970.6934,-607.7422 981.2336,-579.7802"/>
<polygon fill="#242424" stroke="#242424" points="984.5765,-580.8308 984.7534,-570.2374 978.009,-578.4083 984.5765,-580.8308"/>
</g>
<!-- utils/matching&#45;key&#45;count.js&#45;&gt;params/curry.js -->
<g id="edge58" class="edge">
<title>utils/matching&#45;key&#45;count.js&#45;&gt;params/curry.js</title>
<path fill="none" stroke="#242424" d="M728.7048,-773.1406C614.486,-761.0902 443.0358,-735.0476 403,-685 384.9386,-662.422 301.1494,-593.7001 411,-419 436.1095,-379.0674 483.4626,-354.6723 523.9734,-340.3347"/>
<polygon fill="#242424" stroke="#242424" points="525.2251,-343.606 533.5695,-337.0775 522.9752,-336.9775 525.2251,-343.606"/>
</g>
<!-- utils/matching&#45;key&#45;count.js&#45;&gt;utils/length.js -->
<g id="edge59" class="edge">
<title>utils/matching&#45;key&#45;count.js&#45;&gt;utils/length.js</title>
<path fill="none" stroke="#242424" d="M837.8029,-763.7779C841.6649,-745.2726 847.6966,-716.3704 852.1639,-694.9646"/>
<polygon fill="#242424" stroke="#242424" points="855.5981,-695.641 854.2149,-685.1368 848.7457,-694.2109 855.5981,-695.641"/>
</g>
<!-- utils/matching&#45;keys.js -->
<g id="node37" class="node">
<title>utils/matching&#45;keys.js</title>
<polygon fill="none" stroke="#242424" stroke-width="4" points="586.4005,-685 411.5995,-685 411.5995,-649 586.4005,-649 586.4005,-685"/>
<text text-anchor="middle" x="499" y="-664.6" font-family="Fira Code" font-size="12.00" fill="#242424">utils/matching&#45;keys.js</text>
</g>
<!-- utils/matching&#45;key&#45;count.js&#45;&gt;utils/matching&#45;keys.js -->
<g id="edge60" class="edge">
<title>utils/matching&#45;key&#45;count.js&#45;&gt;utils/matching&#45;keys.js</title>
<path fill="none" stroke="#242424" d="M781.2877,-763.9047C721.611,-743.4187 624.4786,-710.0747 561.1559,-688.3371"/>
<polygon fill="#242424" stroke="#242424" points="562.2756,-685.021 551.6809,-685.0845 560.0027,-691.6418 562.2756,-685.021"/>
</g>
<!-- params/index.js -->
<g id="node32" class="node">
<title>params/index.js</title>
<polygon fill="none" stroke="#242424" stroke-width="4" points="318,-800 194,-800 194,-764 318,-764 318,-800"/>
<text text-anchor="middle" x="256" y="-779.6" font-family="Fira Code" font-size="12.00" fill="#242424">params/index.js</text>
</g>
<!-- params/index.js&#45;&gt;params/curry.js -->
<g id="edge47" class="edge">
<title>params/index.js&#45;&gt;params/curry.js</title>
<path fill="none" stroke="#242424" d="M245.8874,-763.9423C232.852,-738.3734 212.9862,-690.1459 223,-649 250.2163,-537.1703 256.1632,-495.6724 342,-419 393.2864,-373.1892 468.4577,-348.1049 523.7207,-334.9929"/>
<polygon fill="#242424" stroke="#242424" points="524.8331,-338.3287 533.7976,-332.6816 523.2682,-331.5059 524.8331,-338.3287"/>
</g>
<!-- params/index.js&#45;&gt;params/remap.js -->
<g id="edge49" class="edge">
<title>params/index.js&#45;&gt;params/remap.js</title>
<path fill="none" stroke="#242424" d="M262.0212,-763.7779C268.1638,-745.1885 277.7732,-716.1074 284.8558,-694.6731"/>
<polygon fill="#242424" stroke="#242424" points="288.1927,-695.73 288.007,-685.1368 281.5461,-693.5338 288.1927,-695.73"/>
</g>
<!-- params/index.js&#45;&gt;params/ify.js -->
<g id="edge48" class="edge">
<title>params/index.js&#45;&gt;params/ify.js</title>
<path fill="none" stroke="#242424" d="M228.5876,-763.7779C198.8511,-744.0108 151.2686,-712.3808 118.6475,-690.6963"/>
<polygon fill="#242424" stroke="#242424" points="120.5496,-687.758 110.2841,-685.1368 116.6745,-693.5875 120.5496,-687.758"/>
</g>
<!-- testperf.fixture.js -->
<g id="node34" class="node">
<title>testperf.fixture.js</title>
<polygon fill="none" stroke="#0c821d" stroke-width="4" points="892.3001,-110 739.6999,-110 739.6999,-74 892.3001,-74 892.3001,-110"/>
<text text-anchor="middle" x="816" y="-89.6" font-family="Fira Code" font-size="12.00" fill="#0c821d">testperf.fixture.js</text>
</g>
<!-- utils/array.js -->
<g id="node35" class="node">
<title>utils/array.js</title>
<polygon fill="none" stroke="#242424" stroke-width="4" points="536.3002,-455 419.6998,-455 419.6998,-419 536.3002,-419 536.3002,-455"/>
<text text-anchor="middle" x="478" y="-434.6" font-family="Fira Code" font-size="12.00" fill="#242424">utils/array.js</text>
</g>
<!-- utils/array.js&#45;&gt;params/curry.js -->
<g id="edge52" class="edge">
<title>utils/array.js&#45;&gt;params/curry.js</title>
<path fill="none" stroke="#242424" d="M496.6975,-418.7779C516.4623,-399.5155 547.786,-368.9882 569.9617,-347.3763"/>
<polygon fill="#242424" stroke="#242424" points="572.6713,-349.6229 577.39,-340.1368 567.7857,-344.6098 572.6713,-349.6229"/>
</g>
<!-- utils/prop.js&#45;&gt;params/curry.js -->
<g id="edge66" class="edge">
<title>utils/prop.js&#45;&gt;params/curry.js</title>
<path fill="none" stroke="#242424" d="M801.6066,-418.9047C758.9174,-398.7848 689.9133,-366.2624 643.7679,-344.5135"/>
<polygon fill="#242424" stroke="#242424" points="645.1099,-341.2768 634.572,-340.1794 642.1255,-347.6088 645.1099,-341.2768"/>
</g>
<!-- utils/matching&#45;keys.js&#45;&gt;fp/filter.js -->
<g id="edge61" class="edge">
<title>utils/matching&#45;keys.js&#45;&gt;fp/filter.js</title>
<path fill="none" stroke="#242424" d="M586.37,-650.5752C589.2808,-650.0417 592.1637,-649.5154 595,-649 794.3561,-612.7735 845.3817,-610.0746 1044,-570 1049.7418,-568.8415 1055.7058,-567.5836 1061.6679,-566.2894"/>
<polygon fill="#242424" stroke="#242424" points="1062.6475,-569.6576 1071.6603,-564.088 1061.1414,-562.8215 1062.6475,-569.6576"/>
</g>
<!-- utils/matching&#45;keys.js&#45;&gt;params/curry.js -->
<g id="edge62" class="edge">
<title>utils/matching&#45;keys.js&#45;&gt;params/curry.js</title>
<path fill="none" stroke="#242424" d="M504.0786,-648.937C519.985,-592.3625 568.9234,-418.3034 588.1389,-349.9596"/>
<polygon fill="#242424" stroke="#242424" points="591.5173,-350.8745 590.8547,-340.3004 584.7786,-348.9798 591.5173,-350.8745"/>
</g>
<!-- utils/matching&#45;keys.js&#45;&gt;utils/object.js -->
<g id="edge64" class="edge">
<title>utils/matching&#45;keys.js&#45;&gt;utils/object.js</title>
<path fill="none" stroke="#242424" d="M523.5602,-648.7779C549.976,-629.1791 592.11,-597.9184 621.3124,-576.2521"/>
<polygon fill="#242424" stroke="#242424" points="623.6092,-578.9062 629.5547,-570.1368 619.4382,-573.2845 623.6092,-578.9062"/>
</g>
<!-- utils/matching&#45;keys.js&#45;&gt;utils/array.js -->
<g id="edge63" class="edge">
<title>utils/matching&#45;keys.js&#45;&gt;utils/array.js</title>
<path fill="none" stroke="#242424" d="M497.3522,-648.9523C493.7115,-609.0788 484.9597,-513.2253 480.5831,-465.2908"/>
<polygon fill="#242424" stroke="#242424" points="484.0641,-464.9224 479.6692,-455.2821 477.0931,-465.559 484.0641,-464.9224"/>
</g>
<!-- utils/testing.js -->
<g id="node38" class="node">
<title>utils/testing.js</title>
<polygon fill="none" stroke="#0c821d" stroke-width="4" points="1167.7002,-36 1036.2998,-36 1036.2998,0 1167.7002,0 1167.7002,-36"/>
<text text-anchor="middle" x="1102" y="-15.6" font-family="Fira Code" font-size="12.00" fill="#0c821d">utils/testing.js</text>
</g>
</g>
</svg>
