<?xml version="1.0" encoding="UTF-8" standalone="no"?>
<!DOCTYPE svg PUBLIC "-//W3C//DTD SVG 1.1//EN"
 "http://www.w3.org/Graphics/SVG/1.1/DTD/svg11.dtd">
<!-- Generated by graphviz version 2.40.1 (20161225.0304)
 -->
<!-- Title: G Pages: 1 -->
<svg width="1558pt" height="1208pt"
 viewBox="0.00 0.00 1557.58 1207.98" xmlns="http://www.w3.org/2000/svg" xmlns:xlink="http://www.w3.org/1999/xlink">
<g id="graph0" class="graph" transform="scale(1 1) rotate(0) translate(7.992 1199.992)">
<title>G</title>
<polygon fill="#eeeeff" stroke="transparent" points="-7.992,7.992 -7.992,-1199.992 1549.592,-1199.992 1549.592,7.992 -7.992,7.992"/>
<!-- ../package.json -->
<g id="node1" class="node">
<title>../package.json</title>
<polygon fill="none" stroke="#0c821d" stroke-width="4" points="594.8,-956 470.8,-956 470.8,-920 594.8,-920 594.8,-956"/>
<text text-anchor="middle" x="532.8" y="-935.6" font-family="Fira Code" font-size="12.00" fill="#0c821d">../package.json</text>
</g>
<!-- combinators/constant.js -->
<g id="node2" class="node">
<title>combinators/constant.js</title>
<polygon fill="none" stroke="#0c821d" stroke-width="4" points="961.4004,-841 780.1996,-841 780.1996,-805 961.4004,-805 961.4004,-841"/>
<text text-anchor="middle" x="870.8" y="-820.6" font-family="Fira Code" font-size="12.00" fill="#0c821d">combinators/constant.js</text>
</g>
<!-- combinators/identity.js -->
<g id="node3" class="node">
<title>combinators/identity.js</title>
<polygon fill="none" stroke="#0c821d" stroke-width="4" points="1161.4004,-841 980.1996,-841 980.1996,-805 1161.4004,-805 1161.4004,-841"/>
<text text-anchor="middle" x="1070.8" y="-820.6" font-family="Fira Code" font-size="12.00" fill="#0c821d">combinators/identity.js</text>
</g>
<!-- combinators/index.js -->
<g id="node4" class="node">
<title>combinators/index.js</title>
<polygon fill="none" stroke="#242424" stroke-width="4" points="1050.8,-956 890.8,-956 890.8,-920 1050.8,-920 1050.8,-956"/>
<text text-anchor="middle" x="970.8" y="-935.6" font-family="Fira Code" font-size="12.00" fill="#242424">combinators/index.js</text>
</g>
<!-- combinators/index.js&#45;&gt;combinators/constant.js -->
<g id="edge1" class="edge">
<title>combinators/index.js&#45;&gt;combinators/constant.js</title>
<path fill="none" stroke="#242424" d="M954.9547,-919.7779C938.3511,-900.6838 912.1223,-870.5206 893.3605,-848.9446"/>
<polygon fill="#242424" stroke="#242424" points="895.7741,-846.3863 886.5712,-841.1368 890.4919,-850.9796 895.7741,-846.3863"/>
</g>
<!-- combinators/index.js&#45;&gt;combinators/identity.js -->
<g id="edge2" class="edge">
<title>combinators/index.js&#45;&gt;combinators/identity.js</title>
<path fill="none" stroke="#242424" d="M986.6453,-919.7779C1003.2489,-900.6838 1029.4777,-870.5206 1048.2395,-848.9446"/>
<polygon fill="#242424" stroke="#242424" points="1051.1081,-850.9796 1055.0288,-841.1368 1045.8259,-846.3863 1051.1081,-850.9796"/>
</g>
<!-- debug/fp.js -->
<g id="node5" class="node">
<title>debug/fp.js</title>
<polygon fill="none" stroke="#242424" stroke-width="4" points="1245.5002,-496 1150.0998,-496 1150.0998,-460 1245.5002,-460 1245.5002,-496"/>
<text text-anchor="middle" x="1197.8" y="-475.6" font-family="Fira Code" font-size="12.00" fill="#242424">debug/fp.js</text>
</g>
<!-- debug/to&#45;string&#45;composition.js -->
<g id="node6" class="node">
<title>debug/to&#45;string&#45;composition.js</title>
<polygon fill="none" stroke="#0c821d" stroke-width="4" points="1171.8,-381 939.8,-381 939.8,-345 1171.8,-345 1171.8,-381"/>
<text text-anchor="middle" x="1055.8" y="-360.6" font-family="Fira Code" font-size="12.00" fill="#0c821d">debug/to&#45;string&#45;composition.js</text>
</g>
<!-- debug/fp.js&#45;&gt;debug/to&#45;string&#45;composition.js -->
<g id="edge3" class="edge">
<title>debug/fp.js&#45;&gt;debug/to&#45;string&#45;composition.js</title>
<path fill="none" stroke="#242424" d="M1175.2997,-459.7779C1151.2032,-440.2632 1112.8303,-409.1865 1086.0912,-387.5316"/>
<polygon fill="#242424" stroke="#242424" points="1088.169,-384.7105 1078.1951,-381.1368 1083.7635,-390.1504 1088.169,-384.7105"/>
</g>
<!-- fp/filter.js -->
<g id="node7" class="node">
<title>fp/filter.js</title>
<polygon fill="none" stroke="#242424" stroke-width="4" points="922.2008,-381 819.3992,-381 819.3992,-345 922.2008,-345 922.2008,-381"/>
<text text-anchor="middle" x="870.8" y="-360.6" font-family="Fira Code" font-size="12.00" fill="#242424">fp/filter.js</text>
</g>
<!-- debug/fp.js&#45;&gt;fp/filter.js -->
<g id="edge4" class="edge">
<title>debug/fp.js&#45;&gt;fp/filter.js</title>
<path fill="none" stroke="#242424" d="M1149.9012,-461.1549C1092.025,-440.8008 994.5819,-406.5319 931.4967,-384.3459"/>
<polygon fill="#242424" stroke="#242424" points="932.6578,-381.0442 922.063,-381.0283 930.3354,-387.6477 932.6578,-381.0442"/>
</g>
<!-- fp/pipe.js -->
<g id="node8" class="node">
<title>fp/pipe.js</title>
<polygon fill="none" stroke="#0c821d" stroke-width="4" points="801.8,-381 713.8,-381 713.8,-345 801.8,-345 801.8,-381"/>
<text text-anchor="middle" x="757.8" y="-360.6" font-family="Fira Code" font-size="12.00" fill="#0c821d">fp/pipe.js</text>
</g>
<!-- debug/fp.js&#45;&gt;fp/pipe.js -->
<g id="edge5" class="edge">
<title>debug/fp.js&#45;&gt;fp/pipe.js</title>
<path fill="none" stroke="#242424" d="M1150.0998,-467.3693C1078.573,-451.1385 939.1996,-418.3908 811.8846,-381.2137"/>
<polygon fill="#242424" stroke="#242424" points="812.5411,-377.7588 801.9601,-378.2993 810.5688,-384.4752 812.5411,-377.7588"/>
</g>
<!-- utils/delegatee.js -->
<g id="node22" class="node">
<title>utils/delegatee.js</title>
<polygon fill="none" stroke="#242424" stroke-width="4" points="931.4005,-266 786.1995,-266 786.1995,-230 931.4005,-230 931.4005,-266"/>
<text text-anchor="middle" x="858.8" y="-245.6" font-family="Fira Code" font-size="12.00" fill="#242424">utils/delegatee.js</text>
</g>
<!-- fp/filter.js&#45;&gt;utils/delegatee.js -->
<g id="edge23" class="edge">
<title>fp/filter.js&#45;&gt;utils/delegatee.js</title>
<path fill="none" stroke="#242424" d="M868.8986,-344.7779C866.9764,-326.3567 863.9791,-297.6329 861.7485,-276.2569"/>
<polygon fill="#242424" stroke="#242424" points="865.2116,-275.7196 860.6925,-266.1368 858.2494,-276.4461 865.2116,-275.7196"/>
</g>
<!-- debug/index.js -->
<g id="node9" class="node">
<title>debug/index.js</title>
<polygon fill="none" stroke="#242424" stroke-width="4" points="1324.1002,-1071 1207.4998,-1071 1207.4998,-1035 1324.1002,-1035 1324.1002,-1071"/>
<text text-anchor="middle" x="1265.8" y="-1050.6" font-family="Fira Code" font-size="12.00" fill="#242424">debug/index.js</text>
</g>
<!-- debug/index.js&#45;&gt;combinators/index.js -->
<g id="edge6" class="edge">
<title>debug/index.js&#45;&gt;combinators/index.js</title>
<path fill="none" stroke="#242424" d="M1219.3817,-1034.9047C1167.231,-1014.5748 1082.5976,-981.5821 1026.8141,-959.836"/>
<polygon fill="#242424" stroke="#242424" points="1028.0226,-956.5506 1017.4342,-956.1794 1025.4801,-963.0726 1028.0226,-956.5506"/>
</g>
<!-- debug/index.js&#45;&gt;debug/fp.js -->
<g id="edge7" class="edge">
<title>debug/index.js&#45;&gt;debug/fp.js</title>
<path fill="none" stroke="#242424" d="M1265.8,-1034.8123C1265.8,-995.9361 1265.8,-901.8628 1265.8,-823 1265.8,-823 1265.8,-823 1265.8,-708 1265.8,-632.0919 1231.3173,-547.6607 1211.4627,-505.3381"/>
<polygon fill="#242424" stroke="#242424" points="1214.5834,-503.7508 1207.1125,-496.2384 1208.2679,-506.77 1214.5834,-503.7508"/>
</g>
<!-- debug/object.js -->
<g id="node10" class="node">
<title>debug/object.js</title>
<polygon fill="none" stroke="#242424" stroke-width="4" points="737.8,-956 613.8,-956 613.8,-920 737.8,-920 737.8,-956"/>
<text text-anchor="middle" x="675.8" y="-935.6" font-family="Fira Code" font-size="12.00" fill="#242424">debug/object.js</text>
</g>
<!-- debug/index.js&#45;&gt;debug/object.js -->
<g id="edge8" class="edge">
<title>debug/index.js&#45;&gt;debug/object.js</title>
<path fill="none" stroke="#242424" d="M1207.3429,-1041.6058C1098.7277,-1020.4351 866.1237,-975.097 747.9316,-952.0595"/>
<polygon fill="#242424" stroke="#242424" points="748.3796,-948.5811 737.8947,-950.1032 747.0403,-955.4518 748.3796,-948.5811"/>
</g>
<!-- debug/params.js -->
<g id="node11" class="node">
<title>debug/params.js</title>
<polygon fill="none" stroke="#242424" stroke-width="4" points="1313.8,-381 1189.8,-381 1189.8,-345 1313.8,-345 1313.8,-381"/>
<text text-anchor="middle" x="1251.8" y="-360.6" font-family="Fira Code" font-size="12.00" fill="#242424">debug/params.js</text>
</g>
<!-- debug/index.js&#45;&gt;debug/params.js -->
<g id="edge9" class="edge">
<title>debug/index.js&#45;&gt;debug/params.js</title>
<path fill="none" stroke="#242424" d="M1282.1334,-1034.8494C1313.6554,-997.8649 1379.8,-909.9044 1379.8,-823 1379.8,-823 1379.8,-823 1379.8,-593 1379.8,-509.6732 1314.8601,-428.3615 1277.4911,-388.4696"/>
<polygon fill="#242424" stroke="#242424" points="1279.8493,-385.8712 1270.4123,-381.0552 1274.7863,-390.705 1279.8493,-385.8712"/>
</g>
<!-- placeholder/index.js -->
<g id="node12" class="node">
<title>placeholder/index.js</title>
<polygon fill="none" stroke="#0c821d" stroke-width="4" points="1377.8,-36 1217.8,-36 1217.8,0 1377.8,0 1377.8,-36"/>
<text text-anchor="middle" x="1297.8" y="-15.6" font-family="Fira Code" font-size="12.00" fill="#0c821d">placeholder/index.js</text>
</g>
<!-- debug/index.js&#45;&gt;placeholder/index.js -->
<g id="edge10" class="edge">
<title>debug/index.js&#45;&gt;placeholder/index.js</title>
<path fill="none" stroke="#242424" d="M1296.7496,-1034.9119C1350.5884,-1000.8507 1455.8,-921.666 1455.8,-823 1455.8,-823 1455.8,-823 1455.8,-248 1455.8,-187.9342 1463.7761,-165.8471 1431.8,-115 1411.2939,-82.392 1375.4924,-57.326 1346.0517,-40.85"/>
<polygon fill="#242424" stroke="#242424" points="1347.6014,-37.7089 1337.1431,-36.0137 1344.2616,-43.8608 1347.6014,-37.7089"/>
</g>
<!-- debug/object.js&#45;&gt;fp/pipe.js -->
<g id="edge12" class="edge">
<title>debug/object.js&#45;&gt;fp/pipe.js</title>
<path fill="none" stroke="#242424" d="M674.3469,-919.7324C673.1171,-892.165 674.6281,-839.4953 699.8,-805 808.0921,-656.598 970.1686,-768.465 1064.8,-611 1085.1279,-577.1747 1083.6754,-504.5031 1045.8,-460 976.4768,-378.5461 918.6688,-414.0248 811.8502,-381.201"/>
<polygon fill="#242424" stroke="#242424" points="812.6345,-377.7765 802.0429,-378.0373 810.4854,-384.4384 812.6345,-377.7765"/>
</g>
<!-- debug/to&#45;string.js -->
<g id="node13" class="node">
<title>debug/to&#45;string.js</title>
<polygon fill="none" stroke="#0c821d" stroke-width="4" points="1351.4005,-266 1206.1995,-266 1206.1995,-230 1351.4005,-230 1351.4005,-266"/>
<text text-anchor="middle" x="1278.8" y="-245.6" font-family="Fira Code" font-size="12.00" fill="#0c821d">debug/to&#45;string.js</text>
</g>
<!-- debug/object.js&#45;&gt;debug/to&#45;string.js -->
<g id="edge11" class="edge">
<title>debug/object.js&#45;&gt;debug/to&#45;string.js</title>
<path fill="none" stroke="#242424" d="M679.9936,-919.7514C687.2847,-891.7318 704.7774,-837.9093 737.8,-805 797.0996,-745.9039 835.6161,-766.6559 908.8,-726 1070.2181,-636.3273 1128.0736,-630.3035 1254.8,-496 1305.3126,-442.4672 1338.3536,-416.94 1322.8,-345 1317.4179,-320.1063 1305.0911,-293.9216 1294.85,-275.0407"/>
<polygon fill="#242424" stroke="#242424" points="1297.8111,-273.1643 1289.8815,-266.1378 1291.6985,-276.5756 1297.8111,-273.1643"/>
</g>
<!-- object/by&#45;keys&#45;or&#45;number.js -->
<g id="node14" class="node">
<title>object/by&#45;keys&#45;or&#45;number.js</title>
<polygon fill="none" stroke="#242424" stroke-width="4" points="496.2004,-841 285.3996,-841 285.3996,-805 496.2004,-805 496.2004,-841"/>
<text text-anchor="middle" x="390.8" y="-820.6" font-family="Fira Code" font-size="12.00" fill="#242424">object/by&#45;keys&#45;or&#45;number.js</text>
</g>
<!-- debug/object.js&#45;&gt;object/by&#45;keys&#45;or&#45;number.js -->
<g id="edge13" class="edge">
<title>debug/object.js&#45;&gt;object/by&#45;keys&#45;or&#45;number.js</title>
<path fill="none" stroke="#242424" d="M630.9552,-919.9047C580.6764,-899.6168 499.1456,-866.7184 445.2497,-844.9709"/>
<polygon fill="#242424" stroke="#242424" points="446.4366,-841.6757 435.8534,-841.1794 443.8172,-848.1672 446.4366,-841.6757"/>
</g>
<!-- object/by&#45;keys.js -->
<g id="node15" class="node">
<title>object/by&#45;keys.js</title>
<polygon fill="none" stroke="#242424" stroke-width="4" points="610.2006,-726 471.3994,-726 471.3994,-690 610.2006,-690 610.2006,-726"/>
<text text-anchor="middle" x="540.8" y="-705.6" font-family="Fira Code" font-size="12.00" fill="#242424">object/by&#45;keys.js</text>
</g>
<!-- debug/object.js&#45;&gt;object/by&#45;keys.js -->
<g id="edge14" class="edge">
<title>debug/object.js&#45;&gt;object/by&#45;keys.js</title>
<path fill="none" stroke="#242424" d="M665.2068,-919.9523C641.6061,-879.7437 584.593,-782.6103 556.7022,-735.0926"/>
<polygon fill="#242424" stroke="#242424" points="559.6113,-733.1346 551.5308,-726.2821 553.5744,-736.678 559.6113,-733.1346"/>
</g>
<!-- object/by&#45;number&#45;of&#45;keys.js -->
<g id="node16" class="node">
<title>object/by&#45;number&#45;of&#45;keys.js</title>
<polygon fill="none" stroke="#242424" stroke-width="4" points="454.2004,-726 243.3996,-726 243.3996,-690 454.2004,-690 454.2004,-726"/>
<text text-anchor="middle" x="348.8" y="-705.6" font-family="Fira Code" font-size="12.00" fill="#242424">object/by&#45;number&#45;of&#45;keys.js</text>
</g>
<!-- debug/object.js&#45;&gt;object/by&#45;number&#45;of&#45;keys.js -->
<g id="edge15" class="edge">
<title>debug/object.js&#45;&gt;object/by&#45;number&#45;of&#45;keys.js</title>
<path fill="none" stroke="#242424" d="M653.9538,-919.809C621.9725,-893.4582 560.1858,-843.6004 504.8,-805 466.2952,-778.1646 420.5078,-750.1274 388.5351,-731.1382"/>
<polygon fill="#242424" stroke="#242424" points="390.29,-728.1098 379.9011,-726.0308 386.726,-734.1346 390.29,-728.1098"/>
</g>
<!-- params/curry.js -->
<g id="node17" class="node">
<title>params/curry.js</title>
<polygon fill="none" stroke="#242424" stroke-width="4" points="610.8,-151 486.8,-151 486.8,-115 610.8,-115 610.8,-151"/>
<text text-anchor="middle" x="548.8" y="-130.6" font-family="Fira Code" font-size="12.00" fill="#242424">params/curry.js</text>
</g>
<!-- debug/object.js&#45;&gt;params/curry.js -->
<g id="edge16" class="edge">
<title>debug/object.js&#45;&gt;params/curry.js</title>
<path fill="none" stroke="#242424" d="M686.9817,-919.9188C707.2005,-887.6672 749.6955,-821.9984 770.8,-805 840.1105,-749.1748 874.95,-765.2986 954.8,-726 1048.8793,-679.6983 1075.9784,-672.6446 1160.8,-611 1221.6025,-566.8114 1240.6729,-556.8472 1284.8,-496 1356.9832,-396.466 1442.4219,-321.9527 1360.8,-230 1312.0106,-175.0354 810.908,-145.526 621.1178,-136.2528"/>
<polygon fill="#242424" stroke="#242424" points="621.1204,-132.7489 610.9629,-135.7615 620.7821,-139.7407 621.1204,-132.7489"/>
</g>
<!-- utils/object.js -->
<g id="node18" class="node">
<title>utils/object.js</title>
<polygon fill="none" stroke="#242424" stroke-width="4" points="545.8,-381 421.8,-381 421.8,-345 545.8,-345 545.8,-381"/>
<text text-anchor="middle" x="483.8" y="-360.6" font-family="Fira Code" font-size="12.00" fill="#242424">utils/object.js</text>
</g>
<!-- debug/object.js&#45;&gt;utils/object.js -->
<g id="edge17" class="edge">
<title>debug/object.js&#45;&gt;utils/object.js</title>
<path fill="none" stroke="#242424" d="M674.4515,-919.9466C670.7161,-877.7192 657.7925,-770.0247 618.8,-690 599.0069,-649.3784 575.0109,-651.4153 554.8,-611 523.8473,-549.1044 536.4051,-526.3685 516.8,-460 509.8373,-436.4294 500.7776,-410.046 493.9127,-390.7521"/>
<polygon fill="#242424" stroke="#242424" points="497.1194,-389.3253 490.449,-381.0939 490.5303,-391.6884 497.1194,-389.3253"/>
</g>
<!-- debug/params.js&#45;&gt;placeholder/index.js -->
<g id="edge21" class="edge">
<title>debug/params.js&#45;&gt;placeholder/index.js</title>
<path fill="none" stroke="#242424" d="M1236.2031,-344.7196C1216.7363,-319.6723 1187.1043,-272.8945 1196.8,-230 1212.8604,-158.9481 1255.7029,-83.8047 1280.1186,-44.8933"/>
<polygon fill="#242424" stroke="#242424" points="1283.1996,-46.5707 1285.6121,-36.2542 1277.2927,-42.8145 1283.1996,-46.5707"/>
</g>
<!-- debug/params.js&#45;&gt;debug/to&#45;string.js -->
<g id="edge19" class="edge">
<title>debug/params.js&#45;&gt;debug/to&#45;string.js</title>
<path fill="none" stroke="#242424" d="M1256.0782,-344.7779C1260.423,-326.2726 1267.2087,-297.3704 1272.2344,-275.9646"/>
<polygon fill="#242424" stroke="#242424" points="1275.6634,-276.6721 1274.5418,-266.1368 1268.8487,-275.0721 1275.6634,-276.6721"/>
</g>
<!-- Ⓜ fast.js/array/some.js -->
<g id="node19" class="node">
<title>Ⓜ fast.js/array/some.js</title>
<polygon fill="none" stroke="#0c821d" stroke-width="4" points="642.2004,-36 455.3996,-36 455.3996,0 642.2004,0 642.2004,-36"/>
<text text-anchor="middle" x="548.8" y="-16.8" font-family="Fira Code" font-size="12.00" fill="#0c821d">Ⓜ fast.js/array/some.js</text>
</g>
<!-- debug/params.js&#45;&gt;Ⓜ fast.js/array/some.js -->
<g id="edge18" class="edge">
<title>debug/params.js&#45;&gt;Ⓜ fast.js/array/some.js</title>
<path fill="none" stroke="#242424" d="M1214.9935,-344.937C1096.6158,-286.8428 725.8077,-104.8672 595.025,-40.6851"/>
<polygon fill="#242424" stroke="#242424" points="596.1844,-37.3554 585.6652,-36.0917 593.1004,-43.6394 596.1844,-37.3554"/>
</g>
<!-- params/remap.js -->
<g id="node20" class="node">
<title>params/remap.js</title>
<polygon fill="none" stroke="#242424" stroke-width="4" points="373.8,-266 249.8,-266 249.8,-230 373.8,-230 373.8,-266"/>
<text text-anchor="middle" x="311.8" y="-245.6" font-family="Fira Code" font-size="12.00" fill="#242424">params/remap.js</text>
</g>
<!-- debug/params.js&#45;&gt;params/remap.js -->
<g id="edge20" class="edge">
<title>debug/params.js&#45;&gt;params/remap.js</title>
<path fill="none" stroke="#242424" d="M1189.5757,-346.6644C1186.6172,-346.0643 1183.6809,-345.5049 1180.8,-345 833.0062,-284.051 735.652,-326.7117 383.9713,-266.0666"/>
<polygon fill="#242424" stroke="#242424" points="384.4763,-262.602 374.0243,-264.3356 383.2761,-269.4983 384.4763,-262.602"/>
</g>
<!-- object/by&#45;keys&#45;or&#45;number.js&#45;&gt;object/by&#45;keys.js -->
<g id="edge40" class="edge">
<title>object/by&#45;keys&#45;or&#45;number.js&#45;&gt;object/by&#45;keys.js</title>
<path fill="none" stroke="#242424" d="M414.5679,-804.7779C440.1316,-785.1791 480.9065,-753.9184 509.1668,-732.2521"/>
<polygon fill="#242424" stroke="#242424" points="511.3367,-734.9988 517.1433,-726.1368 507.0776,-729.4436 511.3367,-734.9988"/>
</g>
<!-- object/by&#45;keys&#45;or&#45;number.js&#45;&gt;object/by&#45;number&#45;of&#45;keys.js -->
<g id="edge41" class="edge">
<title>object/by&#45;keys&#45;or&#45;number.js&#45;&gt;object/by&#45;number&#45;of&#45;keys.js</title>
<path fill="none" stroke="#242424" d="M384.145,-804.7779C377.3558,-786.1885 366.7349,-757.1074 358.9067,-735.6731"/>
<polygon fill="#242424" stroke="#242424" points="362.1421,-734.3293 355.4239,-726.1368 355.5669,-736.7307 362.1421,-734.3293"/>
</g>
<!-- object/by&#45;condition.js -->
<g id="node27" class="node">
<title>object/by&#45;condition.js</title>
<polygon fill="none" stroke="#242424" stroke-width="4" points="422.2005,-611 247.3995,-611 247.3995,-575 422.2005,-575 422.2005,-611"/>
<text text-anchor="middle" x="334.8" y="-590.6" font-family="Fira Code" font-size="12.00" fill="#242424">object/by&#45;condition.js</text>
</g>
<!-- object/by&#45;keys&#45;or&#45;number.js&#45;&gt;object/by&#45;condition.js -->
<g id="edge39" class="edge">
<title>object/by&#45;keys&#45;or&#45;number.js&#45;&gt;object/by&#45;condition.js</title>
<path fill="none" stroke="#242424" d="M335.937,-804.855C300.1578,-789.8332 256.257,-764.6086 234.8,-726 211.999,-684.9731 258.4202,-642.4504 295.3819,-616.8562"/>
<polygon fill="#242424" stroke="#242424" points="297.6977,-619.5171 304.0485,-611.0366 293.7953,-613.7057 297.6977,-619.5171"/>
</g>
<!-- object/by&#45;keys.js&#45;&gt;object/by&#45;condition.js -->
<g id="edge42" class="edge">
<title>object/by&#45;keys.js&#45;&gt;object/by&#45;condition.js</title>
<path fill="none" stroke="#242424" d="M508.1587,-689.7779C472.4485,-669.8426 415.1249,-637.8416 376.2595,-616.1448"/>
<polygon fill="#242424" stroke="#242424" points="377.7262,-612.9553 367.2886,-611.1368 374.3141,-619.0674 377.7262,-612.9553"/>
</g>
<!-- utils/length.js -->
<g id="node28" class="node">
<title>utils/length.js</title>
<polygon fill="none" stroke="#242424" stroke-width="4" points="507.8,-496 383.8,-496 383.8,-460 507.8,-460 507.8,-496"/>
<text text-anchor="middle" x="445.8" y="-475.6" font-family="Fira Code" font-size="12.00" fill="#242424">utils/length.js</text>
</g>
<!-- object/by&#45;keys.js&#45;&gt;utils/length.js -->
<g id="edge43" class="edge">
<title>object/by&#45;keys.js&#45;&gt;utils/length.js</title>
<path fill="none" stroke="#242424" d="M533.3455,-689.9523C516.8068,-649.9112 476.9512,-553.4188 457.2368,-505.6891"/>
<polygon fill="#242424" stroke="#242424" points="460.4039,-504.1886 453.3513,-496.2821 453.9341,-506.8609 460.4039,-504.1886"/>
</g>
<!-- utils/matching&#45;key&#45;count.js -->
<g id="node29" class="node">
<title>utils/matching&#45;key&#45;count.js</title>
<polygon fill="none" stroke="#242424" stroke-width="4" points="774.2004,-611 563.3996,-611 563.3996,-575 774.2004,-575 774.2004,-611"/>
<text text-anchor="middle" x="668.8" y="-590.6" font-family="Fira Code" font-size="12.00" fill="#242424">utils/matching&#45;key&#45;count.js</text>
</g>
<!-- object/by&#45;keys.js&#45;&gt;utils/matching&#45;key&#45;count.js -->
<g id="edge44" class="edge">
<title>object/by&#45;keys.js&#45;&gt;utils/matching&#45;key&#45;count.js</title>
<path fill="none" stroke="#242424" d="M561.082,-689.7779C582.6155,-670.4314 616.797,-639.7214 640.8696,-618.0937"/>
<polygon fill="#242424" stroke="#242424" points="643.5133,-620.4237 648.6129,-611.1368 638.835,-615.2165 643.5133,-620.4237"/>
</g>
<!-- object/by&#45;number&#45;of&#45;keys.js&#45;&gt;object/by&#45;condition.js -->
<g id="edge45" class="edge">
<title>object/by&#45;number&#45;of&#45;keys.js&#45;&gt;object/by&#45;condition.js</title>
<path fill="none" stroke="#242424" d="M346.5817,-689.7779C344.3391,-671.3567 340.8423,-642.6329 338.24,-621.2569"/>
<polygon fill="#242424" stroke="#242424" points="341.6909,-620.6406 337.008,-611.1368 334.7422,-621.4865 341.6909,-620.6406"/>
</g>
<!-- object/by&#45;number&#45;of&#45;keys.js&#45;&gt;utils/length.js -->
<g id="edge46" class="edge">
<title>object/by&#45;number&#45;of&#45;keys.js&#45;&gt;utils/length.js</title>
<path fill="none" stroke="#242424" d="M369.9554,-689.9639C389.3576,-672.0721 417.0936,-642.7918 430.8,-611 445.4185,-577.0925 447.6683,-534.0344 447.2721,-506.2504"/>
<polygon fill="#242424" stroke="#242424" points="450.7654,-505.9525 446.9972,-496.0505 443.768,-506.1412 450.7654,-505.9525"/>
</g>
<!-- params/curry.js&#45;&gt;placeholder/index.js -->
<g id="edge51" class="edge">
<title>params/curry.js&#45;&gt;placeholder/index.js</title>
<path fill="none" stroke="#242424" d="M611.0507,-123.4421C743.4698,-103.1108 1053.5398,-55.5032 1207.6131,-31.8471"/>
<polygon fill="#242424" stroke="#242424" points="1208.1795,-35.3013 1217.5325,-30.3241 1207.1171,-28.3823 1208.1795,-35.3013"/>
</g>
<!-- params/curry.js&#45;&gt;Ⓜ fast.js/array/some.js -->
<g id="edge50" class="edge">
<title>params/curry.js&#45;&gt;Ⓜ fast.js/array/some.js</title>
<path fill="none" stroke="#242424" d="M548.8,-114.7779C548.8,-96.3567 548.8,-67.6329 548.8,-46.2569"/>
<polygon fill="#242424" stroke="#242424" points="552.3001,-46.1368 548.8,-36.1368 545.3001,-46.1369 552.3001,-46.1368"/>
</g>
<!-- utils/object.js&#45;&gt;params/curry.js -->
<g id="edge70" class="edge">
<title>utils/object.js&#45;&gt;params/curry.js</title>
<path fill="none" stroke="#242424" d="M488.9004,-344.9523C500.1927,-304.995 527.372,-208.8223 540.89,-160.9893"/>
<polygon fill="#242424" stroke="#242424" points="544.2818,-161.8571 543.6333,-151.2821 537.5456,-159.9534 544.2818,-161.8571"/>
</g>
<!-- params/remap.js&#45;&gt;params/curry.js -->
<g id="edge56" class="edge">
<title>params/remap.js&#45;&gt;params/curry.js</title>
<path fill="none" stroke="#242424" d="M349.092,-229.9047C390.4699,-209.8268 457.3012,-177.3982 502.1215,-155.6499"/>
<polygon fill="#242424" stroke="#242424" points="503.8657,-158.6939 511.3345,-151.1794 500.8098,-152.3962 503.8657,-158.6939"/>
</g>
<!-- fp/compose.js -->
<g id="node21" class="node">
<title>fp/compose.js</title>
<polygon fill="none" stroke="#242424" stroke-width="4" points="1017.4007,-496 908.1993,-496 908.1993,-460 1017.4007,-460 1017.4007,-496"/>
<text text-anchor="middle" x="962.8" y="-475.6" font-family="Fira Code" font-size="12.00" fill="#242424">fp/compose.js</text>
</g>
<!-- fp/compose.js&#45;&gt;fp/pipe.js -->
<g id="edge22" class="edge">
<title>fp/compose.js&#45;&gt;fp/pipe.js</title>
<path fill="none" stroke="#242424" d="M930.3171,-459.7779C894.7803,-439.8426 837.735,-407.8416 799.0582,-386.1448"/>
<polygon fill="#242424" stroke="#242424" points="800.5647,-382.9769 790.1309,-381.1368 797.1399,-389.0819 800.5647,-382.9769"/>
</g>
<!-- utils/delegatee.js&#45;&gt;params/curry.js -->
<g id="edge58" class="edge">
<title>utils/delegatee.js&#45;&gt;params/curry.js</title>
<path fill="none" stroke="#242424" d="M810.0215,-229.9047C755.025,-209.5028 665.6522,-176.3484 607.0409,-154.6055"/>
<polygon fill="#242424" stroke="#242424" points="608.1425,-151.2811 597.5495,-151.0845 605.7078,-157.8441 608.1425,-151.2811"/>
</g>
<!-- fp/index.js -->
<g id="node23" class="node">
<title>fp/index.js</title>
<polygon fill="none" stroke="#242424" stroke-width="4" points="1055.5002,-611 960.0998,-611 960.0998,-575 1055.5002,-575 1055.5002,-611"/>
<text text-anchor="middle" x="1007.8" y="-590.6" font-family="Fira Code" font-size="12.00" fill="#242424">fp/index.js</text>
</g>
<!-- fp/index.js&#45;&gt;fp/filter.js -->
<g id="edge25" class="edge">
<title>fp/index.js&#45;&gt;fp/filter.js</title>
<path fill="none" stroke="#242424" d="M1024.9783,-574.8638C1047.9034,-548.3657 1083.0613,-498.0843 1059.8,-460 1044.855,-435.5314 978.3481,-405.0046 928.4234,-384.804"/>
<polygon fill="#242424" stroke="#242424" points="929.5801,-381.4971 918.9955,-381.0313 926.9794,-387.996 929.5801,-381.4971"/>
</g>
<!-- fp/index.js&#45;&gt;fp/pipe.js -->
<g id="edge26" class="edge">
<title>fp/index.js&#45;&gt;fp/pipe.js</title>
<path fill="none" stroke="#242424" d="M1017.7615,-574.7931C1031.3035,-547.305 1051.2007,-494.7374 1026.8,-460 1023.5546,-455.3798 889.0106,-408.3185 811.4643,-381.4855"/>
<polygon fill="#242424" stroke="#242424" points="812.4367,-378.1185 801.8419,-378.1585 810.1492,-384.7342 812.4367,-378.1185"/>
</g>
<!-- fp/index.js&#45;&gt;fp/compose.js -->
<g id="edge24" class="edge">
<title>fp/index.js&#45;&gt;fp/compose.js</title>
<path fill="none" stroke="#242424" d="M1000.6696,-574.7779C993.3955,-556.1885 982.0159,-527.1074 973.6286,-505.6731"/>
<polygon fill="#242424" stroke="#242424" points="976.8004,-504.1739 969.897,-496.1368 970.2817,-506.7247 976.8004,-504.1739"/>
</g>
<!-- index.js -->
<g id="node24" class="node">
<title>index.js</title>
<polygon fill="none" stroke="#242424" stroke-width="4" points="569.4011,-1071 496.1989,-1071 496.1989,-1035 569.4011,-1035 569.4011,-1071"/>
<text text-anchor="middle" x="532.8" y="-1050.6" font-family="Fira Code" font-size="12.00" fill="#242424">index.js</text>
</g>
<!-- index.js&#45;&gt;../package.json -->
<g id="edge27" class="edge">
<title>index.js&#45;&gt;../package.json</title>
<path fill="none" stroke="#242424" d="M532.8,-1034.7779C532.8,-1016.3567 532.8,-987.6329 532.8,-966.2569"/>
<polygon fill="#242424" stroke="#242424" points="536.3001,-966.1368 532.8,-956.1368 529.3001,-966.1369 536.3001,-966.1368"/>
</g>
<!-- index.js&#45;&gt;combinators/index.js -->
<g id="edge28" class="edge">
<title>index.js&#45;&gt;combinators/index.js</title>
<path fill="none" stroke="#242424" d="M569.7661,-1043.2943C640.5792,-1024.7018 796.7659,-983.6939 891.9773,-958.6955"/>
<polygon fill="#242424" stroke="#242424" points="893.0667,-962.0281 901.85,-956.1033 891.289,-955.2576 893.0667,-962.0281"/>
</g>
<!-- index.js&#45;&gt;fp/pipe.js -->
<g id="edge30" class="edge">
<title>index.js&#45;&gt;fp/pipe.js</title>
<path fill="none" stroke="#242424" d="M569.7701,-1049.1635C674.9566,-1037.7878 973.8328,-1002.1369 1059.8,-956 1122.3917,-922.4083 1144.1975,-906.8667 1170.8,-841 1201.2133,-765.698 1090.6761,-778.5994 1028.8,-726 917.314,-631.2285 921.5716,-577.8196 834.8,-460 816.7263,-435.4593 795.06,-408.3557 779.3208,-389.0515"/>
<polygon fill="#242424" stroke="#242424" points="782.0079,-386.8085 772.9661,-381.286 776.5905,-391.2417 782.0079,-386.8085"/>
</g>
<!-- index.js&#45;&gt;placeholder/index.js -->
<g id="edge35" class="edge">
<title>index.js&#45;&gt;placeholder/index.js</title>
<path fill="none" stroke="#242424" d="M569.6904,-1052.2239C697.7147,-1048.8768 1120.9025,-1032.1554 1228.8,-956 1377.4042,-851.1133 1417.8,-774.8913 1417.8,-593 1417.8,-593 1417.8,-593 1417.8,-248 1417.8,-165.8749 1356.9188,-84.053 1321.8854,-43.7681"/>
<polygon fill="#242424" stroke="#242424" points="1324.5001,-41.4413 1315.249,-36.2771 1319.2605,-46.0832 1324.5001,-41.4413"/>
</g>
<!-- index.js&#45;&gt;params/curry.js -->
<g id="edge32" class="edge">
<title>index.js&#45;&gt;params/curry.js</title>
<path fill="none" stroke="#242424" d="M495.9941,-1049.1378C397.9353,-1036.6154 137.8,-987.8594 137.8,-823 137.8,-823 137.8,-823 137.8,-363 137.8,-296.6109 154.4663,-272.0994 205.8,-230 247.152,-196.0868 389.0159,-163.7512 476.8207,-146.3216"/>
<polygon fill="#242424" stroke="#242424" points="477.5865,-149.7381 486.7228,-144.3736 476.2352,-142.8698 477.5865,-149.7381"/>
</g>
<!-- index.js&#45;&gt;params/remap.js -->
<g id="edge34" class="edge">
<title>index.js&#45;&gt;params/remap.js</title>
<path fill="none" stroke="#242424" d="M496.1459,-1047.1768C405.444,-1030.4705 177.8,-973.5452 177.8,-823 177.8,-823 177.8,-823 177.8,-593 177.8,-475.2222 299.5554,-492.7338 336.8,-381 348.6445,-345.4665 336.0417,-302.611 324.8469,-275.3331"/>
<polygon fill="#242424" stroke="#242424" points="328.0088,-273.8264 320.8341,-266.0306 321.5813,-276.599 328.0088,-273.8264"/>
</g>
<!-- index.js&#45;&gt;fp/compose.js -->
<g id="edge29" class="edge">
<title>index.js&#45;&gt;fp/compose.js</title>
<path fill="none" stroke="#242424" d="M569.5267,-1050.4616C703.7039,-1040.8209 1161.762,-1004.552 1203.8,-956 1247.729,-905.264 1233.4925,-865.1852 1203.8,-805 1141.1079,-677.9263 1013.4921,-738.0737 950.8,-611 934.3559,-577.6687 943.2129,-533.9266 952.1315,-505.8836"/>
<polygon fill="#242424" stroke="#242424" points="955.4808,-506.9049 955.3733,-496.3106 948.8506,-504.6596 955.4808,-506.9049"/>
</g>
<!-- object/index.js -->
<g id="node25" class="node">
<title>object/index.js</title>
<polygon fill="none" stroke="#242424" stroke-width="4" points="452.8,-956 328.8,-956 328.8,-920 452.8,-920 452.8,-956"/>
<text text-anchor="middle" x="390.8" y="-935.6" font-family="Fira Code" font-size="12.00" fill="#242424">object/index.js</text>
</g>
<!-- index.js&#45;&gt;object/index.js -->
<g id="edge31" class="edge">
<title>index.js&#45;&gt;object/index.js</title>
<path fill="none" stroke="#242424" d="M510.2997,-1034.7779C486.2032,-1015.2632 447.8303,-984.1865 421.0912,-962.5316"/>
<polygon fill="#242424" stroke="#242424" points="423.169,-959.7105 413.1951,-956.1368 418.7635,-965.1504 423.169,-959.7105"/>
</g>
<!-- params/ify.js -->
<g id="node26" class="node">
<title>params/ify.js</title>
<polygon fill="none" stroke="#242424" stroke-width="4" points="109.4007,-266 .1993,-266 .1993,-230 109.4007,-230 109.4007,-266"/>
<text text-anchor="middle" x="54.8" y="-245.6" font-family="Fira Code" font-size="12.00" fill="#242424">params/ify.js</text>
</g>
<!-- index.js&#45;&gt;params/ify.js -->
<g id="edge33" class="edge">
<title>index.js&#45;&gt;params/ify.js</title>
<path fill="none" stroke="#242424" d="M496.1927,-1048.8402C406.5014,-1037.9601 179.0699,-1005.9956 123.8,-956 77.415,-914.0414 77.8,-885.5468 77.8,-823 77.8,-823 77.8,-823 77.8,-478 77.8,-404.9357 66.1661,-319.4606 59.4466,-276.1857"/>
<polygon fill="#242424" stroke="#242424" points="62.8747,-275.4559 57.8542,-266.1261 55.9608,-276.5504 62.8747,-275.4559"/>
</g>
<!-- object/index.js&#45;&gt;object/by&#45;keys&#45;or&#45;number.js -->
<g id="edge47" class="edge">
<title>object/index.js&#45;&gt;object/by&#45;keys&#45;or&#45;number.js</title>
<path fill="none" stroke="#242424" d="M390.8,-919.7779C390.8,-901.3567 390.8,-872.6329 390.8,-851.2569"/>
<polygon fill="#242424" stroke="#242424" points="394.3001,-851.1368 390.8,-841.1368 387.3001,-851.1369 394.3001,-851.1368"/>
</g>
<!-- object/index.js&#45;&gt;object/by&#45;keys.js -->
<g id="edge48" class="edge">
<title>object/index.js&#45;&gt;object/by&#45;keys.js</title>
<path fill="none" stroke="#242424" d="M420.9737,-919.8357C446.9481,-902.6683 483.5098,-874.579 504.8,-841 525.3582,-808.5755 534.2888,-764.5315 538.091,-736.1819"/>
<polygon fill="#242424" stroke="#242424" points="541.579,-736.4911 539.3106,-726.142 534.6301,-735.6469 541.579,-736.4911"/>
</g>
<!-- object/index.js&#45;&gt;object/by&#45;number&#45;of&#45;keys.js -->
<g id="edge49" class="edge">
<title>object/index.js&#45;&gt;object/by&#45;number&#45;of&#45;keys.js</title>
<path fill="none" stroke="#242424" d="M356.4881,-919.9153C329.2385,-903.4233 293.0977,-876.2663 276.8,-841 258.9794,-802.4383 292.4411,-759.4962 319.4832,-733.1124"/>
<polygon fill="#242424" stroke="#242424" points="322.017,-735.5338 326.8923,-726.1273 317.2151,-730.4405 322.017,-735.5338"/>
</g>
<!-- params/ify.js&#45;&gt;Ⓜ fast.js/array/some.js -->
<g id="edge52" class="edge">
<title>params/ify.js&#45;&gt;Ⓜ fast.js/array/some.js</title>
<path fill="none" stroke="#242424" d="M93.5634,-229.9523C182.8232,-188.3941 402.6933,-86.0254 500.5183,-40.4793"/>
<polygon fill="#242424" stroke="#242424" points="502.2873,-43.5165 509.8756,-36.1227 499.3327,-37.1706 502.2873,-43.5165"/>
</g>
<!-- object/by&#45;condition.js&#45;&gt;fp/pipe.js -->
<g id="edge36" class="edge">
<title>object/by&#45;condition.js&#45;&gt;fp/pipe.js</title>
<path fill="none" stroke="#242424" d="M422.2252,-586.8853C540.0144,-576.6191 740.1168,-551.3412 784.8,-496 809.2413,-465.7289 790.9177,-419.1723 774.8297,-389.9346"/>
<polygon fill="#242424" stroke="#242424" points="777.7631,-388.0147 769.7419,-381.0929 771.6959,-391.506 777.7631,-388.0147"/>
</g>
<!-- object/by&#45;condition.js&#45;&gt;params/curry.js -->
<g id="edge37" class="edge">
<title>object/by&#45;condition.js&#45;&gt;params/curry.js</title>
<path fill="none" stroke="#242424" d="M317.2443,-574.8134C285.3853,-540.3925 219.0999,-461.8936 194.8,-381 180.251,-332.5669 220.8074,-234.1378 224.8,-230 259.6199,-193.914 392.2115,-162.8003 476.6047,-146.0882"/>
<polygon fill="#242424" stroke="#242424" points="477.5065,-149.4782 486.6478,-144.1222 476.1617,-142.6086 477.5065,-149.4782"/>
</g>
<!-- object/by&#45;condition.js&#45;&gt;utils/object.js -->
<g id="edge38" class="edge">
<title>object/by&#45;condition.js&#45;&gt;utils/object.js</title>
<path fill="none" stroke="#242424" d="M337.044,-574.9162C341.0509,-548.0442 351.3275,-496.793 374.8,-460 393.5685,-430.5805 423.7008,-404.735 447.532,-387.136"/>
<polygon fill="#242424" stroke="#242424" points="449.6094,-389.9531 455.6696,-381.2627 445.5127,-384.2771 449.6094,-389.9531"/>
</g>
<!-- utils/length.js&#45;&gt;fp/pipe.js -->
<g id="edge59" class="edge">
<title>utils/length.js&#45;&gt;fp/pipe.js</title>
<path fill="none" stroke="#242424" d="M494.8932,-459.9047C551.7888,-438.9336 645.2401,-404.4884 704.047,-382.8128"/>
<polygon fill="#242424" stroke="#242424" points="705.3615,-386.0585 713.534,-379.316 702.9406,-379.4905 705.3615,-386.0585"/>
</g>
<!-- utils/length.js&#45;&gt;utils/object.js -->
<g id="edge60" class="edge">
<title>utils/length.js&#45;&gt;utils/object.js</title>
<path fill="none" stroke="#242424" d="M451.8212,-459.7779C457.9638,-441.1885 467.5732,-412.1074 474.6558,-390.6731"/>
<polygon fill="#242424" stroke="#242424" points="477.9927,-391.73 477.807,-381.1368 471.3461,-389.5338 477.9927,-391.73"/>
</g>
<!-- utils/prop.js -->
<g id="node35" class="node">
<title>utils/prop.js</title>
<polygon fill="none" stroke="#242424" stroke-width="4" points="501.4007,-266 392.1993,-266 392.1993,-230 501.4007,-230 501.4007,-266"/>
<text text-anchor="middle" x="446.8" y="-245.6" font-family="Fira Code" font-size="12.00" fill="#242424">utils/prop.js</text>
</g>
<!-- utils/length.js&#45;&gt;utils/prop.js -->
<g id="edge61" class="edge">
<title>utils/length.js&#45;&gt;utils/prop.js</title>
<path fill="none" stroke="#242424" d="M436.2935,-459.6799C424.2152,-434.2005 405.7354,-386.5122 412.8,-345 416.9301,-320.7314 426.4822,-294.4506 434.4134,-275.3736"/>
<polygon fill="#242424" stroke="#242424" points="437.6639,-276.6739 438.3759,-266.103 431.2272,-273.9227 437.6639,-276.6739"/>
</g>
<!-- utils/matching&#45;key&#45;count.js&#45;&gt;fp/pipe.js -->
<g id="edge62" class="edge">
<title>utils/matching&#45;key&#45;count.js&#45;&gt;fp/pipe.js</title>
<path fill="none" stroke="#242424" d="M719.798,-574.8629C754.2663,-559.6184 797.1282,-534.1239 817.8,-496 837.4715,-459.721 807.805,-415.7524 783.6307,-388.5746"/>
<polygon fill="#242424" stroke="#242424" points="786.0366,-386.0206 776.6851,-381.0406 780.89,-390.7654 786.0366,-386.0206"/>
</g>
<!-- utils/matching&#45;key&#45;count.js&#45;&gt;params/curry.js -->
<g id="edge63" class="edge">
<title>utils/matching&#45;key&#45;count.js&#45;&gt;params/curry.js</title>
<path fill="none" stroke="#242424" d="M649.6005,-574.9684C631.6516,-556.8598 605.7328,-527.2301 592.8,-496 544.454,-379.254 544.6888,-224.6009 547.1859,-161.5687"/>
<polygon fill="#242424" stroke="#242424" points="550.6977,-161.381 547.6501,-151.234 543.7048,-161.0669 550.6977,-161.381"/>
</g>
<!-- utils/matching&#45;key&#45;count.js&#45;&gt;utils/length.js -->
<g id="edge64" class="edge">
<title>utils/matching&#45;key&#45;count.js&#45;&gt;utils/length.js</title>
<path fill="none" stroke="#242424" d="M633.465,-574.7779C594.5632,-554.7164 531.9673,-522.436 489.8844,-500.7341"/>
<polygon fill="#242424" stroke="#242424" points="491.4617,-497.6095 480.9697,-496.1368 488.2533,-503.831 491.4617,-497.6095"/>
</g>
<!-- utils/matching&#45;keys.js -->
<g id="node36" class="node">
<title>utils/matching&#45;keys.js</title>
<polygon fill="none" stroke="#242424" stroke-width="4" points="776.2005,-496 601.3995,-496 601.3995,-460 776.2005,-460 776.2005,-496"/>
<text text-anchor="middle" x="688.8" y="-475.6" font-family="Fira Code" font-size="12.00" fill="#242424">utils/matching&#45;keys.js</text>
</g>
<!-- utils/matching&#45;key&#45;count.js&#45;&gt;utils/matching&#45;keys.js -->
<g id="edge65" class="edge">
<title>utils/matching&#45;key&#45;count.js&#45;&gt;utils/matching&#45;keys.js</title>
<path fill="none" stroke="#242424" d="M671.9691,-574.7779C675.1727,-556.3567 680.1682,-527.6329 683.8858,-506.2569"/>
<polygon fill="#242424" stroke="#242424" points="687.3805,-506.5887 685.6458,-496.1368 680.484,-505.3892 687.3805,-506.5887"/>
</g>
<!-- params/index.js -->
<g id="node30" class="node">
<title>params/index.js</title>
<polygon fill="none" stroke="#242424" stroke-width="4" points="327.8,-381 203.8,-381 203.8,-345 327.8,-345 327.8,-381"/>
<text text-anchor="middle" x="265.8" y="-360.6" font-family="Fira Code" font-size="12.00" fill="#242424">params/index.js</text>
</g>
<!-- params/index.js&#45;&gt;params/curry.js -->
<g id="edge53" class="edge">
<title>params/index.js&#45;&gt;params/curry.js</title>
<path fill="none" stroke="#242424" d="M254.4013,-344.7285C238.8149,-317.156 215.5097,-264.4796 240.8,-230 268.8895,-191.704 394.7143,-161.6101 476.5981,-145.6365"/>
<polygon fill="#242424" stroke="#242424" points="477.4454,-149.0378 486.6044,-143.7119 476.1232,-142.1638 477.4454,-149.0378"/>
</g>
<!-- params/index.js&#45;&gt;params/remap.js -->
<g id="edge55" class="edge">
<title>params/index.js&#45;&gt;params/remap.js</title>
<path fill="none" stroke="#242424" d="M273.0888,-344.7779C280.5246,-326.1885 292.157,-297.1074 300.7307,-275.6731"/>
<polygon fill="#242424" stroke="#242424" points="304.081,-276.7215 304.5453,-266.1368 297.5816,-274.1217 304.081,-276.7215"/>
</g>
<!-- params/index.js&#45;&gt;params/ify.js -->
<g id="edge54" class="edge">
<title>params/index.js&#45;&gt;params/ify.js</title>
<path fill="none" stroke="#242424" d="M232.3664,-344.7779C195.7123,-324.8006 136.8267,-292.7065 97.014,-271.0077"/>
<polygon fill="#242424" stroke="#242424" points="98.5327,-267.8493 88.0772,-266.1368 95.1827,-273.9957 98.5327,-267.8493"/>
</g>
<!-- performance.fixture.js -->
<g id="node31" class="node">
<title>performance.fixture.js</title>
<polygon fill="none" stroke="#0c821d" stroke-width="4" points="922.2005,-36 747.3995,-36 747.3995,0 922.2005,0 922.2005,-36"/>
<text text-anchor="middle" x="834.8" y="-15.6" font-family="Fira Code" font-size="12.00" fill="#0c821d">performance.fixture.js</text>
</g>
<!-- performance2.fixture.js -->
<g id="node32" class="node">
<title>performance2.fixture.js</title>
<polygon fill="none" stroke="#0c821d" stroke-width="4" points="385.4004,-104 204.1996,-104 204.1996,-68 385.4004,-68 385.4004,-104"/>
<text text-anchor="middle" x="294.8" y="-83.6" font-family="Fira Code" font-size="12.00" fill="#0c821d">performance2.fixture.js</text>
</g>
<!-- performance3.fixture.js -->
<g id="node33" class="node">
<title>performance3.fixture.js</title>
<polygon fill="none" stroke="#0c821d" stroke-width="4" points="1541.4004,-1192 1360.1996,-1192 1360.1996,-1156 1541.4004,-1156 1541.4004,-1192"/>
<text text-anchor="middle" x="1450.8" y="-1171.6" font-family="Fira Code" font-size="12.00" fill="#0c821d">performance3.fixture.js</text>
</g>
<!-- utils/array.js -->
<g id="node34" class="node">
<title>utils/array.js</title>
<polygon fill="none" stroke="#242424" stroke-width="4" points="712.1002,-266 595.4998,-266 595.4998,-230 712.1002,-230 712.1002,-266"/>
<text text-anchor="middle" x="653.8" y="-245.6" font-family="Fira Code" font-size="12.00" fill="#242424">utils/array.js</text>
</g>
<!-- utils/array.js&#45;&gt;params/curry.js -->
<g id="edge57" class="edge">
<title>utils/array.js&#45;&gt;params/curry.js</title>
<path fill="none" stroke="#242424" d="M637.1624,-229.7779C619.6519,-210.5997 591.9455,-180.2546 572.2287,-158.66"/>
<polygon fill="#242424" stroke="#242424" points="574.6872,-156.1618 565.3597,-151.1368 569.5177,-160.8817 574.6872,-156.1618"/>
</g>
<!-- utils/prop.js&#45;&gt;params/curry.js -->
<g id="edge71" class="edge">
<title>utils/prop.js&#45;&gt;params/curry.js</title>
<path fill="none" stroke="#242424" d="M462.9622,-229.7779C479.9725,-210.5997 506.8872,-180.2546 526.0407,-158.66"/>
<polygon fill="#242424" stroke="#242424" points="528.6963,-160.9406 532.7134,-151.1368 523.4594,-156.2957 528.6963,-160.9406"/>
</g>
<!-- utils/matching&#45;keys.js&#45;&gt;fp/filter.js -->
<g id="edge66" class="edge">
<title>utils/matching&#45;keys.js&#45;&gt;fp/filter.js</title>
<path fill="none" stroke="#242424" d="M717.6384,-459.7779C748.922,-440.0108 798.9799,-408.3808 833.298,-386.6963"/>
<polygon fill="#242424" stroke="#242424" points="835.5123,-389.4374 842.0965,-381.1368 831.7731,-383.5197 835.5123,-389.4374"/>
</g>
<!-- utils/matching&#45;keys.js&#45;&gt;params/curry.js -->
<g id="edge67" class="edge">
<title>utils/matching&#45;keys.js&#45;&gt;params/curry.js</title>
<path fill="none" stroke="#242424" d="M690.5166,-459.8654C693.0512,-434.2051 698.2138,-385.8698 704.8,-345 710.4995,-309.6323 717.2266,-301.6453 720.8,-266 722.396,-250.0798 728.8699,-243.8158 720.8,-230 699.1339,-192.9074 657.4705,-168.887 620.5763,-154.0285"/>
<polygon fill="#242424" stroke="#242424" points="621.407,-150.5975 610.8175,-150.2619 618.8864,-157.128 621.407,-150.5975"/>
</g>
<!-- utils/matching&#45;keys.js&#45;&gt;utils/object.js -->
<g id="edge69" class="edge">
<title>utils/matching&#45;keys.js&#45;&gt;utils/object.js</title>
<path fill="none" stroke="#242424" d="M656.3171,-459.7779C620.7803,-439.8426 563.735,-407.8416 525.0582,-386.1448"/>
<polygon fill="#242424" stroke="#242424" points="526.5647,-382.9769 516.1309,-381.1368 523.1399,-389.0819 526.5647,-382.9769"/>
</g>
<!-- utils/matching&#45;keys.js&#45;&gt;utils/array.js -->
<g id="edge68" class="edge">
<title>utils/matching&#45;keys.js&#45;&gt;utils/array.js</title>
<path fill="none" stroke="#242424" d="M685.392,-459.7997C681.798,-440.3331 676.075,-408.5382 671.8,-381 666.2081,-344.9785 660.7285,-303.3132 657.3123,-276.3548"/>
<polygon fill="#242424" stroke="#242424" points="660.7435,-275.5877 656.0229,-266.1027 653.7982,-276.4613 660.7435,-275.5877"/>
</g>
</g>
</svg>
