<svg id="katsu-curry_1_" xmlns="http://www.w3.org/2000/svg" width="293.8" height="58.1" viewBox="-287.8 472 293.8 58.1"><style>.st0{fill:#ED1F24;}</style><path class="st0" d="M-252.8 482.8c.1-.9.1-2.3.1-3.1 0-.5 0-.7-.1-1.2l4.5.1c-.1.6-.1.6-.3 2.9 0 .6 0 .6-.1 1.2h5.2c.8 0 1.1 0 1.6-.3l1.9 1.6c-.3.5-.3.7-.3 1.8-.2 5.1-.5 9.1-1 10.7-.7 2.2-1.8 3-4.5 3-.9 0-1.3 0-3.1-.2-.1-1.9-.3-2.7-.8-4.2 1.2.3 2.4.5 3.1.5 1.1 0 1.4-.4 1.7-2.5.2-1.6.4-4.6.4-6.7h-4.6c-.2 1.6-.2 1.6-.4 2.4-1.1 4.8-3.3 8-8.2 11.2-1.1-1.7-1.8-2.5-3.1-3.6 3.2-1.7 5-3.4 6.2-5.8.6-1.2.9-2.1 1.2-4.1h-3c-1.6 0-2.1 0-3.2.1v-4.1c1.2.2 1.6.2 3.3.2l3.5.1zm19.1-2.2c1.2 2.3 1.9 4 2.9 7.4l-4.1 1.3c-.7-3-1.6-5.6-2.7-7.6l3.9-1.1zm17.2.5c-.2.6-.3.9-.6 2.3-.9 4.1-2.3 7.4-4.3 10.1-2.1 2.7-4.7 4.7-8.7 6.7-.9-1.7-1.5-2.4-2.9-3.8 2.9-1 5-2.3 6.9-4.1 2.6-2.4 4-5.2 4.8-9.4.2-1.1.3-1.7.3-2.7l4.5.9zm-10.8-1.6c1.1 2 2 4.1 2.8 7.2l-4.1 1.3c-.7-2.8-1.4-4.8-2.7-7.4l4-1.1zm-49 27.7c.1-.9.1-2.3.1-3.1 0-.5 0-.7-.1-1.2l4.5.1c-.1.6-.1.6-.3 2.9 0 .6 0 .6-.1 1.2h5.2c.8 0 1.1 0 1.6-.3l1.9 1.6c-.3.5-.3.7-.3 1.8-.2 5.1-.5 9.1-1 10.7-.7 2.2-1.8 3-4.5 3-.9 0-1.3 0-3.1-.2-.1-1.9-.3-2.7-.8-4.2 1.2.3 2.4.5 3.1.5 1.1 0 1.4-.4 1.7-2.5.2-1.6.4-4.6.4-6.7h-4.6c-.2 1.6-.2 1.6-.4 2.4-1.1 4.8-3.3 8-8.2 11.2-1.1-1.7-1.8-2.5-3.1-3.6 3.2-1.7 5-3.4 6.2-5.8.6-1.2.9-2.1 1.2-4.1h-3c-1.6 0-2.1 0-3.2.1v-4.1c1.2.2 1.6.2 3.3.2l3.5.1zm22.3-3.5c-.1.9-.1 1.5-.2 2.9l-.1 12.7c4.8-1.1 8.4-3.8 10.6-8.1 1.1 1.6 1.8 2.4 3.2 3.5-3.5 5.4-7.9 8.1-15 9.4-.9.2-1 .2-1.4.4l-2.1-2.5c.2-.5.3-.8.3-2l.1-13.3v-.4c0-1.1 0-1.9-.1-2.6h4.7zm15.6 7.7c1.1.2 2.4.2 4.9.2h11.4c2.4 0 3.3 0 4.9-.2v4.6c-1.1-.1-2.2-.1-4.9-.1h-11.4c-2.7 0-3.5 0-4.9.1v-4.6z"/><path d="M-162.8 498.4h-22.7v-4h7.3l-9.7-5.6-7.1 3v2.6h7.1v4h-18.8v-4h7v-12.6h-7.3v-4h19.2v3.9h-7.2v6.8l16.2-6.8h-6.6v-3.9h22.3v3.9h-7.3l-12.6 5.2 13.2 7.5h7v4zm45.3 0h-18.9v-4h6.6l-2.6-3.4h-14.4l-2.6 3.4h6.9v4h-17.8v-4h5.8l13-16.6h4.4l13 16.6h6.5v4h.1zm-17.4-10.8l-4.6-6-4.6 6h9.2zm47-1.1h-3.9v-4.7h-10.8v12.6h7.5v4h-19.6v-4h7.4v-12.6H-118v4.7h-4v-8.6h34.1v8.6zm22.2 12.9c-9.2 0-14.1-3.1-14.9-3.9l-.2 3.1h-3.9v-9h3.3c1.6 3 5.7 6.3 15.4 6.3 5.1 0 7.7-1.4 7.7-3 0-5.4-26.5 1.1-26.5-9.1 0-3.9 4.5-6.5 13.1-6.5 8 0 12.5 2.2 14 3.4l.1-2.8h3.6v8.4h-3.2c-.5-2.2-5.6-5.7-14.3-5.7-5.7 0-8.5 1.1-8.5 2.5 0 4.9 27.1-1.2 27.1 9.9 0 3.6-4.6 6.4-12.8 6.4zm59-17.6H-14v10.8c0 5.2-3.1 6.7-14.6 6.7-12.1 0-14.9-1.8-14.9-6.9v-10.7h-7.3v-3.9h19.7v3.9h-7.5v8.6c0 4 1.2 4.6 10.1 4.6 9 0 9.9-.7 9.9-4.4v-8.8h-7.3v-3.9h19.2v4zm-169.2 33.5c0 5.1-4 9.5-15.3 9.5-10.2 0-16.3-4.3-16.3-11.3 0-5.1 5-10.8 15-10.8 7.1 0 10.8 2.1 12.1 3v-2.5h4v8h-3.7c-1.3-3-6.7-4.9-11.9-4.9-5.4 0-10.6 2.4-10.6 7.2 0 4.8 3.6 7.6 11.5 7.6 9.1 0 11.3-3.1 11.3-5.8h3.9zm46-8.1h-7.3V518c0 5.2-3.1 6.7-14.6 6.7-12.1 0-14.9-1.8-14.9-6.9v-10.6h-7.3v-3.9h19.7v3.9h-7.5v8.6c0 4 1.2 4.6 10.1 4.6 9 0 9.9-.7 9.9-4.4v-8.8h-7.3v-3.9h19.2v3.9zm45.9 11.4c0 3.8-3 6.2-8.8 6.2-10.3 0-8.2-9.3-14.4-9.3h-8.8v4.3h7.2v4h-18.6v-4h6.8v-12.6h-6.8v-3.9h28.8c4.5 0 7.7 2.1 7.7 6 0 5-3.4 6.2-7.8 6.2h-1.4c2.8 1.6 3 5.4 8 5.4 3.2 0 4-1.3 4-2.5l4.1.2zm-15.6-11.4H-116v4.6h16.4c2.5 0 3.9-.7 3.9-2.3.1-1.5-1.1-2.3-3.9-2.3zm61.5 11.4c0 3.8-3 6.2-8.8 6.2-10.3 0-8.2-9.3-14.4-9.3h-8.8v4.3h7.2v4h-18.6v-4h6.8v-12.6h-6.8v-3.9h28.8c4.5 0 7.7 2.1 7.7 6 0 5-3.4 6.2-7.8 6.2h-1.4c2.8 1.6 3 5.4 8 5.4 3.2 0 4-1.3 4-2.5l4.1.2zm-15.7-11.4h-16.4v4.6h16.4c2.5 0 3.9-.7 3.9-2.3.1-1.5-.9-2.3-3.9-2.3zm56.3 0H-5l-12.2 8.1v4.5h7.1v4h-18.8v-4h6.7v-4.4l-13-8.2h-7.4v-3.9h21.9v3.9h-6.6l8.1 5 7.6-5h-6.2v-3.9H2.6l-.1 3.9z"/></svg>